%TF.GenerationSoftware,KiCad,Pcbnew,(6.0.4)*%
%TF.CreationDate,2022-05-12T22:13:07-04:00*%
%TF.ProjectId,Mouse V1,4d6f7573-6520-4563-912e-6b696361645f,V2.0*%
%TF.SameCoordinates,Original*%
%TF.FileFunction,Legend,Top*%
%TF.FilePolarity,Positive*%
%FSLAX46Y46*%
G04 Gerber Fmt 4.6, Leading zero omitted, Abs format (unit mm)*
G04 Created by KiCad (PCBNEW (6.0.4)) date 2022-05-12 22:13:07*
%MOMM*%
%LPD*%
G01*
G04 APERTURE LIST*
G04 Aperture macros list*
%AMRoundRect*
0 Rectangle with rounded corners*
0 $1 Rounding radius*
0 $2 $3 $4 $5 $6 $7 $8 $9 X,Y pos of 4 corners*
0 Add a 4 corners polygon primitive as box body*
4,1,4,$2,$3,$4,$5,$6,$7,$8,$9,$2,$3,0*
0 Add four circle primitives for the rounded corners*
1,1,$1+$1,$2,$3*
1,1,$1+$1,$4,$5*
1,1,$1+$1,$6,$7*
1,1,$1+$1,$8,$9*
0 Add four rect primitives between the rounded corners*
20,1,$1+$1,$2,$3,$4,$5,0*
20,1,$1+$1,$4,$5,$6,$7,0*
20,1,$1+$1,$6,$7,$8,$9,0*
20,1,$1+$1,$8,$9,$2,$3,0*%
G04 Aperture macros list end*
%ADD10C,0.150000*%
%ADD11C,0.120000*%
%ADD12C,0.127000*%
%ADD13C,0.200000*%
%ADD14C,0.100000*%
%ADD15C,0.239605*%
%ADD16RoundRect,0.225000X-0.250000X0.225000X-0.250000X-0.225000X0.250000X-0.225000X0.250000X0.225000X0*%
%ADD17R,0.740000X2.400000*%
%ADD18RoundRect,0.218750X0.218750X0.256250X-0.218750X0.256250X-0.218750X-0.256250X0.218750X-0.256250X0*%
%ADD19RoundRect,0.225000X0.225000X0.250000X-0.225000X0.250000X-0.225000X-0.250000X0.225000X-0.250000X0*%
%ADD20C,1.000000*%
%ADD21RoundRect,0.200000X0.200000X0.275000X-0.200000X0.275000X-0.200000X-0.275000X0.200000X-0.275000X0*%
%ADD22C,1.701800*%
%ADD23RoundRect,0.200000X-0.275000X0.200000X-0.275000X-0.200000X0.275000X-0.200000X0.275000X0.200000X0*%
%ADD24RoundRect,0.200000X-0.200000X-0.275000X0.200000X-0.275000X0.200000X0.275000X-0.200000X0.275000X0*%
%ADD25RoundRect,0.150000X0.512500X0.150000X-0.512500X0.150000X-0.512500X-0.150000X0.512500X-0.150000X0*%
%ADD26R,1.000000X1.800000*%
%ADD27RoundRect,0.218750X0.218750X0.381250X-0.218750X0.381250X-0.218750X-0.381250X0.218750X-0.381250X0*%
%ADD28RoundRect,0.225000X-0.225000X-0.250000X0.225000X-0.250000X0.225000X0.250000X-0.225000X0.250000X0*%
%ADD29RoundRect,0.050000X-0.050000X0.387500X-0.050000X-0.387500X0.050000X-0.387500X0.050000X0.387500X0*%
%ADD30RoundRect,0.050000X-0.387500X0.050000X-0.387500X-0.050000X0.387500X-0.050000X0.387500X0.050000X0*%
%ADD31R,2.600000X2.600000*%
%ADD32O,2.500000X1.500000*%
%ADD33C,1.500000*%
%ADD34RoundRect,0.050000X0.050000X-0.387500X0.050000X0.387500X-0.050000X0.387500X-0.050000X-0.387500X0*%
%ADD35RoundRect,0.050000X0.387500X-0.050000X0.387500X0.050000X-0.387500X0.050000X-0.387500X-0.050000X0*%
%ADD36RoundRect,0.225000X0.250000X-0.225000X0.250000X0.225000X-0.250000X0.225000X-0.250000X-0.225000X0*%
%ADD37RoundRect,0.055000X-0.055000X0.375000X-0.055000X-0.375000X0.055000X-0.375000X0.055000X0.375000X0*%
%ADD38RoundRect,0.055000X0.375000X0.055000X-0.375000X0.055000X-0.375000X-0.055000X0.375000X-0.055000X0*%
%ADD39RoundRect,0.250000X-0.350000X-0.625000X0.350000X-0.625000X0.350000X0.625000X-0.350000X0.625000X0*%
%ADD40O,1.200000X1.750000*%
%ADD41RoundRect,0.200000X0.275000X-0.200000X0.275000X0.200000X-0.275000X0.200000X-0.275000X-0.200000X0*%
%ADD42RoundRect,0.150000X0.150000X-0.825000X0.150000X0.825000X-0.150000X0.825000X-0.150000X-0.825000X0*%
%ADD43RoundRect,0.218750X-0.218750X-0.381250X0.218750X-0.381250X0.218750X0.381250X-0.218750X0.381250X0*%
%ADD44R,1.800000X1.000000*%
%ADD45R,2.000000X0.650000*%
%ADD46C,1.498600*%
%ADD47C,2.000000*%
%ADD48RoundRect,0.150000X-0.150000X0.512500X-0.150000X-0.512500X0.150000X-0.512500X0.150000X0.512500X0*%
%ADD49RoundRect,0.218750X-0.381250X0.218750X-0.381250X-0.218750X0.381250X-0.218750X0.381250X0.218750X0*%
%ADD50R,1.309599X0.558000*%
%ADD51RoundRect,0.218750X-0.218750X-0.256250X0.218750X-0.256250X0.218750X0.256250X-0.218750X0.256250X0*%
%ADD52R,1.000000X2.000000*%
%ADD53O,0.850000X0.600000*%
%ADD54C,0.600000*%
%ADD55R,0.520000X1.000000*%
%ADD56R,0.270000X1.000000*%
%ADD57O,1.300000X2.600000*%
%ADD58O,1.300000X2.300000*%
%ADD59R,0.650000X2.000000*%
%ADD60RoundRect,0.051000X0.352999X-0.051000X0.352999X0.051000X-0.352999X0.051000X-0.352999X-0.051000X0*%
%ADD61RoundRect,0.051000X-0.352999X0.051000X-0.352999X-0.051000X0.352999X-0.051000X0.352999X0.051000X0*%
%ADD62RoundRect,0.051000X-0.051000X-0.352999X0.051000X-0.352999X0.051000X0.352999X-0.051000X0.352999X0*%
%ADD63R,6.248400X6.248400*%
%ADD64C,0.800000*%
%ADD65R,0.900000X1.700000*%
%ADD66R,1.400000X1.400000*%
%ADD67C,1.400000*%
%ADD68C,0.900000*%
%ADD69C,1.100000*%
%ADD70O,3.500000X1.900000*%
G04 APERTURE END LIST*
D10*
X139000000Y-151800000D02*
X139000000Y-137000000D01*
X141000000Y-151800000D02*
X141000000Y-137000000D01*
%TO.C,C9*%
X135933333Y-110157142D02*
X135885714Y-110204761D01*
X135742857Y-110252380D01*
X135647619Y-110252380D01*
X135504761Y-110204761D01*
X135409523Y-110109523D01*
X135361904Y-110014285D01*
X135314285Y-109823809D01*
X135314285Y-109680952D01*
X135361904Y-109490476D01*
X135409523Y-109395238D01*
X135504761Y-109300000D01*
X135647619Y-109252380D01*
X135742857Y-109252380D01*
X135885714Y-109300000D01*
X135933333Y-109347619D01*
X136409523Y-110252380D02*
X136600000Y-110252380D01*
X136695238Y-110204761D01*
X136742857Y-110157142D01*
X136838095Y-110014285D01*
X136885714Y-109823809D01*
X136885714Y-109442857D01*
X136838095Y-109347619D01*
X136790476Y-109300000D01*
X136695238Y-109252380D01*
X136504761Y-109252380D01*
X136409523Y-109300000D01*
X136361904Y-109347619D01*
X136314285Y-109442857D01*
X136314285Y-109680952D01*
X136361904Y-109776190D01*
X136409523Y-109823809D01*
X136504761Y-109871428D01*
X136695238Y-109871428D01*
X136790476Y-109823809D01*
X136838095Y-109776190D01*
X136885714Y-109680952D01*
%TO.C,J1*%
X120817380Y-134433333D02*
X121531666Y-134433333D01*
X121674523Y-134480952D01*
X121769761Y-134576190D01*
X121817380Y-134719047D01*
X121817380Y-134814285D01*
X121817380Y-133433333D02*
X121817380Y-134004761D01*
X121817380Y-133719047D02*
X120817380Y-133719047D01*
X120960238Y-133814285D01*
X121055476Y-133909523D01*
X121103095Y-134004761D01*
%TO.C,1V2*%
X118580952Y-129652380D02*
X118009523Y-129652380D01*
X118295238Y-129652380D02*
X118295238Y-128652380D01*
X118200000Y-128795238D01*
X118104761Y-128890476D01*
X118009523Y-128938095D01*
X118866666Y-128652380D02*
X119200000Y-129652380D01*
X119533333Y-128652380D01*
X119819047Y-128747619D02*
X119866666Y-128700000D01*
X119961904Y-128652380D01*
X120200000Y-128652380D01*
X120295238Y-128700000D01*
X120342857Y-128747619D01*
X120390476Y-128842857D01*
X120390476Y-128938095D01*
X120342857Y-129080952D01*
X119771428Y-129652380D01*
X120390476Y-129652380D01*
%TO.C,G2*%
X142068971Y-136900000D02*
X141973733Y-136852380D01*
X141830876Y-136852380D01*
X141688018Y-136900000D01*
X141592780Y-136995238D01*
X141545161Y-137090476D01*
X141497542Y-137280952D01*
X141497542Y-137423809D01*
X141545161Y-137614285D01*
X141592780Y-137709523D01*
X141688018Y-137804761D01*
X141830876Y-137852380D01*
X141926114Y-137852380D01*
X142068971Y-137804761D01*
X142116590Y-137757142D01*
X142116590Y-137423809D01*
X141926114Y-137423809D01*
X142497542Y-136947619D02*
X142545161Y-136900000D01*
X142640399Y-136852380D01*
X142878495Y-136852380D01*
X142973733Y-136900000D01*
X143021352Y-136947619D01*
X143068971Y-137042857D01*
X143068971Y-137138095D01*
X143021352Y-137280952D01*
X142449923Y-137852380D01*
X143068971Y-137852380D01*
%TO.C,SW7*%
X145676666Y-81974761D02*
X145819523Y-82022380D01*
X146057619Y-82022380D01*
X146152857Y-81974761D01*
X146200476Y-81927142D01*
X146248095Y-81831904D01*
X146248095Y-81736666D01*
X146200476Y-81641428D01*
X146152857Y-81593809D01*
X146057619Y-81546190D01*
X145867142Y-81498571D01*
X145771904Y-81450952D01*
X145724285Y-81403333D01*
X145676666Y-81308095D01*
X145676666Y-81212857D01*
X145724285Y-81117619D01*
X145771904Y-81070000D01*
X145867142Y-81022380D01*
X146105238Y-81022380D01*
X146248095Y-81070000D01*
X146581428Y-81022380D02*
X146819523Y-82022380D01*
X147010000Y-81308095D01*
X147200476Y-82022380D01*
X147438571Y-81022380D01*
X147724285Y-81022380D02*
X148390952Y-81022380D01*
X147962380Y-82022380D01*
X143125714Y-87714761D02*
X143268571Y-87762380D01*
X143506666Y-87762380D01*
X143601904Y-87714761D01*
X143649523Y-87667142D01*
X143697142Y-87571904D01*
X143697142Y-87476666D01*
X143649523Y-87381428D01*
X143601904Y-87333809D01*
X143506666Y-87286190D01*
X143316190Y-87238571D01*
X143220952Y-87190952D01*
X143173333Y-87143333D01*
X143125714Y-87048095D01*
X143125714Y-86952857D01*
X143173333Y-86857619D01*
X143220952Y-86810000D01*
X143316190Y-86762380D01*
X143554285Y-86762380D01*
X143697142Y-86810000D01*
X144554285Y-87714761D02*
X144459047Y-87762380D01*
X144268571Y-87762380D01*
X144173333Y-87714761D01*
X144125714Y-87667142D01*
X144078095Y-87571904D01*
X144078095Y-87286190D01*
X144125714Y-87190952D01*
X144173333Y-87143333D01*
X144268571Y-87095714D01*
X144459047Y-87095714D01*
X144554285Y-87143333D01*
X144982857Y-87762380D02*
X144982857Y-87095714D01*
X144982857Y-87286190D02*
X145030476Y-87190952D01*
X145078095Y-87143333D01*
X145173333Y-87095714D01*
X145268571Y-87095714D01*
X145744761Y-87762380D02*
X145649523Y-87714761D01*
X145601904Y-87667142D01*
X145554285Y-87571904D01*
X145554285Y-87286190D01*
X145601904Y-87190952D01*
X145649523Y-87143333D01*
X145744761Y-87095714D01*
X145887619Y-87095714D01*
X145982857Y-87143333D01*
X146030476Y-87190952D01*
X146078095Y-87286190D01*
X146078095Y-87571904D01*
X146030476Y-87667142D01*
X145982857Y-87714761D01*
X145887619Y-87762380D01*
X145744761Y-87762380D01*
X146649523Y-87762380D02*
X146554285Y-87714761D01*
X146506666Y-87619523D01*
X146506666Y-86762380D01*
X147173333Y-87762380D02*
X147078095Y-87714761D01*
X147030476Y-87619523D01*
X147030476Y-86762380D01*
X148887619Y-87667142D02*
X148840000Y-87714761D01*
X148697142Y-87762380D01*
X148601904Y-87762380D01*
X148459047Y-87714761D01*
X148363809Y-87619523D01*
X148316190Y-87524285D01*
X148268571Y-87333809D01*
X148268571Y-87190952D01*
X148316190Y-87000476D01*
X148363809Y-86905238D01*
X148459047Y-86810000D01*
X148601904Y-86762380D01*
X148697142Y-86762380D01*
X148840000Y-86810000D01*
X148887619Y-86857619D01*
X149459047Y-87762380D02*
X149363809Y-87714761D01*
X149316190Y-87619523D01*
X149316190Y-86762380D01*
X149840000Y-87762380D02*
X149840000Y-87095714D01*
X149840000Y-86762380D02*
X149792380Y-86810000D01*
X149840000Y-86857619D01*
X149887619Y-86810000D01*
X149840000Y-86762380D01*
X149840000Y-86857619D01*
X150744761Y-87714761D02*
X150649523Y-87762380D01*
X150459047Y-87762380D01*
X150363809Y-87714761D01*
X150316190Y-87667142D01*
X150268571Y-87571904D01*
X150268571Y-87286190D01*
X150316190Y-87190952D01*
X150363809Y-87143333D01*
X150459047Y-87095714D01*
X150649523Y-87095714D01*
X150744761Y-87143333D01*
X151173333Y-87762380D02*
X151173333Y-86762380D01*
X151268571Y-87381428D02*
X151554285Y-87762380D01*
X151554285Y-87095714D02*
X151173333Y-87476666D01*
X142200000Y-83852380D02*
X142200000Y-84090476D01*
X141961904Y-83995238D02*
X142200000Y-84090476D01*
X142438095Y-83995238D01*
X142057142Y-84280952D02*
X142200000Y-84090476D01*
X142342857Y-84280952D01*
%TO.C,R6*%
X141152380Y-92966666D02*
X140676190Y-93300000D01*
X141152380Y-93538095D02*
X140152380Y-93538095D01*
X140152380Y-93157142D01*
X140200000Y-93061904D01*
X140247619Y-93014285D01*
X140342857Y-92966666D01*
X140485714Y-92966666D01*
X140580952Y-93014285D01*
X140628571Y-93061904D01*
X140676190Y-93157142D01*
X140676190Y-93538095D01*
X140152380Y-92109523D02*
X140152380Y-92300000D01*
X140200000Y-92395238D01*
X140247619Y-92442857D01*
X140390476Y-92538095D01*
X140580952Y-92585714D01*
X140961904Y-92585714D01*
X141057142Y-92538095D01*
X141104761Y-92490476D01*
X141152380Y-92395238D01*
X141152380Y-92204761D01*
X141104761Y-92109523D01*
X141057142Y-92061904D01*
X140961904Y-92014285D01*
X140723809Y-92014285D01*
X140628571Y-92061904D01*
X140580952Y-92109523D01*
X140533333Y-92204761D01*
X140533333Y-92395238D01*
X140580952Y-92490476D01*
X140628571Y-92538095D01*
X140723809Y-92585714D01*
%TO.C,R14*%
X118652380Y-119642857D02*
X118176190Y-119976190D01*
X118652380Y-120214285D02*
X117652380Y-120214285D01*
X117652380Y-119833333D01*
X117700000Y-119738095D01*
X117747619Y-119690476D01*
X117842857Y-119642857D01*
X117985714Y-119642857D01*
X118080952Y-119690476D01*
X118128571Y-119738095D01*
X118176190Y-119833333D01*
X118176190Y-120214285D01*
X118652380Y-118690476D02*
X118652380Y-119261904D01*
X118652380Y-118976190D02*
X117652380Y-118976190D01*
X117795238Y-119071428D01*
X117890476Y-119166666D01*
X117938095Y-119261904D01*
X117985714Y-117833333D02*
X118652380Y-117833333D01*
X117604761Y-118071428D02*
X118319047Y-118309523D01*
X118319047Y-117690476D01*
%TO.C,C12*%
X116357142Y-125642857D02*
X116404761Y-125690476D01*
X116452380Y-125833333D01*
X116452380Y-125928571D01*
X116404761Y-126071428D01*
X116309523Y-126166666D01*
X116214285Y-126214285D01*
X116023809Y-126261904D01*
X115880952Y-126261904D01*
X115690476Y-126214285D01*
X115595238Y-126166666D01*
X115500000Y-126071428D01*
X115452380Y-125928571D01*
X115452380Y-125833333D01*
X115500000Y-125690476D01*
X115547619Y-125642857D01*
X116452380Y-124690476D02*
X116452380Y-125261904D01*
X116452380Y-124976190D02*
X115452380Y-124976190D01*
X115595238Y-125071428D01*
X115690476Y-125166666D01*
X115738095Y-125261904D01*
X115547619Y-124309523D02*
X115500000Y-124261904D01*
X115452380Y-124166666D01*
X115452380Y-123928571D01*
X115500000Y-123833333D01*
X115547619Y-123785714D01*
X115642857Y-123738095D01*
X115738095Y-123738095D01*
X115880952Y-123785714D01*
X116452380Y-124357142D01*
X116452380Y-123738095D01*
%TO.C,U1*%
X125338095Y-96352380D02*
X125338095Y-97161904D01*
X125385714Y-97257142D01*
X125433333Y-97304761D01*
X125528571Y-97352380D01*
X125719047Y-97352380D01*
X125814285Y-97304761D01*
X125861904Y-97257142D01*
X125909523Y-97161904D01*
X125909523Y-96352380D01*
X126909523Y-97352380D02*
X126338095Y-97352380D01*
X126623809Y-97352380D02*
X126623809Y-96352380D01*
X126528571Y-96495238D01*
X126433333Y-96590476D01*
X126338095Y-96638095D01*
%TO.C,C28*%
X122157142Y-141257142D02*
X122109523Y-141304761D01*
X121966666Y-141352380D01*
X121871428Y-141352380D01*
X121728571Y-141304761D01*
X121633333Y-141209523D01*
X121585714Y-141114285D01*
X121538095Y-140923809D01*
X121538095Y-140780952D01*
X121585714Y-140590476D01*
X121633333Y-140495238D01*
X121728571Y-140400000D01*
X121871428Y-140352380D01*
X121966666Y-140352380D01*
X122109523Y-140400000D01*
X122157142Y-140447619D01*
X122538095Y-140447619D02*
X122585714Y-140400000D01*
X122680952Y-140352380D01*
X122919047Y-140352380D01*
X123014285Y-140400000D01*
X123061904Y-140447619D01*
X123109523Y-140542857D01*
X123109523Y-140638095D01*
X123061904Y-140780952D01*
X122490476Y-141352380D01*
X123109523Y-141352380D01*
X123680952Y-140780952D02*
X123585714Y-140733333D01*
X123538095Y-140685714D01*
X123490476Y-140590476D01*
X123490476Y-140542857D01*
X123538095Y-140447619D01*
X123585714Y-140400000D01*
X123680952Y-140352380D01*
X123871428Y-140352380D01*
X123966666Y-140400000D01*
X124014285Y-140447619D01*
X124061904Y-140542857D01*
X124061904Y-140590476D01*
X124014285Y-140685714D01*
X123966666Y-140733333D01*
X123871428Y-140780952D01*
X123680952Y-140780952D01*
X123585714Y-140828571D01*
X123538095Y-140876190D01*
X123490476Y-140971428D01*
X123490476Y-141161904D01*
X123538095Y-141257142D01*
X123585714Y-141304761D01*
X123680952Y-141352380D01*
X123871428Y-141352380D01*
X123966666Y-141304761D01*
X124014285Y-141257142D01*
X124061904Y-141161904D01*
X124061904Y-140971428D01*
X124014285Y-140876190D01*
X123966666Y-140828571D01*
X123871428Y-140780952D01*
%TO.C,Y2*%
X122423809Y-98426190D02*
X122423809Y-98902380D01*
X122090476Y-97902380D02*
X122423809Y-98426190D01*
X122757142Y-97902380D01*
X123042857Y-97997619D02*
X123090476Y-97950000D01*
X123185714Y-97902380D01*
X123423809Y-97902380D01*
X123519047Y-97950000D01*
X123566666Y-97997619D01*
X123614285Y-98092857D01*
X123614285Y-98188095D01*
X123566666Y-98330952D01*
X122995238Y-98902380D01*
X123614285Y-98902380D01*
%TO.C,C3*%
X134333333Y-105357142D02*
X134285714Y-105404761D01*
X134142857Y-105452380D01*
X134047619Y-105452380D01*
X133904761Y-105404761D01*
X133809523Y-105309523D01*
X133761904Y-105214285D01*
X133714285Y-105023809D01*
X133714285Y-104880952D01*
X133761904Y-104690476D01*
X133809523Y-104595238D01*
X133904761Y-104500000D01*
X134047619Y-104452380D01*
X134142857Y-104452380D01*
X134285714Y-104500000D01*
X134333333Y-104547619D01*
X134666666Y-104452380D02*
X135285714Y-104452380D01*
X134952380Y-104833333D01*
X135095238Y-104833333D01*
X135190476Y-104880952D01*
X135238095Y-104928571D01*
X135285714Y-105023809D01*
X135285714Y-105261904D01*
X135238095Y-105357142D01*
X135190476Y-105404761D01*
X135095238Y-105452380D01*
X134809523Y-105452380D01*
X134714285Y-105404761D01*
X134666666Y-105357142D01*
%TO.C,R28*%
X111257142Y-92802380D02*
X110923809Y-92326190D01*
X110685714Y-92802380D02*
X110685714Y-91802380D01*
X111066666Y-91802380D01*
X111161904Y-91850000D01*
X111209523Y-91897619D01*
X111257142Y-91992857D01*
X111257142Y-92135714D01*
X111209523Y-92230952D01*
X111161904Y-92278571D01*
X111066666Y-92326190D01*
X110685714Y-92326190D01*
X111638095Y-91897619D02*
X111685714Y-91850000D01*
X111780952Y-91802380D01*
X112019047Y-91802380D01*
X112114285Y-91850000D01*
X112161904Y-91897619D01*
X112209523Y-91992857D01*
X112209523Y-92088095D01*
X112161904Y-92230952D01*
X111590476Y-92802380D01*
X112209523Y-92802380D01*
X112780952Y-92230952D02*
X112685714Y-92183333D01*
X112638095Y-92135714D01*
X112590476Y-92040476D01*
X112590476Y-91992857D01*
X112638095Y-91897619D01*
X112685714Y-91850000D01*
X112780952Y-91802380D01*
X112971428Y-91802380D01*
X113066666Y-91850000D01*
X113114285Y-91897619D01*
X113161904Y-91992857D01*
X113161904Y-92040476D01*
X113114285Y-92135714D01*
X113066666Y-92183333D01*
X112971428Y-92230952D01*
X112780952Y-92230952D01*
X112685714Y-92278571D01*
X112638095Y-92326190D01*
X112590476Y-92421428D01*
X112590476Y-92611904D01*
X112638095Y-92707142D01*
X112685714Y-92754761D01*
X112780952Y-92802380D01*
X112971428Y-92802380D01*
X113066666Y-92754761D01*
X113114285Y-92707142D01*
X113161904Y-92611904D01*
X113161904Y-92421428D01*
X113114285Y-92326190D01*
X113066666Y-92278571D01*
X112971428Y-92230952D01*
%TO.C,AE1*%
X112616666Y-82616666D02*
X112616666Y-82140476D01*
X112902380Y-82711904D02*
X111902380Y-82378571D01*
X112902380Y-82045238D01*
X112378571Y-81711904D02*
X112378571Y-81378571D01*
X112902380Y-81235714D02*
X112902380Y-81711904D01*
X111902380Y-81711904D01*
X111902380Y-81235714D01*
X112902380Y-80283333D02*
X112902380Y-80854761D01*
X112902380Y-80569047D02*
X111902380Y-80569047D01*
X112045238Y-80664285D01*
X112140476Y-80759523D01*
X112188095Y-80854761D01*
%TO.C,SW8*%
X125865060Y-79305249D02*
X126008089Y-79352926D01*
X126246471Y-79352926D01*
X126341824Y-79305249D01*
X126389500Y-79257573D01*
X126437177Y-79162220D01*
X126437177Y-79066867D01*
X126389500Y-78971514D01*
X126341824Y-78923838D01*
X126246471Y-78876161D01*
X126055765Y-78828485D01*
X125960412Y-78780808D01*
X125912736Y-78733132D01*
X125865060Y-78637779D01*
X125865060Y-78542426D01*
X125912736Y-78447073D01*
X125960412Y-78399397D01*
X126055765Y-78351721D01*
X126294147Y-78351721D01*
X126437177Y-78399397D01*
X126770912Y-78351721D02*
X127009294Y-79352926D01*
X127200000Y-78637779D01*
X127390705Y-79352926D01*
X127629087Y-78351721D01*
X128153528Y-78780808D02*
X128058175Y-78733132D01*
X128010499Y-78685456D01*
X127962822Y-78590103D01*
X127962822Y-78542426D01*
X128010499Y-78447073D01*
X128058175Y-78399397D01*
X128153528Y-78351721D01*
X128344234Y-78351721D01*
X128439587Y-78399397D01*
X128487263Y-78447073D01*
X128534940Y-78542426D01*
X128534940Y-78590103D01*
X128487263Y-78685456D01*
X128439587Y-78733132D01*
X128344234Y-78780808D01*
X128153528Y-78780808D01*
X128058175Y-78828485D01*
X128010499Y-78876161D01*
X127962822Y-78971514D01*
X127962822Y-79162220D01*
X128010499Y-79257573D01*
X128058175Y-79305249D01*
X128153528Y-79352926D01*
X128344234Y-79352926D01*
X128439587Y-79305249D01*
X128487263Y-79257573D01*
X128534940Y-79162220D01*
X128534940Y-78971514D01*
X128487263Y-78876161D01*
X128439587Y-78828485D01*
X128344234Y-78780808D01*
%TO.C,U5*%
X119938095Y-86752380D02*
X119938095Y-87561904D01*
X119985714Y-87657142D01*
X120033333Y-87704761D01*
X120128571Y-87752380D01*
X120319047Y-87752380D01*
X120414285Y-87704761D01*
X120461904Y-87657142D01*
X120509523Y-87561904D01*
X120509523Y-86752380D01*
X121461904Y-86752380D02*
X120985714Y-86752380D01*
X120938095Y-87228571D01*
X120985714Y-87180952D01*
X121080952Y-87133333D01*
X121319047Y-87133333D01*
X121414285Y-87180952D01*
X121461904Y-87228571D01*
X121509523Y-87323809D01*
X121509523Y-87561904D01*
X121461904Y-87657142D01*
X121414285Y-87704761D01*
X121319047Y-87752380D01*
X121080952Y-87752380D01*
X120985714Y-87704761D01*
X120938095Y-87657142D01*
%TO.C,R16*%
X142882380Y-70142857D02*
X142406190Y-70476190D01*
X142882380Y-70714285D02*
X141882380Y-70714285D01*
X141882380Y-70333333D01*
X141930000Y-70238095D01*
X141977619Y-70190476D01*
X142072857Y-70142857D01*
X142215714Y-70142857D01*
X142310952Y-70190476D01*
X142358571Y-70238095D01*
X142406190Y-70333333D01*
X142406190Y-70714285D01*
X142882380Y-69190476D02*
X142882380Y-69761904D01*
X142882380Y-69476190D02*
X141882380Y-69476190D01*
X142025238Y-69571428D01*
X142120476Y-69666666D01*
X142168095Y-69761904D01*
X141882380Y-68333333D02*
X141882380Y-68523809D01*
X141930000Y-68619047D01*
X141977619Y-68666666D01*
X142120476Y-68761904D01*
X142310952Y-68809523D01*
X142691904Y-68809523D01*
X142787142Y-68761904D01*
X142834761Y-68714285D01*
X142882380Y-68619047D01*
X142882380Y-68428571D01*
X142834761Y-68333333D01*
X142787142Y-68285714D01*
X142691904Y-68238095D01*
X142453809Y-68238095D01*
X142358571Y-68285714D01*
X142310952Y-68333333D01*
X142263333Y-68428571D01*
X142263333Y-68619047D01*
X142310952Y-68714285D01*
X142358571Y-68761904D01*
X142453809Y-68809523D01*
%TO.C,CLK*%
X143507142Y-145345238D02*
X143554761Y-145392857D01*
X143602380Y-145535714D01*
X143602380Y-145630952D01*
X143554761Y-145773809D01*
X143459523Y-145869047D01*
X143364285Y-145916666D01*
X143173809Y-145964285D01*
X143030952Y-145964285D01*
X142840476Y-145916666D01*
X142745238Y-145869047D01*
X142650000Y-145773809D01*
X142602380Y-145630952D01*
X142602380Y-145535714D01*
X142650000Y-145392857D01*
X142697619Y-145345238D01*
X143602380Y-144440476D02*
X143602380Y-144916666D01*
X142602380Y-144916666D01*
X143602380Y-144107142D02*
X142602380Y-144107142D01*
X143602380Y-143535714D02*
X143030952Y-143964285D01*
X142602380Y-143535714D02*
X143173809Y-144107142D01*
%TO.C,AE2*%
X164433333Y-148246551D02*
X164433333Y-148722741D01*
X164147619Y-148151313D02*
X165147619Y-148484646D01*
X164147619Y-148817979D01*
X164671428Y-149151313D02*
X164671428Y-149484646D01*
X164147619Y-149627503D02*
X164147619Y-149151313D01*
X165147619Y-149151313D01*
X165147619Y-149627503D01*
X165052380Y-150008456D02*
X165100000Y-150056075D01*
X165147619Y-150151313D01*
X165147619Y-150389408D01*
X165100000Y-150484646D01*
X165052380Y-150532265D01*
X164957142Y-150579884D01*
X164861904Y-150579884D01*
X164719047Y-150532265D01*
X164147619Y-149960837D01*
X164147619Y-150579884D01*
%TO.C,U4*%
X127438095Y-143252380D02*
X127438095Y-144061904D01*
X127485714Y-144157142D01*
X127533333Y-144204761D01*
X127628571Y-144252380D01*
X127819047Y-144252380D01*
X127914285Y-144204761D01*
X127961904Y-144157142D01*
X128009523Y-144061904D01*
X128009523Y-143252380D01*
X128914285Y-143585714D02*
X128914285Y-144252380D01*
X128676190Y-143204761D02*
X128438095Y-143919047D01*
X129057142Y-143919047D01*
%TO.C,J3*%
X135166666Y-129152380D02*
X135166666Y-129866666D01*
X135119047Y-130009523D01*
X135023809Y-130104761D01*
X134880952Y-130152380D01*
X134785714Y-130152380D01*
X135547619Y-129152380D02*
X136166666Y-129152380D01*
X135833333Y-129533333D01*
X135976190Y-129533333D01*
X136071428Y-129580952D01*
X136119047Y-129628571D01*
X136166666Y-129723809D01*
X136166666Y-129961904D01*
X136119047Y-130057142D01*
X136071428Y-130104761D01*
X135976190Y-130152380D01*
X135690476Y-130152380D01*
X135595238Y-130104761D01*
X135547619Y-130057142D01*
%TO.C,R18*%
X130357142Y-150752380D02*
X130023809Y-150276190D01*
X129785714Y-150752380D02*
X129785714Y-149752380D01*
X130166666Y-149752380D01*
X130261904Y-149800000D01*
X130309523Y-149847619D01*
X130357142Y-149942857D01*
X130357142Y-150085714D01*
X130309523Y-150180952D01*
X130261904Y-150228571D01*
X130166666Y-150276190D01*
X129785714Y-150276190D01*
X131309523Y-150752380D02*
X130738095Y-150752380D01*
X131023809Y-150752380D02*
X131023809Y-149752380D01*
X130928571Y-149895238D01*
X130833333Y-149990476D01*
X130738095Y-150038095D01*
X131880952Y-150180952D02*
X131785714Y-150133333D01*
X131738095Y-150085714D01*
X131690476Y-149990476D01*
X131690476Y-149942857D01*
X131738095Y-149847619D01*
X131785714Y-149800000D01*
X131880952Y-149752380D01*
X132071428Y-149752380D01*
X132166666Y-149800000D01*
X132214285Y-149847619D01*
X132261904Y-149942857D01*
X132261904Y-149990476D01*
X132214285Y-150085714D01*
X132166666Y-150133333D01*
X132071428Y-150180952D01*
X131880952Y-150180952D01*
X131785714Y-150228571D01*
X131738095Y-150276190D01*
X131690476Y-150371428D01*
X131690476Y-150561904D01*
X131738095Y-150657142D01*
X131785714Y-150704761D01*
X131880952Y-150752380D01*
X132071428Y-150752380D01*
X132166666Y-150704761D01*
X132214285Y-150657142D01*
X132261904Y-150561904D01*
X132261904Y-150371428D01*
X132214285Y-150276190D01*
X132166666Y-150228571D01*
X132071428Y-150180952D01*
%TO.C,C16*%
X136957142Y-127257142D02*
X136909523Y-127304761D01*
X136766666Y-127352380D01*
X136671428Y-127352380D01*
X136528571Y-127304761D01*
X136433333Y-127209523D01*
X136385714Y-127114285D01*
X136338095Y-126923809D01*
X136338095Y-126780952D01*
X136385714Y-126590476D01*
X136433333Y-126495238D01*
X136528571Y-126400000D01*
X136671428Y-126352380D01*
X136766666Y-126352380D01*
X136909523Y-126400000D01*
X136957142Y-126447619D01*
X137909523Y-127352380D02*
X137338095Y-127352380D01*
X137623809Y-127352380D02*
X137623809Y-126352380D01*
X137528571Y-126495238D01*
X137433333Y-126590476D01*
X137338095Y-126638095D01*
X138766666Y-126352380D02*
X138576190Y-126352380D01*
X138480952Y-126400000D01*
X138433333Y-126447619D01*
X138338095Y-126590476D01*
X138290476Y-126780952D01*
X138290476Y-127161904D01*
X138338095Y-127257142D01*
X138385714Y-127304761D01*
X138480952Y-127352380D01*
X138671428Y-127352380D01*
X138766666Y-127304761D01*
X138814285Y-127257142D01*
X138861904Y-127161904D01*
X138861904Y-126923809D01*
X138814285Y-126828571D01*
X138766666Y-126780952D01*
X138671428Y-126733333D01*
X138480952Y-126733333D01*
X138385714Y-126780952D01*
X138338095Y-126828571D01*
X138290476Y-126923809D01*
%TO.C,1V8*%
X131735714Y-136539285D02*
X131307142Y-136539285D01*
X131521428Y-136539285D02*
X131521428Y-135789285D01*
X131450000Y-135896428D01*
X131378571Y-135967857D01*
X131307142Y-136003571D01*
X131950000Y-135789285D02*
X132200000Y-136539285D01*
X132450000Y-135789285D01*
X132807142Y-136110714D02*
X132735714Y-136075000D01*
X132700000Y-136039285D01*
X132664285Y-135967857D01*
X132664285Y-135932142D01*
X132700000Y-135860714D01*
X132735714Y-135825000D01*
X132807142Y-135789285D01*
X132950000Y-135789285D01*
X133021428Y-135825000D01*
X133057142Y-135860714D01*
X133092857Y-135932142D01*
X133092857Y-135967857D01*
X133057142Y-136039285D01*
X133021428Y-136075000D01*
X132950000Y-136110714D01*
X132807142Y-136110714D01*
X132735714Y-136146428D01*
X132700000Y-136182142D01*
X132664285Y-136253571D01*
X132664285Y-136396428D01*
X132700000Y-136467857D01*
X132735714Y-136503571D01*
X132807142Y-136539285D01*
X132950000Y-136539285D01*
X133021428Y-136503571D01*
X133057142Y-136467857D01*
X133092857Y-136396428D01*
X133092857Y-136253571D01*
X133057142Y-136182142D01*
X133021428Y-136146428D01*
X132950000Y-136110714D01*
%TO.C,C21*%
X136957142Y-146857142D02*
X136909523Y-146904761D01*
X136766666Y-146952380D01*
X136671428Y-146952380D01*
X136528571Y-146904761D01*
X136433333Y-146809523D01*
X136385714Y-146714285D01*
X136338095Y-146523809D01*
X136338095Y-146380952D01*
X136385714Y-146190476D01*
X136433333Y-146095238D01*
X136528571Y-146000000D01*
X136671428Y-145952380D01*
X136766666Y-145952380D01*
X136909523Y-146000000D01*
X136957142Y-146047619D01*
X137338095Y-146047619D02*
X137385714Y-146000000D01*
X137480952Y-145952380D01*
X137719047Y-145952380D01*
X137814285Y-146000000D01*
X137861904Y-146047619D01*
X137909523Y-146142857D01*
X137909523Y-146238095D01*
X137861904Y-146380952D01*
X137290476Y-146952380D01*
X137909523Y-146952380D01*
X138861904Y-146952380D02*
X138290476Y-146952380D01*
X138576190Y-146952380D02*
X138576190Y-145952380D01*
X138480952Y-146095238D01*
X138385714Y-146190476D01*
X138290476Y-146238095D01*
%TO.C,L2*%
X122433333Y-149852380D02*
X121957142Y-149852380D01*
X121957142Y-148852380D01*
X122719047Y-148947619D02*
X122766666Y-148900000D01*
X122861904Y-148852380D01*
X123100000Y-148852380D01*
X123195238Y-148900000D01*
X123242857Y-148947619D01*
X123290476Y-149042857D01*
X123290476Y-149138095D01*
X123242857Y-149280952D01*
X122671428Y-149852380D01*
X123290476Y-149852380D01*
%TO.C,SW3*%
X152766666Y-78604761D02*
X152909523Y-78652380D01*
X153147619Y-78652380D01*
X153242857Y-78604761D01*
X153290476Y-78557142D01*
X153338095Y-78461904D01*
X153338095Y-78366666D01*
X153290476Y-78271428D01*
X153242857Y-78223809D01*
X153147619Y-78176190D01*
X152957142Y-78128571D01*
X152861904Y-78080952D01*
X152814285Y-78033333D01*
X152766666Y-77938095D01*
X152766666Y-77842857D01*
X152814285Y-77747619D01*
X152861904Y-77700000D01*
X152957142Y-77652380D01*
X153195238Y-77652380D01*
X153338095Y-77700000D01*
X153671428Y-77652380D02*
X153909523Y-78652380D01*
X154100000Y-77938095D01*
X154290476Y-78652380D01*
X154528571Y-77652380D01*
X154814285Y-77652380D02*
X155433333Y-77652380D01*
X155100000Y-78033333D01*
X155242857Y-78033333D01*
X155338095Y-78080952D01*
X155385714Y-78128571D01*
X155433333Y-78223809D01*
X155433333Y-78461904D01*
X155385714Y-78557142D01*
X155338095Y-78604761D01*
X155242857Y-78652380D01*
X154957142Y-78652380D01*
X154861904Y-78604761D01*
X154814285Y-78557142D01*
X146131428Y-78492380D02*
X146131428Y-77492380D01*
X146464761Y-78206666D01*
X146798095Y-77492380D01*
X146798095Y-78492380D01*
X147417142Y-78492380D02*
X147321904Y-78444761D01*
X147274285Y-78397142D01*
X147226666Y-78301904D01*
X147226666Y-78016190D01*
X147274285Y-77920952D01*
X147321904Y-77873333D01*
X147417142Y-77825714D01*
X147560000Y-77825714D01*
X147655238Y-77873333D01*
X147702857Y-77920952D01*
X147750476Y-78016190D01*
X147750476Y-78301904D01*
X147702857Y-78397142D01*
X147655238Y-78444761D01*
X147560000Y-78492380D01*
X147417142Y-78492380D01*
X148607619Y-77825714D02*
X148607619Y-78492380D01*
X148179047Y-77825714D02*
X148179047Y-78349523D01*
X148226666Y-78444761D01*
X148321904Y-78492380D01*
X148464761Y-78492380D01*
X148560000Y-78444761D01*
X148607619Y-78397142D01*
X149036190Y-78444761D02*
X149131428Y-78492380D01*
X149321904Y-78492380D01*
X149417142Y-78444761D01*
X149464761Y-78349523D01*
X149464761Y-78301904D01*
X149417142Y-78206666D01*
X149321904Y-78159047D01*
X149179047Y-78159047D01*
X149083809Y-78111428D01*
X149036190Y-78016190D01*
X149036190Y-77968571D01*
X149083809Y-77873333D01*
X149179047Y-77825714D01*
X149321904Y-77825714D01*
X149417142Y-77873333D01*
X150274285Y-78444761D02*
X150179047Y-78492380D01*
X149988571Y-78492380D01*
X149893333Y-78444761D01*
X149845714Y-78349523D01*
X149845714Y-77968571D01*
X149893333Y-77873333D01*
X149988571Y-77825714D01*
X150179047Y-77825714D01*
X150274285Y-77873333D01*
X150321904Y-77968571D01*
X150321904Y-78063809D01*
X149845714Y-78159047D01*
X151464761Y-77587619D02*
X151512380Y-77540000D01*
X151607619Y-77492380D01*
X151845714Y-77492380D01*
X151940952Y-77540000D01*
X151988571Y-77587619D01*
X152036190Y-77682857D01*
X152036190Y-77778095D01*
X151988571Y-77920952D01*
X151417142Y-78492380D01*
X152036190Y-78492380D01*
%TO.C,SW6*%
X135566666Y-103904761D02*
X135709523Y-103952380D01*
X135947619Y-103952380D01*
X136042857Y-103904761D01*
X136090476Y-103857142D01*
X136138095Y-103761904D01*
X136138095Y-103666666D01*
X136090476Y-103571428D01*
X136042857Y-103523809D01*
X135947619Y-103476190D01*
X135757142Y-103428571D01*
X135661904Y-103380952D01*
X135614285Y-103333333D01*
X135566666Y-103238095D01*
X135566666Y-103142857D01*
X135614285Y-103047619D01*
X135661904Y-103000000D01*
X135757142Y-102952380D01*
X135995238Y-102952380D01*
X136138095Y-103000000D01*
X136471428Y-102952380D02*
X136709523Y-103952380D01*
X136900000Y-103238095D01*
X137090476Y-103952380D01*
X137328571Y-102952380D01*
X138138095Y-102952380D02*
X137947619Y-102952380D01*
X137852380Y-103000000D01*
X137804761Y-103047619D01*
X137709523Y-103190476D01*
X137661904Y-103380952D01*
X137661904Y-103761904D01*
X137709523Y-103857142D01*
X137757142Y-103904761D01*
X137852380Y-103952380D01*
X138042857Y-103952380D01*
X138138095Y-103904761D01*
X138185714Y-103857142D01*
X138233333Y-103761904D01*
X138233333Y-103523809D01*
X138185714Y-103428571D01*
X138138095Y-103380952D01*
X138042857Y-103333333D01*
X137852380Y-103333333D01*
X137757142Y-103380952D01*
X137709523Y-103428571D01*
X137661904Y-103523809D01*
X133200000Y-101752380D02*
X133200000Y-100752380D01*
X133438095Y-100752380D01*
X133580952Y-100800000D01*
X133676190Y-100895238D01*
X133723809Y-100990476D01*
X133771428Y-101180952D01*
X133771428Y-101323809D01*
X133723809Y-101514285D01*
X133676190Y-101609523D01*
X133580952Y-101704761D01*
X133438095Y-101752380D01*
X133200000Y-101752380D01*
X134200000Y-101752380D02*
X134200000Y-100752380D01*
X134580952Y-100752380D01*
X134676190Y-100800000D01*
X134723809Y-100847619D01*
X134771428Y-100942857D01*
X134771428Y-101085714D01*
X134723809Y-101180952D01*
X134676190Y-101228571D01*
X134580952Y-101276190D01*
X134200000Y-101276190D01*
X135200000Y-101752380D02*
X135200000Y-100752380D01*
%TO.C,C23*%
X136757142Y-138242857D02*
X136804761Y-138290476D01*
X136852380Y-138433333D01*
X136852380Y-138528571D01*
X136804761Y-138671428D01*
X136709523Y-138766666D01*
X136614285Y-138814285D01*
X136423809Y-138861904D01*
X136280952Y-138861904D01*
X136090476Y-138814285D01*
X135995238Y-138766666D01*
X135900000Y-138671428D01*
X135852380Y-138528571D01*
X135852380Y-138433333D01*
X135900000Y-138290476D01*
X135947619Y-138242857D01*
X135947619Y-137861904D02*
X135900000Y-137814285D01*
X135852380Y-137719047D01*
X135852380Y-137480952D01*
X135900000Y-137385714D01*
X135947619Y-137338095D01*
X136042857Y-137290476D01*
X136138095Y-137290476D01*
X136280952Y-137338095D01*
X136852380Y-137909523D01*
X136852380Y-137290476D01*
X135852380Y-136957142D02*
X135852380Y-136338095D01*
X136233333Y-136671428D01*
X136233333Y-136528571D01*
X136280952Y-136433333D01*
X136328571Y-136385714D01*
X136423809Y-136338095D01*
X136661904Y-136338095D01*
X136757142Y-136385714D01*
X136804761Y-136433333D01*
X136852380Y-136528571D01*
X136852380Y-136814285D01*
X136804761Y-136909523D01*
X136757142Y-136957142D01*
%TO.C,R15*%
X126452380Y-70142857D02*
X125976190Y-70476190D01*
X126452380Y-70714285D02*
X125452380Y-70714285D01*
X125452380Y-70333333D01*
X125500000Y-70238095D01*
X125547619Y-70190476D01*
X125642857Y-70142857D01*
X125785714Y-70142857D01*
X125880952Y-70190476D01*
X125928571Y-70238095D01*
X125976190Y-70333333D01*
X125976190Y-70714285D01*
X126452380Y-69190476D02*
X126452380Y-69761904D01*
X126452380Y-69476190D02*
X125452380Y-69476190D01*
X125595238Y-69571428D01*
X125690476Y-69666666D01*
X125738095Y-69761904D01*
X125452380Y-68285714D02*
X125452380Y-68761904D01*
X125928571Y-68809523D01*
X125880952Y-68761904D01*
X125833333Y-68666666D01*
X125833333Y-68428571D01*
X125880952Y-68333333D01*
X125928571Y-68285714D01*
X126023809Y-68238095D01*
X126261904Y-68238095D01*
X126357142Y-68285714D01*
X126404761Y-68333333D01*
X126452380Y-68428571D01*
X126452380Y-68666666D01*
X126404761Y-68761904D01*
X126357142Y-68809523D01*
%TO.C,FB4*%
X136766666Y-148628571D02*
X136433333Y-148628571D01*
X136433333Y-149152380D02*
X136433333Y-148152380D01*
X136909523Y-148152380D01*
X137623809Y-148628571D02*
X137766666Y-148676190D01*
X137814285Y-148723809D01*
X137861904Y-148819047D01*
X137861904Y-148961904D01*
X137814285Y-149057142D01*
X137766666Y-149104761D01*
X137671428Y-149152380D01*
X137290476Y-149152380D01*
X137290476Y-148152380D01*
X137623809Y-148152380D01*
X137719047Y-148200000D01*
X137766666Y-148247619D01*
X137814285Y-148342857D01*
X137814285Y-148438095D01*
X137766666Y-148533333D01*
X137719047Y-148580952D01*
X137623809Y-148628571D01*
X137290476Y-148628571D01*
X138719047Y-148485714D02*
X138719047Y-149152380D01*
X138480952Y-148104761D02*
X138242857Y-148819047D01*
X138861904Y-148819047D01*
%TO.C,C8*%
X136707142Y-105216666D02*
X136754761Y-105264285D01*
X136802380Y-105407142D01*
X136802380Y-105502380D01*
X136754761Y-105645238D01*
X136659523Y-105740476D01*
X136564285Y-105788095D01*
X136373809Y-105835714D01*
X136230952Y-105835714D01*
X136040476Y-105788095D01*
X135945238Y-105740476D01*
X135850000Y-105645238D01*
X135802380Y-105502380D01*
X135802380Y-105407142D01*
X135850000Y-105264285D01*
X135897619Y-105216666D01*
X136230952Y-104645238D02*
X136183333Y-104740476D01*
X136135714Y-104788095D01*
X136040476Y-104835714D01*
X135992857Y-104835714D01*
X135897619Y-104788095D01*
X135850000Y-104740476D01*
X135802380Y-104645238D01*
X135802380Y-104454761D01*
X135850000Y-104359523D01*
X135897619Y-104311904D01*
X135992857Y-104264285D01*
X136040476Y-104264285D01*
X136135714Y-104311904D01*
X136183333Y-104359523D01*
X136230952Y-104454761D01*
X136230952Y-104645238D01*
X136278571Y-104740476D01*
X136326190Y-104788095D01*
X136421428Y-104835714D01*
X136611904Y-104835714D01*
X136707142Y-104788095D01*
X136754761Y-104740476D01*
X136802380Y-104645238D01*
X136802380Y-104454761D01*
X136754761Y-104359523D01*
X136707142Y-104311904D01*
X136611904Y-104264285D01*
X136421428Y-104264285D01*
X136326190Y-104311904D01*
X136278571Y-104359523D01*
X136230952Y-104454761D01*
%TO.C,C14*%
X118257142Y-125642857D02*
X118304761Y-125690476D01*
X118352380Y-125833333D01*
X118352380Y-125928571D01*
X118304761Y-126071428D01*
X118209523Y-126166666D01*
X118114285Y-126214285D01*
X117923809Y-126261904D01*
X117780952Y-126261904D01*
X117590476Y-126214285D01*
X117495238Y-126166666D01*
X117400000Y-126071428D01*
X117352380Y-125928571D01*
X117352380Y-125833333D01*
X117400000Y-125690476D01*
X117447619Y-125642857D01*
X118352380Y-124690476D02*
X118352380Y-125261904D01*
X118352380Y-124976190D02*
X117352380Y-124976190D01*
X117495238Y-125071428D01*
X117590476Y-125166666D01*
X117638095Y-125261904D01*
X117685714Y-123833333D02*
X118352380Y-123833333D01*
X117304761Y-124071428D02*
X118019047Y-124309523D01*
X118019047Y-123690476D01*
%TO.C,C13*%
X136057142Y-128242857D02*
X136104761Y-128290476D01*
X136152380Y-128433333D01*
X136152380Y-128528571D01*
X136104761Y-128671428D01*
X136009523Y-128766666D01*
X135914285Y-128814285D01*
X135723809Y-128861904D01*
X135580952Y-128861904D01*
X135390476Y-128814285D01*
X135295238Y-128766666D01*
X135200000Y-128671428D01*
X135152380Y-128528571D01*
X135152380Y-128433333D01*
X135200000Y-128290476D01*
X135247619Y-128242857D01*
X136152380Y-127290476D02*
X136152380Y-127861904D01*
X136152380Y-127576190D02*
X135152380Y-127576190D01*
X135295238Y-127671428D01*
X135390476Y-127766666D01*
X135438095Y-127861904D01*
X135152380Y-126957142D02*
X135152380Y-126338095D01*
X135533333Y-126671428D01*
X135533333Y-126528571D01*
X135580952Y-126433333D01*
X135628571Y-126385714D01*
X135723809Y-126338095D01*
X135961904Y-126338095D01*
X136057142Y-126385714D01*
X136104761Y-126433333D01*
X136152380Y-126528571D01*
X136152380Y-126814285D01*
X136104761Y-126909523D01*
X136057142Y-126957142D01*
%TO.C,C36*%
X116057142Y-96307142D02*
X116009523Y-96354761D01*
X115866666Y-96402380D01*
X115771428Y-96402380D01*
X115628571Y-96354761D01*
X115533333Y-96259523D01*
X115485714Y-96164285D01*
X115438095Y-95973809D01*
X115438095Y-95830952D01*
X115485714Y-95640476D01*
X115533333Y-95545238D01*
X115628571Y-95450000D01*
X115771428Y-95402380D01*
X115866666Y-95402380D01*
X116009523Y-95450000D01*
X116057142Y-95497619D01*
X116390476Y-95402380D02*
X117009523Y-95402380D01*
X116676190Y-95783333D01*
X116819047Y-95783333D01*
X116914285Y-95830952D01*
X116961904Y-95878571D01*
X117009523Y-95973809D01*
X117009523Y-96211904D01*
X116961904Y-96307142D01*
X116914285Y-96354761D01*
X116819047Y-96402380D01*
X116533333Y-96402380D01*
X116438095Y-96354761D01*
X116390476Y-96307142D01*
X117866666Y-95402380D02*
X117676190Y-95402380D01*
X117580952Y-95450000D01*
X117533333Y-95497619D01*
X117438095Y-95640476D01*
X117390476Y-95830952D01*
X117390476Y-96211904D01*
X117438095Y-96307142D01*
X117485714Y-96354761D01*
X117580952Y-96402380D01*
X117771428Y-96402380D01*
X117866666Y-96354761D01*
X117914285Y-96307142D01*
X117961904Y-96211904D01*
X117961904Y-95973809D01*
X117914285Y-95878571D01*
X117866666Y-95830952D01*
X117771428Y-95783333D01*
X117580952Y-95783333D01*
X117485714Y-95830952D01*
X117438095Y-95878571D01*
X117390476Y-95973809D01*
%TO.C,SW5*%
X114566666Y-118604761D02*
X114709523Y-118652380D01*
X114947619Y-118652380D01*
X115042857Y-118604761D01*
X115090476Y-118557142D01*
X115138095Y-118461904D01*
X115138095Y-118366666D01*
X115090476Y-118271428D01*
X115042857Y-118223809D01*
X114947619Y-118176190D01*
X114757142Y-118128571D01*
X114661904Y-118080952D01*
X114614285Y-118033333D01*
X114566666Y-117938095D01*
X114566666Y-117842857D01*
X114614285Y-117747619D01*
X114661904Y-117700000D01*
X114757142Y-117652380D01*
X114995238Y-117652380D01*
X115138095Y-117700000D01*
X115471428Y-117652380D02*
X115709523Y-118652380D01*
X115900000Y-117938095D01*
X116090476Y-118652380D01*
X116328571Y-117652380D01*
X117185714Y-117652380D02*
X116709523Y-117652380D01*
X116661904Y-118128571D01*
X116709523Y-118080952D01*
X116804761Y-118033333D01*
X117042857Y-118033333D01*
X117138095Y-118080952D01*
X117185714Y-118128571D01*
X117233333Y-118223809D01*
X117233333Y-118461904D01*
X117185714Y-118557142D01*
X117138095Y-118604761D01*
X117042857Y-118652380D01*
X116804761Y-118652380D01*
X116709523Y-118604761D01*
X116661904Y-118557142D01*
X115641428Y-114422380D02*
X115641428Y-113422380D01*
X115974761Y-114136666D01*
X116308095Y-113422380D01*
X116308095Y-114422380D01*
X116927142Y-114422380D02*
X116831904Y-114374761D01*
X116784285Y-114327142D01*
X116736666Y-114231904D01*
X116736666Y-113946190D01*
X116784285Y-113850952D01*
X116831904Y-113803333D01*
X116927142Y-113755714D01*
X117070000Y-113755714D01*
X117165238Y-113803333D01*
X117212857Y-113850952D01*
X117260476Y-113946190D01*
X117260476Y-114231904D01*
X117212857Y-114327142D01*
X117165238Y-114374761D01*
X117070000Y-114422380D01*
X116927142Y-114422380D01*
X118117619Y-113755714D02*
X118117619Y-114422380D01*
X117689047Y-113755714D02*
X117689047Y-114279523D01*
X117736666Y-114374761D01*
X117831904Y-114422380D01*
X117974761Y-114422380D01*
X118070000Y-114374761D01*
X118117619Y-114327142D01*
X118546190Y-114374761D02*
X118641428Y-114422380D01*
X118831904Y-114422380D01*
X118927142Y-114374761D01*
X118974761Y-114279523D01*
X118974761Y-114231904D01*
X118927142Y-114136666D01*
X118831904Y-114089047D01*
X118689047Y-114089047D01*
X118593809Y-114041428D01*
X118546190Y-113946190D01*
X118546190Y-113898571D01*
X118593809Y-113803333D01*
X118689047Y-113755714D01*
X118831904Y-113755714D01*
X118927142Y-113803333D01*
X119784285Y-114374761D02*
X119689047Y-114422380D01*
X119498571Y-114422380D01*
X119403333Y-114374761D01*
X119355714Y-114279523D01*
X119355714Y-113898571D01*
X119403333Y-113803333D01*
X119498571Y-113755714D01*
X119689047Y-113755714D01*
X119784285Y-113803333D01*
X119831904Y-113898571D01*
X119831904Y-113993809D01*
X119355714Y-114089047D01*
X121450952Y-113755714D02*
X121450952Y-114422380D01*
X121212857Y-113374761D02*
X120974761Y-114089047D01*
X121593809Y-114089047D01*
%TO.C,C17*%
X136867857Y-115982142D02*
X136903571Y-116017857D01*
X136939285Y-116125000D01*
X136939285Y-116196428D01*
X136903571Y-116303571D01*
X136832142Y-116375000D01*
X136760714Y-116410714D01*
X136617857Y-116446428D01*
X136510714Y-116446428D01*
X136367857Y-116410714D01*
X136296428Y-116375000D01*
X136225000Y-116303571D01*
X136189285Y-116196428D01*
X136189285Y-116125000D01*
X136225000Y-116017857D01*
X136260714Y-115982142D01*
X136939285Y-115267857D02*
X136939285Y-115696428D01*
X136939285Y-115482142D02*
X136189285Y-115482142D01*
X136296428Y-115553571D01*
X136367857Y-115625000D01*
X136403571Y-115696428D01*
X136189285Y-115017857D02*
X136189285Y-114517857D01*
X136939285Y-114839285D01*
%TO.C,FB5*%
X138342857Y-110666666D02*
X138342857Y-110933333D01*
X138761904Y-110933333D02*
X137961904Y-110933333D01*
X137961904Y-110552380D01*
X138342857Y-109980952D02*
X138380952Y-109866666D01*
X138419047Y-109828571D01*
X138495238Y-109790476D01*
X138609523Y-109790476D01*
X138685714Y-109828571D01*
X138723809Y-109866666D01*
X138761904Y-109942857D01*
X138761904Y-110247619D01*
X137961904Y-110247619D01*
X137961904Y-109980952D01*
X138000000Y-109904761D01*
X138038095Y-109866666D01*
X138114285Y-109828571D01*
X138190476Y-109828571D01*
X138266666Y-109866666D01*
X138304761Y-109904761D01*
X138342857Y-109980952D01*
X138342857Y-110247619D01*
X137961904Y-109066666D02*
X137961904Y-109447619D01*
X138342857Y-109485714D01*
X138304761Y-109447619D01*
X138266666Y-109371428D01*
X138266666Y-109180952D01*
X138304761Y-109104761D01*
X138342857Y-109066666D01*
X138419047Y-109028571D01*
X138609523Y-109028571D01*
X138685714Y-109066666D01*
X138723809Y-109104761D01*
X138761904Y-109180952D01*
X138761904Y-109371428D01*
X138723809Y-109447619D01*
X138685714Y-109485714D01*
%TO.C,D5*%
X153900000Y-140652380D02*
X153900000Y-140890476D01*
X153661904Y-140795238D02*
X153900000Y-140890476D01*
X154138095Y-140795238D01*
X153757142Y-141080952D02*
X153900000Y-140890476D01*
X154042857Y-141080952D01*
X153900000Y-140652380D02*
X153900000Y-140890476D01*
X153661904Y-140795238D02*
X153900000Y-140890476D01*
X154138095Y-140795238D01*
X153757142Y-141080952D02*
X153900000Y-140890476D01*
X154042857Y-141080952D01*
%TO.C,D4*%
X139061904Y-79052380D02*
X139061904Y-78052380D01*
X139300000Y-78052380D01*
X139442857Y-78100000D01*
X139538095Y-78195238D01*
X139585714Y-78290476D01*
X139633333Y-78480952D01*
X139633333Y-78623809D01*
X139585714Y-78814285D01*
X139538095Y-78909523D01*
X139442857Y-79004761D01*
X139300000Y-79052380D01*
X139061904Y-79052380D01*
X140490476Y-78385714D02*
X140490476Y-79052380D01*
X140252380Y-78004761D02*
X140014285Y-78719047D01*
X140633333Y-78719047D01*
X143157142Y-78066666D02*
X143204761Y-78114285D01*
X143252380Y-78257142D01*
X143252380Y-78352380D01*
X143204761Y-78495238D01*
X143109523Y-78590476D01*
X143014285Y-78638095D01*
X142823809Y-78685714D01*
X142680952Y-78685714D01*
X142490476Y-78638095D01*
X142395238Y-78590476D01*
X142300000Y-78495238D01*
X142252380Y-78352380D01*
X142252380Y-78257142D01*
X142300000Y-78114285D01*
X142347619Y-78066666D01*
X143252380Y-77638095D02*
X142252380Y-77638095D01*
X142966666Y-77304761D01*
X142252380Y-76971428D01*
X143252380Y-76971428D01*
X143252380Y-75971428D02*
X143252380Y-76542857D01*
X143252380Y-76257142D02*
X142252380Y-76257142D01*
X142395238Y-76352380D01*
X142490476Y-76447619D01*
X142538095Y-76542857D01*
X142347619Y-75590476D02*
X142300000Y-75542857D01*
X142252380Y-75447619D01*
X142252380Y-75209523D01*
X142300000Y-75114285D01*
X142347619Y-75066666D01*
X142442857Y-75019047D01*
X142538095Y-75019047D01*
X142680952Y-75066666D01*
X143252380Y-75638095D01*
X143252380Y-75019047D01*
X142252380Y-74685714D02*
X142252380Y-74066666D01*
X142633333Y-74400000D01*
X142633333Y-74257142D01*
X142680952Y-74161904D01*
X142728571Y-74114285D01*
X142823809Y-74066666D01*
X143061904Y-74066666D01*
X143157142Y-74114285D01*
X143204761Y-74161904D01*
X143252380Y-74257142D01*
X143252380Y-74542857D01*
X143204761Y-74638095D01*
X143157142Y-74685714D01*
X143252380Y-73114285D02*
X143252380Y-73685714D01*
X143252380Y-73400000D02*
X142252380Y-73400000D01*
X142395238Y-73495238D01*
X142490476Y-73590476D01*
X142538095Y-73685714D01*
X138301400Y-72801380D02*
X138301400Y-73039476D01*
X138063304Y-72944238D02*
X138301400Y-73039476D01*
X138539495Y-72944238D01*
X138158542Y-73229952D02*
X138301400Y-73039476D01*
X138444257Y-73229952D01*
X138301400Y-72801380D02*
X138301400Y-73039476D01*
X138063304Y-72944238D02*
X138301400Y-73039476D01*
X138539495Y-72944238D01*
X138158542Y-73229952D02*
X138301400Y-73039476D01*
X138444257Y-73229952D01*
%TO.C,L4*%
X115083333Y-80202380D02*
X114607142Y-80202380D01*
X114607142Y-79202380D01*
X115845238Y-79535714D02*
X115845238Y-80202380D01*
X115607142Y-79154761D02*
X115369047Y-79869047D01*
X115988095Y-79869047D01*
%TO.C,C5*%
X120433333Y-106257142D02*
X120385714Y-106304761D01*
X120242857Y-106352380D01*
X120147619Y-106352380D01*
X120004761Y-106304761D01*
X119909523Y-106209523D01*
X119861904Y-106114285D01*
X119814285Y-105923809D01*
X119814285Y-105780952D01*
X119861904Y-105590476D01*
X119909523Y-105495238D01*
X120004761Y-105400000D01*
X120147619Y-105352380D01*
X120242857Y-105352380D01*
X120385714Y-105400000D01*
X120433333Y-105447619D01*
X121338095Y-105352380D02*
X120861904Y-105352380D01*
X120814285Y-105828571D01*
X120861904Y-105780952D01*
X120957142Y-105733333D01*
X121195238Y-105733333D01*
X121290476Y-105780952D01*
X121338095Y-105828571D01*
X121385714Y-105923809D01*
X121385714Y-106161904D01*
X121338095Y-106257142D01*
X121290476Y-106304761D01*
X121195238Y-106352380D01*
X120957142Y-106352380D01*
X120861904Y-106304761D01*
X120814285Y-106257142D01*
%TO.C,J2*%
X140066666Y-66452380D02*
X140066666Y-67166666D01*
X140019047Y-67309523D01*
X139923809Y-67404761D01*
X139780952Y-67452380D01*
X139685714Y-67452380D01*
X140495238Y-66547619D02*
X140542857Y-66500000D01*
X140638095Y-66452380D01*
X140876190Y-66452380D01*
X140971428Y-66500000D01*
X141019047Y-66547619D01*
X141066666Y-66642857D01*
X141066666Y-66738095D01*
X141019047Y-66880952D01*
X140447619Y-67452380D01*
X141066666Y-67452380D01*
%TO.C,DIO*%
X142302380Y-144673809D02*
X141302380Y-144673809D01*
X141302380Y-144435714D01*
X141350000Y-144292857D01*
X141445238Y-144197619D01*
X141540476Y-144150000D01*
X141730952Y-144102380D01*
X141873809Y-144102380D01*
X142064285Y-144150000D01*
X142159523Y-144197619D01*
X142254761Y-144292857D01*
X142302380Y-144435714D01*
X142302380Y-144673809D01*
X142302380Y-143673809D02*
X141302380Y-143673809D01*
X141302380Y-143007142D02*
X141302380Y-142816666D01*
X141350000Y-142721428D01*
X141445238Y-142626190D01*
X141635714Y-142578571D01*
X141969047Y-142578571D01*
X142159523Y-142626190D01*
X142254761Y-142721428D01*
X142302380Y-142816666D01*
X142302380Y-143007142D01*
X142254761Y-143102380D01*
X142159523Y-143197619D01*
X141969047Y-143245238D01*
X141635714Y-143245238D01*
X141445238Y-143197619D01*
X141350000Y-143102380D01*
X141302380Y-143007142D01*
%TO.C,C30*%
X119407142Y-83207142D02*
X119359523Y-83254761D01*
X119216666Y-83302380D01*
X119121428Y-83302380D01*
X118978571Y-83254761D01*
X118883333Y-83159523D01*
X118835714Y-83064285D01*
X118788095Y-82873809D01*
X118788095Y-82730952D01*
X118835714Y-82540476D01*
X118883333Y-82445238D01*
X118978571Y-82350000D01*
X119121428Y-82302380D01*
X119216666Y-82302380D01*
X119359523Y-82350000D01*
X119407142Y-82397619D01*
X119740476Y-82302380D02*
X120359523Y-82302380D01*
X120026190Y-82683333D01*
X120169047Y-82683333D01*
X120264285Y-82730952D01*
X120311904Y-82778571D01*
X120359523Y-82873809D01*
X120359523Y-83111904D01*
X120311904Y-83207142D01*
X120264285Y-83254761D01*
X120169047Y-83302380D01*
X119883333Y-83302380D01*
X119788095Y-83254761D01*
X119740476Y-83207142D01*
X120978571Y-82302380D02*
X121073809Y-82302380D01*
X121169047Y-82350000D01*
X121216666Y-82397619D01*
X121264285Y-82492857D01*
X121311904Y-82683333D01*
X121311904Y-82921428D01*
X121264285Y-83111904D01*
X121216666Y-83207142D01*
X121169047Y-83254761D01*
X121073809Y-83302380D01*
X120978571Y-83302380D01*
X120883333Y-83254761D01*
X120835714Y-83207142D01*
X120788095Y-83111904D01*
X120740476Y-82921428D01*
X120740476Y-82683333D01*
X120788095Y-82492857D01*
X120835714Y-82397619D01*
X120883333Y-82350000D01*
X120978571Y-82302380D01*
%TO.C,C20*%
X131427142Y-78242857D02*
X131474761Y-78290476D01*
X131522380Y-78433333D01*
X131522380Y-78528571D01*
X131474761Y-78671428D01*
X131379523Y-78766666D01*
X131284285Y-78814285D01*
X131093809Y-78861904D01*
X130950952Y-78861904D01*
X130760476Y-78814285D01*
X130665238Y-78766666D01*
X130570000Y-78671428D01*
X130522380Y-78528571D01*
X130522380Y-78433333D01*
X130570000Y-78290476D01*
X130617619Y-78242857D01*
X130617619Y-77861904D02*
X130570000Y-77814285D01*
X130522380Y-77719047D01*
X130522380Y-77480952D01*
X130570000Y-77385714D01*
X130617619Y-77338095D01*
X130712857Y-77290476D01*
X130808095Y-77290476D01*
X130950952Y-77338095D01*
X131522380Y-77909523D01*
X131522380Y-77290476D01*
X130522380Y-76671428D02*
X130522380Y-76576190D01*
X130570000Y-76480952D01*
X130617619Y-76433333D01*
X130712857Y-76385714D01*
X130903333Y-76338095D01*
X131141428Y-76338095D01*
X131331904Y-76385714D01*
X131427142Y-76433333D01*
X131474761Y-76480952D01*
X131522380Y-76576190D01*
X131522380Y-76671428D01*
X131474761Y-76766666D01*
X131427142Y-76814285D01*
X131331904Y-76861904D01*
X131141428Y-76909523D01*
X130903333Y-76909523D01*
X130712857Y-76861904D01*
X130617619Y-76814285D01*
X130570000Y-76766666D01*
X130522380Y-76671428D01*
%TO.C,C1*%
X130133333Y-96227142D02*
X130085714Y-96274761D01*
X129942857Y-96322380D01*
X129847619Y-96322380D01*
X129704761Y-96274761D01*
X129609523Y-96179523D01*
X129561904Y-96084285D01*
X129514285Y-95893809D01*
X129514285Y-95750952D01*
X129561904Y-95560476D01*
X129609523Y-95465238D01*
X129704761Y-95370000D01*
X129847619Y-95322380D01*
X129942857Y-95322380D01*
X130085714Y-95370000D01*
X130133333Y-95417619D01*
X131085714Y-96322380D02*
X130514285Y-96322380D01*
X130800000Y-96322380D02*
X130800000Y-95322380D01*
X130704761Y-95465238D01*
X130609523Y-95560476D01*
X130514285Y-95608095D01*
%TO.C,FB1*%
X130666666Y-73478571D02*
X130333333Y-73478571D01*
X130333333Y-74002380D02*
X130333333Y-73002380D01*
X130809523Y-73002380D01*
X131523809Y-73478571D02*
X131666666Y-73526190D01*
X131714285Y-73573809D01*
X131761904Y-73669047D01*
X131761904Y-73811904D01*
X131714285Y-73907142D01*
X131666666Y-73954761D01*
X131571428Y-74002380D01*
X131190476Y-74002380D01*
X131190476Y-73002380D01*
X131523809Y-73002380D01*
X131619047Y-73050000D01*
X131666666Y-73097619D01*
X131714285Y-73192857D01*
X131714285Y-73288095D01*
X131666666Y-73383333D01*
X131619047Y-73430952D01*
X131523809Y-73478571D01*
X131190476Y-73478571D01*
X132714285Y-74002380D02*
X132142857Y-74002380D01*
X132428571Y-74002380D02*
X132428571Y-73002380D01*
X132333333Y-73145238D01*
X132238095Y-73240476D01*
X132142857Y-73288095D01*
%TO.C,C15*%
X136957142Y-128457142D02*
X136909523Y-128504761D01*
X136766666Y-128552380D01*
X136671428Y-128552380D01*
X136528571Y-128504761D01*
X136433333Y-128409523D01*
X136385714Y-128314285D01*
X136338095Y-128123809D01*
X136338095Y-127980952D01*
X136385714Y-127790476D01*
X136433333Y-127695238D01*
X136528571Y-127600000D01*
X136671428Y-127552380D01*
X136766666Y-127552380D01*
X136909523Y-127600000D01*
X136957142Y-127647619D01*
X137909523Y-128552380D02*
X137338095Y-128552380D01*
X137623809Y-128552380D02*
X137623809Y-127552380D01*
X137528571Y-127695238D01*
X137433333Y-127790476D01*
X137338095Y-127838095D01*
X138814285Y-127552380D02*
X138338095Y-127552380D01*
X138290476Y-128028571D01*
X138338095Y-127980952D01*
X138433333Y-127933333D01*
X138671428Y-127933333D01*
X138766666Y-127980952D01*
X138814285Y-128028571D01*
X138861904Y-128123809D01*
X138861904Y-128361904D01*
X138814285Y-128457142D01*
X138766666Y-128504761D01*
X138671428Y-128552380D01*
X138433333Y-128552380D01*
X138338095Y-128504761D01*
X138290476Y-128457142D01*
%TO.C,SW2*%
X119686666Y-80734761D02*
X119829523Y-80782380D01*
X120067619Y-80782380D01*
X120162857Y-80734761D01*
X120210476Y-80687142D01*
X120258095Y-80591904D01*
X120258095Y-80496666D01*
X120210476Y-80401428D01*
X120162857Y-80353809D01*
X120067619Y-80306190D01*
X119877142Y-80258571D01*
X119781904Y-80210952D01*
X119734285Y-80163333D01*
X119686666Y-80068095D01*
X119686666Y-79972857D01*
X119734285Y-79877619D01*
X119781904Y-79830000D01*
X119877142Y-79782380D01*
X120115238Y-79782380D01*
X120258095Y-79830000D01*
X120591428Y-79782380D02*
X120829523Y-80782380D01*
X121020000Y-80068095D01*
X121210476Y-80782380D01*
X121448571Y-79782380D01*
X121781904Y-79877619D02*
X121829523Y-79830000D01*
X121924761Y-79782380D01*
X122162857Y-79782380D01*
X122258095Y-79830000D01*
X122305714Y-79877619D01*
X122353333Y-79972857D01*
X122353333Y-80068095D01*
X122305714Y-80210952D01*
X121734285Y-80782380D01*
X122353333Y-80782380D01*
X118051428Y-78872380D02*
X118051428Y-77872380D01*
X118384761Y-78586666D01*
X118718095Y-77872380D01*
X118718095Y-78872380D01*
X119337142Y-78872380D02*
X119241904Y-78824761D01*
X119194285Y-78777142D01*
X119146666Y-78681904D01*
X119146666Y-78396190D01*
X119194285Y-78300952D01*
X119241904Y-78253333D01*
X119337142Y-78205714D01*
X119480000Y-78205714D01*
X119575238Y-78253333D01*
X119622857Y-78300952D01*
X119670476Y-78396190D01*
X119670476Y-78681904D01*
X119622857Y-78777142D01*
X119575238Y-78824761D01*
X119480000Y-78872380D01*
X119337142Y-78872380D01*
X120527619Y-78205714D02*
X120527619Y-78872380D01*
X120099047Y-78205714D02*
X120099047Y-78729523D01*
X120146666Y-78824761D01*
X120241904Y-78872380D01*
X120384761Y-78872380D01*
X120480000Y-78824761D01*
X120527619Y-78777142D01*
X120956190Y-78824761D02*
X121051428Y-78872380D01*
X121241904Y-78872380D01*
X121337142Y-78824761D01*
X121384761Y-78729523D01*
X121384761Y-78681904D01*
X121337142Y-78586666D01*
X121241904Y-78539047D01*
X121099047Y-78539047D01*
X121003809Y-78491428D01*
X120956190Y-78396190D01*
X120956190Y-78348571D01*
X121003809Y-78253333D01*
X121099047Y-78205714D01*
X121241904Y-78205714D01*
X121337142Y-78253333D01*
X122194285Y-78824761D02*
X122099047Y-78872380D01*
X121908571Y-78872380D01*
X121813333Y-78824761D01*
X121765714Y-78729523D01*
X121765714Y-78348571D01*
X121813333Y-78253333D01*
X121908571Y-78205714D01*
X122099047Y-78205714D01*
X122194285Y-78253333D01*
X122241904Y-78348571D01*
X122241904Y-78443809D01*
X121765714Y-78539047D01*
X123956190Y-78872380D02*
X123384761Y-78872380D01*
X123670476Y-78872380D02*
X123670476Y-77872380D01*
X123575238Y-78015238D01*
X123480000Y-78110476D01*
X123384761Y-78158095D01*
%TO.C,R5*%
X139852380Y-92966666D02*
X139376190Y-93300000D01*
X139852380Y-93538095D02*
X138852380Y-93538095D01*
X138852380Y-93157142D01*
X138900000Y-93061904D01*
X138947619Y-93014285D01*
X139042857Y-92966666D01*
X139185714Y-92966666D01*
X139280952Y-93014285D01*
X139328571Y-93061904D01*
X139376190Y-93157142D01*
X139376190Y-93538095D01*
X138852380Y-92061904D02*
X138852380Y-92538095D01*
X139328571Y-92585714D01*
X139280952Y-92538095D01*
X139233333Y-92442857D01*
X139233333Y-92204761D01*
X139280952Y-92109523D01*
X139328571Y-92061904D01*
X139423809Y-92014285D01*
X139661904Y-92014285D01*
X139757142Y-92061904D01*
X139804761Y-92109523D01*
X139852380Y-92204761D01*
X139852380Y-92442857D01*
X139804761Y-92538095D01*
X139757142Y-92585714D01*
%TO.C,2V0*%
X114709523Y-128299619D02*
X114757142Y-128252000D01*
X114852380Y-128204380D01*
X115090476Y-128204380D01*
X115185714Y-128252000D01*
X115233333Y-128299619D01*
X115280952Y-128394857D01*
X115280952Y-128490095D01*
X115233333Y-128632952D01*
X114661904Y-129204380D01*
X115280952Y-129204380D01*
X115566666Y-128204380D02*
X115900000Y-129204380D01*
X116233333Y-128204380D01*
X116757142Y-128204380D02*
X116852380Y-128204380D01*
X116947619Y-128252000D01*
X116995238Y-128299619D01*
X117042857Y-128394857D01*
X117090476Y-128585333D01*
X117090476Y-128823428D01*
X117042857Y-129013904D01*
X116995238Y-129109142D01*
X116947619Y-129156761D01*
X116852380Y-129204380D01*
X116757142Y-129204380D01*
X116661904Y-129156761D01*
X116614285Y-129109142D01*
X116566666Y-129013904D01*
X116519047Y-128823428D01*
X116519047Y-128585333D01*
X116566666Y-128394857D01*
X116614285Y-128299619D01*
X116661904Y-128252000D01*
X116757142Y-128204380D01*
%TO.C,C2*%
X115433333Y-108157142D02*
X115385714Y-108204761D01*
X115242857Y-108252380D01*
X115147619Y-108252380D01*
X115004761Y-108204761D01*
X114909523Y-108109523D01*
X114861904Y-108014285D01*
X114814285Y-107823809D01*
X114814285Y-107680952D01*
X114861904Y-107490476D01*
X114909523Y-107395238D01*
X115004761Y-107300000D01*
X115147619Y-107252380D01*
X115242857Y-107252380D01*
X115385714Y-107300000D01*
X115433333Y-107347619D01*
X115814285Y-107347619D02*
X115861904Y-107300000D01*
X115957142Y-107252380D01*
X116195238Y-107252380D01*
X116290476Y-107300000D01*
X116338095Y-107347619D01*
X116385714Y-107442857D01*
X116385714Y-107538095D01*
X116338095Y-107680952D01*
X115766666Y-108252380D01*
X116385714Y-108252380D01*
%TO.C,R26*%
X136457142Y-141652380D02*
X136123809Y-141176190D01*
X135885714Y-141652380D02*
X135885714Y-140652380D01*
X136266666Y-140652380D01*
X136361904Y-140700000D01*
X136409523Y-140747619D01*
X136457142Y-140842857D01*
X136457142Y-140985714D01*
X136409523Y-141080952D01*
X136361904Y-141128571D01*
X136266666Y-141176190D01*
X135885714Y-141176190D01*
X136838095Y-140747619D02*
X136885714Y-140700000D01*
X136980952Y-140652380D01*
X137219047Y-140652380D01*
X137314285Y-140700000D01*
X137361904Y-140747619D01*
X137409523Y-140842857D01*
X137409523Y-140938095D01*
X137361904Y-141080952D01*
X136790476Y-141652380D01*
X137409523Y-141652380D01*
X138266666Y-140652380D02*
X138076190Y-140652380D01*
X137980952Y-140700000D01*
X137933333Y-140747619D01*
X137838095Y-140890476D01*
X137790476Y-141080952D01*
X137790476Y-141461904D01*
X137838095Y-141557142D01*
X137885714Y-141604761D01*
X137980952Y-141652380D01*
X138171428Y-141652380D01*
X138266666Y-141604761D01*
X138314285Y-141557142D01*
X138361904Y-141461904D01*
X138361904Y-141223809D01*
X138314285Y-141128571D01*
X138266666Y-141080952D01*
X138171428Y-141033333D01*
X137980952Y-141033333D01*
X137885714Y-141080952D01*
X137838095Y-141128571D01*
X137790476Y-141223809D01*
%TO.C,C7*%
X120433333Y-104557142D02*
X120385714Y-104604761D01*
X120242857Y-104652380D01*
X120147619Y-104652380D01*
X120004761Y-104604761D01*
X119909523Y-104509523D01*
X119861904Y-104414285D01*
X119814285Y-104223809D01*
X119814285Y-104080952D01*
X119861904Y-103890476D01*
X119909523Y-103795238D01*
X120004761Y-103700000D01*
X120147619Y-103652380D01*
X120242857Y-103652380D01*
X120385714Y-103700000D01*
X120433333Y-103747619D01*
X120766666Y-103652380D02*
X121433333Y-103652380D01*
X121004761Y-104652380D01*
%TO.C,Y1*%
X131923809Y-108376190D02*
X131923809Y-108852380D01*
X131590476Y-107852380D02*
X131923809Y-108376190D01*
X132257142Y-107852380D01*
X133114285Y-108852380D02*
X132542857Y-108852380D01*
X132828571Y-108852380D02*
X132828571Y-107852380D01*
X132733333Y-107995238D01*
X132638095Y-108090476D01*
X132542857Y-108138095D01*
%TO.C,L3*%
X127533333Y-139552380D02*
X127057142Y-139552380D01*
X127057142Y-138552380D01*
X127771428Y-138552380D02*
X128390476Y-138552380D01*
X128057142Y-138933333D01*
X128200000Y-138933333D01*
X128295238Y-138980952D01*
X128342857Y-139028571D01*
X128390476Y-139123809D01*
X128390476Y-139361904D01*
X128342857Y-139457142D01*
X128295238Y-139504761D01*
X128200000Y-139552380D01*
X127914285Y-139552380D01*
X127819047Y-139504761D01*
X127771428Y-139457142D01*
%TO.C,C18*%
X135867857Y-115082142D02*
X135903571Y-115117857D01*
X135939285Y-115225000D01*
X135939285Y-115296428D01*
X135903571Y-115403571D01*
X135832142Y-115475000D01*
X135760714Y-115510714D01*
X135617857Y-115546428D01*
X135510714Y-115546428D01*
X135367857Y-115510714D01*
X135296428Y-115475000D01*
X135225000Y-115403571D01*
X135189285Y-115296428D01*
X135189285Y-115225000D01*
X135225000Y-115117857D01*
X135260714Y-115082142D01*
X135939285Y-114367857D02*
X135939285Y-114796428D01*
X135939285Y-114582142D02*
X135189285Y-114582142D01*
X135296428Y-114653571D01*
X135367857Y-114725000D01*
X135403571Y-114796428D01*
X135510714Y-113939285D02*
X135475000Y-114010714D01*
X135439285Y-114046428D01*
X135367857Y-114082142D01*
X135332142Y-114082142D01*
X135260714Y-114046428D01*
X135225000Y-114010714D01*
X135189285Y-113939285D01*
X135189285Y-113796428D01*
X135225000Y-113725000D01*
X135260714Y-113689285D01*
X135332142Y-113653571D01*
X135367857Y-113653571D01*
X135439285Y-113689285D01*
X135475000Y-113725000D01*
X135510714Y-113796428D01*
X135510714Y-113939285D01*
X135546428Y-114010714D01*
X135582142Y-114046428D01*
X135653571Y-114082142D01*
X135796428Y-114082142D01*
X135867857Y-114046428D01*
X135903571Y-114010714D01*
X135939285Y-113939285D01*
X135939285Y-113796428D01*
X135903571Y-113725000D01*
X135867857Y-113689285D01*
X135796428Y-113653571D01*
X135653571Y-113653571D01*
X135582142Y-113689285D01*
X135546428Y-113725000D01*
X135510714Y-113796428D01*
%TO.C,3V3*%
X137961904Y-108590476D02*
X137961904Y-108095238D01*
X138266666Y-108361904D01*
X138266666Y-108247619D01*
X138304761Y-108171428D01*
X138342857Y-108133333D01*
X138419047Y-108095238D01*
X138609523Y-108095238D01*
X138685714Y-108133333D01*
X138723809Y-108171428D01*
X138761904Y-108247619D01*
X138761904Y-108476190D01*
X138723809Y-108552380D01*
X138685714Y-108590476D01*
X137961904Y-107866666D02*
X138761904Y-107600000D01*
X137961904Y-107333333D01*
X137961904Y-107142857D02*
X137961904Y-106647619D01*
X138266666Y-106914285D01*
X138266666Y-106800000D01*
X138304761Y-106723809D01*
X138342857Y-106685714D01*
X138419047Y-106647619D01*
X138609523Y-106647619D01*
X138685714Y-106685714D01*
X138723809Y-106723809D01*
X138761904Y-106800000D01*
X138761904Y-107028571D01*
X138723809Y-107104761D01*
X138685714Y-107142857D01*
%TO.C,C4*%
X137957142Y-105166666D02*
X138004761Y-105214285D01*
X138052380Y-105357142D01*
X138052380Y-105452380D01*
X138004761Y-105595238D01*
X137909523Y-105690476D01*
X137814285Y-105738095D01*
X137623809Y-105785714D01*
X137480952Y-105785714D01*
X137290476Y-105738095D01*
X137195238Y-105690476D01*
X137100000Y-105595238D01*
X137052380Y-105452380D01*
X137052380Y-105357142D01*
X137100000Y-105214285D01*
X137147619Y-105166666D01*
X137385714Y-104309523D02*
X138052380Y-104309523D01*
X137004761Y-104547619D02*
X137719047Y-104785714D01*
X137719047Y-104166666D01*
%TO.C,C11*%
X136957142Y-129557142D02*
X136909523Y-129604761D01*
X136766666Y-129652380D01*
X136671428Y-129652380D01*
X136528571Y-129604761D01*
X136433333Y-129509523D01*
X136385714Y-129414285D01*
X136338095Y-129223809D01*
X136338095Y-129080952D01*
X136385714Y-128890476D01*
X136433333Y-128795238D01*
X136528571Y-128700000D01*
X136671428Y-128652380D01*
X136766666Y-128652380D01*
X136909523Y-128700000D01*
X136957142Y-128747619D01*
X137909523Y-129652380D02*
X137338095Y-129652380D01*
X137623809Y-129652380D02*
X137623809Y-128652380D01*
X137528571Y-128795238D01*
X137433333Y-128890476D01*
X137338095Y-128938095D01*
X138861904Y-129652380D02*
X138290476Y-129652380D01*
X138576190Y-129652380D02*
X138576190Y-128652380D01*
X138480952Y-128795238D01*
X138385714Y-128890476D01*
X138290476Y-128938095D01*
%TO.C,U2*%
X128538095Y-98752380D02*
X128538095Y-99561904D01*
X128585714Y-99657142D01*
X128633333Y-99704761D01*
X128728571Y-99752380D01*
X128919047Y-99752380D01*
X129014285Y-99704761D01*
X129061904Y-99657142D01*
X129109523Y-99561904D01*
X129109523Y-98752380D01*
X129538095Y-98847619D02*
X129585714Y-98800000D01*
X129680952Y-98752380D01*
X129919047Y-98752380D01*
X130014285Y-98800000D01*
X130061904Y-98847619D01*
X130109523Y-98942857D01*
X130109523Y-99038095D01*
X130061904Y-99180952D01*
X129490476Y-99752380D01*
X130109523Y-99752380D01*
X122780952Y-101052380D02*
X122780952Y-100052380D01*
X123114285Y-100766666D01*
X123447619Y-100052380D01*
X123447619Y-101052380D01*
X123876190Y-100766666D02*
X124352380Y-100766666D01*
X123780952Y-101052380D02*
X124114285Y-100052380D01*
X124447619Y-101052380D01*
X124685714Y-100052380D02*
X125352380Y-101052380D01*
X125352380Y-100052380D02*
X124685714Y-101052380D01*
X125638095Y-100052380D02*
X126257142Y-100052380D01*
X125923809Y-100433333D01*
X126066666Y-100433333D01*
X126161904Y-100480952D01*
X126209523Y-100528571D01*
X126257142Y-100623809D01*
X126257142Y-100861904D01*
X126209523Y-100957142D01*
X126161904Y-101004761D01*
X126066666Y-101052380D01*
X125780952Y-101052380D01*
X125685714Y-101004761D01*
X125638095Y-100957142D01*
X126638095Y-100147619D02*
X126685714Y-100100000D01*
X126780952Y-100052380D01*
X127019047Y-100052380D01*
X127114285Y-100100000D01*
X127161904Y-100147619D01*
X127209523Y-100242857D01*
X127209523Y-100338095D01*
X127161904Y-100480952D01*
X126590476Y-101052380D01*
X127209523Y-101052380D01*
X128066666Y-100052380D02*
X127876190Y-100052380D01*
X127780952Y-100100000D01*
X127733333Y-100147619D01*
X127638095Y-100290476D01*
X127590476Y-100480952D01*
X127590476Y-100861904D01*
X127638095Y-100957142D01*
X127685714Y-101004761D01*
X127780952Y-101052380D01*
X127971428Y-101052380D01*
X128066666Y-101004761D01*
X128114285Y-100957142D01*
X128161904Y-100861904D01*
X128161904Y-100623809D01*
X128114285Y-100528571D01*
X128066666Y-100480952D01*
X127971428Y-100433333D01*
X127780952Y-100433333D01*
X127685714Y-100480952D01*
X127638095Y-100528571D01*
X127590476Y-100623809D01*
X128542857Y-100147619D02*
X128590476Y-100100000D01*
X128685714Y-100052380D01*
X128923809Y-100052380D01*
X129019047Y-100100000D01*
X129066666Y-100147619D01*
X129114285Y-100242857D01*
X129114285Y-100338095D01*
X129066666Y-100480952D01*
X128495238Y-101052380D01*
X129114285Y-101052380D01*
X130019047Y-100052380D02*
X129542857Y-100052380D01*
X129495238Y-100528571D01*
X129542857Y-100480952D01*
X129638095Y-100433333D01*
X129876190Y-100433333D01*
X129971428Y-100480952D01*
X130019047Y-100528571D01*
X130066666Y-100623809D01*
X130066666Y-100861904D01*
X130019047Y-100957142D01*
X129971428Y-101004761D01*
X129876190Y-101052380D01*
X129638095Y-101052380D01*
X129542857Y-101004761D01*
X129495238Y-100957142D01*
X121413700Y-102152380D02*
X121413700Y-102390476D01*
X121175604Y-102295238D02*
X121413700Y-102390476D01*
X121651795Y-102295238D01*
X121270842Y-102580952D02*
X121413700Y-102390476D01*
X121556557Y-102580952D01*
X121413700Y-102152380D02*
X121413700Y-102390476D01*
X121175604Y-102295238D02*
X121413700Y-102390476D01*
X121651795Y-102295238D01*
X121270842Y-102580952D02*
X121413700Y-102390476D01*
X121556557Y-102580952D01*
%TO.C,G1*%
X130185714Y-132100000D02*
X130090476Y-132052380D01*
X129947619Y-132052380D01*
X129804761Y-132100000D01*
X129709523Y-132195238D01*
X129661904Y-132290476D01*
X129614285Y-132480952D01*
X129614285Y-132623809D01*
X129661904Y-132814285D01*
X129709523Y-132909523D01*
X129804761Y-133004761D01*
X129947619Y-133052380D01*
X130042857Y-133052380D01*
X130185714Y-133004761D01*
X130233333Y-132957142D01*
X130233333Y-132623809D01*
X130042857Y-132623809D01*
X131185714Y-133052380D02*
X130614285Y-133052380D01*
X130900000Y-133052380D02*
X130900000Y-132052380D01*
X130804761Y-132195238D01*
X130709523Y-132290476D01*
X130614285Y-132338095D01*
%TO.C,C29*%
X121057142Y-88857142D02*
X121009523Y-88904761D01*
X120866666Y-88952380D01*
X120771428Y-88952380D01*
X120628571Y-88904761D01*
X120533333Y-88809523D01*
X120485714Y-88714285D01*
X120438095Y-88523809D01*
X120438095Y-88380952D01*
X120485714Y-88190476D01*
X120533333Y-88095238D01*
X120628571Y-88000000D01*
X120771428Y-87952380D01*
X120866666Y-87952380D01*
X121009523Y-88000000D01*
X121057142Y-88047619D01*
X121438095Y-88047619D02*
X121485714Y-88000000D01*
X121580952Y-87952380D01*
X121819047Y-87952380D01*
X121914285Y-88000000D01*
X121961904Y-88047619D01*
X122009523Y-88142857D01*
X122009523Y-88238095D01*
X121961904Y-88380952D01*
X121390476Y-88952380D01*
X122009523Y-88952380D01*
X122485714Y-88952380D02*
X122676190Y-88952380D01*
X122771428Y-88904761D01*
X122819047Y-88857142D01*
X122914285Y-88714285D01*
X122961904Y-88523809D01*
X122961904Y-88142857D01*
X122914285Y-88047619D01*
X122866666Y-88000000D01*
X122771428Y-87952380D01*
X122580952Y-87952380D01*
X122485714Y-88000000D01*
X122438095Y-88047619D01*
X122390476Y-88142857D01*
X122390476Y-88380952D01*
X122438095Y-88476190D01*
X122485714Y-88523809D01*
X122580952Y-88571428D01*
X122771428Y-88571428D01*
X122866666Y-88523809D01*
X122914285Y-88476190D01*
X122961904Y-88380952D01*
%TO.C,R13*%
X119852380Y-122392857D02*
X119376190Y-122726190D01*
X119852380Y-122964285D02*
X118852380Y-122964285D01*
X118852380Y-122583333D01*
X118900000Y-122488095D01*
X118947619Y-122440476D01*
X119042857Y-122392857D01*
X119185714Y-122392857D01*
X119280952Y-122440476D01*
X119328571Y-122488095D01*
X119376190Y-122583333D01*
X119376190Y-122964285D01*
X119852380Y-121440476D02*
X119852380Y-122011904D01*
X119852380Y-121726190D02*
X118852380Y-121726190D01*
X118995238Y-121821428D01*
X119090476Y-121916666D01*
X119138095Y-122011904D01*
X118852380Y-121107142D02*
X118852380Y-120488095D01*
X119233333Y-120821428D01*
X119233333Y-120678571D01*
X119280952Y-120583333D01*
X119328571Y-120535714D01*
X119423809Y-120488095D01*
X119661904Y-120488095D01*
X119757142Y-120535714D01*
X119804761Y-120583333D01*
X119852380Y-120678571D01*
X119852380Y-120964285D01*
X119804761Y-121059523D01*
X119757142Y-121107142D01*
%TO.C,R29*%
X111457142Y-94002380D02*
X111123809Y-93526190D01*
X110885714Y-94002380D02*
X110885714Y-93002380D01*
X111266666Y-93002380D01*
X111361904Y-93050000D01*
X111409523Y-93097619D01*
X111457142Y-93192857D01*
X111457142Y-93335714D01*
X111409523Y-93430952D01*
X111361904Y-93478571D01*
X111266666Y-93526190D01*
X110885714Y-93526190D01*
X111838095Y-93097619D02*
X111885714Y-93050000D01*
X111980952Y-93002380D01*
X112219047Y-93002380D01*
X112314285Y-93050000D01*
X112361904Y-93097619D01*
X112409523Y-93192857D01*
X112409523Y-93288095D01*
X112361904Y-93430952D01*
X111790476Y-94002380D01*
X112409523Y-94002380D01*
X112885714Y-94002380D02*
X113076190Y-94002380D01*
X113171428Y-93954761D01*
X113219047Y-93907142D01*
X113314285Y-93764285D01*
X113361904Y-93573809D01*
X113361904Y-93192857D01*
X113314285Y-93097619D01*
X113266666Y-93050000D01*
X113171428Y-93002380D01*
X112980952Y-93002380D01*
X112885714Y-93050000D01*
X112838095Y-93097619D01*
X112790476Y-93192857D01*
X112790476Y-93430952D01*
X112838095Y-93526190D01*
X112885714Y-93573809D01*
X112980952Y-93621428D01*
X113171428Y-93621428D01*
X113266666Y-93573809D01*
X113314285Y-93526190D01*
X113361904Y-93430952D01*
%TO.C,3V3*%
X143545161Y-136852380D02*
X144164209Y-136852380D01*
X143830876Y-137233333D01*
X143973733Y-137233333D01*
X144068971Y-137280952D01*
X144116590Y-137328571D01*
X144164209Y-137423809D01*
X144164209Y-137661904D01*
X144116590Y-137757142D01*
X144068971Y-137804761D01*
X143973733Y-137852380D01*
X143688018Y-137852380D01*
X143592780Y-137804761D01*
X143545161Y-137757142D01*
X144449923Y-136852380D02*
X144783257Y-137852380D01*
X145116590Y-136852380D01*
X145354685Y-136852380D02*
X145973733Y-136852380D01*
X145640399Y-137233333D01*
X145783257Y-137233333D01*
X145878495Y-137280952D01*
X145926114Y-137328571D01*
X145973733Y-137423809D01*
X145973733Y-137661904D01*
X145926114Y-137757142D01*
X145878495Y-137804761D01*
X145783257Y-137852380D01*
X145497542Y-137852380D01*
X145402304Y-137804761D01*
X145354685Y-137757142D01*
%TO.C,SW4*%
X114233333Y-104323809D02*
X114347619Y-104361904D01*
X114538095Y-104361904D01*
X114614285Y-104323809D01*
X114652380Y-104285714D01*
X114690476Y-104209523D01*
X114690476Y-104133333D01*
X114652380Y-104057142D01*
X114614285Y-104019047D01*
X114538095Y-103980952D01*
X114385714Y-103942857D01*
X114309523Y-103904761D01*
X114271428Y-103866666D01*
X114233333Y-103790476D01*
X114233333Y-103714285D01*
X114271428Y-103638095D01*
X114309523Y-103600000D01*
X114385714Y-103561904D01*
X114576190Y-103561904D01*
X114690476Y-103600000D01*
X114957142Y-103561904D02*
X115147619Y-104361904D01*
X115300000Y-103790476D01*
X115452380Y-104361904D01*
X115642857Y-103561904D01*
X116290476Y-103828571D02*
X116290476Y-104361904D01*
X116100000Y-103523809D02*
X115909523Y-104095238D01*
X116404761Y-104095238D01*
X115541428Y-100372380D02*
X115541428Y-99372380D01*
X115874761Y-100086666D01*
X116208095Y-99372380D01*
X116208095Y-100372380D01*
X116827142Y-100372380D02*
X116731904Y-100324761D01*
X116684285Y-100277142D01*
X116636666Y-100181904D01*
X116636666Y-99896190D01*
X116684285Y-99800952D01*
X116731904Y-99753333D01*
X116827142Y-99705714D01*
X116970000Y-99705714D01*
X117065238Y-99753333D01*
X117112857Y-99800952D01*
X117160476Y-99896190D01*
X117160476Y-100181904D01*
X117112857Y-100277142D01*
X117065238Y-100324761D01*
X116970000Y-100372380D01*
X116827142Y-100372380D01*
X118017619Y-99705714D02*
X118017619Y-100372380D01*
X117589047Y-99705714D02*
X117589047Y-100229523D01*
X117636666Y-100324761D01*
X117731904Y-100372380D01*
X117874761Y-100372380D01*
X117970000Y-100324761D01*
X118017619Y-100277142D01*
X118446190Y-100324761D02*
X118541428Y-100372380D01*
X118731904Y-100372380D01*
X118827142Y-100324761D01*
X118874761Y-100229523D01*
X118874761Y-100181904D01*
X118827142Y-100086666D01*
X118731904Y-100039047D01*
X118589047Y-100039047D01*
X118493809Y-99991428D01*
X118446190Y-99896190D01*
X118446190Y-99848571D01*
X118493809Y-99753333D01*
X118589047Y-99705714D01*
X118731904Y-99705714D01*
X118827142Y-99753333D01*
X119684285Y-100324761D02*
X119589047Y-100372380D01*
X119398571Y-100372380D01*
X119303333Y-100324761D01*
X119255714Y-100229523D01*
X119255714Y-99848571D01*
X119303333Y-99753333D01*
X119398571Y-99705714D01*
X119589047Y-99705714D01*
X119684285Y-99753333D01*
X119731904Y-99848571D01*
X119731904Y-99943809D01*
X119255714Y-100039047D01*
X120827142Y-99372380D02*
X121446190Y-99372380D01*
X121112857Y-99753333D01*
X121255714Y-99753333D01*
X121350952Y-99800952D01*
X121398571Y-99848571D01*
X121446190Y-99943809D01*
X121446190Y-100181904D01*
X121398571Y-100277142D01*
X121350952Y-100324761D01*
X121255714Y-100372380D01*
X120970000Y-100372380D01*
X120874761Y-100324761D01*
X120827142Y-100277142D01*
%TO.C,C31*%
X114307142Y-81457142D02*
X114259523Y-81504761D01*
X114116666Y-81552380D01*
X114021428Y-81552380D01*
X113878571Y-81504761D01*
X113783333Y-81409523D01*
X113735714Y-81314285D01*
X113688095Y-81123809D01*
X113688095Y-80980952D01*
X113735714Y-80790476D01*
X113783333Y-80695238D01*
X113878571Y-80600000D01*
X114021428Y-80552380D01*
X114116666Y-80552380D01*
X114259523Y-80600000D01*
X114307142Y-80647619D01*
X114640476Y-80552380D02*
X115259523Y-80552380D01*
X114926190Y-80933333D01*
X115069047Y-80933333D01*
X115164285Y-80980952D01*
X115211904Y-81028571D01*
X115259523Y-81123809D01*
X115259523Y-81361904D01*
X115211904Y-81457142D01*
X115164285Y-81504761D01*
X115069047Y-81552380D01*
X114783333Y-81552380D01*
X114688095Y-81504761D01*
X114640476Y-81457142D01*
X116211904Y-81552380D02*
X115640476Y-81552380D01*
X115926190Y-81552380D02*
X115926190Y-80552380D01*
X115830952Y-80695238D01*
X115735714Y-80790476D01*
X115640476Y-80838095D01*
%TO.C,C22*%
X136957142Y-147957142D02*
X136909523Y-148004761D01*
X136766666Y-148052380D01*
X136671428Y-148052380D01*
X136528571Y-148004761D01*
X136433333Y-147909523D01*
X136385714Y-147814285D01*
X136338095Y-147623809D01*
X136338095Y-147480952D01*
X136385714Y-147290476D01*
X136433333Y-147195238D01*
X136528571Y-147100000D01*
X136671428Y-147052380D01*
X136766666Y-147052380D01*
X136909523Y-147100000D01*
X136957142Y-147147619D01*
X137338095Y-147147619D02*
X137385714Y-147100000D01*
X137480952Y-147052380D01*
X137719047Y-147052380D01*
X137814285Y-147100000D01*
X137861904Y-147147619D01*
X137909523Y-147242857D01*
X137909523Y-147338095D01*
X137861904Y-147480952D01*
X137290476Y-148052380D01*
X137909523Y-148052380D01*
X138290476Y-147147619D02*
X138338095Y-147100000D01*
X138433333Y-147052380D01*
X138671428Y-147052380D01*
X138766666Y-147100000D01*
X138814285Y-147147619D01*
X138861904Y-147242857D01*
X138861904Y-147338095D01*
X138814285Y-147480952D01*
X138242857Y-148052380D01*
X138861904Y-148052380D01*
%TO.C,L1*%
X132833333Y-139552380D02*
X132357142Y-139552380D01*
X132357142Y-138552380D01*
X133690476Y-139552380D02*
X133119047Y-139552380D01*
X133404761Y-139552380D02*
X133404761Y-138552380D01*
X133309523Y-138695238D01*
X133214285Y-138790476D01*
X133119047Y-138838095D01*
%TO.C,U3*%
X129538095Y-129852380D02*
X129538095Y-130661904D01*
X129585714Y-130757142D01*
X129633333Y-130804761D01*
X129728571Y-130852380D01*
X129919047Y-130852380D01*
X130014285Y-130804761D01*
X130061904Y-130757142D01*
X130109523Y-130661904D01*
X130109523Y-129852380D01*
X130490476Y-129852380D02*
X131109523Y-129852380D01*
X130776190Y-130233333D01*
X130919047Y-130233333D01*
X131014285Y-130280952D01*
X131061904Y-130328571D01*
X131109523Y-130423809D01*
X131109523Y-130661904D01*
X131061904Y-130757142D01*
X131014285Y-130804761D01*
X130919047Y-130852380D01*
X130633333Y-130852380D01*
X130538095Y-130804761D01*
X130490476Y-130757142D01*
%TO.C,C10*%
X133057142Y-106842857D02*
X133104761Y-106890476D01*
X133152380Y-107033333D01*
X133152380Y-107128571D01*
X133104761Y-107271428D01*
X133009523Y-107366666D01*
X132914285Y-107414285D01*
X132723809Y-107461904D01*
X132580952Y-107461904D01*
X132390476Y-107414285D01*
X132295238Y-107366666D01*
X132200000Y-107271428D01*
X132152380Y-107128571D01*
X132152380Y-107033333D01*
X132200000Y-106890476D01*
X132247619Y-106842857D01*
X133152380Y-105890476D02*
X133152380Y-106461904D01*
X133152380Y-106176190D02*
X132152380Y-106176190D01*
X132295238Y-106271428D01*
X132390476Y-106366666D01*
X132438095Y-106461904D01*
X132152380Y-105271428D02*
X132152380Y-105176190D01*
X132200000Y-105080952D01*
X132247619Y-105033333D01*
X132342857Y-104985714D01*
X132533333Y-104938095D01*
X132771428Y-104938095D01*
X132961904Y-104985714D01*
X133057142Y-105033333D01*
X133104761Y-105080952D01*
X133152380Y-105176190D01*
X133152380Y-105271428D01*
X133104761Y-105366666D01*
X133057142Y-105414285D01*
X132961904Y-105461904D01*
X132771428Y-105509523D01*
X132533333Y-105509523D01*
X132342857Y-105461904D01*
X132247619Y-105414285D01*
X132200000Y-105366666D01*
X132152380Y-105271428D01*
%TO.C,C35*%
X111457142Y-95107142D02*
X111409523Y-95154761D01*
X111266666Y-95202380D01*
X111171428Y-95202380D01*
X111028571Y-95154761D01*
X110933333Y-95059523D01*
X110885714Y-94964285D01*
X110838095Y-94773809D01*
X110838095Y-94630952D01*
X110885714Y-94440476D01*
X110933333Y-94345238D01*
X111028571Y-94250000D01*
X111171428Y-94202380D01*
X111266666Y-94202380D01*
X111409523Y-94250000D01*
X111457142Y-94297619D01*
X111790476Y-94202380D02*
X112409523Y-94202380D01*
X112076190Y-94583333D01*
X112219047Y-94583333D01*
X112314285Y-94630952D01*
X112361904Y-94678571D01*
X112409523Y-94773809D01*
X112409523Y-95011904D01*
X112361904Y-95107142D01*
X112314285Y-95154761D01*
X112219047Y-95202380D01*
X111933333Y-95202380D01*
X111838095Y-95154761D01*
X111790476Y-95107142D01*
X113314285Y-94202380D02*
X112838095Y-94202380D01*
X112790476Y-94678571D01*
X112838095Y-94630952D01*
X112933333Y-94583333D01*
X113171428Y-94583333D01*
X113266666Y-94630952D01*
X113314285Y-94678571D01*
X113361904Y-94773809D01*
X113361904Y-95011904D01*
X113314285Y-95107142D01*
X113266666Y-95154761D01*
X113171428Y-95202380D01*
X112933333Y-95202380D01*
X112838095Y-95154761D01*
X112790476Y-95107142D01*
%TO.C,R27*%
X130757142Y-151952380D02*
X130423809Y-151476190D01*
X130185714Y-151952380D02*
X130185714Y-150952380D01*
X130566666Y-150952380D01*
X130661904Y-151000000D01*
X130709523Y-151047619D01*
X130757142Y-151142857D01*
X130757142Y-151285714D01*
X130709523Y-151380952D01*
X130661904Y-151428571D01*
X130566666Y-151476190D01*
X130185714Y-151476190D01*
X131138095Y-151047619D02*
X131185714Y-151000000D01*
X131280952Y-150952380D01*
X131519047Y-150952380D01*
X131614285Y-151000000D01*
X131661904Y-151047619D01*
X131709523Y-151142857D01*
X131709523Y-151238095D01*
X131661904Y-151380952D01*
X131090476Y-151952380D01*
X131709523Y-151952380D01*
X132042857Y-150952380D02*
X132709523Y-150952380D01*
X132280952Y-151952380D01*
%TO.C,R3*%
X138552380Y-92966666D02*
X138076190Y-93300000D01*
X138552380Y-93538095D02*
X137552380Y-93538095D01*
X137552380Y-93157142D01*
X137600000Y-93061904D01*
X137647619Y-93014285D01*
X137742857Y-92966666D01*
X137885714Y-92966666D01*
X137980952Y-93014285D01*
X138028571Y-93061904D01*
X138076190Y-93157142D01*
X138076190Y-93538095D01*
X137552380Y-92633333D02*
X137552380Y-92014285D01*
X137933333Y-92347619D01*
X137933333Y-92204761D01*
X137980952Y-92109523D01*
X138028571Y-92061904D01*
X138123809Y-92014285D01*
X138361904Y-92014285D01*
X138457142Y-92061904D01*
X138504761Y-92109523D01*
X138552380Y-92204761D01*
X138552380Y-92490476D01*
X138504761Y-92585714D01*
X138457142Y-92633333D01*
%TO.C,C6*%
X115433333Y-109857142D02*
X115385714Y-109904761D01*
X115242857Y-109952380D01*
X115147619Y-109952380D01*
X115004761Y-109904761D01*
X114909523Y-109809523D01*
X114861904Y-109714285D01*
X114814285Y-109523809D01*
X114814285Y-109380952D01*
X114861904Y-109190476D01*
X114909523Y-109095238D01*
X115004761Y-109000000D01*
X115147619Y-108952380D01*
X115242857Y-108952380D01*
X115385714Y-109000000D01*
X115433333Y-109047619D01*
X116290476Y-108952380D02*
X116100000Y-108952380D01*
X116004761Y-109000000D01*
X115957142Y-109047619D01*
X115861904Y-109190476D01*
X115814285Y-109380952D01*
X115814285Y-109761904D01*
X115861904Y-109857142D01*
X115909523Y-109904761D01*
X116004761Y-109952380D01*
X116195238Y-109952380D01*
X116290476Y-109904761D01*
X116338095Y-109857142D01*
X116385714Y-109761904D01*
X116385714Y-109523809D01*
X116338095Y-109428571D01*
X116290476Y-109380952D01*
X116195238Y-109333333D01*
X116004761Y-109333333D01*
X115909523Y-109380952D01*
X115861904Y-109428571D01*
X115814285Y-109523809D01*
%TO.C,C26*%
X129657142Y-139057142D02*
X129609523Y-139104761D01*
X129466666Y-139152380D01*
X129371428Y-139152380D01*
X129228571Y-139104761D01*
X129133333Y-139009523D01*
X129085714Y-138914285D01*
X129038095Y-138723809D01*
X129038095Y-138580952D01*
X129085714Y-138390476D01*
X129133333Y-138295238D01*
X129228571Y-138200000D01*
X129371428Y-138152380D01*
X129466666Y-138152380D01*
X129609523Y-138200000D01*
X129657142Y-138247619D01*
X130038095Y-138247619D02*
X130085714Y-138200000D01*
X130180952Y-138152380D01*
X130419047Y-138152380D01*
X130514285Y-138200000D01*
X130561904Y-138247619D01*
X130609523Y-138342857D01*
X130609523Y-138438095D01*
X130561904Y-138580952D01*
X129990476Y-139152380D01*
X130609523Y-139152380D01*
X131466666Y-138152380D02*
X131276190Y-138152380D01*
X131180952Y-138200000D01*
X131133333Y-138247619D01*
X131038095Y-138390476D01*
X130990476Y-138580952D01*
X130990476Y-138961904D01*
X131038095Y-139057142D01*
X131085714Y-139104761D01*
X131180952Y-139152380D01*
X131371428Y-139152380D01*
X131466666Y-139104761D01*
X131514285Y-139057142D01*
X131561904Y-138961904D01*
X131561904Y-138723809D01*
X131514285Y-138628571D01*
X131466666Y-138580952D01*
X131371428Y-138533333D01*
X131180952Y-138533333D01*
X131085714Y-138580952D01*
X131038095Y-138628571D01*
X130990476Y-138723809D01*
%TO.C,C19*%
X135887142Y-78242857D02*
X135934761Y-78290476D01*
X135982380Y-78433333D01*
X135982380Y-78528571D01*
X135934761Y-78671428D01*
X135839523Y-78766666D01*
X135744285Y-78814285D01*
X135553809Y-78861904D01*
X135410952Y-78861904D01*
X135220476Y-78814285D01*
X135125238Y-78766666D01*
X135030000Y-78671428D01*
X134982380Y-78528571D01*
X134982380Y-78433333D01*
X135030000Y-78290476D01*
X135077619Y-78242857D01*
X135982380Y-77290476D02*
X135982380Y-77861904D01*
X135982380Y-77576190D02*
X134982380Y-77576190D01*
X135125238Y-77671428D01*
X135220476Y-77766666D01*
X135268095Y-77861904D01*
X135982380Y-76814285D02*
X135982380Y-76623809D01*
X135934761Y-76528571D01*
X135887142Y-76480952D01*
X135744285Y-76385714D01*
X135553809Y-76338095D01*
X135172857Y-76338095D01*
X135077619Y-76385714D01*
X135030000Y-76433333D01*
X134982380Y-76528571D01*
X134982380Y-76719047D01*
X135030000Y-76814285D01*
X135077619Y-76861904D01*
X135172857Y-76909523D01*
X135410952Y-76909523D01*
X135506190Y-76861904D01*
X135553809Y-76814285D01*
X135601428Y-76719047D01*
X135601428Y-76528571D01*
X135553809Y-76433333D01*
X135506190Y-76385714D01*
X135410952Y-76338095D01*
%TO.C,C32*%
X122707142Y-85542857D02*
X122754761Y-85590476D01*
X122802380Y-85733333D01*
X122802380Y-85828571D01*
X122754761Y-85971428D01*
X122659523Y-86066666D01*
X122564285Y-86114285D01*
X122373809Y-86161904D01*
X122230952Y-86161904D01*
X122040476Y-86114285D01*
X121945238Y-86066666D01*
X121850000Y-85971428D01*
X121802380Y-85828571D01*
X121802380Y-85733333D01*
X121850000Y-85590476D01*
X121897619Y-85542857D01*
X121802380Y-85209523D02*
X121802380Y-84590476D01*
X122183333Y-84923809D01*
X122183333Y-84780952D01*
X122230952Y-84685714D01*
X122278571Y-84638095D01*
X122373809Y-84590476D01*
X122611904Y-84590476D01*
X122707142Y-84638095D01*
X122754761Y-84685714D01*
X122802380Y-84780952D01*
X122802380Y-85066666D01*
X122754761Y-85161904D01*
X122707142Y-85209523D01*
X121897619Y-84209523D02*
X121850000Y-84161904D01*
X121802380Y-84066666D01*
X121802380Y-83828571D01*
X121850000Y-83733333D01*
X121897619Y-83685714D01*
X121992857Y-83638095D01*
X122088095Y-83638095D01*
X122230952Y-83685714D01*
X122802380Y-84257142D01*
X122802380Y-83638095D01*
D11*
%TO.C,C9*%
X135490000Y-111859420D02*
X135490000Y-112140580D01*
X136510000Y-111859420D02*
X136510000Y-112140580D01*
%TO.C,J1*%
X122365000Y-135865000D02*
X122365000Y-132335000D01*
X128770000Y-135865000D02*
X128835000Y-135865000D01*
X122365000Y-135865000D02*
X122430000Y-135865000D01*
X122365000Y-132335000D02*
X122430000Y-132335000D01*
X122430000Y-137190000D02*
X122430000Y-135865000D01*
X128835000Y-135865000D02*
X128835000Y-132335000D01*
X128770000Y-132335000D02*
X128835000Y-132335000D01*
%TO.C,L5*%
X162362779Y-147790000D02*
X162037221Y-147790000D01*
X162362779Y-148810000D02*
X162037221Y-148810000D01*
%TO.C,C25*%
X131140580Y-143710000D02*
X130859420Y-143710000D01*
X131140580Y-142690000D02*
X130859420Y-142690000D01*
%TO.C,1V2*%
X122150000Y-128400000D02*
G75*
G03*
X122150000Y-128400000I-700000J0D01*
G01*
%TO.C,G2*%
X147700000Y-137600000D02*
G75*
G03*
X147700000Y-137600000I-700000J0D01*
G01*
%TO.C,R30*%
X152737258Y-149622500D02*
X152262742Y-149622500D01*
X152737258Y-148577500D02*
X152262742Y-148577500D01*
%TO.C,SW7*%
X153871300Y-87125600D02*
X154861900Y-87125600D01*
X153871300Y-83874400D02*
X153871300Y-82401200D01*
X154861900Y-87125600D02*
X154861900Y-83874400D01*
X140688700Y-88598800D02*
X153871300Y-88598800D01*
X153871300Y-82401200D02*
X140688700Y-82401200D01*
X140688700Y-82401200D02*
X140688700Y-88598800D01*
X153871300Y-88598800D02*
X153871300Y-87125600D01*
X154861900Y-83874400D02*
X153871300Y-83874400D01*
%TO.C,C41*%
X159390000Y-140009420D02*
X159390000Y-140290580D01*
X160410000Y-140009420D02*
X160410000Y-140290580D01*
%TO.C,R6*%
X135977500Y-93462742D02*
X135977500Y-93937258D01*
X137022500Y-93462742D02*
X137022500Y-93937258D01*
%TO.C,R14*%
X120162742Y-117777500D02*
X120637258Y-117777500D01*
X120162742Y-118822500D02*
X120637258Y-118822500D01*
%TO.C,C12*%
X118790000Y-124859420D02*
X118790000Y-125140580D01*
X119810000Y-124859420D02*
X119810000Y-125140580D01*
%TO.C,U1*%
X126100000Y-96060000D02*
X127900000Y-96060000D01*
X126100000Y-92940000D02*
X125300000Y-92940000D01*
X126100000Y-92940000D02*
X126900000Y-92940000D01*
X126100000Y-96060000D02*
X125300000Y-96060000D01*
%TO.C,C28*%
X125610000Y-140759420D02*
X125610000Y-141040580D01*
X124590000Y-140759420D02*
X124590000Y-141040580D01*
%TO.C,Y2*%
X120875000Y-94025000D02*
X119525000Y-94025000D01*
X120875000Y-95775000D02*
X119525000Y-95775000D01*
%TO.C,FB2*%
X156299622Y-151660000D02*
X155500378Y-151660000D01*
X156299622Y-150540000D02*
X155500378Y-150540000D01*
%TO.C,C3*%
X133659420Y-102990000D02*
X133940580Y-102990000D01*
X133659420Y-104010000D02*
X133940580Y-104010000D01*
%TO.C,U8*%
X162358736Y-143080000D02*
X162358736Y-142530000D01*
X162358736Y-146750000D02*
X161808736Y-146750000D01*
X162358736Y-146200000D02*
X162358736Y-146750000D01*
X158138736Y-143080000D02*
X158138736Y-142530000D01*
X158138736Y-146200000D02*
X158138736Y-146750000D01*
X158138736Y-146750000D02*
X158688736Y-146750000D01*
X158138736Y-142530000D02*
X158688736Y-142530000D01*
%TO.C,R28*%
X114562742Y-90877500D02*
X115037258Y-90877500D01*
X114562742Y-91922500D02*
X115037258Y-91922500D01*
%TO.C,R17*%
X124562742Y-143822500D02*
X125037258Y-143822500D01*
X124562742Y-142777500D02*
X125037258Y-142777500D01*
%TO.C,U5*%
X119220000Y-86310000D02*
X119220000Y-85760000D01*
X115000000Y-86310000D02*
X115000000Y-85760000D01*
X119220000Y-85760000D02*
X118670000Y-85760000D01*
X115000000Y-85760000D02*
X115550000Y-85760000D01*
X119220000Y-89430000D02*
X119220000Y-89980000D01*
X115000000Y-89430000D02*
X115000000Y-89980000D01*
X119220000Y-89980000D02*
X118670000Y-89980000D01*
%TO.C,R16*%
X141522500Y-69262742D02*
X141522500Y-69737258D01*
X140477500Y-69262742D02*
X140477500Y-69737258D01*
%TO.C,CLK*%
X143000000Y-146900000D02*
G75*
G03*
X143000000Y-146900000I-700000J0D01*
G01*
%TO.C,C33*%
X118590000Y-92340580D02*
X118590000Y-92059420D01*
X119610000Y-92340580D02*
X119610000Y-92059420D01*
%TO.C,R31*%
X159437258Y-150777500D02*
X158962742Y-150777500D01*
X159437258Y-151822500D02*
X158962742Y-151822500D01*
D12*
%TO.C,U4*%
X127450000Y-149050000D02*
X127450000Y-148630000D01*
X131550000Y-144950000D02*
X131130000Y-144950000D01*
X127450000Y-149050000D02*
X127870000Y-149050000D01*
X131550000Y-149050000D02*
X131130000Y-149050000D01*
X127450000Y-144950000D02*
X127870000Y-144950000D01*
X127450000Y-144950000D02*
X127450000Y-145370000D01*
X131550000Y-149050000D02*
X131550000Y-148630000D01*
X131550000Y-144950000D02*
X131550000Y-145370000D01*
D13*
X128400000Y-149995000D02*
G75*
G03*
X128400000Y-149995000I-100000J0D01*
G01*
D11*
%TO.C,J3*%
X134950000Y-134450000D02*
X134950000Y-133950000D01*
X134450000Y-130340000D02*
X134450000Y-130950000D01*
X138010000Y-131650000D02*
X137400000Y-131650000D01*
X138010000Y-132950000D02*
X137400000Y-132950000D01*
X134450000Y-130950000D02*
X132500000Y-130950000D01*
X132500000Y-130950000D02*
X132500000Y-134450000D01*
X132840000Y-130040000D02*
X131590000Y-130040000D01*
X131890000Y-131650000D02*
X132500000Y-131650000D01*
X131890000Y-132950000D02*
X132500000Y-132950000D01*
X132500000Y-134450000D02*
X137400000Y-134450000D01*
X138010000Y-130340000D02*
X131890000Y-130340000D01*
X131590000Y-130040000D02*
X131590000Y-131290000D01*
X137400000Y-134450000D02*
X137400000Y-130950000D01*
X133350000Y-130140000D02*
X133350000Y-130340000D01*
X135450000Y-130950000D02*
X135450000Y-130340000D01*
X131890000Y-135060000D02*
X138010000Y-135060000D01*
X135050000Y-133950000D02*
X135050000Y-134450000D01*
X134850000Y-133950000D02*
X135050000Y-133950000D01*
X131890000Y-130340000D02*
X131890000Y-135060000D01*
X133650000Y-130140000D02*
X133350000Y-130140000D01*
X137400000Y-130950000D02*
X135450000Y-130950000D01*
X133650000Y-130340000D02*
X133650000Y-130140000D01*
X134850000Y-134450000D02*
X134850000Y-133950000D01*
X138010000Y-135060000D02*
X138010000Y-130340000D01*
X133650000Y-130240000D02*
X133350000Y-130240000D01*
%TO.C,R18*%
X128062742Y-151222500D02*
X128537258Y-151222500D01*
X128062742Y-150177500D02*
X128537258Y-150177500D01*
%TO.C,C44*%
X159059420Y-148810000D02*
X159340580Y-148810000D01*
X159059420Y-147790000D02*
X159340580Y-147790000D01*
%TO.C,R21*%
X125037258Y-145877500D02*
X124562742Y-145877500D01*
X125037258Y-146922500D02*
X124562742Y-146922500D01*
%TO.C,R23*%
X135522500Y-144637258D02*
X135522500Y-144162742D01*
X134477500Y-144637258D02*
X134477500Y-144162742D01*
%TO.C,C16*%
X137290000Y-118240580D02*
X137290000Y-117959420D01*
X138310000Y-118240580D02*
X138310000Y-117959420D01*
%TO.C,C48*%
X148159420Y-138990000D02*
X148440580Y-138990000D01*
X148159420Y-140010000D02*
X148440580Y-140010000D01*
%TO.C,U7*%
X144665000Y-144200000D02*
X144665000Y-142250000D01*
X153535000Y-144200000D02*
X153535000Y-146150000D01*
X144665000Y-144200000D02*
X144665000Y-147650000D01*
X153535000Y-144200000D02*
X153535000Y-142250000D01*
%TO.C,1V8*%
X131100000Y-136600000D02*
G75*
G03*
X131100000Y-136600000I-700000J0D01*
G01*
%TO.C,FB3*%
X155100378Y-144060000D02*
X155899622Y-144060000D01*
X155100378Y-142940000D02*
X155899622Y-142940000D01*
%TO.C,C21*%
X134840580Y-146490000D02*
X134559420Y-146490000D01*
X134840580Y-147510000D02*
X134559420Y-147510000D01*
%TO.C,R20*%
X125037258Y-144377500D02*
X124562742Y-144377500D01*
X125037258Y-145422500D02*
X124562742Y-145422500D01*
%TO.C,Y3*%
X156875000Y-139575000D02*
X156875000Y-138225000D01*
X155125000Y-139575000D02*
X155125000Y-138225000D01*
%TO.C,L2*%
X125900000Y-149200000D02*
X125900000Y-151200000D01*
X123700000Y-149200000D02*
X123700000Y-151200000D01*
%TO.C,C46*%
X155340580Y-141290000D02*
X155059420Y-141290000D01*
X155340580Y-142310000D02*
X155059420Y-142310000D01*
%TO.C,SW3*%
X152225800Y-79325800D02*
X152225800Y-76902512D01*
X145774200Y-72874200D02*
X145774200Y-75297488D01*
X152225800Y-75297488D02*
X152225800Y-72874200D01*
X145774200Y-76902512D02*
X145774200Y-79325800D01*
X152225800Y-72874200D02*
X145774200Y-72874200D01*
X145774200Y-79325800D02*
X152225800Y-79325800D01*
%TO.C,SW6*%
X137725800Y-98597488D02*
X137725800Y-96174200D01*
X131274200Y-100202512D02*
X131274200Y-102625800D01*
X137725800Y-96174200D02*
X131274200Y-96174200D01*
X137725800Y-102625800D02*
X137725800Y-100202512D01*
X131274200Y-96174200D02*
X131274200Y-98597488D01*
X131274200Y-102625800D02*
X137725800Y-102625800D01*
%TO.C,C23*%
X137090000Y-137240580D02*
X137090000Y-136959420D01*
X138110000Y-137240580D02*
X138110000Y-136959420D01*
%TO.C,R15*%
X127177500Y-69262742D02*
X127177500Y-69737258D01*
X128222500Y-69262742D02*
X128222500Y-69737258D01*
%TO.C,FB4*%
X138650000Y-150600000D02*
G75*
G03*
X138650000Y-150600000I-1200000J0D01*
G01*
%TO.C,C8*%
X136210000Y-107640580D02*
X136210000Y-107359420D01*
X135190000Y-107640580D02*
X135190000Y-107359420D01*
%TO.C,C38*%
X152359420Y-150190000D02*
X152640580Y-150190000D01*
X152359420Y-151210000D02*
X152640580Y-151210000D01*
%TO.C,C14*%
X120490000Y-124859420D02*
X120490000Y-125140580D01*
X121510000Y-124859420D02*
X121510000Y-125140580D01*
%TO.C,U6*%
X157360000Y-148100000D02*
X157360000Y-148900000D01*
X154240000Y-148100000D02*
X154240000Y-148900000D01*
X157360000Y-148100000D02*
X157360000Y-146300000D01*
X154240000Y-148100000D02*
X154240000Y-147300000D01*
%TO.C,C13*%
X136810000Y-124559420D02*
X136810000Y-124840580D01*
X135790000Y-124559420D02*
X135790000Y-124840580D01*
%TO.C,C36*%
X117810000Y-93659420D02*
X117810000Y-93940580D01*
X116790000Y-93659420D02*
X116790000Y-93940580D01*
%TO.C,SW5*%
X121725800Y-110674200D02*
X119302512Y-110674200D01*
X115274200Y-110674200D02*
X115274200Y-117125800D01*
X119302512Y-117125800D02*
X121725800Y-117125800D01*
X117697488Y-110674200D02*
X115274200Y-110674200D01*
X115274200Y-117125800D02*
X117697488Y-117125800D01*
X121725800Y-117125800D02*
X121725800Y-110674200D01*
%TO.C,C17*%
X135790000Y-121540580D02*
X135790000Y-121259420D01*
X136810000Y-121540580D02*
X136810000Y-121259420D01*
%TO.C,FB5*%
X138460000Y-114400378D02*
X138460000Y-115199622D01*
X137340000Y-114400378D02*
X137340000Y-115199622D01*
%TO.C,D5*%
X150823600Y-140225600D02*
X154176400Y-140225600D01*
X154176400Y-136974400D02*
X150823600Y-136974400D01*
%TO.C,D4*%
X141476400Y-74374400D02*
X138123600Y-74374400D01*
X138123600Y-77625600D02*
X141476400Y-77625600D01*
%TO.C,L4*%
X114637221Y-81990000D02*
X114962779Y-81990000D01*
X114637221Y-83010000D02*
X114962779Y-83010000D01*
%TO.C,C47*%
X162059420Y-151810000D02*
X162340580Y-151810000D01*
X162059420Y-150790000D02*
X162340580Y-150790000D01*
%TO.C,C5*%
X118240580Y-106210000D02*
X117959420Y-106210000D01*
X118240580Y-105190000D02*
X117959420Y-105190000D01*
%TO.C,J2*%
X138930000Y-69315000D02*
X138930000Y-68460000D01*
X129770000Y-69315000D02*
X129770000Y-68460000D01*
X129770000Y-65340000D02*
X129770000Y-64390000D01*
X138930000Y-64390000D02*
X129770000Y-64390000D01*
X138930000Y-65340000D02*
X138930000Y-64390000D01*
%TO.C,DIO*%
X143000000Y-141500000D02*
G75*
G03*
X143000000Y-141500000I-700000J0D01*
G01*
%TO.C,C30*%
X117959420Y-83690000D02*
X118240580Y-83690000D01*
X117959420Y-84710000D02*
X118240580Y-84710000D01*
%TO.C,C20*%
X131990000Y-77740580D02*
X131990000Y-77459420D01*
X133010000Y-77740580D02*
X133010000Y-77459420D01*
%TO.C,C1*%
X129659420Y-93990000D02*
X129940580Y-93990000D01*
X129659420Y-95010000D02*
X129940580Y-95010000D01*
%TO.C,FB1*%
X131100378Y-74540000D02*
X131899622Y-74540000D01*
X131100378Y-75660000D02*
X131899622Y-75660000D01*
%TO.C,C45*%
X162340580Y-150310000D02*
X162059420Y-150310000D01*
X162340580Y-149290000D02*
X162059420Y-149290000D01*
%TO.C,C15*%
X138310000Y-121540580D02*
X138310000Y-121259420D01*
X137290000Y-121540580D02*
X137290000Y-121259420D01*
%TO.C,R33*%
X162377500Y-140437258D02*
X162377500Y-139962742D01*
X163422500Y-140437258D02*
X163422500Y-139962742D01*
%TO.C,SW2*%
X117774200Y-76902512D02*
X117774200Y-79325800D01*
X124225800Y-75297488D02*
X124225800Y-72874200D01*
X124225800Y-79325800D02*
X124225800Y-76902512D01*
X124225800Y-72874200D02*
X117774200Y-72874200D01*
X117774200Y-72874200D02*
X117774200Y-75297488D01*
X117774200Y-79325800D02*
X124225800Y-79325800D01*
%TO.C,C39*%
X159340580Y-149290000D02*
X159059420Y-149290000D01*
X159340580Y-150310000D02*
X159059420Y-150310000D01*
%TO.C,R5*%
X133977500Y-93462742D02*
X133977500Y-93937258D01*
X135022500Y-93462742D02*
X135022500Y-93937258D01*
%TO.C,2V0*%
X116600000Y-130200000D02*
G75*
G03*
X116600000Y-130200000I-700000J0D01*
G01*
%TO.C,C2*%
X118240580Y-107490000D02*
X117959420Y-107490000D01*
X118240580Y-108510000D02*
X117959420Y-108510000D01*
%TO.C,R26*%
X135522500Y-140962742D02*
X135522500Y-141437258D01*
X134477500Y-140962742D02*
X134477500Y-141437258D01*
%TO.C,R19*%
X137022500Y-144637258D02*
X137022500Y-144162742D01*
X135977500Y-144637258D02*
X135977500Y-144162742D01*
%TO.C,C7*%
X118240580Y-104710000D02*
X117959420Y-104710000D01*
X118240580Y-103690000D02*
X117959420Y-103690000D01*
%TO.C,Y1*%
X133875000Y-109325000D02*
X132525000Y-109325000D01*
X133875000Y-111075000D02*
X132525000Y-111075000D01*
%TO.C,L3*%
X128700000Y-139900000D02*
X126700000Y-139900000D01*
X128700000Y-142100000D02*
X126700000Y-142100000D01*
%TO.C,C42*%
X158610000Y-140340580D02*
X158610000Y-140059420D01*
X157590000Y-140340580D02*
X157590000Y-140059420D01*
%TO.C,C18*%
X136810000Y-117959420D02*
X136810000Y-118240580D01*
X135790000Y-117959420D02*
X135790000Y-118240580D01*
%TO.C,R24*%
X122037258Y-144377500D02*
X121562742Y-144377500D01*
X122037258Y-145422500D02*
X121562742Y-145422500D01*
%TO.C,3V3*%
X138600000Y-112000000D02*
G75*
G03*
X138600000Y-112000000I-700000J0D01*
G01*
%TO.C,C4*%
X137710000Y-107640580D02*
X137710000Y-107359420D01*
X136690000Y-107640580D02*
X136690000Y-107359420D01*
%TO.C,C11*%
X138310000Y-124559420D02*
X138310000Y-124840580D01*
X137290000Y-124559420D02*
X137290000Y-124840580D01*
%TO.C,R32*%
X161922500Y-140437258D02*
X161922500Y-139962742D01*
X160877500Y-140437258D02*
X160877500Y-139962742D01*
%TO.C,U2*%
X130527500Y-102465261D02*
X130527500Y-101972500D01*
X122272500Y-101972500D02*
X122272500Y-102465261D01*
X130527500Y-101972500D02*
X130034739Y-101972500D01*
X122765261Y-101972500D02*
X122272500Y-101972500D01*
X130527500Y-110227500D02*
X130527500Y-109734739D01*
X130034739Y-110227500D02*
X130527500Y-110227500D01*
X122272500Y-109734739D02*
X122272500Y-110227500D01*
X122272500Y-110227500D02*
X122765261Y-110227500D01*
G36*
X124190500Y-110959299D02*
G01*
X123809500Y-110959299D01*
X123809500Y-110705299D01*
X124190500Y-110705299D01*
X124190500Y-110959299D01*
G37*
D14*
X124190500Y-110959299D02*
X123809500Y-110959299D01*
X123809500Y-110705299D01*
X124190500Y-110705299D01*
X124190500Y-110959299D01*
G36*
X131259299Y-103490501D02*
G01*
X131005299Y-103490501D01*
X131005299Y-103109501D01*
X131259299Y-103109501D01*
X131259299Y-103490501D01*
G37*
X131259299Y-103490501D02*
X131005299Y-103490501D01*
X131005299Y-103109501D01*
X131259299Y-103109501D01*
X131259299Y-103490501D01*
G36*
X126590500Y-101494701D02*
G01*
X126209500Y-101494701D01*
X126209500Y-101240701D01*
X126590500Y-101240701D01*
X126590500Y-101494701D01*
G37*
X126590500Y-101494701D02*
X126209500Y-101494701D01*
X126209500Y-101240701D01*
X126590500Y-101240701D01*
X126590500Y-101494701D01*
G36*
X128190499Y-110959299D02*
G01*
X127809499Y-110959299D01*
X127809499Y-110705299D01*
X128190499Y-110705299D01*
X128190499Y-110959299D01*
G37*
X128190499Y-110959299D02*
X127809499Y-110959299D01*
X127809499Y-110705299D01*
X128190499Y-110705299D01*
X128190499Y-110959299D01*
G36*
X121794701Y-106690499D02*
G01*
X121540701Y-106690499D01*
X121540701Y-106309499D01*
X121794701Y-106309499D01*
X121794701Y-106690499D01*
G37*
X121794701Y-106690499D02*
X121540701Y-106690499D01*
X121540701Y-106309499D01*
X121794701Y-106309499D01*
X121794701Y-106690499D01*
G36*
X131259299Y-107490500D02*
G01*
X131005299Y-107490500D01*
X131005299Y-107109500D01*
X131259299Y-107109500D01*
X131259299Y-107490500D01*
G37*
X131259299Y-107490500D02*
X131005299Y-107490500D01*
X131005299Y-107109500D01*
X131259299Y-107109500D01*
X131259299Y-107490500D01*
D11*
%TO.C,G1*%
X131100000Y-134200000D02*
G75*
G03*
X131100000Y-134200000I-700000J0D01*
G01*
%TO.C,C29*%
X121759420Y-89390000D02*
X122040580Y-89390000D01*
X121759420Y-90410000D02*
X122040580Y-90410000D01*
%TO.C,R13*%
X121522500Y-121562742D02*
X121522500Y-122037258D01*
X120477500Y-121562742D02*
X120477500Y-122037258D01*
%TO.C,R29*%
X115237258Y-92477500D02*
X114762742Y-92477500D01*
X115237258Y-93522500D02*
X114762742Y-93522500D01*
%TO.C,3V3*%
X149800000Y-137600000D02*
G75*
G03*
X149800000Y-137600000I-700000J0D01*
G01*
%TO.C,SW4*%
X115274200Y-103025800D02*
X117697488Y-103025800D01*
X115274200Y-96574200D02*
X115274200Y-103025800D01*
X117697488Y-96574200D02*
X115274200Y-96574200D01*
X121725800Y-96574200D02*
X119302512Y-96574200D01*
X121725800Y-103025800D02*
X121725800Y-96574200D01*
X119302512Y-103025800D02*
X121725800Y-103025800D01*
%TO.C,C31*%
X114659420Y-84710000D02*
X114940580Y-84710000D01*
X114659420Y-83690000D02*
X114940580Y-83690000D01*
%TO.C,C22*%
X134559420Y-148090000D02*
X134840580Y-148090000D01*
X134559420Y-149110000D02*
X134840580Y-149110000D01*
%TO.C,L1*%
X131400000Y-142000000D02*
X131400000Y-140000000D01*
X133600000Y-142000000D02*
X133600000Y-140000000D01*
%TO.C,SW10*%
X150150000Y-149000000D02*
X150150000Y-148700000D01*
X150150000Y-148700000D02*
X146850000Y-148700000D01*
X146850000Y-148700000D02*
X146850000Y-149000000D01*
X150150000Y-151200000D02*
X150150000Y-151500000D01*
X146850000Y-151500000D02*
X146850000Y-151200000D01*
X150150000Y-151500000D02*
X146850000Y-151500000D01*
D14*
%TO.C,U3*%
X133550000Y-111780000D02*
X133550000Y-127980000D01*
X124450000Y-111780000D02*
X133550000Y-111780000D01*
X124682000Y-127980000D02*
X124450000Y-127980000D01*
X124450000Y-127980000D02*
X124450000Y-111780000D01*
X133550000Y-127980000D02*
X133318000Y-127980000D01*
D15*
X134453802Y-128039000D02*
G75*
G03*
X134453802Y-128039000I-119802J0D01*
G01*
D11*
%TO.C,C24*%
X124940580Y-148510000D02*
X124659420Y-148510000D01*
X124940580Y-147490000D02*
X124659420Y-147490000D01*
%TO.C,C10*%
X133490000Y-107640580D02*
X133490000Y-107359420D01*
X134510000Y-107640580D02*
X134510000Y-107359420D01*
%TO.C,C27*%
X121940580Y-150190000D02*
X121659420Y-150190000D01*
X121940580Y-151210000D02*
X121659420Y-151210000D01*
%TO.C,C34*%
X120290000Y-92340580D02*
X120290000Y-92059420D01*
X121310000Y-92340580D02*
X121310000Y-92059420D01*
%TO.C,C35*%
X114859420Y-95010000D02*
X115140580Y-95010000D01*
X114859420Y-93990000D02*
X115140580Y-93990000D01*
%TO.C,R27*%
X133962742Y-150177500D02*
X134437258Y-150177500D01*
X133962742Y-151222500D02*
X134437258Y-151222500D01*
%TO.C,R3*%
X131977500Y-93462742D02*
X131977500Y-93937258D01*
X133022500Y-93462742D02*
X133022500Y-93937258D01*
%TO.C,C43*%
X159040580Y-137290000D02*
X158759420Y-137290000D01*
X159040580Y-138310000D02*
X158759420Y-138310000D01*
%TO.C,R25*%
X122037258Y-145877500D02*
X121562742Y-145877500D01*
X122037258Y-146922500D02*
X121562742Y-146922500D01*
%TO.C,C6*%
X118240580Y-108990000D02*
X117959420Y-108990000D01*
X118240580Y-110010000D02*
X117959420Y-110010000D01*
%TO.C,R22*%
X132977500Y-144162742D02*
X132977500Y-144637258D01*
X134022500Y-144162742D02*
X134022500Y-144637258D01*
%TO.C,C40*%
X162059420Y-138410000D02*
X162340580Y-138410000D01*
X162059420Y-137390000D02*
X162340580Y-137390000D01*
%TO.C,C26*%
X129790000Y-140940580D02*
X129790000Y-140659420D01*
X130810000Y-140940580D02*
X130810000Y-140659420D01*
%TO.C,C37*%
X155340580Y-145710000D02*
X155059420Y-145710000D01*
X155340580Y-144690000D02*
X155059420Y-144690000D01*
%TO.C,C19*%
X134610000Y-77459420D02*
X134610000Y-77740580D01*
X133590000Y-77459420D02*
X133590000Y-77740580D01*
%TO.C,C32*%
X121310000Y-85140580D02*
X121310000Y-84859420D01*
X120290000Y-85140580D02*
X120290000Y-84859420D01*
%TD*%
%LPC*%
%TO.C,AE1*%
G36*
X110432040Y-83564864D02*
G01*
X112502900Y-85635984D01*
X112502900Y-90519644D01*
X110432040Y-92590504D01*
X110432040Y-95967684D01*
X106707890Y-95967684D01*
X102399030Y-91658834D01*
X102399030Y-84483584D01*
X106715000Y-80167874D01*
X110432040Y-80167874D01*
X110432040Y-83564864D01*
G37*
%TO.C,AE2*%
G36*
X174851056Y-140851166D02*
G01*
X174851056Y-148026416D01*
X170535086Y-152342126D01*
X166818046Y-152342126D01*
X166818046Y-148945136D01*
X164747186Y-146874016D01*
X164747186Y-141990356D01*
X166818046Y-139919496D01*
X166818046Y-136542316D01*
X170542196Y-136542316D01*
X174851056Y-140851166D01*
G37*
%TD*%
D16*
%TO.C,C9*%
X136000000Y-111225000D03*
X136000000Y-112775000D03*
%TD*%
D17*
%TO.C,J1*%
X123060000Y-136050000D03*
X123060000Y-132150000D03*
X124330000Y-136050000D03*
X124330000Y-132150000D03*
X125600000Y-136050000D03*
X125600000Y-132150000D03*
X126870000Y-136050000D03*
X126870000Y-132150000D03*
X128140000Y-136050000D03*
X128140000Y-132150000D03*
%TD*%
D18*
%TO.C,L5*%
X162987500Y-148300000D03*
X161412500Y-148300000D03*
%TD*%
D19*
%TO.C,C25*%
X131775000Y-143200000D03*
X130225000Y-143200000D03*
%TD*%
D20*
%TO.C,1V2*%
X121450000Y-128400000D03*
%TD*%
%TO.C,G2*%
X147000000Y-137600000D03*
%TD*%
D21*
%TO.C,R30*%
X153325000Y-149100000D03*
X151675000Y-149100000D03*
%TD*%
D22*
%TO.C,SW7*%
X142200000Y-85500000D03*
X147280000Y-85500000D03*
X152360000Y-85500000D03*
%TD*%
D16*
%TO.C,C41*%
X159900000Y-139375000D03*
X159900000Y-140925000D03*
%TD*%
D23*
%TO.C,R6*%
X136500000Y-92875000D03*
X136500000Y-94525000D03*
%TD*%
D24*
%TO.C,R14*%
X119575000Y-118300000D03*
X121225000Y-118300000D03*
%TD*%
D16*
%TO.C,C12*%
X119300000Y-124225000D03*
X119300000Y-125775000D03*
%TD*%
D25*
%TO.C,U1*%
X127237500Y-95450000D03*
X127237500Y-94500000D03*
X127237500Y-93550000D03*
X124962500Y-93550000D03*
X124962500Y-95450000D03*
%TD*%
D16*
%TO.C,C28*%
X125100000Y-140125000D03*
X125100000Y-141675000D03*
%TD*%
D26*
%TO.C,Y2*%
X118950000Y-94900000D03*
X121450000Y-94900000D03*
%TD*%
D27*
%TO.C,FB2*%
X156962500Y-151100000D03*
X154837500Y-151100000D03*
%TD*%
D28*
%TO.C,C3*%
X133025000Y-103500000D03*
X134575000Y-103500000D03*
%TD*%
D29*
%TO.C,U8*%
X161448736Y-142702500D03*
X161048736Y-142702500D03*
X160648736Y-142702500D03*
X160248736Y-142702500D03*
X159848736Y-142702500D03*
X159448736Y-142702500D03*
X159048736Y-142702500D03*
D30*
X158311236Y-143440000D03*
X158311236Y-143840000D03*
X158311236Y-144240000D03*
X158311236Y-144640000D03*
X158311236Y-145040000D03*
X158311236Y-145440000D03*
X158311236Y-145840000D03*
D29*
X159048736Y-146577500D03*
X159448736Y-146577500D03*
X159848736Y-146577500D03*
X160248736Y-146577500D03*
X160648736Y-146577500D03*
X161048736Y-146577500D03*
X161448736Y-146577500D03*
D30*
X162186236Y-145840000D03*
X162186236Y-145440000D03*
X162186236Y-145040000D03*
X162186236Y-144640000D03*
X162186236Y-144240000D03*
X162186236Y-143840000D03*
X162186236Y-143440000D03*
D31*
X160248736Y-144640000D03*
%TD*%
D24*
%TO.C,R28*%
X113975000Y-91400000D03*
X115625000Y-91400000D03*
%TD*%
D32*
%TO.C,SW8*%
X125100000Y-80500000D03*
X125100000Y-90500000D03*
D33*
X126900000Y-88000000D03*
X126900000Y-85500000D03*
X126900000Y-83000000D03*
%TD*%
D24*
%TO.C,R17*%
X123975000Y-143300000D03*
X125625000Y-143300000D03*
%TD*%
D34*
%TO.C,U5*%
X115910000Y-89807500D03*
X116310000Y-89807500D03*
X116710000Y-89807500D03*
X117110000Y-89807500D03*
X117510000Y-89807500D03*
X117910000Y-89807500D03*
X118310000Y-89807500D03*
D35*
X119047500Y-89070000D03*
X119047500Y-88670000D03*
X119047500Y-88270000D03*
X119047500Y-87870000D03*
X119047500Y-87470000D03*
X119047500Y-87070000D03*
X119047500Y-86670000D03*
D34*
X118310000Y-85932500D03*
X117910000Y-85932500D03*
X117510000Y-85932500D03*
X117110000Y-85932500D03*
X116710000Y-85932500D03*
X116310000Y-85932500D03*
X115910000Y-85932500D03*
D35*
X115172500Y-86670000D03*
X115172500Y-87070000D03*
X115172500Y-87470000D03*
X115172500Y-87870000D03*
X115172500Y-88270000D03*
X115172500Y-88670000D03*
X115172500Y-89070000D03*
D31*
X117110000Y-87870000D03*
%TD*%
D23*
%TO.C,R16*%
X141000000Y-68675000D03*
X141000000Y-70325000D03*
%TD*%
D20*
%TO.C,CLK*%
X142300000Y-146900000D03*
%TD*%
D36*
%TO.C,C33*%
X119100000Y-92975000D03*
X119100000Y-91425000D03*
%TD*%
D21*
%TO.C,R31*%
X160025000Y-151300000D03*
X158375000Y-151300000D03*
%TD*%
D37*
%TO.C,U4*%
X128300000Y-148935000D03*
X128700000Y-148935000D03*
X129100000Y-148935000D03*
X129500000Y-148935000D03*
X129900000Y-148935000D03*
X130300000Y-148935000D03*
X130700000Y-148935000D03*
D38*
X131435000Y-148200000D03*
X131435000Y-147800000D03*
X131435000Y-147400000D03*
X131435000Y-147000000D03*
X131435000Y-146600000D03*
X131435000Y-146200000D03*
X131435000Y-145800000D03*
D37*
X130700000Y-145065000D03*
X130300000Y-145065000D03*
X129900000Y-145065000D03*
X129500000Y-145065000D03*
X129100000Y-145065000D03*
X128700000Y-145065000D03*
X128300000Y-145065000D03*
D38*
X127565000Y-145800000D03*
X127565000Y-146200000D03*
X127565000Y-146600000D03*
X127565000Y-147000000D03*
X127565000Y-147400000D03*
X127565000Y-147800000D03*
X127565000Y-148200000D03*
D31*
X129500000Y-147000000D03*
%TD*%
D39*
%TO.C,J3*%
X133950000Y-132150000D03*
D40*
X135950000Y-132150000D03*
%TD*%
D24*
%TO.C,R18*%
X127475000Y-150700000D03*
X129125000Y-150700000D03*
%TD*%
D28*
%TO.C,C44*%
X158425000Y-148300000D03*
X159975000Y-148300000D03*
%TD*%
D21*
%TO.C,R21*%
X125625000Y-146400000D03*
X123975000Y-146400000D03*
%TD*%
D41*
%TO.C,R23*%
X135000000Y-145225000D03*
X135000000Y-143575000D03*
%TD*%
D36*
%TO.C,C16*%
X137800000Y-118875000D03*
X137800000Y-117325000D03*
%TD*%
D28*
%TO.C,C48*%
X147525000Y-139500000D03*
X149075000Y-139500000D03*
%TD*%
D42*
%TO.C,U7*%
X145290000Y-146675000D03*
X146560000Y-146675000D03*
X147830000Y-146675000D03*
X149100000Y-146675000D03*
X150370000Y-146675000D03*
X151640000Y-146675000D03*
X152910000Y-146675000D03*
X152910000Y-141725000D03*
X151640000Y-141725000D03*
X150370000Y-141725000D03*
X149100000Y-141725000D03*
X147830000Y-141725000D03*
X146560000Y-141725000D03*
X145290000Y-141725000D03*
%TD*%
D20*
%TO.C,1V8*%
X130400000Y-136600000D03*
%TD*%
D43*
%TO.C,FB3*%
X154437500Y-143500000D03*
X156562500Y-143500000D03*
%TD*%
D19*
%TO.C,C21*%
X135475000Y-147000000D03*
X133925000Y-147000000D03*
%TD*%
D21*
%TO.C,R20*%
X125625000Y-144900000D03*
X123975000Y-144900000D03*
%TD*%
D44*
%TO.C,Y3*%
X156000000Y-137650000D03*
X156000000Y-140150000D03*
%TD*%
D45*
%TO.C,L2*%
X124800000Y-149525000D03*
X124800000Y-150875000D03*
%TD*%
D19*
%TO.C,C46*%
X155975000Y-141800000D03*
X154425000Y-141800000D03*
%TD*%
D46*
%TO.C,SW3*%
X146500000Y-76100000D03*
X151500000Y-76100000D03*
%TD*%
%TO.C,SW6*%
X132000000Y-99400000D03*
X137000000Y-99400000D03*
%TD*%
D36*
%TO.C,C23*%
X137600000Y-137875000D03*
X137600000Y-136325000D03*
%TD*%
D23*
%TO.C,R15*%
X127700000Y-68675000D03*
X127700000Y-70325000D03*
%TD*%
D47*
%TO.C,FB4*%
X137450000Y-150600000D03*
%TD*%
D36*
%TO.C,C8*%
X135700000Y-108275000D03*
X135700000Y-106725000D03*
%TD*%
D28*
%TO.C,C38*%
X151725000Y-150700000D03*
X153275000Y-150700000D03*
%TD*%
D16*
%TO.C,C14*%
X121000000Y-124225000D03*
X121000000Y-125775000D03*
%TD*%
D48*
%TO.C,U6*%
X156750000Y-146962500D03*
X155800000Y-146962500D03*
X154850000Y-146962500D03*
X154850000Y-149237500D03*
X156750000Y-149237500D03*
%TD*%
D16*
%TO.C,C13*%
X136300000Y-123925000D03*
X136300000Y-125475000D03*
%TD*%
%TO.C,C36*%
X117300000Y-93025000D03*
X117300000Y-94575000D03*
%TD*%
D46*
%TO.C,SW5*%
X118500000Y-111400000D03*
X118500000Y-116400000D03*
%TD*%
D36*
%TO.C,C17*%
X136300000Y-122175000D03*
X136300000Y-120625000D03*
%TD*%
D49*
%TO.C,FB5*%
X137900000Y-113737500D03*
X137900000Y-115862500D03*
%TD*%
D50*
%TO.C,D5*%
X153744600Y-139550001D03*
X153744600Y-138600000D03*
X153744600Y-137649999D03*
X151255400Y-137649999D03*
X151255400Y-138600000D03*
X151255400Y-139550001D03*
%TD*%
%TO.C,D4*%
X138555400Y-75049999D03*
X138555400Y-76000000D03*
X138555400Y-76950001D03*
X141044600Y-76950001D03*
X141044600Y-76000000D03*
X141044600Y-75049999D03*
%TD*%
D51*
%TO.C,L4*%
X114012500Y-82500000D03*
X115587500Y-82500000D03*
%TD*%
D28*
%TO.C,C47*%
X161425000Y-151300000D03*
X162975000Y-151300000D03*
%TD*%
D19*
%TO.C,C5*%
X118875000Y-105700000D03*
X117325000Y-105700000D03*
%TD*%
D52*
%TO.C,J2*%
X135750000Y-66950000D03*
X132950000Y-66950000D03*
D53*
X131350000Y-70050000D03*
D54*
X137350000Y-70050000D03*
D55*
X137450000Y-71150000D03*
X136700000Y-71150000D03*
D56*
X136100000Y-71150000D03*
X134600000Y-71150000D03*
X133600000Y-71150000D03*
X132600000Y-71150000D03*
D55*
X132000000Y-71150000D03*
X131250000Y-71150000D03*
X131250000Y-71150000D03*
X132000000Y-71150000D03*
D56*
X133100000Y-71150000D03*
X134100000Y-71150000D03*
X135100000Y-71150000D03*
X135600000Y-71150000D03*
D55*
X136700000Y-71150000D03*
X137450000Y-71150000D03*
D57*
X130030000Y-66950000D03*
D58*
X130030000Y-70775000D03*
D57*
X138670000Y-66950000D03*
D58*
X138670000Y-70775000D03*
%TD*%
D20*
%TO.C,DIO*%
X142300000Y-141500000D03*
%TD*%
D28*
%TO.C,C30*%
X117325000Y-84200000D03*
X118875000Y-84200000D03*
%TD*%
D36*
%TO.C,C20*%
X132500000Y-78375000D03*
X132500000Y-76825000D03*
%TD*%
D28*
%TO.C,C1*%
X129025000Y-94500000D03*
X130575000Y-94500000D03*
%TD*%
D43*
%TO.C,FB1*%
X130437500Y-75100000D03*
X132562500Y-75100000D03*
%TD*%
D19*
%TO.C,C45*%
X162975000Y-149800000D03*
X161425000Y-149800000D03*
%TD*%
D36*
%TO.C,C15*%
X137800000Y-122175000D03*
X137800000Y-120625000D03*
%TD*%
D41*
%TO.C,R33*%
X162900000Y-141025000D03*
X162900000Y-139375000D03*
%TD*%
D46*
%TO.C,SW2*%
X118500000Y-76100000D03*
X123500000Y-76100000D03*
%TD*%
D19*
%TO.C,C39*%
X159975000Y-149800000D03*
X158425000Y-149800000D03*
%TD*%
D23*
%TO.C,R5*%
X134500000Y-92875000D03*
X134500000Y-94525000D03*
%TD*%
D20*
%TO.C,2V0*%
X115900000Y-130200000D03*
%TD*%
D19*
%TO.C,C2*%
X118875000Y-108000000D03*
X117325000Y-108000000D03*
%TD*%
D23*
%TO.C,R26*%
X135000000Y-140375000D03*
X135000000Y-142025000D03*
%TD*%
D41*
%TO.C,R19*%
X136500000Y-145225000D03*
X136500000Y-143575000D03*
%TD*%
D19*
%TO.C,C7*%
X118875000Y-104200000D03*
X117325000Y-104200000D03*
%TD*%
D26*
%TO.C,Y1*%
X131950000Y-110200000D03*
X134450000Y-110200000D03*
%TD*%
D59*
%TO.C,L3*%
X128375000Y-141000000D03*
X127025000Y-141000000D03*
%TD*%
D36*
%TO.C,C42*%
X158100000Y-140975000D03*
X158100000Y-139425000D03*
%TD*%
D16*
%TO.C,C18*%
X136300000Y-117325000D03*
X136300000Y-118875000D03*
%TD*%
D21*
%TO.C,R24*%
X122625000Y-144900000D03*
X120975000Y-144900000D03*
%TD*%
D20*
%TO.C,3V3*%
X137900000Y-112000000D03*
%TD*%
D36*
%TO.C,C4*%
X137200000Y-108275000D03*
X137200000Y-106725000D03*
%TD*%
D16*
%TO.C,C11*%
X137800000Y-123925000D03*
X137800000Y-125475000D03*
%TD*%
D41*
%TO.C,R32*%
X161400000Y-141025000D03*
X161400000Y-139375000D03*
%TD*%
D60*
%TO.C,U2*%
X122452700Y-102900001D03*
X122452700Y-103300001D03*
X122452700Y-103700000D03*
X122452700Y-104099999D03*
X122452700Y-104500001D03*
D61*
X122452700Y-104900000D03*
D60*
X122452700Y-105299999D03*
X122452700Y-105700001D03*
X122452700Y-106100000D03*
D61*
X122452700Y-106499999D03*
D60*
X122452700Y-106900001D03*
X122452700Y-107300000D03*
D61*
X122452700Y-107699999D03*
D60*
X122452700Y-108099999D03*
X122452700Y-108500000D03*
X122452700Y-108899999D03*
X122452700Y-109299999D03*
D62*
X123200001Y-110047300D03*
X123600001Y-110047300D03*
X124000000Y-110047300D03*
X124400001Y-110047300D03*
X124800001Y-110047300D03*
X125200000Y-110047300D03*
X125599999Y-110047300D03*
X126000001Y-110047300D03*
X126400000Y-110047300D03*
X126799999Y-110047300D03*
X127200001Y-110047300D03*
X127600000Y-110047300D03*
X127999999Y-110047300D03*
X128399999Y-110047300D03*
X128800000Y-110047300D03*
X129199999Y-110047300D03*
X129599999Y-110047300D03*
D60*
X130347300Y-109299999D03*
X130347300Y-108899999D03*
X130347300Y-108500000D03*
X130347300Y-108099999D03*
X130347300Y-107699999D03*
X130347300Y-107300000D03*
X130347300Y-106900001D03*
X130347300Y-106499999D03*
X130347300Y-106100000D03*
X130347300Y-105700001D03*
X130347300Y-105299999D03*
X130347300Y-104900000D03*
X130347300Y-104500001D03*
X130347300Y-104100001D03*
X130347300Y-103700000D03*
X130347300Y-103300001D03*
X130347300Y-102900001D03*
D62*
X129599999Y-102152700D03*
X129199999Y-102152700D03*
X128800000Y-102152700D03*
X128399999Y-102152700D03*
X127999999Y-102152700D03*
X127600000Y-102152700D03*
X127200001Y-102152700D03*
X126799999Y-102152700D03*
X126400000Y-102152700D03*
X126000001Y-102152700D03*
X125599999Y-102152700D03*
X125200000Y-102152700D03*
X124800001Y-102152700D03*
X124400001Y-102152700D03*
X124000000Y-102152700D03*
X123600001Y-102152700D03*
X123200001Y-102152700D03*
D63*
X126400000Y-106100000D03*
%TD*%
D20*
%TO.C,G1*%
X130400000Y-134200000D03*
%TD*%
D28*
%TO.C,C29*%
X121125000Y-89900000D03*
X122675000Y-89900000D03*
%TD*%
D23*
%TO.C,R13*%
X121000000Y-120975000D03*
X121000000Y-122625000D03*
%TD*%
D21*
%TO.C,R29*%
X115825000Y-93000000D03*
X114175000Y-93000000D03*
%TD*%
D20*
%TO.C,3V3*%
X149100000Y-137600000D03*
%TD*%
D46*
%TO.C,SW4*%
X118500000Y-97300000D03*
X118500000Y-102300000D03*
%TD*%
D28*
%TO.C,C31*%
X114025000Y-84200000D03*
X115575000Y-84200000D03*
%TD*%
%TO.C,C22*%
X133925000Y-148600000D03*
X135475000Y-148600000D03*
%TD*%
D45*
%TO.C,L1*%
X132500000Y-141675000D03*
X132500000Y-140325000D03*
%TD*%
D64*
%TO.C,SW10*%
X148500000Y-150100000D03*
D65*
X150200000Y-150100000D03*
X146800000Y-150100000D03*
%TD*%
D66*
%TO.C,U3*%
X134350000Y-126460000D03*
D67*
X134350000Y-124680000D03*
X134350000Y-122900000D03*
X134350000Y-121120000D03*
X134350000Y-119340000D03*
X134350000Y-117560000D03*
X134350000Y-115780000D03*
X134350000Y-114000000D03*
X123650000Y-113110000D03*
X123650000Y-114890000D03*
X123650000Y-116670000D03*
X123650000Y-118450000D03*
X123650000Y-120230000D03*
X123650000Y-122010000D03*
X123650000Y-123790000D03*
X123650000Y-125570000D03*
%TD*%
D19*
%TO.C,C24*%
X125575000Y-148000000D03*
X124025000Y-148000000D03*
%TD*%
D36*
%TO.C,C10*%
X134000000Y-108275000D03*
X134000000Y-106725000D03*
%TD*%
D19*
%TO.C,C27*%
X122575000Y-150700000D03*
X121025000Y-150700000D03*
%TD*%
D36*
%TO.C,C34*%
X120800000Y-92975000D03*
X120800000Y-91425000D03*
%TD*%
D28*
%TO.C,C35*%
X114225000Y-94500000D03*
X115775000Y-94500000D03*
%TD*%
D24*
%TO.C,R27*%
X133375000Y-150700000D03*
X135025000Y-150700000D03*
%TD*%
D23*
%TO.C,R3*%
X132500000Y-92875000D03*
X132500000Y-94525000D03*
%TD*%
D19*
%TO.C,C43*%
X159675000Y-137800000D03*
X158125000Y-137800000D03*
%TD*%
D21*
%TO.C,R25*%
X122625000Y-146400000D03*
X120975000Y-146400000D03*
%TD*%
D19*
%TO.C,C6*%
X118875000Y-109500000D03*
X117325000Y-109500000D03*
%TD*%
D23*
%TO.C,R22*%
X133500000Y-143575000D03*
X133500000Y-145225000D03*
%TD*%
D28*
%TO.C,C40*%
X161425000Y-137900000D03*
X162975000Y-137900000D03*
%TD*%
D36*
%TO.C,C26*%
X130300000Y-141575000D03*
X130300000Y-140025000D03*
%TD*%
D19*
%TO.C,C37*%
X155975000Y-145200000D03*
X154425000Y-145200000D03*
%TD*%
D16*
%TO.C,C19*%
X134100000Y-76825000D03*
X134100000Y-78375000D03*
%TD*%
D36*
%TO.C,C32*%
X120800000Y-85775000D03*
X120800000Y-84225000D03*
%TD*%
D68*
%TO.C,SW9*%
X117025000Y-125900000D03*
X117025000Y-122900000D03*
%TD*%
D47*
%TO.C,SW1*%
X129500000Y-97000000D03*
X123000000Y-97000000D03*
X123000000Y-92500000D03*
X129500000Y-92500000D03*
%TD*%
D69*
%TO.C,J4*%
X144133257Y-146685479D03*
X144133257Y-142085479D03*
D70*
X144133257Y-150085479D03*
X144133257Y-138685479D03*
%TD*%
M02*
