%TF.GenerationSoftware,KiCad,Pcbnew,(6.0.4)*%
%TF.CreationDate,2022-05-12T22:13:07-04:00*%
%TF.ProjectId,Mouse V1,4d6f7573-6520-4563-912e-6b696361645f,V2.0*%
%TF.SameCoordinates,Original*%
%TF.FileFunction,Legend,Bot*%
%TF.FilePolarity,Positive*%
%FSLAX46Y46*%
G04 Gerber Fmt 4.6, Leading zero omitted, Abs format (unit mm)*
G04 Created by KiCad (PCBNEW (6.0.4)) date 2022-05-12 22:13:07*
%MOMM*%
%LPD*%
G01*
G04 APERTURE LIST*
G04 Aperture macros list*
%AMRoundRect*
0 Rectangle with rounded corners*
0 $1 Rounding radius*
0 $2 $3 $4 $5 $6 $7 $8 $9 X,Y pos of 4 corners*
0 Add a 4 corners polygon primitive as box body*
4,1,4,$2,$3,$4,$5,$6,$7,$8,$9,$2,$3,0*
0 Add four circle primitives for the rounded corners*
1,1,$1+$1,$2,$3*
1,1,$1+$1,$4,$5*
1,1,$1+$1,$6,$7*
1,1,$1+$1,$8,$9*
0 Add four rect primitives between the rounded corners*
20,1,$1+$1,$2,$3,$4,$5,0*
20,1,$1+$1,$4,$5,$6,$7,0*
20,1,$1+$1,$6,$7,$8,$9,0*
20,1,$1+$1,$8,$9,$2,$3,0*%
G04 Aperture macros list end*
%ADD10C,0.150000*%
%ADD11C,0.120000*%
%ADD12C,1.701800*%
%ADD13O,2.500000X1.500000*%
%ADD14C,1.500000*%
%ADD15RoundRect,0.250000X-0.350000X-0.625000X0.350000X-0.625000X0.350000X0.625000X-0.350000X0.625000X0*%
%ADD16O,1.200000X1.750000*%
%ADD17C,1.498600*%
%ADD18O,0.850000X0.600000*%
%ADD19C,0.600000*%
%ADD20O,1.300000X2.600000*%
%ADD21O,1.300000X2.300000*%
%ADD22C,0.800000*%
%ADD23R,1.400000X1.400000*%
%ADD24C,1.400000*%
%ADD25C,1.000000*%
%ADD26RoundRect,0.218750X-0.256250X0.218750X-0.256250X-0.218750X0.256250X-0.218750X0.256250X0.218750X0*%
%ADD27R,0.800000X1.000000*%
%ADD28C,0.900000*%
%ADD29R,1.500000X0.700000*%
%ADD30C,2.000000*%
%ADD31C,1.100000*%
%ADD32R,2.500000X1.100000*%
%ADD33O,3.500000X1.900000*%
G04 APERTURE END LIST*
D10*
X157766743Y-150550000D02*
X160766743Y-150550000D01*
X160766743Y-150550000D02*
X160766743Y-149050000D01*
X160766743Y-149050000D02*
X157766743Y-149050000D01*
X157766743Y-149050000D02*
X157766743Y-150550000D01*
X150356743Y-140090000D02*
X150356743Y-137110000D01*
X118300000Y-90700000D02*
X119900000Y-90700000D01*
X119900000Y-90700000D02*
X119900000Y-93700000D01*
X119900000Y-93700000D02*
X118300000Y-93700000D01*
X118300000Y-93700000D02*
X118300000Y-90700000D01*
X163666743Y-141650000D02*
X162166743Y-141650000D01*
X162166743Y-141650000D02*
X162166743Y-138650000D01*
X162166743Y-138650000D02*
X163666743Y-138650000D01*
X163666743Y-138650000D02*
X163666743Y-141650000D01*
X154326743Y-140350000D02*
X150706743Y-140350000D01*
X120320000Y-147120000D02*
X123280000Y-147120000D01*
X123280000Y-147120000D02*
X123280000Y-145660000D01*
X123280000Y-145660000D02*
X120320000Y-145660000D01*
X120320000Y-145660000D02*
X120320000Y-147120000D01*
X150356743Y-137110000D02*
X150706743Y-137110000D01*
X123320000Y-144060000D02*
X126280000Y-144060000D01*
X126280000Y-144060000D02*
X126280000Y-142600000D01*
X126280000Y-142600000D02*
X123320000Y-142600000D01*
X123320000Y-142600000D02*
X123320000Y-144060000D01*
X153766743Y-145950000D02*
X156766743Y-145950000D01*
X156766743Y-145950000D02*
X156766743Y-144450000D01*
X156766743Y-144450000D02*
X153766743Y-144450000D01*
X153766743Y-144450000D02*
X153766743Y-145950000D01*
X154066743Y-146050000D02*
X157466743Y-146050000D01*
X157466743Y-146050000D02*
X157466743Y-150150000D01*
X157466743Y-150150000D02*
X154066743Y-150150000D01*
X154066743Y-150150000D02*
X154066743Y-146050000D01*
X132760000Y-142900000D02*
X134240000Y-142900000D01*
X134240000Y-142900000D02*
X134240000Y-145880000D01*
X134240000Y-145880000D02*
X132760000Y-145880000D01*
X132760000Y-145880000D02*
X132760000Y-142900000D01*
X157766743Y-149050000D02*
X160766743Y-149050000D01*
X160766743Y-149050000D02*
X160766743Y-147550000D01*
X160766743Y-147550000D02*
X157766743Y-147550000D01*
X157766743Y-147550000D02*
X157766743Y-149050000D01*
X157266743Y-144350000D02*
X153766743Y-144350000D01*
X153766743Y-144350000D02*
X153766743Y-142650000D01*
X153766743Y-142650000D02*
X157266743Y-142650000D01*
X157266743Y-142650000D02*
X157266743Y-144350000D01*
X123320000Y-148760000D02*
X126280000Y-148760000D01*
X126280000Y-148760000D02*
X126280000Y-147300000D01*
X126280000Y-147300000D02*
X123320000Y-147300000D01*
X123320000Y-147300000D02*
X123320000Y-148760000D01*
X158866743Y-141650000D02*
X157366743Y-141650000D01*
X157366743Y-141650000D02*
X157366743Y-138750000D01*
X157366743Y-138750000D02*
X158866743Y-138750000D01*
X158866743Y-138750000D02*
X158866743Y-141650000D01*
X160766743Y-137150000D02*
X163666743Y-137150000D01*
X163666743Y-137150000D02*
X163666743Y-138650000D01*
X163666743Y-138650000D02*
X160766743Y-138650000D01*
X160766743Y-138650000D02*
X160766743Y-137150000D01*
X151066743Y-148350000D02*
X153966743Y-148350000D01*
X153966743Y-148350000D02*
X153966743Y-149850000D01*
X153966743Y-149850000D02*
X151066743Y-149850000D01*
X151066743Y-149850000D02*
X151066743Y-148350000D01*
X157666743Y-151950000D02*
X154166743Y-151950000D01*
X154166743Y-151950000D02*
X154166743Y-150250000D01*
X154166743Y-150250000D02*
X157666743Y-150250000D01*
X157666743Y-150250000D02*
X157666743Y-151950000D01*
X154326743Y-140080000D02*
X154326743Y-140350000D01*
X154866743Y-140950000D02*
X157166743Y-140950000D01*
X157166743Y-140950000D02*
X157166743Y-136950000D01*
X157166743Y-136950000D02*
X154866743Y-136950000D01*
X154866743Y-136950000D02*
X154866743Y-140950000D01*
X160766743Y-147550000D02*
X163666743Y-147550000D01*
X163666743Y-147550000D02*
X163666743Y-149050000D01*
X163666743Y-149050000D02*
X160766743Y-149050000D01*
X160766743Y-149050000D02*
X160766743Y-147550000D01*
X151066743Y-151450000D02*
X153966743Y-151450000D01*
X153966743Y-151450000D02*
X153966743Y-149950000D01*
X153966743Y-149950000D02*
X151066743Y-149950000D01*
X151066743Y-149950000D02*
X151066743Y-151450000D01*
X120100000Y-90700000D02*
X121600000Y-90700000D01*
X121600000Y-90700000D02*
X121600000Y-93700000D01*
X121600000Y-93700000D02*
X120100000Y-93700000D01*
X120100000Y-93700000D02*
X120100000Y-90700000D01*
X150706743Y-136840000D02*
X154326743Y-136850000D01*
X159166743Y-141650000D02*
X160666743Y-141650000D01*
X160666743Y-141650000D02*
X160666743Y-138650000D01*
X160666743Y-138650000D02*
X159166743Y-138650000D01*
X159166743Y-138650000D02*
X159166743Y-141650000D01*
X154326743Y-137120000D02*
X154676743Y-137120000D01*
X139100000Y-152100000D02*
X139100000Y-136700000D01*
X146066743Y-151750000D02*
X150966743Y-151750000D01*
X150966743Y-151750000D02*
X150966743Y-148650000D01*
X150966743Y-148650000D02*
X146066743Y-148650000D01*
X146066743Y-148650000D02*
X146066743Y-151750000D01*
X120320000Y-151460000D02*
X123280000Y-151460000D01*
X123280000Y-151460000D02*
X123280000Y-150000000D01*
X123280000Y-150000000D02*
X120320000Y-150000000D01*
X120320000Y-150000000D02*
X120320000Y-151460000D01*
X162166743Y-141650000D02*
X160666743Y-141650000D01*
X160666743Y-141650000D02*
X160666743Y-138650000D01*
X160666743Y-138650000D02*
X162166743Y-138650000D01*
X162166743Y-138650000D02*
X162166743Y-141650000D01*
X150706743Y-140350000D02*
X150706743Y-140090000D01*
X163666743Y-150550000D02*
X160766743Y-150550000D01*
X160766743Y-150550000D02*
X160766743Y-152050000D01*
X160766743Y-152050000D02*
X163666743Y-152050000D01*
X163666743Y-152050000D02*
X163666743Y-150550000D01*
X150706743Y-137110000D02*
X150706743Y-136840000D01*
X129540000Y-143930000D02*
X132500000Y-143930000D01*
X132500000Y-143930000D02*
X132500000Y-142470000D01*
X132500000Y-142470000D02*
X129540000Y-142470000D01*
X129540000Y-142470000D02*
X129540000Y-143930000D01*
X120320000Y-145660000D02*
X123280000Y-145660000D01*
X123280000Y-145660000D02*
X123280000Y-144200000D01*
X123280000Y-144200000D02*
X120320000Y-144200000D01*
X120320000Y-144200000D02*
X120320000Y-145660000D01*
X160766743Y-149050000D02*
X163666743Y-149050000D01*
X163666743Y-149050000D02*
X163666743Y-150550000D01*
X163666743Y-150550000D02*
X160766743Y-150550000D01*
X160766743Y-150550000D02*
X160766743Y-149050000D01*
X157666743Y-147250000D02*
X162866743Y-147250000D01*
X162866743Y-147250000D02*
X162866743Y-142050000D01*
X162866743Y-142050000D02*
X157666743Y-142050000D01*
X157666743Y-142050000D02*
X157666743Y-147250000D01*
X123320000Y-147120000D02*
X126280000Y-147120000D01*
X126280000Y-147120000D02*
X126280000Y-145660000D01*
X126280000Y-145660000D02*
X123320000Y-145660000D01*
X123320000Y-145660000D02*
X123320000Y-147120000D01*
X157766743Y-152050000D02*
X160766743Y-152050000D01*
X160766743Y-152050000D02*
X160766743Y-150550000D01*
X160766743Y-150550000D02*
X157766743Y-150550000D01*
X157766743Y-150550000D02*
X157766743Y-152050000D01*
X154676743Y-140080000D02*
X154326743Y-140080000D01*
X154326743Y-136850000D02*
X154326743Y-137120000D01*
X134240000Y-145880000D02*
X135770000Y-145880000D01*
X135770000Y-145880000D02*
X135770000Y-142900000D01*
X135770000Y-142900000D02*
X134240000Y-142900000D01*
X134240000Y-142900000D02*
X134240000Y-145880000D01*
X149766743Y-140150000D02*
X146866743Y-140150000D01*
X146866743Y-140150000D02*
X146866743Y-138750000D01*
X146866743Y-138750000D02*
X149766743Y-138750000D01*
X149766743Y-138750000D02*
X149766743Y-140150000D01*
X135790000Y-142900000D02*
X137230000Y-142900000D01*
X137230000Y-142900000D02*
X137230000Y-145880000D01*
X137230000Y-145880000D02*
X135790000Y-145880000D01*
X135790000Y-145880000D02*
X135790000Y-142900000D01*
X123320000Y-145660000D02*
X126280000Y-145660000D01*
X126280000Y-145660000D02*
X126280000Y-144200000D01*
X126280000Y-144200000D02*
X123320000Y-144200000D01*
X123320000Y-144200000D02*
X123320000Y-145660000D01*
X140900000Y-152100000D02*
X140900000Y-136700000D01*
X154676743Y-137120000D02*
X154676743Y-140080000D01*
X156766743Y-142550000D02*
X153766743Y-142550000D01*
X153766743Y-142550000D02*
X153766743Y-141050000D01*
X153766743Y-141050000D02*
X156766743Y-141050000D01*
X156766743Y-141050000D02*
X156766743Y-142550000D01*
X157466743Y-138550000D02*
X160366743Y-138550000D01*
X160366743Y-138550000D02*
X160366743Y-137050000D01*
X160366743Y-137050000D02*
X157466743Y-137050000D01*
X157466743Y-137050000D02*
X157466743Y-138550000D01*
X150706743Y-140090000D02*
X150356743Y-140090000D01*
%TO.C,L5*%
X162289923Y-148802380D02*
X162766114Y-148802380D01*
X162766114Y-147802380D01*
X161480399Y-147802380D02*
X161956590Y-147802380D01*
X162004209Y-148278571D01*
X161956590Y-148230952D01*
X161861352Y-148183333D01*
X161623257Y-148183333D01*
X161528018Y-148230952D01*
X161480399Y-148278571D01*
X161432780Y-148373809D01*
X161432780Y-148611904D01*
X161480399Y-148707142D01*
X161528018Y-148754761D01*
X161623257Y-148802380D01*
X161861352Y-148802380D01*
X161956590Y-148754761D01*
X162004209Y-148707142D01*
%TO.C,C25*%
X131642857Y-143557142D02*
X131690476Y-143604761D01*
X131833333Y-143652380D01*
X131928571Y-143652380D01*
X132071428Y-143604761D01*
X132166666Y-143509523D01*
X132214285Y-143414285D01*
X132261904Y-143223809D01*
X132261904Y-143080952D01*
X132214285Y-142890476D01*
X132166666Y-142795238D01*
X132071428Y-142700000D01*
X131928571Y-142652380D01*
X131833333Y-142652380D01*
X131690476Y-142700000D01*
X131642857Y-142747619D01*
X131261904Y-142747619D02*
X131214285Y-142700000D01*
X131119047Y-142652380D01*
X130880952Y-142652380D01*
X130785714Y-142700000D01*
X130738095Y-142747619D01*
X130690476Y-142842857D01*
X130690476Y-142938095D01*
X130738095Y-143080952D01*
X131309523Y-143652380D01*
X130690476Y-143652380D01*
X129785714Y-142652380D02*
X130261904Y-142652380D01*
X130309523Y-143128571D01*
X130261904Y-143080952D01*
X130166666Y-143033333D01*
X129928571Y-143033333D01*
X129833333Y-143080952D01*
X129785714Y-143128571D01*
X129738095Y-143223809D01*
X129738095Y-143461904D01*
X129785714Y-143557142D01*
X129833333Y-143604761D01*
X129928571Y-143652380D01*
X130166666Y-143652380D01*
X130261904Y-143604761D01*
X130309523Y-143557142D01*
%TO.C,R30*%
X153142857Y-149602380D02*
X153476190Y-149126190D01*
X153714285Y-149602380D02*
X153714285Y-148602380D01*
X153333333Y-148602380D01*
X153238095Y-148650000D01*
X153190476Y-148697619D01*
X153142857Y-148792857D01*
X153142857Y-148935714D01*
X153190476Y-149030952D01*
X153238095Y-149078571D01*
X153333333Y-149126190D01*
X153714285Y-149126190D01*
X152809523Y-148602380D02*
X152190476Y-148602380D01*
X152523809Y-148983333D01*
X152380952Y-148983333D01*
X152285714Y-149030952D01*
X152238095Y-149078571D01*
X152190476Y-149173809D01*
X152190476Y-149411904D01*
X152238095Y-149507142D01*
X152285714Y-149554761D01*
X152380952Y-149602380D01*
X152666666Y-149602380D01*
X152761904Y-149554761D01*
X152809523Y-149507142D01*
X151571428Y-148602380D02*
X151476190Y-148602380D01*
X151380952Y-148650000D01*
X151333333Y-148697619D01*
X151285714Y-148792857D01*
X151238095Y-148983333D01*
X151238095Y-149221428D01*
X151285714Y-149411904D01*
X151333333Y-149507142D01*
X151380952Y-149554761D01*
X151476190Y-149602380D01*
X151571428Y-149602380D01*
X151666666Y-149554761D01*
X151714285Y-149507142D01*
X151761904Y-149411904D01*
X151809523Y-149221428D01*
X151809523Y-148983333D01*
X151761904Y-148792857D01*
X151714285Y-148697619D01*
X151666666Y-148650000D01*
X151571428Y-148602380D01*
%TO.C,C41*%
X160307142Y-139507142D02*
X160354761Y-139459523D01*
X160402380Y-139316666D01*
X160402380Y-139221428D01*
X160354761Y-139078571D01*
X160259523Y-138983333D01*
X160164285Y-138935714D01*
X159973809Y-138888095D01*
X159830952Y-138888095D01*
X159640476Y-138935714D01*
X159545238Y-138983333D01*
X159450000Y-139078571D01*
X159402380Y-139221428D01*
X159402380Y-139316666D01*
X159450000Y-139459523D01*
X159497619Y-139507142D01*
X159735714Y-140364285D02*
X160402380Y-140364285D01*
X159354761Y-140126190D02*
X160069047Y-139888095D01*
X160069047Y-140507142D01*
X160402380Y-141411904D02*
X160402380Y-140840476D01*
X160402380Y-141126190D02*
X159402380Y-141126190D01*
X159545238Y-141030952D01*
X159640476Y-140935714D01*
X159688095Y-140840476D01*
%TO.C,FB2*%
X156683333Y-151078571D02*
X157016666Y-151078571D01*
X157016666Y-151602380D02*
X157016666Y-150602380D01*
X156540476Y-150602380D01*
X155826190Y-151078571D02*
X155683333Y-151126190D01*
X155635714Y-151173809D01*
X155588095Y-151269047D01*
X155588095Y-151411904D01*
X155635714Y-151507142D01*
X155683333Y-151554761D01*
X155778571Y-151602380D01*
X156159523Y-151602380D01*
X156159523Y-150602380D01*
X155826190Y-150602380D01*
X155730952Y-150650000D01*
X155683333Y-150697619D01*
X155635714Y-150792857D01*
X155635714Y-150888095D01*
X155683333Y-150983333D01*
X155730952Y-151030952D01*
X155826190Y-151078571D01*
X156159523Y-151078571D01*
X155207142Y-150697619D02*
X155159523Y-150650000D01*
X155064285Y-150602380D01*
X154826190Y-150602380D01*
X154730952Y-150650000D01*
X154683333Y-150697619D01*
X154635714Y-150792857D01*
X154635714Y-150888095D01*
X154683333Y-151030952D01*
X155254761Y-151602380D01*
X154635714Y-151602380D01*
%TO.C,U8*%
X158302380Y-143988095D02*
X159111904Y-143988095D01*
X159207142Y-144035714D01*
X159254761Y-144083333D01*
X159302380Y-144178571D01*
X159302380Y-144369047D01*
X159254761Y-144464285D01*
X159207142Y-144511904D01*
X159111904Y-144559523D01*
X158302380Y-144559523D01*
X158730952Y-145178571D02*
X158683333Y-145083333D01*
X158635714Y-145035714D01*
X158540476Y-144988095D01*
X158492857Y-144988095D01*
X158397619Y-145035714D01*
X158350000Y-145083333D01*
X158302380Y-145178571D01*
X158302380Y-145369047D01*
X158350000Y-145464285D01*
X158397619Y-145511904D01*
X158492857Y-145559523D01*
X158540476Y-145559523D01*
X158635714Y-145511904D01*
X158683333Y-145464285D01*
X158730952Y-145369047D01*
X158730952Y-145178571D01*
X158778571Y-145083333D01*
X158826190Y-145035714D01*
X158921428Y-144988095D01*
X159111904Y-144988095D01*
X159207142Y-145035714D01*
X159254761Y-145083333D01*
X159302380Y-145178571D01*
X159302380Y-145369047D01*
X159254761Y-145464285D01*
X159207142Y-145511904D01*
X159111904Y-145559523D01*
X158921428Y-145559523D01*
X158826190Y-145511904D01*
X158778571Y-145464285D01*
X158730952Y-145369047D01*
%TO.C,R17*%
X125442857Y-143752380D02*
X125776190Y-143276190D01*
X126014285Y-143752380D02*
X126014285Y-142752380D01*
X125633333Y-142752380D01*
X125538095Y-142800000D01*
X125490476Y-142847619D01*
X125442857Y-142942857D01*
X125442857Y-143085714D01*
X125490476Y-143180952D01*
X125538095Y-143228571D01*
X125633333Y-143276190D01*
X126014285Y-143276190D01*
X124490476Y-143752380D02*
X125061904Y-143752380D01*
X124776190Y-143752380D02*
X124776190Y-142752380D01*
X124871428Y-142895238D01*
X124966666Y-142990476D01*
X125061904Y-143038095D01*
X124157142Y-142752380D02*
X123490476Y-142752380D01*
X123919047Y-143752380D01*
%TO.C,C33*%
X119557142Y-91557142D02*
X119604761Y-91509523D01*
X119652380Y-91366666D01*
X119652380Y-91271428D01*
X119604761Y-91128571D01*
X119509523Y-91033333D01*
X119414285Y-90985714D01*
X119223809Y-90938095D01*
X119080952Y-90938095D01*
X118890476Y-90985714D01*
X118795238Y-91033333D01*
X118700000Y-91128571D01*
X118652380Y-91271428D01*
X118652380Y-91366666D01*
X118700000Y-91509523D01*
X118747619Y-91557142D01*
X118652380Y-91890476D02*
X118652380Y-92509523D01*
X119033333Y-92176190D01*
X119033333Y-92319047D01*
X119080952Y-92414285D01*
X119128571Y-92461904D01*
X119223809Y-92509523D01*
X119461904Y-92509523D01*
X119557142Y-92461904D01*
X119604761Y-92414285D01*
X119652380Y-92319047D01*
X119652380Y-92033333D01*
X119604761Y-91938095D01*
X119557142Y-91890476D01*
X118652380Y-92842857D02*
X118652380Y-93461904D01*
X119033333Y-93128571D01*
X119033333Y-93271428D01*
X119080952Y-93366666D01*
X119128571Y-93414285D01*
X119223809Y-93461904D01*
X119461904Y-93461904D01*
X119557142Y-93414285D01*
X119604761Y-93366666D01*
X119652380Y-93271428D01*
X119652380Y-92985714D01*
X119604761Y-92890476D01*
X119557142Y-92842857D01*
%TO.C,R31*%
X159892857Y-151802380D02*
X160226190Y-151326190D01*
X160464285Y-151802380D02*
X160464285Y-150802380D01*
X160083333Y-150802380D01*
X159988095Y-150850000D01*
X159940476Y-150897619D01*
X159892857Y-150992857D01*
X159892857Y-151135714D01*
X159940476Y-151230952D01*
X159988095Y-151278571D01*
X160083333Y-151326190D01*
X160464285Y-151326190D01*
X159559523Y-150802380D02*
X158940476Y-150802380D01*
X159273809Y-151183333D01*
X159130952Y-151183333D01*
X159035714Y-151230952D01*
X158988095Y-151278571D01*
X158940476Y-151373809D01*
X158940476Y-151611904D01*
X158988095Y-151707142D01*
X159035714Y-151754761D01*
X159130952Y-151802380D01*
X159416666Y-151802380D01*
X159511904Y-151754761D01*
X159559523Y-151707142D01*
X157988095Y-151802380D02*
X158559523Y-151802380D01*
X158273809Y-151802380D02*
X158273809Y-150802380D01*
X158369047Y-150945238D01*
X158464285Y-151040476D01*
X158559523Y-151088095D01*
%TO.C,C44*%
X159916114Y-148717142D02*
X159963733Y-148764761D01*
X160106590Y-148812380D01*
X160201828Y-148812380D01*
X160344685Y-148764761D01*
X160439923Y-148669523D01*
X160487542Y-148574285D01*
X160535161Y-148383809D01*
X160535161Y-148240952D01*
X160487542Y-148050476D01*
X160439923Y-147955238D01*
X160344685Y-147860000D01*
X160201828Y-147812380D01*
X160106590Y-147812380D01*
X159963733Y-147860000D01*
X159916114Y-147907619D01*
X159058971Y-148145714D02*
X159058971Y-148812380D01*
X159297066Y-147764761D02*
X159535161Y-148479047D01*
X158916114Y-148479047D01*
X158106590Y-148145714D02*
X158106590Y-148812380D01*
X158344685Y-147764761D02*
X158582780Y-148479047D01*
X157963733Y-148479047D01*
%TO.C,R21*%
X125442857Y-146852380D02*
X125776190Y-146376190D01*
X126014285Y-146852380D02*
X126014285Y-145852380D01*
X125633333Y-145852380D01*
X125538095Y-145900000D01*
X125490476Y-145947619D01*
X125442857Y-146042857D01*
X125442857Y-146185714D01*
X125490476Y-146280952D01*
X125538095Y-146328571D01*
X125633333Y-146376190D01*
X126014285Y-146376190D01*
X125061904Y-145947619D02*
X125014285Y-145900000D01*
X124919047Y-145852380D01*
X124680952Y-145852380D01*
X124585714Y-145900000D01*
X124538095Y-145947619D01*
X124490476Y-146042857D01*
X124490476Y-146138095D01*
X124538095Y-146280952D01*
X125109523Y-146852380D01*
X124490476Y-146852380D01*
X123538095Y-146852380D02*
X124109523Y-146852380D01*
X123823809Y-146852380D02*
X123823809Y-145852380D01*
X123919047Y-145995238D01*
X124014285Y-146090476D01*
X124109523Y-146138095D01*
%TO.C,R23*%
X135452380Y-143757142D02*
X134976190Y-143423809D01*
X135452380Y-143185714D02*
X134452380Y-143185714D01*
X134452380Y-143566666D01*
X134500000Y-143661904D01*
X134547619Y-143709523D01*
X134642857Y-143757142D01*
X134785714Y-143757142D01*
X134880952Y-143709523D01*
X134928571Y-143661904D01*
X134976190Y-143566666D01*
X134976190Y-143185714D01*
X134547619Y-144138095D02*
X134500000Y-144185714D01*
X134452380Y-144280952D01*
X134452380Y-144519047D01*
X134500000Y-144614285D01*
X134547619Y-144661904D01*
X134642857Y-144709523D01*
X134738095Y-144709523D01*
X134880952Y-144661904D01*
X135452380Y-144090476D01*
X135452380Y-144709523D01*
X134452380Y-145042857D02*
X134452380Y-145661904D01*
X134833333Y-145328571D01*
X134833333Y-145471428D01*
X134880952Y-145566666D01*
X134928571Y-145614285D01*
X135023809Y-145661904D01*
X135261904Y-145661904D01*
X135357142Y-145614285D01*
X135404761Y-145566666D01*
X135452380Y-145471428D01*
X135452380Y-145185714D01*
X135404761Y-145090476D01*
X135357142Y-145042857D01*
%TO.C,C48*%
X148946114Y-139877142D02*
X148993733Y-139924761D01*
X149136590Y-139972380D01*
X149231828Y-139972380D01*
X149374685Y-139924761D01*
X149469923Y-139829523D01*
X149517542Y-139734285D01*
X149565161Y-139543809D01*
X149565161Y-139400952D01*
X149517542Y-139210476D01*
X149469923Y-139115238D01*
X149374685Y-139020000D01*
X149231828Y-138972380D01*
X149136590Y-138972380D01*
X148993733Y-139020000D01*
X148946114Y-139067619D01*
X148088971Y-139305714D02*
X148088971Y-139972380D01*
X148327066Y-138924761D02*
X148565161Y-139639047D01*
X147946114Y-139639047D01*
X147422304Y-139400952D02*
X147517542Y-139353333D01*
X147565161Y-139305714D01*
X147612780Y-139210476D01*
X147612780Y-139162857D01*
X147565161Y-139067619D01*
X147517542Y-139020000D01*
X147422304Y-138972380D01*
X147231828Y-138972380D01*
X147136590Y-139020000D01*
X147088971Y-139067619D01*
X147041352Y-139162857D01*
X147041352Y-139210476D01*
X147088971Y-139305714D01*
X147136590Y-139353333D01*
X147231828Y-139400952D01*
X147422304Y-139400952D01*
X147517542Y-139448571D01*
X147565161Y-139496190D01*
X147612780Y-139591428D01*
X147612780Y-139781904D01*
X147565161Y-139877142D01*
X147517542Y-139924761D01*
X147422304Y-139972380D01*
X147231828Y-139972380D01*
X147136590Y-139924761D01*
X147088971Y-139877142D01*
X147041352Y-139781904D01*
X147041352Y-139591428D01*
X147088971Y-139496190D01*
X147136590Y-139448571D01*
X147231828Y-139400952D01*
%TO.C,U7*%
X150161904Y-142352380D02*
X150161904Y-143161904D01*
X150114285Y-143257142D01*
X150066666Y-143304761D01*
X149971428Y-143352380D01*
X149780952Y-143352380D01*
X149685714Y-143304761D01*
X149638095Y-143257142D01*
X149590476Y-143161904D01*
X149590476Y-142352380D01*
X149209523Y-142352380D02*
X148542857Y-142352380D01*
X148971428Y-143352380D01*
%TO.C,FB3*%
X156276590Y-143438571D02*
X156609923Y-143438571D01*
X156609923Y-143962380D02*
X156609923Y-142962380D01*
X156133733Y-142962380D01*
X155419447Y-143438571D02*
X155276590Y-143486190D01*
X155228971Y-143533809D01*
X155181352Y-143629047D01*
X155181352Y-143771904D01*
X155228971Y-143867142D01*
X155276590Y-143914761D01*
X155371828Y-143962380D01*
X155752780Y-143962380D01*
X155752780Y-142962380D01*
X155419447Y-142962380D01*
X155324209Y-143010000D01*
X155276590Y-143057619D01*
X155228971Y-143152857D01*
X155228971Y-143248095D01*
X155276590Y-143343333D01*
X155324209Y-143390952D01*
X155419447Y-143438571D01*
X155752780Y-143438571D01*
X154848018Y-142962380D02*
X154228971Y-142962380D01*
X154562304Y-143343333D01*
X154419447Y-143343333D01*
X154324209Y-143390952D01*
X154276590Y-143438571D01*
X154228971Y-143533809D01*
X154228971Y-143771904D01*
X154276590Y-143867142D01*
X154324209Y-143914761D01*
X154419447Y-143962380D01*
X154705161Y-143962380D01*
X154800399Y-143914761D01*
X154848018Y-143867142D01*
%TO.C,R20*%
X125442857Y-145352380D02*
X125776190Y-144876190D01*
X126014285Y-145352380D02*
X126014285Y-144352380D01*
X125633333Y-144352380D01*
X125538095Y-144400000D01*
X125490476Y-144447619D01*
X125442857Y-144542857D01*
X125442857Y-144685714D01*
X125490476Y-144780952D01*
X125538095Y-144828571D01*
X125633333Y-144876190D01*
X126014285Y-144876190D01*
X125061904Y-144447619D02*
X125014285Y-144400000D01*
X124919047Y-144352380D01*
X124680952Y-144352380D01*
X124585714Y-144400000D01*
X124538095Y-144447619D01*
X124490476Y-144542857D01*
X124490476Y-144638095D01*
X124538095Y-144780952D01*
X125109523Y-145352380D01*
X124490476Y-145352380D01*
X123871428Y-144352380D02*
X123776190Y-144352380D01*
X123680952Y-144400000D01*
X123633333Y-144447619D01*
X123585714Y-144542857D01*
X123538095Y-144733333D01*
X123538095Y-144971428D01*
X123585714Y-145161904D01*
X123633333Y-145257142D01*
X123680952Y-145304761D01*
X123776190Y-145352380D01*
X123871428Y-145352380D01*
X123966666Y-145304761D01*
X124014285Y-145257142D01*
X124061904Y-145161904D01*
X124109523Y-144971428D01*
X124109523Y-144733333D01*
X124061904Y-144542857D01*
X124014285Y-144447619D01*
X123966666Y-144400000D01*
X123871428Y-144352380D01*
%TO.C,Y3*%
X155929447Y-139333809D02*
X156405637Y-139333809D01*
X155405637Y-139000476D02*
X155929447Y-139333809D01*
X155405637Y-139667142D01*
X155405637Y-139905238D02*
X155405637Y-140524285D01*
X155786590Y-140190952D01*
X155786590Y-140333809D01*
X155834209Y-140429047D01*
X155881828Y-140476666D01*
X155977066Y-140524285D01*
X156215161Y-140524285D01*
X156310399Y-140476666D01*
X156358018Y-140429047D01*
X156405637Y-140333809D01*
X156405637Y-140048095D01*
X156358018Y-139952857D01*
X156310399Y-139905238D01*
%TO.C,C46*%
X155936114Y-142217142D02*
X155983733Y-142264761D01*
X156126590Y-142312380D01*
X156221828Y-142312380D01*
X156364685Y-142264761D01*
X156459923Y-142169523D01*
X156507542Y-142074285D01*
X156555161Y-141883809D01*
X156555161Y-141740952D01*
X156507542Y-141550476D01*
X156459923Y-141455238D01*
X156364685Y-141360000D01*
X156221828Y-141312380D01*
X156126590Y-141312380D01*
X155983733Y-141360000D01*
X155936114Y-141407619D01*
X155078971Y-141645714D02*
X155078971Y-142312380D01*
X155317066Y-141264761D02*
X155555161Y-141979047D01*
X154936114Y-141979047D01*
X154126590Y-141312380D02*
X154317066Y-141312380D01*
X154412304Y-141360000D01*
X154459923Y-141407619D01*
X154555161Y-141550476D01*
X154602780Y-141740952D01*
X154602780Y-142121904D01*
X154555161Y-142217142D01*
X154507542Y-142264761D01*
X154412304Y-142312380D01*
X154221828Y-142312380D01*
X154126590Y-142264761D01*
X154078971Y-142217142D01*
X154031352Y-142121904D01*
X154031352Y-141883809D01*
X154078971Y-141788571D01*
X154126590Y-141740952D01*
X154221828Y-141693333D01*
X154412304Y-141693333D01*
X154507542Y-141740952D01*
X154555161Y-141788571D01*
X154602780Y-141883809D01*
%TO.C,C38*%
X153146114Y-151097142D02*
X153193733Y-151144761D01*
X153336590Y-151192380D01*
X153431828Y-151192380D01*
X153574685Y-151144761D01*
X153669923Y-151049523D01*
X153717542Y-150954285D01*
X153765161Y-150763809D01*
X153765161Y-150620952D01*
X153717542Y-150430476D01*
X153669923Y-150335238D01*
X153574685Y-150240000D01*
X153431828Y-150192380D01*
X153336590Y-150192380D01*
X153193733Y-150240000D01*
X153146114Y-150287619D01*
X152812780Y-150192380D02*
X152193733Y-150192380D01*
X152527066Y-150573333D01*
X152384209Y-150573333D01*
X152288971Y-150620952D01*
X152241352Y-150668571D01*
X152193733Y-150763809D01*
X152193733Y-151001904D01*
X152241352Y-151097142D01*
X152288971Y-151144761D01*
X152384209Y-151192380D01*
X152669923Y-151192380D01*
X152765161Y-151144761D01*
X152812780Y-151097142D01*
X151622304Y-150620952D02*
X151717542Y-150573333D01*
X151765161Y-150525714D01*
X151812780Y-150430476D01*
X151812780Y-150382857D01*
X151765161Y-150287619D01*
X151717542Y-150240000D01*
X151622304Y-150192380D01*
X151431828Y-150192380D01*
X151336590Y-150240000D01*
X151288971Y-150287619D01*
X151241352Y-150382857D01*
X151241352Y-150430476D01*
X151288971Y-150525714D01*
X151336590Y-150573333D01*
X151431828Y-150620952D01*
X151622304Y-150620952D01*
X151717542Y-150668571D01*
X151765161Y-150716190D01*
X151812780Y-150811428D01*
X151812780Y-151001904D01*
X151765161Y-151097142D01*
X151717542Y-151144761D01*
X151622304Y-151192380D01*
X151431828Y-151192380D01*
X151336590Y-151144761D01*
X151288971Y-151097142D01*
X151241352Y-151001904D01*
X151241352Y-150811428D01*
X151288971Y-150716190D01*
X151336590Y-150668571D01*
X151431828Y-150620952D01*
%TO.C,U6*%
X156611904Y-147102380D02*
X156611904Y-147911904D01*
X156564285Y-148007142D01*
X156516666Y-148054761D01*
X156421428Y-148102380D01*
X156230952Y-148102380D01*
X156135714Y-148054761D01*
X156088095Y-148007142D01*
X156040476Y-147911904D01*
X156040476Y-147102380D01*
X155135714Y-147102380D02*
X155326190Y-147102380D01*
X155421428Y-147150000D01*
X155469047Y-147197619D01*
X155564285Y-147340476D01*
X155611904Y-147530952D01*
X155611904Y-147911904D01*
X155564285Y-148007142D01*
X155516666Y-148054761D01*
X155421428Y-148102380D01*
X155230952Y-148102380D01*
X155135714Y-148054761D01*
X155088095Y-148007142D01*
X155040476Y-147911904D01*
X155040476Y-147673809D01*
X155088095Y-147578571D01*
X155135714Y-147530952D01*
X155230952Y-147483333D01*
X155421428Y-147483333D01*
X155516666Y-147530952D01*
X155564285Y-147578571D01*
X155611904Y-147673809D01*
%TO.C,D5*%
X153221352Y-139052380D02*
X153221352Y-138052380D01*
X152983257Y-138052380D01*
X152840399Y-138100000D01*
X152745161Y-138195238D01*
X152697542Y-138290476D01*
X152649923Y-138480952D01*
X152649923Y-138623809D01*
X152697542Y-138814285D01*
X152745161Y-138909523D01*
X152840399Y-139004761D01*
X152983257Y-139052380D01*
X153221352Y-139052380D01*
X151745161Y-138052380D02*
X152221352Y-138052380D01*
X152268971Y-138528571D01*
X152221352Y-138480952D01*
X152126114Y-138433333D01*
X151888018Y-138433333D01*
X151792780Y-138480952D01*
X151745161Y-138528571D01*
X151697542Y-138623809D01*
X151697542Y-138861904D01*
X151745161Y-138957142D01*
X151792780Y-139004761D01*
X151888018Y-139052380D01*
X152126114Y-139052380D01*
X152221352Y-139004761D01*
X152268971Y-138957142D01*
X153166666Y-141457142D02*
X153214285Y-141504761D01*
X153357142Y-141552380D01*
X153452380Y-141552380D01*
X153595238Y-141504761D01*
X153690476Y-141409523D01*
X153738095Y-141314285D01*
X153785714Y-141123809D01*
X153785714Y-140980952D01*
X153738095Y-140790476D01*
X153690476Y-140695238D01*
X153595238Y-140600000D01*
X153452380Y-140552380D01*
X153357142Y-140552380D01*
X153214285Y-140600000D01*
X153166666Y-140647619D01*
X152738095Y-141552380D02*
X152738095Y-140552380D01*
X152404761Y-141266666D01*
X152071428Y-140552380D01*
X152071428Y-141552380D01*
X151071428Y-141552380D02*
X151642857Y-141552380D01*
X151357142Y-141552380D02*
X151357142Y-140552380D01*
X151452380Y-140695238D01*
X151547619Y-140790476D01*
X151642857Y-140838095D01*
X150690476Y-140647619D02*
X150642857Y-140600000D01*
X150547619Y-140552380D01*
X150309523Y-140552380D01*
X150214285Y-140600000D01*
X150166666Y-140647619D01*
X150119047Y-140742857D01*
X150119047Y-140838095D01*
X150166666Y-140980952D01*
X150738095Y-141552380D01*
X150119047Y-141552380D01*
X149785714Y-140552380D02*
X149166666Y-140552380D01*
X149500000Y-140933333D01*
X149357142Y-140933333D01*
X149261904Y-140980952D01*
X149214285Y-141028571D01*
X149166666Y-141123809D01*
X149166666Y-141361904D01*
X149214285Y-141457142D01*
X149261904Y-141504761D01*
X149357142Y-141552380D01*
X149642857Y-141552380D01*
X149738095Y-141504761D01*
X149785714Y-141457142D01*
X148214285Y-141552380D02*
X148785714Y-141552380D01*
X148500000Y-141552380D02*
X148500000Y-140552380D01*
X148595238Y-140695238D01*
X148690476Y-140790476D01*
X148785714Y-140838095D01*
%TO.C,C47*%
X162856114Y-151737142D02*
X162903733Y-151784761D01*
X163046590Y-151832380D01*
X163141828Y-151832380D01*
X163284685Y-151784761D01*
X163379923Y-151689523D01*
X163427542Y-151594285D01*
X163475161Y-151403809D01*
X163475161Y-151260952D01*
X163427542Y-151070476D01*
X163379923Y-150975238D01*
X163284685Y-150880000D01*
X163141828Y-150832380D01*
X163046590Y-150832380D01*
X162903733Y-150880000D01*
X162856114Y-150927619D01*
X161998971Y-151165714D02*
X161998971Y-151832380D01*
X162237066Y-150784761D02*
X162475161Y-151499047D01*
X161856114Y-151499047D01*
X161570399Y-150832380D02*
X160903733Y-150832380D01*
X161332304Y-151832380D01*
%TO.C,C45*%
X162836114Y-150227142D02*
X162883733Y-150274761D01*
X163026590Y-150322380D01*
X163121828Y-150322380D01*
X163264685Y-150274761D01*
X163359923Y-150179523D01*
X163407542Y-150084285D01*
X163455161Y-149893809D01*
X163455161Y-149750952D01*
X163407542Y-149560476D01*
X163359923Y-149465238D01*
X163264685Y-149370000D01*
X163121828Y-149322380D01*
X163026590Y-149322380D01*
X162883733Y-149370000D01*
X162836114Y-149417619D01*
X161978971Y-149655714D02*
X161978971Y-150322380D01*
X162217066Y-149274761D02*
X162455161Y-149989047D01*
X161836114Y-149989047D01*
X160978971Y-149322380D02*
X161455161Y-149322380D01*
X161502780Y-149798571D01*
X161455161Y-149750952D01*
X161359923Y-149703333D01*
X161121828Y-149703333D01*
X161026590Y-149750952D01*
X160978971Y-149798571D01*
X160931352Y-149893809D01*
X160931352Y-150131904D01*
X160978971Y-150227142D01*
X161026590Y-150274761D01*
X161121828Y-150322380D01*
X161359923Y-150322380D01*
X161455161Y-150274761D01*
X161502780Y-150227142D01*
%TO.C,R33*%
X163395637Y-139487142D02*
X162919447Y-139153809D01*
X163395637Y-138915714D02*
X162395637Y-138915714D01*
X162395637Y-139296666D01*
X162443257Y-139391904D01*
X162490876Y-139439523D01*
X162586114Y-139487142D01*
X162728971Y-139487142D01*
X162824209Y-139439523D01*
X162871828Y-139391904D01*
X162919447Y-139296666D01*
X162919447Y-138915714D01*
X162395637Y-139820476D02*
X162395637Y-140439523D01*
X162776590Y-140106190D01*
X162776590Y-140249047D01*
X162824209Y-140344285D01*
X162871828Y-140391904D01*
X162967066Y-140439523D01*
X163205161Y-140439523D01*
X163300399Y-140391904D01*
X163348018Y-140344285D01*
X163395637Y-140249047D01*
X163395637Y-139963333D01*
X163348018Y-139868095D01*
X163300399Y-139820476D01*
X162395637Y-140772857D02*
X162395637Y-141391904D01*
X162776590Y-141058571D01*
X162776590Y-141201428D01*
X162824209Y-141296666D01*
X162871828Y-141344285D01*
X162967066Y-141391904D01*
X163205161Y-141391904D01*
X163300399Y-141344285D01*
X163348018Y-141296666D01*
X163395637Y-141201428D01*
X163395637Y-140915714D01*
X163348018Y-140820476D01*
X163300399Y-140772857D01*
%TO.C,C39*%
X159892857Y-150207142D02*
X159940476Y-150254761D01*
X160083333Y-150302380D01*
X160178571Y-150302380D01*
X160321428Y-150254761D01*
X160416666Y-150159523D01*
X160464285Y-150064285D01*
X160511904Y-149873809D01*
X160511904Y-149730952D01*
X160464285Y-149540476D01*
X160416666Y-149445238D01*
X160321428Y-149350000D01*
X160178571Y-149302380D01*
X160083333Y-149302380D01*
X159940476Y-149350000D01*
X159892857Y-149397619D01*
X159559523Y-149302380D02*
X158940476Y-149302380D01*
X159273809Y-149683333D01*
X159130952Y-149683333D01*
X159035714Y-149730952D01*
X158988095Y-149778571D01*
X158940476Y-149873809D01*
X158940476Y-150111904D01*
X158988095Y-150207142D01*
X159035714Y-150254761D01*
X159130952Y-150302380D01*
X159416666Y-150302380D01*
X159511904Y-150254761D01*
X159559523Y-150207142D01*
X158464285Y-150302380D02*
X158273809Y-150302380D01*
X158178571Y-150254761D01*
X158130952Y-150207142D01*
X158035714Y-150064285D01*
X157988095Y-149873809D01*
X157988095Y-149492857D01*
X158035714Y-149397619D01*
X158083333Y-149350000D01*
X158178571Y-149302380D01*
X158369047Y-149302380D01*
X158464285Y-149350000D01*
X158511904Y-149397619D01*
X158559523Y-149492857D01*
X158559523Y-149730952D01*
X158511904Y-149826190D01*
X158464285Y-149873809D01*
X158369047Y-149921428D01*
X158178571Y-149921428D01*
X158083333Y-149873809D01*
X158035714Y-149826190D01*
X157988095Y-149730952D01*
%TO.C,R19*%
X136952380Y-143757142D02*
X136476190Y-143423809D01*
X136952380Y-143185714D02*
X135952380Y-143185714D01*
X135952380Y-143566666D01*
X136000000Y-143661904D01*
X136047619Y-143709523D01*
X136142857Y-143757142D01*
X136285714Y-143757142D01*
X136380952Y-143709523D01*
X136428571Y-143661904D01*
X136476190Y-143566666D01*
X136476190Y-143185714D01*
X136952380Y-144709523D02*
X136952380Y-144138095D01*
X136952380Y-144423809D02*
X135952380Y-144423809D01*
X136095238Y-144328571D01*
X136190476Y-144233333D01*
X136238095Y-144138095D01*
X136952380Y-145185714D02*
X136952380Y-145376190D01*
X136904761Y-145471428D01*
X136857142Y-145519047D01*
X136714285Y-145614285D01*
X136523809Y-145661904D01*
X136142857Y-145661904D01*
X136047619Y-145614285D01*
X136000000Y-145566666D01*
X135952380Y-145471428D01*
X135952380Y-145280952D01*
X136000000Y-145185714D01*
X136047619Y-145138095D01*
X136142857Y-145090476D01*
X136380952Y-145090476D01*
X136476190Y-145138095D01*
X136523809Y-145185714D01*
X136571428Y-145280952D01*
X136571428Y-145471428D01*
X136523809Y-145566666D01*
X136476190Y-145614285D01*
X136380952Y-145661904D01*
%TO.C,C42*%
X158507142Y-139507142D02*
X158554761Y-139459523D01*
X158602380Y-139316666D01*
X158602380Y-139221428D01*
X158554761Y-139078571D01*
X158459523Y-138983333D01*
X158364285Y-138935714D01*
X158173809Y-138888095D01*
X158030952Y-138888095D01*
X157840476Y-138935714D01*
X157745238Y-138983333D01*
X157650000Y-139078571D01*
X157602380Y-139221428D01*
X157602380Y-139316666D01*
X157650000Y-139459523D01*
X157697619Y-139507142D01*
X157935714Y-140364285D02*
X158602380Y-140364285D01*
X157554761Y-140126190D02*
X158269047Y-139888095D01*
X158269047Y-140507142D01*
X157697619Y-140840476D02*
X157650000Y-140888095D01*
X157602380Y-140983333D01*
X157602380Y-141221428D01*
X157650000Y-141316666D01*
X157697619Y-141364285D01*
X157792857Y-141411904D01*
X157888095Y-141411904D01*
X158030952Y-141364285D01*
X158602380Y-140792857D01*
X158602380Y-141411904D01*
%TO.C,R24*%
X122442857Y-145352380D02*
X122776190Y-144876190D01*
X123014285Y-145352380D02*
X123014285Y-144352380D01*
X122633333Y-144352380D01*
X122538095Y-144400000D01*
X122490476Y-144447619D01*
X122442857Y-144542857D01*
X122442857Y-144685714D01*
X122490476Y-144780952D01*
X122538095Y-144828571D01*
X122633333Y-144876190D01*
X123014285Y-144876190D01*
X122061904Y-144447619D02*
X122014285Y-144400000D01*
X121919047Y-144352380D01*
X121680952Y-144352380D01*
X121585714Y-144400000D01*
X121538095Y-144447619D01*
X121490476Y-144542857D01*
X121490476Y-144638095D01*
X121538095Y-144780952D01*
X122109523Y-145352380D01*
X121490476Y-145352380D01*
X120633333Y-144685714D02*
X120633333Y-145352380D01*
X120871428Y-144304761D02*
X121109523Y-145019047D01*
X120490476Y-145019047D01*
%TO.C,R32*%
X161895637Y-139517142D02*
X161419447Y-139183809D01*
X161895637Y-138945714D02*
X160895637Y-138945714D01*
X160895637Y-139326666D01*
X160943257Y-139421904D01*
X160990876Y-139469523D01*
X161086114Y-139517142D01*
X161228971Y-139517142D01*
X161324209Y-139469523D01*
X161371828Y-139421904D01*
X161419447Y-139326666D01*
X161419447Y-138945714D01*
X160895637Y-139850476D02*
X160895637Y-140469523D01*
X161276590Y-140136190D01*
X161276590Y-140279047D01*
X161324209Y-140374285D01*
X161371828Y-140421904D01*
X161467066Y-140469523D01*
X161705161Y-140469523D01*
X161800399Y-140421904D01*
X161848018Y-140374285D01*
X161895637Y-140279047D01*
X161895637Y-139993333D01*
X161848018Y-139898095D01*
X161800399Y-139850476D01*
X160990876Y-140850476D02*
X160943257Y-140898095D01*
X160895637Y-140993333D01*
X160895637Y-141231428D01*
X160943257Y-141326666D01*
X160990876Y-141374285D01*
X161086114Y-141421904D01*
X161181352Y-141421904D01*
X161324209Y-141374285D01*
X161895637Y-140802857D01*
X161895637Y-141421904D01*
%TO.C,SW10*%
X150359523Y-149854761D02*
X150216666Y-149902380D01*
X149978571Y-149902380D01*
X149883333Y-149854761D01*
X149835714Y-149807142D01*
X149788095Y-149711904D01*
X149788095Y-149616666D01*
X149835714Y-149521428D01*
X149883333Y-149473809D01*
X149978571Y-149426190D01*
X150169047Y-149378571D01*
X150264285Y-149330952D01*
X150311904Y-149283333D01*
X150359523Y-149188095D01*
X150359523Y-149092857D01*
X150311904Y-148997619D01*
X150264285Y-148950000D01*
X150169047Y-148902380D01*
X149930952Y-148902380D01*
X149788095Y-148950000D01*
X149454761Y-148902380D02*
X149216666Y-149902380D01*
X149026190Y-149188095D01*
X148835714Y-149902380D01*
X148597619Y-148902380D01*
X147692857Y-149902380D02*
X148264285Y-149902380D01*
X147978571Y-149902380D02*
X147978571Y-148902380D01*
X148073809Y-149045238D01*
X148169047Y-149140476D01*
X148264285Y-149188095D01*
X147073809Y-148902380D02*
X146978571Y-148902380D01*
X146883333Y-148950000D01*
X146835714Y-148997619D01*
X146788095Y-149092857D01*
X146740476Y-149283333D01*
X146740476Y-149521428D01*
X146788095Y-149711904D01*
X146835714Y-149807142D01*
X146883333Y-149854761D01*
X146978571Y-149902380D01*
X147073809Y-149902380D01*
X147169047Y-149854761D01*
X147216666Y-149807142D01*
X147264285Y-149711904D01*
X147311904Y-149521428D01*
X147311904Y-149283333D01*
X147264285Y-149092857D01*
X147216666Y-148997619D01*
X147169047Y-148950000D01*
X147073809Y-148902380D01*
%TO.C,C24*%
X125442857Y-148357142D02*
X125490476Y-148404761D01*
X125633333Y-148452380D01*
X125728571Y-148452380D01*
X125871428Y-148404761D01*
X125966666Y-148309523D01*
X126014285Y-148214285D01*
X126061904Y-148023809D01*
X126061904Y-147880952D01*
X126014285Y-147690476D01*
X125966666Y-147595238D01*
X125871428Y-147500000D01*
X125728571Y-147452380D01*
X125633333Y-147452380D01*
X125490476Y-147500000D01*
X125442857Y-147547619D01*
X125061904Y-147547619D02*
X125014285Y-147500000D01*
X124919047Y-147452380D01*
X124680952Y-147452380D01*
X124585714Y-147500000D01*
X124538095Y-147547619D01*
X124490476Y-147642857D01*
X124490476Y-147738095D01*
X124538095Y-147880952D01*
X125109523Y-148452380D01*
X124490476Y-148452380D01*
X123633333Y-147785714D02*
X123633333Y-148452380D01*
X123871428Y-147404761D02*
X124109523Y-148119047D01*
X123490476Y-148119047D01*
%TO.C,C27*%
X122442857Y-151057142D02*
X122490476Y-151104761D01*
X122633333Y-151152380D01*
X122728571Y-151152380D01*
X122871428Y-151104761D01*
X122966666Y-151009523D01*
X123014285Y-150914285D01*
X123061904Y-150723809D01*
X123061904Y-150580952D01*
X123014285Y-150390476D01*
X122966666Y-150295238D01*
X122871428Y-150200000D01*
X122728571Y-150152380D01*
X122633333Y-150152380D01*
X122490476Y-150200000D01*
X122442857Y-150247619D01*
X122061904Y-150247619D02*
X122014285Y-150200000D01*
X121919047Y-150152380D01*
X121680952Y-150152380D01*
X121585714Y-150200000D01*
X121538095Y-150247619D01*
X121490476Y-150342857D01*
X121490476Y-150438095D01*
X121538095Y-150580952D01*
X122109523Y-151152380D01*
X121490476Y-151152380D01*
X121157142Y-150152380D02*
X120490476Y-150152380D01*
X120919047Y-151152380D01*
%TO.C,C34*%
X121257142Y-91557142D02*
X121304761Y-91509523D01*
X121352380Y-91366666D01*
X121352380Y-91271428D01*
X121304761Y-91128571D01*
X121209523Y-91033333D01*
X121114285Y-90985714D01*
X120923809Y-90938095D01*
X120780952Y-90938095D01*
X120590476Y-90985714D01*
X120495238Y-91033333D01*
X120400000Y-91128571D01*
X120352380Y-91271428D01*
X120352380Y-91366666D01*
X120400000Y-91509523D01*
X120447619Y-91557142D01*
X120352380Y-91890476D02*
X120352380Y-92509523D01*
X120733333Y-92176190D01*
X120733333Y-92319047D01*
X120780952Y-92414285D01*
X120828571Y-92461904D01*
X120923809Y-92509523D01*
X121161904Y-92509523D01*
X121257142Y-92461904D01*
X121304761Y-92414285D01*
X121352380Y-92319047D01*
X121352380Y-92033333D01*
X121304761Y-91938095D01*
X121257142Y-91890476D01*
X120685714Y-93366666D02*
X121352380Y-93366666D01*
X120304761Y-93128571D02*
X121019047Y-92890476D01*
X121019047Y-93509523D01*
%TO.C,C43*%
X159546114Y-138217142D02*
X159593733Y-138264761D01*
X159736590Y-138312380D01*
X159831828Y-138312380D01*
X159974685Y-138264761D01*
X160069923Y-138169523D01*
X160117542Y-138074285D01*
X160165161Y-137883809D01*
X160165161Y-137740952D01*
X160117542Y-137550476D01*
X160069923Y-137455238D01*
X159974685Y-137360000D01*
X159831828Y-137312380D01*
X159736590Y-137312380D01*
X159593733Y-137360000D01*
X159546114Y-137407619D01*
X158688971Y-137645714D02*
X158688971Y-138312380D01*
X158927066Y-137264761D02*
X159165161Y-137979047D01*
X158546114Y-137979047D01*
X158260399Y-137312380D02*
X157641352Y-137312380D01*
X157974685Y-137693333D01*
X157831828Y-137693333D01*
X157736590Y-137740952D01*
X157688971Y-137788571D01*
X157641352Y-137883809D01*
X157641352Y-138121904D01*
X157688971Y-138217142D01*
X157736590Y-138264761D01*
X157831828Y-138312380D01*
X158117542Y-138312380D01*
X158212780Y-138264761D01*
X158260399Y-138217142D01*
%TO.C,R25*%
X122442857Y-146852380D02*
X122776190Y-146376190D01*
X123014285Y-146852380D02*
X123014285Y-145852380D01*
X122633333Y-145852380D01*
X122538095Y-145900000D01*
X122490476Y-145947619D01*
X122442857Y-146042857D01*
X122442857Y-146185714D01*
X122490476Y-146280952D01*
X122538095Y-146328571D01*
X122633333Y-146376190D01*
X123014285Y-146376190D01*
X122061904Y-145947619D02*
X122014285Y-145900000D01*
X121919047Y-145852380D01*
X121680952Y-145852380D01*
X121585714Y-145900000D01*
X121538095Y-145947619D01*
X121490476Y-146042857D01*
X121490476Y-146138095D01*
X121538095Y-146280952D01*
X122109523Y-146852380D01*
X121490476Y-146852380D01*
X120585714Y-145852380D02*
X121061904Y-145852380D01*
X121109523Y-146328571D01*
X121061904Y-146280952D01*
X120966666Y-146233333D01*
X120728571Y-146233333D01*
X120633333Y-146280952D01*
X120585714Y-146328571D01*
X120538095Y-146423809D01*
X120538095Y-146661904D01*
X120585714Y-146757142D01*
X120633333Y-146804761D01*
X120728571Y-146852380D01*
X120966666Y-146852380D01*
X121061904Y-146804761D01*
X121109523Y-146757142D01*
%TO.C,R22*%
X133952380Y-143757142D02*
X133476190Y-143423809D01*
X133952380Y-143185714D02*
X132952380Y-143185714D01*
X132952380Y-143566666D01*
X133000000Y-143661904D01*
X133047619Y-143709523D01*
X133142857Y-143757142D01*
X133285714Y-143757142D01*
X133380952Y-143709523D01*
X133428571Y-143661904D01*
X133476190Y-143566666D01*
X133476190Y-143185714D01*
X133047619Y-144138095D02*
X133000000Y-144185714D01*
X132952380Y-144280952D01*
X132952380Y-144519047D01*
X133000000Y-144614285D01*
X133047619Y-144661904D01*
X133142857Y-144709523D01*
X133238095Y-144709523D01*
X133380952Y-144661904D01*
X133952380Y-144090476D01*
X133952380Y-144709523D01*
X133047619Y-145090476D02*
X133000000Y-145138095D01*
X132952380Y-145233333D01*
X132952380Y-145471428D01*
X133000000Y-145566666D01*
X133047619Y-145614285D01*
X133142857Y-145661904D01*
X133238095Y-145661904D01*
X133380952Y-145614285D01*
X133952380Y-145042857D01*
X133952380Y-145661904D01*
%TO.C,C40*%
X162846114Y-138337142D02*
X162893733Y-138384761D01*
X163036590Y-138432380D01*
X163131828Y-138432380D01*
X163274685Y-138384761D01*
X163369923Y-138289523D01*
X163417542Y-138194285D01*
X163465161Y-138003809D01*
X163465161Y-137860952D01*
X163417542Y-137670476D01*
X163369923Y-137575238D01*
X163274685Y-137480000D01*
X163131828Y-137432380D01*
X163036590Y-137432380D01*
X162893733Y-137480000D01*
X162846114Y-137527619D01*
X161988971Y-137765714D02*
X161988971Y-138432380D01*
X162227066Y-137384761D02*
X162465161Y-138099047D01*
X161846114Y-138099047D01*
X161274685Y-137432380D02*
X161179447Y-137432380D01*
X161084209Y-137480000D01*
X161036590Y-137527619D01*
X160988971Y-137622857D01*
X160941352Y-137813333D01*
X160941352Y-138051428D01*
X160988971Y-138241904D01*
X161036590Y-138337142D01*
X161084209Y-138384761D01*
X161179447Y-138432380D01*
X161274685Y-138432380D01*
X161369923Y-138384761D01*
X161417542Y-138337142D01*
X161465161Y-138241904D01*
X161512780Y-138051428D01*
X161512780Y-137813333D01*
X161465161Y-137622857D01*
X161417542Y-137527619D01*
X161369923Y-137480000D01*
X161274685Y-137432380D01*
%TO.C,C37*%
X155906114Y-145597142D02*
X155953733Y-145644761D01*
X156096590Y-145692380D01*
X156191828Y-145692380D01*
X156334685Y-145644761D01*
X156429923Y-145549523D01*
X156477542Y-145454285D01*
X156525161Y-145263809D01*
X156525161Y-145120952D01*
X156477542Y-144930476D01*
X156429923Y-144835238D01*
X156334685Y-144740000D01*
X156191828Y-144692380D01*
X156096590Y-144692380D01*
X155953733Y-144740000D01*
X155906114Y-144787619D01*
X155572780Y-144692380D02*
X154953733Y-144692380D01*
X155287066Y-145073333D01*
X155144209Y-145073333D01*
X155048971Y-145120952D01*
X155001352Y-145168571D01*
X154953733Y-145263809D01*
X154953733Y-145501904D01*
X155001352Y-145597142D01*
X155048971Y-145644761D01*
X155144209Y-145692380D01*
X155429923Y-145692380D01*
X155525161Y-145644761D01*
X155572780Y-145597142D01*
X154620399Y-144692380D02*
X153953733Y-144692380D01*
X154382304Y-145692380D01*
%TO.C,TP9*%
X127252380Y-98938095D02*
X127252380Y-99509523D01*
X128252380Y-99223809D02*
X127252380Y-99223809D01*
X128252380Y-99842857D02*
X127252380Y-99842857D01*
X127252380Y-100223809D01*
X127300000Y-100319047D01*
X127347619Y-100366666D01*
X127442857Y-100414285D01*
X127585714Y-100414285D01*
X127680952Y-100366666D01*
X127728571Y-100319047D01*
X127776190Y-100223809D01*
X127776190Y-99842857D01*
X128252380Y-100890476D02*
X128252380Y-101080952D01*
X128204761Y-101176190D01*
X128157142Y-101223809D01*
X128014285Y-101319047D01*
X127823809Y-101366666D01*
X127442857Y-101366666D01*
X127347619Y-101319047D01*
X127300000Y-101271428D01*
X127252380Y-101176190D01*
X127252380Y-100985714D01*
X127300000Y-100890476D01*
X127347619Y-100842857D01*
X127442857Y-100795238D01*
X127680952Y-100795238D01*
X127776190Y-100842857D01*
X127823809Y-100890476D01*
X127871428Y-100985714D01*
X127871428Y-101176190D01*
X127823809Y-101271428D01*
X127776190Y-101319047D01*
X127680952Y-101366666D01*
%TO.C,TP4*%
X123652380Y-98938095D02*
X123652380Y-99509523D01*
X124652380Y-99223809D02*
X123652380Y-99223809D01*
X124652380Y-99842857D02*
X123652380Y-99842857D01*
X123652380Y-100223809D01*
X123700000Y-100319047D01*
X123747619Y-100366666D01*
X123842857Y-100414285D01*
X123985714Y-100414285D01*
X124080952Y-100366666D01*
X124128571Y-100319047D01*
X124176190Y-100223809D01*
X124176190Y-99842857D01*
X123985714Y-101271428D02*
X124652380Y-101271428D01*
X123604761Y-101033333D02*
X124319047Y-100795238D01*
X124319047Y-101414285D01*
%TO.C,D2*%
X134952380Y-93761904D02*
X133952380Y-93761904D01*
X133952380Y-94000000D01*
X134000000Y-94142857D01*
X134095238Y-94238095D01*
X134190476Y-94285714D01*
X134380952Y-94333333D01*
X134523809Y-94333333D01*
X134714285Y-94285714D01*
X134809523Y-94238095D01*
X134904761Y-94142857D01*
X134952380Y-94000000D01*
X134952380Y-93761904D01*
X134047619Y-94714285D02*
X134000000Y-94761904D01*
X133952380Y-94857142D01*
X133952380Y-95095238D01*
X134000000Y-95190476D01*
X134047619Y-95238095D01*
X134142857Y-95285714D01*
X134238095Y-95285714D01*
X134380952Y-95238095D01*
X134952380Y-94666666D01*
X134952380Y-95285714D01*
%TO.C,TP16*%
X153238095Y-143752380D02*
X152666666Y-143752380D01*
X152952380Y-144752380D02*
X152952380Y-143752380D01*
X152333333Y-144752380D02*
X152333333Y-143752380D01*
X151952380Y-143752380D01*
X151857142Y-143800000D01*
X151809523Y-143847619D01*
X151761904Y-143942857D01*
X151761904Y-144085714D01*
X151809523Y-144180952D01*
X151857142Y-144228571D01*
X151952380Y-144276190D01*
X152333333Y-144276190D01*
X150809523Y-144752380D02*
X151380952Y-144752380D01*
X151095238Y-144752380D02*
X151095238Y-143752380D01*
X151190476Y-143895238D01*
X151285714Y-143990476D01*
X151380952Y-144038095D01*
X149952380Y-143752380D02*
X150142857Y-143752380D01*
X150238095Y-143800000D01*
X150285714Y-143847619D01*
X150380952Y-143990476D01*
X150428571Y-144180952D01*
X150428571Y-144561904D01*
X150380952Y-144657142D01*
X150333333Y-144704761D01*
X150238095Y-144752380D01*
X150047619Y-144752380D01*
X149952380Y-144704761D01*
X149904761Y-144657142D01*
X149857142Y-144561904D01*
X149857142Y-144323809D01*
X149904761Y-144228571D01*
X149952380Y-144180952D01*
X150047619Y-144133333D01*
X150238095Y-144133333D01*
X150333333Y-144180952D01*
X150380952Y-144228571D01*
X150428571Y-144323809D01*
%TO.C,TP7*%
X125652380Y-99038095D02*
X125652380Y-99609523D01*
X126652380Y-99323809D02*
X125652380Y-99323809D01*
X126652380Y-99942857D02*
X125652380Y-99942857D01*
X125652380Y-100323809D01*
X125700000Y-100419047D01*
X125747619Y-100466666D01*
X125842857Y-100514285D01*
X125985714Y-100514285D01*
X126080952Y-100466666D01*
X126128571Y-100419047D01*
X126176190Y-100323809D01*
X126176190Y-99942857D01*
X125652380Y-100847619D02*
X125652380Y-101514285D01*
X126652380Y-101085714D01*
%TO.C,D3*%
X136952380Y-93761904D02*
X135952380Y-93761904D01*
X135952380Y-94000000D01*
X136000000Y-94142857D01*
X136095238Y-94238095D01*
X136190476Y-94285714D01*
X136380952Y-94333333D01*
X136523809Y-94333333D01*
X136714285Y-94285714D01*
X136809523Y-94238095D01*
X136904761Y-94142857D01*
X136952380Y-94000000D01*
X136952380Y-93761904D01*
X135952380Y-94666666D02*
X135952380Y-95285714D01*
X136333333Y-94952380D01*
X136333333Y-95095238D01*
X136380952Y-95190476D01*
X136428571Y-95238095D01*
X136523809Y-95285714D01*
X136761904Y-95285714D01*
X136857142Y-95238095D01*
X136904761Y-95190476D01*
X136952380Y-95095238D01*
X136952380Y-94809523D01*
X136904761Y-94714285D01*
X136857142Y-94666666D01*
%TO.C,TP12*%
X129152380Y-98061904D02*
X129152380Y-98633333D01*
X130152380Y-98347619D02*
X129152380Y-98347619D01*
X130152380Y-98966666D02*
X129152380Y-98966666D01*
X129152380Y-99347619D01*
X129200000Y-99442857D01*
X129247619Y-99490476D01*
X129342857Y-99538095D01*
X129485714Y-99538095D01*
X129580952Y-99490476D01*
X129628571Y-99442857D01*
X129676190Y-99347619D01*
X129676190Y-98966666D01*
X130152380Y-100490476D02*
X130152380Y-99919047D01*
X130152380Y-100204761D02*
X129152380Y-100204761D01*
X129295238Y-100109523D01*
X129390476Y-100014285D01*
X129438095Y-99919047D01*
X129247619Y-100871428D02*
X129200000Y-100919047D01*
X129152380Y-101014285D01*
X129152380Y-101252380D01*
X129200000Y-101347619D01*
X129247619Y-101395238D01*
X129342857Y-101442857D01*
X129438095Y-101442857D01*
X129580952Y-101395238D01*
X130152380Y-100823809D01*
X130152380Y-101442857D01*
%TO.C,SW9*%
X118204761Y-128966666D02*
X118252380Y-129109523D01*
X118252380Y-129347619D01*
X118204761Y-129442857D01*
X118157142Y-129490476D01*
X118061904Y-129538095D01*
X117966666Y-129538095D01*
X117871428Y-129490476D01*
X117823809Y-129442857D01*
X117776190Y-129347619D01*
X117728571Y-129157142D01*
X117680952Y-129061904D01*
X117633333Y-129014285D01*
X117538095Y-128966666D01*
X117442857Y-128966666D01*
X117347619Y-129014285D01*
X117300000Y-129061904D01*
X117252380Y-129157142D01*
X117252380Y-129395238D01*
X117300000Y-129538095D01*
X117252380Y-129871428D02*
X118252380Y-130109523D01*
X117538095Y-130300000D01*
X118252380Y-130490476D01*
X117252380Y-130728571D01*
X118252380Y-131157142D02*
X118252380Y-131347619D01*
X118204761Y-131442857D01*
X118157142Y-131490476D01*
X118014285Y-131585714D01*
X117823809Y-131633333D01*
X117442857Y-131633333D01*
X117347619Y-131585714D01*
X117300000Y-131538095D01*
X117252380Y-131442857D01*
X117252380Y-131252380D01*
X117300000Y-131157142D01*
X117347619Y-131109523D01*
X117442857Y-131061904D01*
X117680952Y-131061904D01*
X117776190Y-131109523D01*
X117823809Y-131157142D01*
X117871428Y-131252380D01*
X117871428Y-131442857D01*
X117823809Y-131538095D01*
X117776190Y-131585714D01*
X117680952Y-131633333D01*
%TO.C,TP15*%
X149952380Y-144961904D02*
X149952380Y-145533333D01*
X150952380Y-145247619D02*
X149952380Y-145247619D01*
X150952380Y-145866666D02*
X149952380Y-145866666D01*
X149952380Y-146247619D01*
X150000000Y-146342857D01*
X150047619Y-146390476D01*
X150142857Y-146438095D01*
X150285714Y-146438095D01*
X150380952Y-146390476D01*
X150428571Y-146342857D01*
X150476190Y-146247619D01*
X150476190Y-145866666D01*
X150952380Y-147390476D02*
X150952380Y-146819047D01*
X150952380Y-147104761D02*
X149952380Y-147104761D01*
X150095238Y-147009523D01*
X150190476Y-146914285D01*
X150238095Y-146819047D01*
X149952380Y-148295238D02*
X149952380Y-147819047D01*
X150428571Y-147771428D01*
X150380952Y-147819047D01*
X150333333Y-147914285D01*
X150333333Y-148152380D01*
X150380952Y-148247619D01*
X150428571Y-148295238D01*
X150523809Y-148342857D01*
X150761904Y-148342857D01*
X150857142Y-148295238D01*
X150904761Y-148247619D01*
X150952380Y-148152380D01*
X150952380Y-147914285D01*
X150904761Y-147819047D01*
X150857142Y-147771428D01*
%TO.C,TP8*%
X126552380Y-104438095D02*
X126552380Y-105009523D01*
X127552380Y-104723809D02*
X126552380Y-104723809D01*
X127552380Y-105342857D02*
X126552380Y-105342857D01*
X126552380Y-105723809D01*
X126600000Y-105819047D01*
X126647619Y-105866666D01*
X126742857Y-105914285D01*
X126885714Y-105914285D01*
X126980952Y-105866666D01*
X127028571Y-105819047D01*
X127076190Y-105723809D01*
X127076190Y-105342857D01*
X126980952Y-106485714D02*
X126933333Y-106390476D01*
X126885714Y-106342857D01*
X126790476Y-106295238D01*
X126742857Y-106295238D01*
X126647619Y-106342857D01*
X126600000Y-106390476D01*
X126552380Y-106485714D01*
X126552380Y-106676190D01*
X126600000Y-106771428D01*
X126647619Y-106819047D01*
X126742857Y-106866666D01*
X126790476Y-106866666D01*
X126885714Y-106819047D01*
X126933333Y-106771428D01*
X126980952Y-106676190D01*
X126980952Y-106485714D01*
X127028571Y-106390476D01*
X127076190Y-106342857D01*
X127171428Y-106295238D01*
X127361904Y-106295238D01*
X127457142Y-106342857D01*
X127504761Y-106390476D01*
X127552380Y-106485714D01*
X127552380Y-106676190D01*
X127504761Y-106771428D01*
X127457142Y-106819047D01*
X127361904Y-106866666D01*
X127171428Y-106866666D01*
X127076190Y-106819047D01*
X127028571Y-106771428D01*
X126980952Y-106676190D01*
%TO.C,TP6*%
X126261904Y-105952380D02*
X125690476Y-105952380D01*
X125976190Y-106952380D02*
X125976190Y-105952380D01*
X125357142Y-106952380D02*
X125357142Y-105952380D01*
X124976190Y-105952380D01*
X124880952Y-106000000D01*
X124833333Y-106047619D01*
X124785714Y-106142857D01*
X124785714Y-106285714D01*
X124833333Y-106380952D01*
X124880952Y-106428571D01*
X124976190Y-106476190D01*
X125357142Y-106476190D01*
X123928571Y-105952380D02*
X124119047Y-105952380D01*
X124214285Y-106000000D01*
X124261904Y-106047619D01*
X124357142Y-106190476D01*
X124404761Y-106380952D01*
X124404761Y-106761904D01*
X124357142Y-106857142D01*
X124309523Y-106904761D01*
X124214285Y-106952380D01*
X124023809Y-106952380D01*
X123928571Y-106904761D01*
X123880952Y-106857142D01*
X123833333Y-106761904D01*
X123833333Y-106523809D01*
X123880952Y-106428571D01*
X123928571Y-106380952D01*
X124023809Y-106333333D01*
X124214285Y-106333333D01*
X124309523Y-106380952D01*
X124357142Y-106428571D01*
X124404761Y-106523809D01*
%TO.C,TP11*%
X129552380Y-104461904D02*
X129552380Y-105033333D01*
X130552380Y-104747619D02*
X129552380Y-104747619D01*
X130552380Y-105366666D02*
X129552380Y-105366666D01*
X129552380Y-105747619D01*
X129600000Y-105842857D01*
X129647619Y-105890476D01*
X129742857Y-105938095D01*
X129885714Y-105938095D01*
X129980952Y-105890476D01*
X130028571Y-105842857D01*
X130076190Y-105747619D01*
X130076190Y-105366666D01*
X130552380Y-106890476D02*
X130552380Y-106319047D01*
X130552380Y-106604761D02*
X129552380Y-106604761D01*
X129695238Y-106509523D01*
X129790476Y-106414285D01*
X129838095Y-106319047D01*
X130552380Y-107842857D02*
X130552380Y-107271428D01*
X130552380Y-107557142D02*
X129552380Y-107557142D01*
X129695238Y-107461904D01*
X129790476Y-107366666D01*
X129838095Y-107271428D01*
%TO.C,SW1*%
X122133333Y-96004761D02*
X121990476Y-96052380D01*
X121752380Y-96052380D01*
X121657142Y-96004761D01*
X121609523Y-95957142D01*
X121561904Y-95861904D01*
X121561904Y-95766666D01*
X121609523Y-95671428D01*
X121657142Y-95623809D01*
X121752380Y-95576190D01*
X121942857Y-95528571D01*
X122038095Y-95480952D01*
X122085714Y-95433333D01*
X122133333Y-95338095D01*
X122133333Y-95242857D01*
X122085714Y-95147619D01*
X122038095Y-95100000D01*
X121942857Y-95052380D01*
X121704761Y-95052380D01*
X121561904Y-95100000D01*
X121228571Y-95052380D02*
X120990476Y-96052380D01*
X120800000Y-95338095D01*
X120609523Y-96052380D01*
X120371428Y-95052380D01*
X119466666Y-96052380D02*
X120038095Y-96052380D01*
X119752380Y-96052380D02*
X119752380Y-95052380D01*
X119847619Y-95195238D01*
X119942857Y-95290476D01*
X120038095Y-95338095D01*
%TO.C,TP10*%
X127952380Y-105461904D02*
X127952380Y-106033333D01*
X128952380Y-105747619D02*
X127952380Y-105747619D01*
X128952380Y-106366666D02*
X127952380Y-106366666D01*
X127952380Y-106747619D01*
X128000000Y-106842857D01*
X128047619Y-106890476D01*
X128142857Y-106938095D01*
X128285714Y-106938095D01*
X128380952Y-106890476D01*
X128428571Y-106842857D01*
X128476190Y-106747619D01*
X128476190Y-106366666D01*
X128952380Y-107890476D02*
X128952380Y-107319047D01*
X128952380Y-107604761D02*
X127952380Y-107604761D01*
X128095238Y-107509523D01*
X128190476Y-107414285D01*
X128238095Y-107319047D01*
X127952380Y-108509523D02*
X127952380Y-108604761D01*
X128000000Y-108700000D01*
X128047619Y-108747619D01*
X128142857Y-108795238D01*
X128333333Y-108842857D01*
X128571428Y-108842857D01*
X128761904Y-108795238D01*
X128857142Y-108747619D01*
X128904761Y-108700000D01*
X128952380Y-108604761D01*
X128952380Y-108509523D01*
X128904761Y-108414285D01*
X128857142Y-108366666D01*
X128761904Y-108319047D01*
X128571428Y-108271428D01*
X128333333Y-108271428D01*
X128142857Y-108319047D01*
X128047619Y-108366666D01*
X128000000Y-108414285D01*
X127952380Y-108509523D01*
%TO.C,J4*%
X141302380Y-144066666D02*
X142016666Y-144066666D01*
X142159523Y-144019047D01*
X142254761Y-143923809D01*
X142302380Y-143780952D01*
X142302380Y-143685714D01*
X141635714Y-144971428D02*
X142302380Y-144971428D01*
X141254761Y-144733333D02*
X141969047Y-144495238D01*
X141969047Y-145114285D01*
%TO.C,D1*%
X132952380Y-93761904D02*
X131952380Y-93761904D01*
X131952380Y-94000000D01*
X132000000Y-94142857D01*
X132095238Y-94238095D01*
X132190476Y-94285714D01*
X132380952Y-94333333D01*
X132523809Y-94333333D01*
X132714285Y-94285714D01*
X132809523Y-94238095D01*
X132904761Y-94142857D01*
X132952380Y-94000000D01*
X132952380Y-93761904D01*
X132952380Y-95285714D02*
X132952380Y-94714285D01*
X132952380Y-95000000D02*
X131952380Y-95000000D01*
X132095238Y-94904761D01*
X132190476Y-94809523D01*
X132238095Y-94714285D01*
%TO.C,TP3*%
X119452380Y-98238095D02*
X119452380Y-98809523D01*
X120452380Y-98523809D02*
X119452380Y-98523809D01*
X120452380Y-99142857D02*
X119452380Y-99142857D01*
X119452380Y-99523809D01*
X119500000Y-99619047D01*
X119547619Y-99666666D01*
X119642857Y-99714285D01*
X119785714Y-99714285D01*
X119880952Y-99666666D01*
X119928571Y-99619047D01*
X119976190Y-99523809D01*
X119976190Y-99142857D01*
X119452380Y-100047619D02*
X119452380Y-100666666D01*
X119833333Y-100333333D01*
X119833333Y-100476190D01*
X119880952Y-100571428D01*
X119928571Y-100619047D01*
X120023809Y-100666666D01*
X120261904Y-100666666D01*
X120357142Y-100619047D01*
X120404761Y-100571428D01*
X120452380Y-100476190D01*
X120452380Y-100190476D01*
X120404761Y-100095238D01*
X120357142Y-100047619D01*
%TO.C,TP13*%
X134538095Y-104252380D02*
X133966666Y-104252380D01*
X134252380Y-105252380D02*
X134252380Y-104252380D01*
X133633333Y-105252380D02*
X133633333Y-104252380D01*
X133252380Y-104252380D01*
X133157142Y-104300000D01*
X133109523Y-104347619D01*
X133061904Y-104442857D01*
X133061904Y-104585714D01*
X133109523Y-104680952D01*
X133157142Y-104728571D01*
X133252380Y-104776190D01*
X133633333Y-104776190D01*
X132109523Y-105252380D02*
X132680952Y-105252380D01*
X132395238Y-105252380D02*
X132395238Y-104252380D01*
X132490476Y-104395238D01*
X132585714Y-104490476D01*
X132680952Y-104538095D01*
X131776190Y-104252380D02*
X131157142Y-104252380D01*
X131490476Y-104633333D01*
X131347619Y-104633333D01*
X131252380Y-104680952D01*
X131204761Y-104728571D01*
X131157142Y-104823809D01*
X131157142Y-105061904D01*
X131204761Y-105157142D01*
X131252380Y-105204761D01*
X131347619Y-105252380D01*
X131633333Y-105252380D01*
X131728571Y-105204761D01*
X131776190Y-105157142D01*
%TO.C,TP5*%
X126261904Y-107252380D02*
X125690476Y-107252380D01*
X125976190Y-108252380D02*
X125976190Y-107252380D01*
X125357142Y-108252380D02*
X125357142Y-107252380D01*
X124976190Y-107252380D01*
X124880952Y-107300000D01*
X124833333Y-107347619D01*
X124785714Y-107442857D01*
X124785714Y-107585714D01*
X124833333Y-107680952D01*
X124880952Y-107728571D01*
X124976190Y-107776190D01*
X125357142Y-107776190D01*
X123880952Y-107252380D02*
X124357142Y-107252380D01*
X124404761Y-107728571D01*
X124357142Y-107680952D01*
X124261904Y-107633333D01*
X124023809Y-107633333D01*
X123928571Y-107680952D01*
X123880952Y-107728571D01*
X123833333Y-107823809D01*
X123833333Y-108061904D01*
X123880952Y-108157142D01*
X123928571Y-108204761D01*
X124023809Y-108252380D01*
X124261904Y-108252380D01*
X124357142Y-108204761D01*
X124404761Y-108157142D01*
%TO.C,TP2*%
X119152380Y-103738095D02*
X119152380Y-104309523D01*
X120152380Y-104023809D02*
X119152380Y-104023809D01*
X120152380Y-104642857D02*
X119152380Y-104642857D01*
X119152380Y-105023809D01*
X119200000Y-105119047D01*
X119247619Y-105166666D01*
X119342857Y-105214285D01*
X119485714Y-105214285D01*
X119580952Y-105166666D01*
X119628571Y-105119047D01*
X119676190Y-105023809D01*
X119676190Y-104642857D01*
X119247619Y-105595238D02*
X119200000Y-105642857D01*
X119152380Y-105738095D01*
X119152380Y-105976190D01*
X119200000Y-106071428D01*
X119247619Y-106119047D01*
X119342857Y-106166666D01*
X119438095Y-106166666D01*
X119580952Y-106119047D01*
X120152380Y-105547619D01*
X120152380Y-106166666D01*
%TO.C,TP14*%
X122938095Y-111304380D02*
X122366666Y-111304380D01*
X122652380Y-112304380D02*
X122652380Y-111304380D01*
X122033333Y-112304380D02*
X122033333Y-111304380D01*
X121652380Y-111304380D01*
X121557142Y-111352000D01*
X121509523Y-111399619D01*
X121461904Y-111494857D01*
X121461904Y-111637714D01*
X121509523Y-111732952D01*
X121557142Y-111780571D01*
X121652380Y-111828190D01*
X122033333Y-111828190D01*
X120509523Y-112304380D02*
X121080952Y-112304380D01*
X120795238Y-112304380D02*
X120795238Y-111304380D01*
X120890476Y-111447238D01*
X120985714Y-111542476D01*
X121080952Y-111590095D01*
X119652380Y-111637714D02*
X119652380Y-112304380D01*
X119890476Y-111256761D02*
X120128571Y-111971047D01*
X119509523Y-111971047D01*
D11*
%TO.C,TP9*%
X128400000Y-102200000D02*
G75*
G03*
X128400000Y-102200000I-700000J0D01*
G01*
%TO.C,TP4*%
X124900000Y-102200000D02*
G75*
G03*
X124900000Y-102200000I-700000J0D01*
G01*
%TO.C,D2*%
X133765000Y-97800000D02*
X133765000Y-95515000D01*
X133765000Y-95515000D02*
X135235000Y-95515000D01*
X135235000Y-95515000D02*
X135235000Y-97800000D01*
%TO.C,TP16*%
X152683257Y-145600000D02*
G75*
G03*
X152683257Y-145600000I-700000J0D01*
G01*
%TO.C,TP7*%
X126900000Y-102200000D02*
G75*
G03*
X126900000Y-102200000I-700000J0D01*
G01*
%TO.C,D3*%
X137235000Y-95515000D02*
X137235000Y-97800000D01*
X135765000Y-95515000D02*
X137235000Y-95515000D01*
X135765000Y-97800000D02*
X135765000Y-95515000D01*
%TO.C,TP12*%
X129900000Y-102200000D02*
G75*
G03*
X129900000Y-102200000I-700000J0D01*
G01*
%TO.C,SW9*%
X115625000Y-125800000D02*
X114335000Y-125800000D01*
X115625000Y-127250000D02*
X115625000Y-121550000D01*
X118475000Y-123000000D02*
X118475000Y-122800000D01*
X116635000Y-120950000D02*
X117425000Y-120950000D01*
X114335000Y-124500000D02*
X115625000Y-124500000D01*
X114335000Y-125800000D02*
X114125000Y-125600000D01*
X114125000Y-125600000D02*
X114125000Y-124700000D01*
X117425000Y-127850000D02*
X116635000Y-127850000D01*
X114335000Y-124500000D02*
X114125000Y-124700000D01*
X118475000Y-126000000D02*
X118475000Y-124300000D01*
%TO.C,TP15*%
X152683257Y-147700000D02*
G75*
G03*
X152683257Y-147700000I-700000J0D01*
G01*
%TO.C,TP8*%
X127800000Y-103700000D02*
G75*
G03*
X127800000Y-103700000I-700000J0D01*
G01*
%TO.C,TP6*%
X126300000Y-103600000D02*
G75*
G03*
X126300000Y-103600000I-700000J0D01*
G01*
%TO.C,TP11*%
X130500000Y-103600000D02*
G75*
G03*
X130500000Y-103600000I-700000J0D01*
G01*
%TO.C,SW1*%
X124000000Y-91500000D02*
X128500000Y-91500000D01*
X129750000Y-94000000D02*
X129750000Y-95500000D01*
X122750000Y-95500000D02*
X122750000Y-94000000D01*
X128500000Y-98000000D02*
X124000000Y-98000000D01*
%TO.C,TP10*%
X129200000Y-104500000D02*
G75*
G03*
X129200000Y-104500000I-700000J0D01*
G01*
%TO.C,J4*%
X142083257Y-150530479D02*
X141033257Y-150530479D01*
X145253257Y-139985479D02*
X146008257Y-139985479D01*
X145253257Y-139985479D02*
X145253257Y-148785479D01*
X142083257Y-138240479D02*
X141033257Y-138240479D01*
%TO.C,D1*%
X131765000Y-97800000D02*
X131765000Y-95515000D01*
X133235000Y-95515000D02*
X133235000Y-97800000D01*
X131765000Y-95515000D02*
X133235000Y-95515000D01*
%TO.C,TP3*%
X121300000Y-101600000D02*
G75*
G03*
X121300000Y-101600000I-700000J0D01*
G01*
%TO.C,TP13*%
X132000000Y-103300000D02*
G75*
G03*
X132000000Y-103300000I-700000J0D01*
G01*
%TO.C,TP5*%
X126200000Y-105100000D02*
G75*
G03*
X126200000Y-105100000I-700000J0D01*
G01*
%TO.C,TP2*%
X121300000Y-103100000D02*
G75*
G03*
X121300000Y-103100000I-700000J0D01*
G01*
%TO.C,TP14*%
X121000000Y-113300000D02*
G75*
G03*
X121000000Y-113300000I-700000J0D01*
G01*
%TD*%
%LPC*%
%TO.C,AE1*%
G36*
X109802880Y-95967684D02*
G01*
X106707890Y-95967684D01*
X102399030Y-91658834D01*
X102399030Y-84483584D01*
X106715000Y-80167874D01*
X109802880Y-80167874D01*
X109802880Y-95967684D01*
G37*
%TO.C,AE2*%
G36*
X174851056Y-140851166D02*
G01*
X174851056Y-148026416D01*
X170535086Y-152342126D01*
X167447206Y-152342126D01*
X167447206Y-136542316D01*
X170542196Y-136542316D01*
X174851056Y-140851166D01*
G37*
%TD*%
D12*
%TO.C,SW7*%
X142200000Y-85500000D03*
X147280000Y-85500000D03*
X152360000Y-85500000D03*
%TD*%
D13*
%TO.C,SW8*%
X125100000Y-80500000D03*
X125100000Y-90500000D03*
D14*
X126900000Y-88000000D03*
X126900000Y-85500000D03*
X126900000Y-83000000D03*
%TD*%
D15*
%TO.C,J3*%
X133950000Y-132150000D03*
D16*
X135950000Y-132150000D03*
%TD*%
D17*
%TO.C,SW3*%
X146500000Y-76100000D03*
X151500000Y-76100000D03*
%TD*%
%TO.C,SW6*%
X132000000Y-99400000D03*
X137000000Y-99400000D03*
%TD*%
%TO.C,SW5*%
X118500000Y-111400000D03*
X118500000Y-116400000D03*
%TD*%
D18*
%TO.C,J2*%
X131350000Y-70050000D03*
D19*
X137350000Y-70050000D03*
D20*
X130030000Y-66950000D03*
D21*
X130030000Y-70775000D03*
D20*
X138670000Y-66950000D03*
D21*
X138670000Y-70775000D03*
%TD*%
D17*
%TO.C,SW2*%
X118500000Y-76100000D03*
X123500000Y-76100000D03*
%TD*%
%TO.C,SW4*%
X118500000Y-97300000D03*
X118500000Y-102300000D03*
%TD*%
D22*
%TO.C,SW10*%
X148500000Y-150100000D03*
%TD*%
D23*
%TO.C,U3*%
X134350000Y-126460000D03*
D24*
X134350000Y-124680000D03*
X134350000Y-122900000D03*
X134350000Y-121120000D03*
X134350000Y-119340000D03*
X134350000Y-117560000D03*
X134350000Y-115780000D03*
X134350000Y-114000000D03*
X123650000Y-113110000D03*
X123650000Y-114890000D03*
X123650000Y-116670000D03*
X123650000Y-118450000D03*
X123650000Y-120230000D03*
X123650000Y-122010000D03*
X123650000Y-123790000D03*
X123650000Y-125570000D03*
%TD*%
D25*
%TO.C,TP9*%
X127700000Y-102200000D03*
%TD*%
%TO.C,TP4*%
X124200000Y-102200000D03*
%TD*%
D26*
%TO.C,D2*%
X134500000Y-96212500D03*
X134500000Y-97787500D03*
%TD*%
D25*
%TO.C,TP16*%
X151983257Y-145600000D03*
%TD*%
%TO.C,TP7*%
X126200000Y-102200000D03*
%TD*%
D26*
%TO.C,D3*%
X136500000Y-96212500D03*
X136500000Y-97787500D03*
%TD*%
D25*
%TO.C,TP12*%
X129200000Y-102200000D03*
%TD*%
D27*
%TO.C,SW9*%
X118135000Y-128050000D03*
X115925000Y-128050000D03*
D28*
X117025000Y-125900000D03*
X117025000Y-122900000D03*
D27*
X115925000Y-120750000D03*
X118135000Y-120750000D03*
D29*
X118785000Y-126650000D03*
X118785000Y-123650000D03*
X118785000Y-122150000D03*
%TD*%
D25*
%TO.C,TP15*%
X151983257Y-147700000D03*
%TD*%
%TO.C,TP8*%
X127100000Y-103700000D03*
%TD*%
%TO.C,TP6*%
X125600000Y-103600000D03*
%TD*%
%TO.C,TP11*%
X129800000Y-103600000D03*
%TD*%
D30*
%TO.C,SW1*%
X129500000Y-97000000D03*
X123000000Y-97000000D03*
X123000000Y-92500000D03*
X129500000Y-92500000D03*
%TD*%
D25*
%TO.C,TP10*%
X128500000Y-104500000D03*
%TD*%
D31*
%TO.C,J4*%
X144133257Y-146685479D03*
X144133257Y-142085479D03*
D32*
X146883257Y-140885479D03*
X146883257Y-143385479D03*
X146883257Y-145385479D03*
X146883257Y-147885479D03*
D33*
X144133257Y-150085479D03*
X144133257Y-138685479D03*
%TD*%
D26*
%TO.C,D1*%
X132500000Y-96212500D03*
X132500000Y-97787500D03*
%TD*%
D25*
%TO.C,TP3*%
X120600000Y-101600000D03*
%TD*%
%TO.C,TP13*%
X131300000Y-103300000D03*
%TD*%
%TO.C,TP5*%
X125500000Y-105100000D03*
%TD*%
%TO.C,TP2*%
X120600000Y-103100000D03*
%TD*%
%TO.C,TP14*%
X120300000Y-113300000D03*
%TD*%
M02*
