M48
; DRILL file {KiCad (6.0.4)} date Thu May 12 22:13:07 2022
; FORMAT={-:-/ absolute / inch / decimal}
; #@! TF.CreationDate,2022-05-12T22:13:07-04:00
; #@! TF.GenerationSoftware,Kicad,Pcbnew,(6.0.4)
; #@! TF.FileFunction,Plated,1,4,PTH
FMAT,2
INCH
; #@! TA.AperFunction,Plated,PTH,ViaDrill
T1C0.0118
; #@! TA.AperFunction,Plated,PTH,ViaDrill
T2C0.0157
; #@! TA.AperFunction,Plated,PTH,ComponentDrill
T3C0.0236
; #@! TA.AperFunction,Plated,PTH,ComponentDrill
T4C0.0276
; #@! TA.AperFunction,Plated,PTH,ComponentDrill
T5C0.0295
; #@! TA.AperFunction,Plated,PTH,ComponentDrill
T6C0.0354
; #@! TA.AperFunction,Plated,PTH,ComponentDrill
T7C0.0390
; #@! TA.AperFunction,Plated,PTH,ComponentDrill
T8C0.0394
; #@! TA.AperFunction,Plated,PTH,ComponentDrill
T9C0.0433
; #@! TA.AperFunction,Plated,PTH,ComponentDrill
T10C0.0470
%
G90
G05
T1
X4.3429Y-3.3961
X4.3429Y-3.4669
X4.3429Y-3.5378
X4.3547Y-3.4354
X4.3547Y-3.5024
X4.3823Y-3.4669
X4.5315Y-3.1693
X4.563Y-4.1614
X4.6319Y-4.3465
X4.6339Y-4.2008
X4.6339Y-4.6417
X4.6378Y-3.5866
X4.6417Y-4.437
X4.6496Y-4.0748
X4.6772Y-4.2087
X4.6811Y-3.5512
X4.689Y-3.374
X4.7047Y-4.5118
X4.7087Y-4.4803
X4.7126Y-3.5512
X4.7126Y-4.5787
X4.7165Y-4.252
X4.7244Y-3.5236
X4.7323Y-4.1024
X4.7323Y-4.1575
X4.7323Y-4.185
X4.7323Y-4.2992
X4.7362Y-3.4843
X4.7362Y-4.2717
X4.7402Y-4.6575
X4.7441Y-4.7087
X4.748Y-3.437
X4.748Y-4.2126
X4.748Y-4.3622
X4.7598Y-4.1024
X4.7598Y-4.3346
X4.7677Y-3.4134
X4.7717Y-4.311
X4.7835Y-3.4646
X4.7835Y-5.2835
X4.7874Y-4.0315
X4.7874Y-4.063
X4.7874Y-4.1024
X4.7992Y-3.937
X4.8071Y-5.2244
X4.8228Y-5.126
X4.8307Y-3.4882
X4.8622Y-4.3937
X4.8858Y-4.4094
X4.8937Y-5.2756
X4.9055Y-3.9252
X4.907Y-5.7423
X4.9134Y-5.8543
X4.9173Y-3.9488
X4.9213Y-3.9016
X4.9331Y-3.9843
X4.9409Y-4.3799
X4.9449Y-3.9449
X4.9449Y-5.2717
X4.9705Y-4.3799
X4.9724Y-3.9606
X4.9803Y-5.7677
X5.0Y-4.3801
X5.0315Y-3.937
X5.0315Y-4.3801
X5.0315Y-5.1181
X5.0433Y-3.9685
X5.0591Y-3.7677
X5.0591Y-3.9409
X5.063Y-4.3801
X5.0906Y-3.9606
X5.1142Y-3.9764
X5.1378Y-4.0315
X5.1378Y-4.3622
X5.1496Y-4.0079
X5.1535Y-4.3386
X5.1654Y-5.8661
X5.1811Y-4.2283
X5.185Y-3.8189
X5.185Y-5.3898
X5.2067Y-5.8732
X5.2087Y-2.7362
X5.2126Y-4.2323
X5.2146Y-5.8346
X5.2244Y-4.0354
X5.2362Y-4.252
X5.2362Y-5.7717
X5.2531Y-5.8854
X5.2717Y-4.4291
X5.2953Y-3.8937
X5.2992Y-4.4055
X5.3071Y-4.2047
X5.3071Y-4.2598
X5.3346Y-3.9567
X5.3386Y-4.3031
X5.3465Y-3.0315
X5.3701Y-5.5354
X5.3819Y-2.7362
X5.4094Y-3.8189
X5.6693Y-5.5315
X5.6693Y-5.8228
X5.7067Y-5.7185
X5.7165Y-5.6378
X5.83Y-5.874
X5.8497Y-5.8268
X5.8976Y-5.8287
X5.9055Y-5.4567
X5.9094Y-5.4961
X5.9245Y-5.9646
X5.9292Y-5.6386
X6.0039Y-5.8701
X6.0079Y-5.6535
X6.0079Y-5.7008
X6.0197Y-5.8248
X6.0394Y-5.5354
X6.0505Y-5.7441
X6.0669Y-5.5315
X6.1181Y-5.6811
X6.1378Y-5.9488
X6.1811Y-5.7087
X6.1831Y-5.7382
X6.1968Y-5.6103
X6.1969Y-5.6378
X6.2382Y-5.5945
X6.2402Y-5.7992
X6.2677Y-5.8071
X6.2677Y-5.8661
X6.5324Y-5.6866
X6.56Y-5.6512
X6.56Y-5.7181
X6.5718Y-5.6157
X6.5718Y-5.6866
X6.5718Y-5.7575
T2
X4.3612Y-3.1852
X4.3612Y-3.264
X4.3612Y-3.6701
X4.3612Y-3.7488
X4.3864Y-3.325
X4.3864Y-3.6091
X4.399Y-3.2376
X4.399Y-3.6965
X4.4049Y-3.2844
X4.4049Y-3.6496
X4.4093Y-3.1959
X4.4093Y-3.7382
X4.4278Y-3.351
X4.4278Y-3.5831
X4.4518Y-3.386
X4.4518Y-3.548
X4.4781Y-3.4219
X4.4781Y-3.5122
X4.5197Y-5.0311
X4.5591Y-3.8543
X4.5709Y-3.0906
X4.5807Y-5.189
X4.6417Y-4.5079
X4.6634Y-5.4055
X4.6811Y-5.1299
X4.6929Y-4.748
X4.7047Y-3.937
X4.7559Y-3.2047
X4.7599Y-5.8228
X4.7638Y-5.6496
X4.7874Y-2.8898
X4.7913Y-5.874
X4.8268Y-3.3661
X4.8425Y-5.4724
X4.8425Y-5.8268
X4.8701Y-5.5906
X4.9134Y-3.2913
X4.9173Y-3.437
X4.9252Y-3.6299
X4.9252Y-3.7205
X4.9646Y-3.878
X4.9803Y-3.0472
X4.9843Y-5.8898
X5.0157Y-3.6299
X5.0354Y-3.7992
X5.063Y-3.9055
X5.0866Y-5.6378
X5.1299Y-5.9606
X5.1339Y-5.1969
X5.1969Y-5.4724
X5.2126Y-5.4291
X5.2205Y-5.3583
X5.2283Y-5.6142
X5.2402Y-3.9961
X5.2776Y-4.1185
X5.2795Y-5.5039
X5.2874Y-5.315
X5.2992Y-3.9724
X5.3153Y-5.8948
X5.3425Y-5.0906
X5.3602Y-4.0157
X5.3602Y-4.3287
X5.3654Y-5.8891
X5.374Y-5.5787
X5.374Y-5.7874
X5.3819Y-2.878
X5.3819Y-4.1614
X5.3957Y-4.8445
X5.3957Y-4.5177
X5.4055Y-5.8386
X5.4488Y-3.6417
X5.6411Y-5.685
X5.6693Y-2.8465
X5.7756Y-3.1693
X5.8465Y-2.8858
X5.9055Y-3.1142
X6.122Y-5.6496
X6.1339Y-5.8504
X6.1339Y-5.9094
X6.1417Y-5.4685
X6.1496Y-3.1535
X6.1693Y-3.3189
X6.3898Y-5.7874
X6.4307Y-5.7317
X6.4311Y-5.6413
X6.4571Y-5.7675
X6.4575Y-5.6055
X6.4594Y-5.9392
X6.4598Y-5.4339
X6.4602Y-5.8474
X6.4606Y-5.5256
X6.4626Y-5.8935
X6.463Y-5.4795
X6.4811Y-5.8026
X6.4815Y-5.5705
X6.4996Y-5.9577
X6.5Y-5.4154
X6.5039Y-5.8691
X6.5043Y-5.5039
X6.5098Y-5.9159
X6.5102Y-5.4571
X6.5224Y-5.8285
X6.5228Y-5.5445
X6.5476Y-5.8896
X6.5476Y-5.9683
X6.548Y-5.4047
X6.548Y-5.4835
T4
X4.8681Y-4.4531
X4.8681Y-4.5232
X4.8681Y-4.5933
X4.8681Y-4.6634
X4.8681Y-4.7335
X4.8681Y-4.8035
X4.8681Y-4.8736
X4.8681Y-4.9437
X5.2894Y-4.4882
X5.2894Y-4.5583
X5.2894Y-4.6283
X5.2894Y-4.6984
X5.2894Y-4.7685
X5.2894Y-4.8386
X5.2894Y-4.9087
X5.2894Y-4.9787
T5
X5.2736Y-5.2028
X5.3524Y-5.2028
T7
X4.6654Y-2.9961
X4.6654Y-3.8307
X4.6654Y-4.0276
X4.6654Y-4.3858
X4.6654Y-4.5827
X4.8622Y-2.9961
X5.1969Y-3.9134
X5.3937Y-3.9134
X5.7677Y-2.9961
X5.9646Y-2.9961
T8
X4.9961Y-3.2677
X4.9961Y-3.3661
X4.9961Y-3.4646
T9
X4.8425Y-3.6417
X4.8425Y-3.8189
X5.0984Y-3.6417
X5.0984Y-3.8189
T10
X5.5984Y-3.3661
X5.7984Y-3.3661
X5.9984Y-3.3661
T3
G00X5.1193Y-2.6614
M15
G01X5.1193Y-2.6102
M16
G05
G00X5.1193Y-2.8061
M15
G01X5.1193Y-2.7667
M16
G05
G00X5.4594Y-2.6614
M15
G01X5.4594Y-2.6102
M16
G05
G00X5.4594Y-2.8061
M15
G01X5.4594Y-2.7667
M16
G05
T6
G00X5.706Y-5.4601
M15
G01X5.643Y-5.4601
M16
G05
G00X5.706Y-5.9089
M15
G01X5.643Y-5.9089
M16
G05
T0
M30
