%TF.GenerationSoftware,KiCad,Pcbnew,(6.0.4)*%
%TF.CreationDate,2022-05-12T22:03:53-04:00*%
%TF.ProjectId,Mouse V1,4d6f7573-6520-4563-912e-6b696361645f,V2.0*%
%TF.SameCoordinates,Original*%
%TF.FileFunction,Soldermask,Bot*%
%TF.FilePolarity,Negative*%
%FSLAX46Y46*%
G04 Gerber Fmt 4.6, Leading zero omitted, Abs format (unit mm)*
G04 Created by KiCad (PCBNEW (6.0.4)) date 2022-05-12 22:03:53*
%MOMM*%
%LPD*%
G01*
G04 APERTURE LIST*
G04 Aperture macros list*
%AMRoundRect*
0 Rectangle with rounded corners*
0 $1 Rounding radius*
0 $2 $3 $4 $5 $6 $7 $8 $9 X,Y pos of 4 corners*
0 Add a 4 corners polygon primitive as box body*
4,1,4,$2,$3,$4,$5,$6,$7,$8,$9,$2,$3,0*
0 Add four circle primitives for the rounded corners*
1,1,$1+$1,$2,$3*
1,1,$1+$1,$4,$5*
1,1,$1+$1,$6,$7*
1,1,$1+$1,$8,$9*
0 Add four rect primitives between the rounded corners*
20,1,$1+$1,$2,$3,$4,$5,0*
20,1,$1+$1,$4,$5,$6,$7,0*
20,1,$1+$1,$6,$7,$8,$9,0*
20,1,$1+$1,$8,$9,$2,$3,0*%
G04 Aperture macros list end*
%ADD10C,1.701800*%
%ADD11O,2.500000X1.500000*%
%ADD12C,1.500000*%
%ADD13RoundRect,0.250000X-0.350000X-0.625000X0.350000X-0.625000X0.350000X0.625000X-0.350000X0.625000X0*%
%ADD14O,1.200000X1.750000*%
%ADD15C,1.498600*%
%ADD16O,0.850000X0.600000*%
%ADD17C,0.600000*%
%ADD18O,1.300000X2.600000*%
%ADD19O,1.300000X2.300000*%
%ADD20C,0.800000*%
%ADD21R,1.400000X1.400000*%
%ADD22C,1.400000*%
%ADD23C,1.000000*%
%ADD24RoundRect,0.218750X-0.256250X0.218750X-0.256250X-0.218750X0.256250X-0.218750X0.256250X0.218750X0*%
%ADD25R,0.800000X1.000000*%
%ADD26C,0.900000*%
%ADD27R,1.500000X0.700000*%
%ADD28C,2.000000*%
%ADD29C,1.100000*%
%ADD30R,2.500000X1.100000*%
%ADD31O,3.500000X1.900000*%
G04 APERTURE END LIST*
G36*
X109802880Y-95967684D02*
G01*
X106707890Y-95967684D01*
X102399030Y-91658834D01*
X102399030Y-84483584D01*
X106715000Y-80167874D01*
X109802880Y-80167874D01*
X109802880Y-95967684D01*
G37*
G36*
X174851056Y-140851166D02*
G01*
X174851056Y-148026416D01*
X170535086Y-152342126D01*
X167447206Y-152342126D01*
X167447206Y-136542316D01*
X170542196Y-136542316D01*
X174851056Y-140851166D01*
G37*
D10*
X142200000Y-85500000D03*
X147280000Y-85500000D03*
X152360000Y-85500000D03*
D11*
X125100000Y-80500000D03*
X125100000Y-90500000D03*
D12*
X126900000Y-88000000D03*
X126900000Y-85500000D03*
X126900000Y-83000000D03*
D13*
X133950000Y-132150000D03*
D14*
X135950000Y-132150000D03*
D15*
X146500000Y-76100000D03*
X151500000Y-76100000D03*
X132000000Y-99400000D03*
X137000000Y-99400000D03*
X118500000Y-111400000D03*
X118500000Y-116400000D03*
D16*
X131350000Y-70050000D03*
D17*
X137350000Y-70050000D03*
D18*
X130030000Y-66950000D03*
D19*
X130030000Y-70775000D03*
D18*
X138670000Y-66950000D03*
D19*
X138670000Y-70775000D03*
D15*
X118500000Y-76100000D03*
X123500000Y-76100000D03*
X118500000Y-97300000D03*
X118500000Y-102300000D03*
D20*
X148500000Y-150100000D03*
D21*
X134350000Y-126460000D03*
D22*
X134350000Y-124680000D03*
X134350000Y-122900000D03*
X134350000Y-121120000D03*
X134350000Y-119340000D03*
X134350000Y-117560000D03*
X134350000Y-115780000D03*
X134350000Y-114000000D03*
X123650000Y-113110000D03*
X123650000Y-114890000D03*
X123650000Y-116670000D03*
X123650000Y-118450000D03*
X123650000Y-120230000D03*
X123650000Y-122010000D03*
X123650000Y-123790000D03*
X123650000Y-125570000D03*
D23*
X127700000Y-102200000D03*
X124200000Y-102200000D03*
D24*
X134500000Y-96212500D03*
X134500000Y-97787500D03*
D23*
X151983257Y-145600000D03*
X126200000Y-102200000D03*
D24*
X136500000Y-96212500D03*
X136500000Y-97787500D03*
D23*
X129200000Y-102200000D03*
D25*
X118135000Y-128050000D03*
X115925000Y-128050000D03*
D26*
X117025000Y-125900000D03*
X117025000Y-122900000D03*
D25*
X115925000Y-120750000D03*
X118135000Y-120750000D03*
D27*
X118785000Y-126650000D03*
X118785000Y-123650000D03*
X118785000Y-122150000D03*
D23*
X151983257Y-147700000D03*
X127100000Y-103700000D03*
X125600000Y-103600000D03*
X129800000Y-103600000D03*
D28*
X129500000Y-97000000D03*
X123000000Y-97000000D03*
X123000000Y-92500000D03*
X129500000Y-92500000D03*
D23*
X128500000Y-104500000D03*
D29*
X144133257Y-146685479D03*
X144133257Y-142085479D03*
D30*
X146883257Y-140885479D03*
X146883257Y-143385479D03*
X146883257Y-145385479D03*
X146883257Y-147885479D03*
D31*
X144133257Y-150085479D03*
X144133257Y-138685479D03*
D24*
X132500000Y-96212500D03*
X132500000Y-97787500D03*
D23*
X120600000Y-101600000D03*
X131300000Y-103300000D03*
X125500000Y-105100000D03*
X120600000Y-103100000D03*
X120300000Y-113300000D03*
M02*
