  0
SECTION
  2
HEADER
  9
$ANGBASE
  50
0.0
  9
$ANGDIR
  70
1
  9
$MEASUREMENT
  70
1
  0
ENDSEC
  0
SECTION
  2
TABLES
  0
TABLE
  2
LTYPE
  70
4
  0
LTYPE
  5
40F
  2
CONTINUOUS
  70
0
  3
Solid line
  72
65
  73
0
  40
0.0
  0
LTYPE
  5
410
  2
DASHDOT
 70
0
  3
Dash Dot ____ _ ____ _
 72
65
 73
4
 40
2.0
 49
1.25
 49
-0.25
 49
0.25
 49
-0.25
  0
LTYPE
  5
411
  2
DASHED
 70
0
  3
Dashed __ __ __ __ __
 72
65
 73
2
 40
0.75
 49
0.5
 49
-0.25
  0
LTYPE
  5
43B
  2
DOTTED
 70
0
  3
Dotted .  .  .  .
 72
65
 73
2
 40
0.2
 49
0.0
 49
-0.2
  0
ENDTAB
  0
TABLE
  2
STYLE
  70
4
  0
STYLE
  2
KICAD
  70
0
  40
0
  41
1
  42
1
  50
0
  71
0
  3
isocp.shx
  0
STYLE
  2
KICADB
  70
0
  40
0
  41
1
  42
1
  50
0
  71
0
  3
isocp.shx
  0
STYLE
  2
KICADI
  70
0
  40
0
  41
1
  42
1
  50
15
  71
0
  3
isocp.shx
  0
STYLE
  2
KICADBI
  70
0
  40
0
  41
1
  42
1
  50
15
  71
0
  3
isocp.shx
  0
ENDTAB
  0
TABLE
  2
LAYER
  70
1
  0
LAYER
  2
BLACK
  70
0
  62
7
  6
CONTINUOUS
  0
ENDTAB
  0
ENDSEC
  0
SECTION
  2
ENTITIES
0
LINE
8
BLACK
6
CONTINUOUS
10
143.375
20
-91.2
11
143.37
21
-91.2257
0
LINE
8
BLACK
6
CONTINUOUS
10
143.37
20
-91.2257
11
143.363
21
-91.2346
0
LINE
8
BLACK
6
CONTINUOUS
10
143.363
20
-91.2346
11
143.359
21
-91.2457
0
LINE
8
BLACK
6
CONTINUOUS
10
143.359
20
-91.2457
11
140.072
21
-95.5299
0
LINE
8
BLACK
6
CONTINUOUS
10
140.072
20
-95.5299
11
139.075
21
-102.805
0
LINE
8
BLACK
6
CONTINUOUS
10
139.075
20
-102.805
11
139.075
21
-136.425
0
LINE
8
BLACK
6
CONTINUOUS
10
139.075
20
-136.425
11
170.6
21
-136.425
0
LINE
8
BLACK
6
CONTINUOUS
10
170.6
20
-136.425
11
170.605
21
-136.426
0
LINE
8
BLACK
6
CONTINUOUS
10
170.605
20
-136.426
11
170.607
21
-136.425
0
LINE
8
BLACK
6
CONTINUOUS
10
170.607
20
-136.425
11
170.61
21
-136.427
0
LINE
8
BLACK
6
CONTINUOUS
10
170.61
20
-136.427
11
170.626
21
-136.43
0
LINE
8
BLACK
6
CONTINUOUS
10
170.626
20
-136.43
11
170.638
21
-136.44
0
LINE
8
BLACK
6
CONTINUOUS
10
170.638
20
-136.44
11
170.653
21
-136.447
0
LINE
8
BLACK
6
CONTINUOUS
10
170.653
20
-136.447
11
174.953
21
-140.757
0
LINE
8
BLACK
6
CONTINUOUS
10
174.953
20
-140.757
11
174.956
21
-140.761
0
LINE
8
BLACK
6
CONTINUOUS
10
174.956
20
-140.761
11
174.957
21
-140.762
0
LINE
8
BLACK
6
CONTINUOUS
10
174.957
20
-140.762
11
174.959
21
-140.765
0
LINE
8
BLACK
6
CONTINUOUS
10
174.959
20
-140.765
11
174.968
21
-140.778
0
LINE
8
BLACK
6
CONTINUOUS
10
174.968
20
-140.778
11
174.969
21
-140.795
0
LINE
8
BLACK
6
CONTINUOUS
10
174.969
20
-140.795
11
174.975
21
-140.81
0
LINE
8
BLACK
6
CONTINUOUS
10
174.975
20
-140.81
11
174.975
21
-147.89
0
LINE
8
BLACK
6
CONTINUOUS
10
174.975
20
-147.89
11
174.974
21
-147.894
0
LINE
8
BLACK
6
CONTINUOUS
10
174.974
20
-147.894
11
174.975
21
-147.896
0
LINE
8
BLACK
6
CONTINUOUS
10
174.975
20
-147.896
11
174.974
21
-147.898
0
LINE
8
BLACK
6
CONTINUOUS
10
174.974
20
-147.898
11
174.97
21
-147.916
0
LINE
8
BLACK
6
CONTINUOUS
10
174.97
20
-147.916
11
174.96
21
-147.928
0
LINE
8
BLACK
6
CONTINUOUS
10
174.96
20
-147.928
11
174.954
21
-147.942
0
LINE
8
BLACK
6
CONTINUOUS
10
174.954
20
-147.942
11
170.654
21
-152.352
0
LINE
8
BLACK
6
CONTINUOUS
10
170.654
20
-152.352
11
170.649
21
-152.355
0
LINE
8
BLACK
6
CONTINUOUS
10
170.649
20
-152.355
11
170.648
21
-152.357
0
LINE
8
BLACK
6
CONTINUOUS
10
170.648
20
-152.357
11
170.645
21
-152.359
0
LINE
8
BLACK
6
CONTINUOUS
10
170.645
20
-152.359
11
170.633
21
-152.368
0
LINE
8
BLACK
6
CONTINUOUS
10
170.633
20
-152.368
11
170.616
21
-152.369
0
LINE
8
BLACK
6
CONTINUOUS
10
170.616
20
-152.369
11
170.6
21
-152.375
0
LINE
8
BLACK
6
CONTINUOUS
10
170.6
20
-152.375
11
120
21
-152.375
0
LINE
8
BLACK
6
CONTINUOUS
10
120
20
-152.375
11
119.99
21
-152.373
0
LINE
8
BLACK
6
CONTINUOUS
10
119.99
20
-152.373
11
119.987
21
-152.374
0
LINE
8
BLACK
6
CONTINUOUS
10
119.987
20
-152.374
11
119.984
21
-152.372
0
LINE
8
BLACK
6
CONTINUOUS
10
119.984
20
-152.372
11
119.974
21
-152.37
0
LINE
8
BLACK
6
CONTINUOUS
10
119.974
20
-152.37
11
119.959
21
-152.358
0
LINE
8
BLACK
6
CONTINUOUS
10
119.959
20
-152.358
11
119.943
21
-152.348
0
LINE
8
BLACK
6
CONTINUOUS
10
119.943
20
-152.348
11
119.94
21
-152.342
0
LINE
8
BLACK
6
CONTINUOUS
10
119.94
20
-152.342
11
119.935
21
-152.338
0
LINE
8
BLACK
6
CONTINUOUS
10
119.935
20
-152.338
11
119.932
21
-152.318
0
LINE
8
BLACK
6
CONTINUOUS
10
119.932
20
-152.318
11
119.925
21
-152.3
0
LINE
8
BLACK
6
CONTINUOUS
10
119.925
20
-152.3
11
119.925
21
-142.018
0
LINE
8
BLACK
6
CONTINUOUS
10
119.925
20
-142.018
11
113.833
21
-129.934
0
LINE
8
BLACK
6
CONTINUOUS
10
113.833
20
-129.934
11
113.826
21
-129.909
0
LINE
8
BLACK
6
CONTINUOUS
10
113.826
20
-129.909
11
113.827
21
-129.904
0
LINE
8
BLACK
6
CONTINUOUS
10
113.827
20
-129.904
11
113.825
21
-129.9
0
LINE
8
BLACK
6
CONTINUOUS
10
113.825
20
-129.9
11
113.825
21
-96.075
0
LINE
8
BLACK
6
CONTINUOUS
10
113.825
20
-96.075
11
106.7
21
-96.075
0
LINE
8
BLACK
6
CONTINUOUS
10
106.7
20
-96.075
11
106.695
21
-96.0741
0
LINE
8
BLACK
6
CONTINUOUS
10
106.695
20
-96.0741
11
106.693
21
-96.0747
0
LINE
8
BLACK
6
CONTINUOUS
10
106.693
20
-96.0747
11
106.69
21
-96.0732
0
LINE
8
BLACK
6
CONTINUOUS
10
106.69
20
-96.0732
11
106.674
21
-96.0705
0
LINE
8
BLACK
6
CONTINUOUS
10
106.674
20
-96.0705
11
106.662
21
-96.0598
0
LINE
8
BLACK
6
CONTINUOUS
10
106.662
20
-96.0598
11
106.647
21
-96.0527
0
LINE
8
BLACK
6
CONTINUOUS
10
106.647
20
-96.0527
11
102.327
21
-91.6827
0
LINE
8
BLACK
6
CONTINUOUS
10
102.327
20
-91.6827
11
102.324
21
-91.6792
0
LINE
8
BLACK
6
CONTINUOUS
10
102.324
20
-91.6792
11
102.323
21
-91.6782
0
LINE
8
BLACK
6
CONTINUOUS
10
102.323
20
-91.6782
11
102.321
21
-91.6752
0
LINE
8
BLACK
6
CONTINUOUS
10
102.321
20
-91.6752
11
102.312
21
-91.6613
0
LINE
8
BLACK
6
CONTINUOUS
10
102.312
20
-91.6613
11
102.311
21
-91.6452
0
LINE
8
BLACK
6
CONTINUOUS
10
102.311
20
-91.6452
11
102.305
21
-91.63
0
LINE
8
BLACK
6
CONTINUOUS
10
102.305
20
-91.63
11
102.305
21
-84.5
0
LINE
8
BLACK
6
CONTINUOUS
10
102.305
20
-84.5
11
102.306
21
-84.4959
0
LINE
8
BLACK
6
CONTINUOUS
10
102.306
20
-84.4959
11
102.305
21
-84.4941
0
LINE
8
BLACK
6
CONTINUOUS
10
102.305
20
-84.4941
11
102.307
21
-84.4913
0
LINE
8
BLACK
6
CONTINUOUS
10
102.307
20
-84.4913
11
102.31
21
-84.4743
0
LINE
8
BLACK
6
CONTINUOUS
10
102.31
20
-84.4743
11
102.32
21
-84.4621
0
LINE
8
BLACK
6
CONTINUOUS
10
102.32
20
-84.4621
11
102.326
21
-84.4475
0
LINE
8
BLACK
6
CONTINUOUS
10
102.326
20
-84.4475
11
106.646
21
-80.0475
0
LINE
8
BLACK
6
CONTINUOUS
10
106.646
20
-80.0475
11
106.651
21
-80.0444
0
LINE
8
BLACK
6
CONTINUOUS
10
106.651
20
-80.0444
11
106.652
21
-80.0425
0
LINE
8
BLACK
6
CONTINUOUS
10
106.652
20
-80.0425
11
106.655
21
-80.0414
0
LINE
8
BLACK
6
CONTINUOUS
10
106.655
20
-80.0414
11
106.668
21
-80.0323
0
LINE
8
BLACK
6
CONTINUOUS
10
106.668
20
-80.0323
11
106.684
21
-80.0307
0
LINE
8
BLACK
6
CONTINUOUS
10
106.684
20
-80.0307
11
106.7
21
-80.025
0
LINE
8
BLACK
6
CONTINUOUS
10
106.7
20
-80.025
11
113.925
21
-80.025
0
LINE
8
BLACK
6
CONTINUOUS
10
113.925
20
-80.025
11
113.925
21
-77.7
0
LINE
8
BLACK
6
CONTINUOUS
10
113.925
20
-77.7
11
113.93
21
-77.6743
0
LINE
8
BLACK
6
CONTINUOUS
10
113.93
20
-77.6743
11
113.936
21
-77.6666
0
LINE
8
BLACK
6
CONTINUOUS
10
113.936
20
-77.6666
11
113.939
21
-77.6569
0
LINE
8
BLACK
6
CONTINUOUS
10
113.939
20
-77.6569
11
117.239
21
-72.9569
0
LINE
8
BLACK
6
CONTINUOUS
10
117.239
20
-72.9569
11
117.257
21
-72.9385
0
LINE
8
BLACK
6
CONTINUOUS
10
117.257
20
-72.9385
11
117.259
21
-72.9381
0
LINE
8
BLACK
6
CONTINUOUS
10
117.259
20
-72.9381
11
117.26
21
-72.9368
0
LINE
8
BLACK
6
CONTINUOUS
10
117.26
20
-72.9368
11
129.76
21
-64.9368
0
LINE
8
BLACK
6
CONTINUOUS
10
129.76
20
-64.9368
11
129.784
21
-64.9268
0
LINE
8
BLACK
6
CONTINUOUS
10
129.784
20
-64.9268
11
129.792
21
-64.9279
0
LINE
8
BLACK
6
CONTINUOUS
10
129.792
20
-64.9279
11
129.8
21
-64.925
0
LINE
8
BLACK
6
CONTINUOUS
10
129.8
20
-64.925
11
138.8
21
-64.925
0
LINE
8
BLACK
6
CONTINUOUS
10
138.8
20
-64.925
11
138.826
21
-64.9295
0
LINE
8
BLACK
6
CONTINUOUS
10
138.826
20
-64.9295
11
138.83
21
-64.9328
0
LINE
8
BLACK
6
CONTINUOUS
10
138.83
20
-64.9328
11
138.834
21
-64.9334
0
LINE
8
BLACK
6
CONTINUOUS
10
138.834
20
-64.9334
11
150.034
21
-70.7334
0
LINE
8
BLACK
6
CONTINUOUS
10
150.034
20
-70.7334
11
150.042
21
-70.7395
0
LINE
8
BLACK
6
CONTINUOUS
10
150.042
20
-70.7395
11
150.046
21
-70.7405
0
LINE
8
BLACK
6
CONTINUOUS
10
150.046
20
-70.7405
11
159.046
21
-77.6405
0
LINE
8
BLACK
6
CONTINUOUS
10
159.046
20
-77.6405
11
159.054
21
-77.65
0
LINE
8
BLACK
6
CONTINUOUS
10
159.054
20
-77.65
11
159.057
21
-77.6518
0
LINE
8
BLACK
6
CONTINUOUS
10
159.057
20
-77.6518
11
159.058
21
-77.6544
0
LINE
8
BLACK
6
CONTINUOUS
10
159.058
20
-77.6544
11
159.063
21
-77.6597
0
LINE
8
BLACK
6
CONTINUOUS
10
159.063
20
-77.6597
11
159.068
21
-77.6802
0
LINE
8
BLACK
6
CONTINUOUS
10
159.068
20
-77.6802
11
159.075
21
-77.7
0
LINE
8
BLACK
6
CONTINUOUS
10
159.075
20
-77.7
11
159.075
21
-89
0
LINE
8
BLACK
6
CONTINUOUS
10
159.075
20
-89
11
159.073
21
-89.0097
0
LINE
8
BLACK
6
CONTINUOUS
10
159.073
20
-89.0097
11
159.074
21
-89.013
0
LINE
8
BLACK
6
CONTINUOUS
10
159.074
20
-89.013
11
159.072
21
-89.0159
0
LINE
8
BLACK
6
CONTINUOUS
10
159.072
20
-89.0159
11
159.07
21
-89.0257
0
LINE
8
BLACK
6
CONTINUOUS
10
159.07
20
-89.0257
11
159.058
21
-89.0406
0
LINE
8
BLACK
6
CONTINUOUS
10
159.058
20
-89.0406
11
159.048
21
-89.0575
0
LINE
8
BLACK
6
CONTINUOUS
10
159.048
20
-89.0575
11
159.042
21
-89.0598
0
LINE
8
BLACK
6
CONTINUOUS
10
159.042
20
-89.0598
11
159.037
21
-89.065
0
LINE
8
BLACK
6
CONTINUOUS
10
159.037
20
-89.065
11
159.018
21
-89.0683
0
LINE
8
BLACK
6
CONTINUOUS
10
159.018
20
-89.0683
11
159
21
-89.075
0
LINE
8
BLACK
6
CONTINUOUS
10
159
20
-89.075
11
143.375
21
-89.075
0
LINE
8
BLACK
6
CONTINUOUS
10
143.375
20
-89.075
11
143.375
21
-91.2
0
LINE
8
BLACK
6
CONTINUOUS
10
174.825
20
-147.859
11
174.825
21
-140.841
0
LINE
8
BLACK
6
CONTINUOUS
10
174.825
20
-140.841
11
170.569
21
-136.575
0
LINE
8
BLACK
6
CONTINUOUS
10
170.569
20
-136.575
11
139
21
-136.575
0
LINE
8
BLACK
6
CONTINUOUS
10
139
20
-136.575
11
138.99
21
-136.573
0
LINE
8
BLACK
6
CONTINUOUS
10
138.99
20
-136.573
11
138.987
21
-136.574
0
LINE
8
BLACK
6
CONTINUOUS
10
138.987
20
-136.574
11
138.984
21
-136.572
0
LINE
8
BLACK
6
CONTINUOUS
10
138.984
20
-136.572
11
138.974
21
-136.57
0
LINE
8
BLACK
6
CONTINUOUS
10
138.974
20
-136.57
11
138.959
21
-136.558
0
LINE
8
BLACK
6
CONTINUOUS
10
138.959
20
-136.558
11
138.943
21
-136.548
0
LINE
8
BLACK
6
CONTINUOUS
10
138.943
20
-136.548
11
138.94
21
-136.542
0
LINE
8
BLACK
6
CONTINUOUS
10
138.94
20
-136.542
11
138.935
21
-136.537
0
LINE
8
BLACK
6
CONTINUOUS
10
138.935
20
-136.537
11
138.932
21
-136.518
0
LINE
8
BLACK
6
CONTINUOUS
10
138.932
20
-136.518
11
138.925
21
-136.5
0
LINE
8
BLACK
6
CONTINUOUS
10
138.925
20
-136.5
11
138.925
21
-102.8
0
LINE
8
BLACK
6
CONTINUOUS
10
138.925
20
-102.8
11
138.926
21
-102.793
0
LINE
8
BLACK
6
CONTINUOUS
10
138.926
20
-102.793
11
138.926
21
-102.79
0
LINE
8
BLACK
6
CONTINUOUS
10
138.926
20
-102.79
11
139.926
21
-95.4898
0
LINE
8
BLACK
6
CONTINUOUS
10
139.926
20
-95.4898
11
139.934
21
-95.465
0
LINE
8
BLACK
6
CONTINUOUS
10
139.934
20
-95.465
11
139.939
21
-95.4606
0
LINE
8
BLACK
6
CONTINUOUS
10
139.939
20
-95.4606
11
139.941
21
-95.4543
0
LINE
8
BLACK
6
CONTINUOUS
10
139.941
20
-95.4543
11
143.225
21
-91.1745
0
LINE
8
BLACK
6
CONTINUOUS
10
143.225
20
-91.1745
11
143.225
21
-89
0
LINE
8
BLACK
6
CONTINUOUS
10
143.225
20
-89
11
143.227
21
-88.9903
0
LINE
8
BLACK
6
CONTINUOUS
10
143.227
20
-88.9903
11
143.226
21
-88.987
0
LINE
8
BLACK
6
CONTINUOUS
10
143.226
20
-88.987
11
143.228
21
-88.9841
0
LINE
8
BLACK
6
CONTINUOUS
10
143.228
20
-88.9841
11
143.23
21
-88.9743
0
LINE
8
BLACK
6
CONTINUOUS
10
143.23
20
-88.9743
11
143.242
21
-88.9594
0
LINE
8
BLACK
6
CONTINUOUS
10
143.242
20
-88.9594
11
143.252
21
-88.9425
0
LINE
8
BLACK
6
CONTINUOUS
10
143.252
20
-88.9425
11
143.258
21
-88.9402
0
LINE
8
BLACK
6
CONTINUOUS
10
143.258
20
-88.9402
11
143.262
21
-88.935
0
LINE
8
BLACK
6
CONTINUOUS
10
143.262
20
-88.935
11
143.282
21
-88.9317
0
LINE
8
BLACK
6
CONTINUOUS
10
143.282
20
-88.9317
11
143.3
21
-88.925
0
LINE
8
BLACK
6
CONTINUOUS
10
143.3
20
-88.925
11
158.925
21
-88.925
0
LINE
8
BLACK
6
CONTINUOUS
10
158.925
20
-88.925
11
158.925
21
-77.737
0
LINE
8
BLACK
6
CONTINUOUS
10
158.925
20
-77.737
11
149.96
21
-70.8636
0
LINE
8
BLACK
6
CONTINUOUS
10
149.96
20
-70.8636
11
138.782
21
-65.075
0
LINE
8
BLACK
6
CONTINUOUS
10
138.782
20
-65.075
11
129.822
21
-65.075
0
LINE
8
BLACK
6
CONTINUOUS
10
129.822
20
-65.075
11
117.353
21
-73.0552
0
LINE
8
BLACK
6
CONTINUOUS
10
117.353
20
-73.0552
11
114.075
21
-77.7237
0
LINE
8
BLACK
6
CONTINUOUS
10
114.075
20
-77.7237
11
114.075
21
-80.1
0
LINE
8
BLACK
6
CONTINUOUS
10
114.075
20
-80.1
11
114.073
21
-80.1097
0
LINE
8
BLACK
6
CONTINUOUS
10
114.073
20
-80.1097
11
114.074
21
-80.113
0
LINE
8
BLACK
6
CONTINUOUS
10
114.074
20
-80.113
11
114.072
21
-80.1159
0
LINE
8
BLACK
6
CONTINUOUS
10
114.072
20
-80.1159
11
114.07
21
-80.1257
0
LINE
8
BLACK
6
CONTINUOUS
10
114.07
20
-80.1257
11
114.058
21
-80.1406
0
LINE
8
BLACK
6
CONTINUOUS
10
114.058
20
-80.1406
11
114.048
21
-80.1575
0
LINE
8
BLACK
6
CONTINUOUS
10
114.048
20
-80.1575
11
114.042
21
-80.1598
0
LINE
8
BLACK
6
CONTINUOUS
10
114.042
20
-80.1598
11
114.037
21
-80.165
0
LINE
8
BLACK
6
CONTINUOUS
10
114.037
20
-80.165
11
114.018
21
-80.1683
0
LINE
8
BLACK
6
CONTINUOUS
10
114.018
20
-80.1683
11
114
21
-80.175
0
LINE
8
BLACK
6
CONTINUOUS
10
114
20
-80.175
11
106.731
21
-80.175
0
LINE
8
BLACK
6
CONTINUOUS
10
106.731
20
-80.175
11
102.455
21
-84.5307
0
LINE
8
BLACK
6
CONTINUOUS
10
102.455
20
-84.5307
11
102.455
21
-91.5992
0
LINE
8
BLACK
6
CONTINUOUS
10
102.455
20
-91.5992
11
106.731
21
-95.925
0
LINE
8
BLACK
6
CONTINUOUS
10
106.731
20
-95.925
11
113.9
21
-95.925
0
LINE
8
BLACK
6
CONTINUOUS
10
113.9
20
-95.925
11
113.91
21
-95.9267
0
LINE
8
BLACK
6
CONTINUOUS
10
113.91
20
-95.9267
11
113.913
21
-95.9261
0
LINE
8
BLACK
6
CONTINUOUS
10
113.913
20
-95.9261
11
113.916
21
-95.9278
0
LINE
8
BLACK
6
CONTINUOUS
10
113.916
20
-95.9278
11
113.926
21
-95.9295
0
LINE
8
BLACK
6
CONTINUOUS
10
113.926
20
-95.9295
11
113.941
21
-95.942
0
LINE
8
BLACK
6
CONTINUOUS
10
113.941
20
-95.942
11
113.957
21
-95.9518
0
LINE
8
BLACK
6
CONTINUOUS
10
113.957
20
-95.9518
11
113.96
21
-95.9581
0
LINE
8
BLACK
6
CONTINUOUS
10
113.96
20
-95.9581
11
113.965
21
-95.9625
0
LINE
8
BLACK
6
CONTINUOUS
10
113.965
20
-95.9625
11
113.968
21
-95.9817
0
LINE
8
BLACK
6
CONTINUOUS
10
113.968
20
-95.9817
11
113.975
21
-96
0
LINE
8
BLACK
6
CONTINUOUS
10
113.975
20
-96
11
113.975
21
-129.882
0
LINE
8
BLACK
6
CONTINUOUS
10
113.975
20
-129.882
11
120.067
21
-141.966
0
LINE
8
BLACK
6
CONTINUOUS
10
120.067
20
-141.966
11
120.074
21
-141.991
0
LINE
8
BLACK
6
CONTINUOUS
10
120.074
20
-141.991
11
120.073
21
-141.996
0
LINE
8
BLACK
6
CONTINUOUS
10
120.073
20
-141.996
11
120.075
21
-142
0
LINE
8
BLACK
6
CONTINUOUS
10
120.075
20
-142
11
120.075
21
-152.225
0
LINE
8
BLACK
6
CONTINUOUS
10
120.075
20
-152.225
11
170.568
21
-152.225
0
LINE
8
BLACK
6
CONTINUOUS
10
170.568
20
-152.225
11
174.825
21
-147.859
0
LINE
8
BLACK
6
CONTINUOUS
10
124.658
20
-129.282
11
124.64
21
-129.24
0
LINE
8
BLACK
6
CONTINUOUS
10
124.64
20
-129.24
11
124.64
21
-111.98
0
LINE
8
BLACK
6
CONTINUOUS
10
124.64
20
-111.98
11
124.658
21
-111.938
0
LINE
8
BLACK
6
CONTINUOUS
10
124.658
20
-111.938
11
124.7
21
-111.92
0
LINE
8
BLACK
6
CONTINUOUS
10
124.7
20
-111.92
11
133.3
21
-111.92
0
LINE
8
BLACK
6
CONTINUOUS
10
133.3
20
-111.92
11
133.342
21
-111.938
0
LINE
8
BLACK
6
CONTINUOUS
10
133.342
20
-111.938
11
133.36
21
-111.98
0
LINE
8
BLACK
6
CONTINUOUS
10
133.36
20
-111.98
11
133.36
21
-129.24
0
LINE
8
BLACK
6
CONTINUOUS
10
133.36
20
-129.24
11
133.342
21
-129.282
0
LINE
8
BLACK
6
CONTINUOUS
10
133.342
20
-129.282
11
133.3
21
-129.3
0
LINE
8
BLACK
6
CONTINUOUS
10
133.3
20
-129.3
11
124.7
21
-129.3
0
LINE
8
BLACK
6
CONTINUOUS
10
124.7
20
-129.3
11
124.658
21
-129.282
0
LINE
8
BLACK
6
CONTINUOUS
10
124.76
20
-112.04
11
124.76
21
-129.18
0
LINE
8
BLACK
6
CONTINUOUS
10
124.76
20
-129.18
11
133.24
21
-129.18
0
LINE
8
BLACK
6
CONTINUOUS
10
133.24
20
-129.18
11
133.24
21
-112.04
0
LINE
8
BLACK
6
CONTINUOUS
10
133.24
20
-112.04
11
124.76
21
-112.04
0
LINE
8
BLACK
6
CONTINUOUS
10
140.41
20
-79.6767
11
140.413
21
-79.6761
0
LINE
8
BLACK
6
CONTINUOUS
10
140.413
20
-79.6761
11
140.416
21
-79.6778
0
LINE
8
BLACK
6
CONTINUOUS
10
140.416
20
-79.6778
11
140.426
21
-79.6795
0
LINE
8
BLACK
6
CONTINUOUS
10
140.426
20
-79.6795
11
140.441
21
-79.692
0
LINE
8
BLACK
6
CONTINUOUS
10
140.441
20
-79.692
11
140.457
21
-79.7018
0
LINE
8
BLACK
6
CONTINUOUS
10
140.457
20
-79.7018
11
140.46
21
-79.7082
0
LINE
8
BLACK
6
CONTINUOUS
10
140.46
20
-79.7082
11
140.465
21
-79.7125
0
LINE
8
BLACK
6
CONTINUOUS
10
140.465
20
-79.7125
11
140.468
21
-79.7317
0
LINE
8
BLACK
6
CONTINUOUS
10
140.468
20
-79.7317
11
140.475
21
-79.75
0
LINE
8
BLACK
6
CONTINUOUS
10
140.475
20
-79.75
11
140.475
21
-91.25
0
LINE
8
BLACK
6
CONTINUOUS
10
140.475
20
-91.25
11
140.473
21
-91.2597
0
LINE
8
BLACK
6
CONTINUOUS
10
140.473
20
-91.2597
11
140.474
21
-91.263
0
LINE
8
BLACK
6
CONTINUOUS
10
140.474
20
-91.263
11
140.472
21
-91.2659
0
LINE
8
BLACK
6
CONTINUOUS
10
140.472
20
-91.2659
11
140.47
21
-91.2757
0
LINE
8
BLACK
6
CONTINUOUS
10
140.47
20
-91.2757
11
140.458
21
-91.2906
0
LINE
8
BLACK
6
CONTINUOUS
10
140.458
20
-91.2906
11
140.448
21
-91.3075
0
LINE
8
BLACK
6
CONTINUOUS
10
140.448
20
-91.3075
11
140.442
21
-91.3098
0
LINE
8
BLACK
6
CONTINUOUS
10
140.442
20
-91.3098
11
140.438
21
-91.315
0
LINE
8
BLACK
6
CONTINUOUS
10
140.438
20
-91.315
11
140.418
21
-91.3183
0
LINE
8
BLACK
6
CONTINUOUS
10
140.418
20
-91.3183
11
140.4
21
-91.325
0
LINE
8
BLACK
6
CONTINUOUS
10
140.4
20
-91.325
11
128.5
21
-91.325
0
LINE
8
BLACK
6
CONTINUOUS
10
128.5
20
-91.325
11
128.49
21
-91.3233
0
LINE
8
BLACK
6
CONTINUOUS
10
128.49
20
-91.3233
11
128.487
21
-91.3239
0
LINE
8
BLACK
6
CONTINUOUS
10
128.487
20
-91.3239
11
128.484
21
-91.3222
0
LINE
8
BLACK
6
CONTINUOUS
10
128.484
20
-91.3222
11
128.474
21
-91.3205
0
LINE
8
BLACK
6
CONTINUOUS
10
128.474
20
-91.3205
11
128.459
21
-91.308
0
LINE
8
BLACK
6
CONTINUOUS
10
128.459
20
-91.308
11
128.443
21
-91.2982
0
LINE
8
BLACK
6
CONTINUOUS
10
128.443
20
-91.2982
11
128.44
21
-91.2918
0
LINE
8
BLACK
6
CONTINUOUS
10
128.44
20
-91.2918
11
128.435
21
-91.2875
0
LINE
8
BLACK
6
CONTINUOUS
10
128.435
20
-91.2875
11
128.432
21
-91.2683
0
LINE
8
BLACK
6
CONTINUOUS
10
128.432
20
-91.2683
11
128.425
21
-91.25
0
LINE
8
BLACK
6
CONTINUOUS
10
128.425
20
-91.25
11
128.425
21
-79.75
0
LINE
8
BLACK
6
CONTINUOUS
10
128.425
20
-79.75
11
128.427
21
-79.7403
0
LINE
8
BLACK
6
CONTINUOUS
10
128.427
20
-79.7403
11
128.426
21
-79.737
0
LINE
8
BLACK
6
CONTINUOUS
10
128.426
20
-79.737
11
128.428
21
-79.7341
0
LINE
8
BLACK
6
CONTINUOUS
10
128.428
20
-79.7341
11
128.43
21
-79.7243
0
LINE
8
BLACK
6
CONTINUOUS
10
128.43
20
-79.7243
11
128.442
21
-79.7094
0
LINE
8
BLACK
6
CONTINUOUS
10
128.442
20
-79.7094
11
128.452
21
-79.6925
0
LINE
8
BLACK
6
CONTINUOUS
10
128.452
20
-79.6925
11
128.458
21
-79.6902
0
LINE
8
BLACK
6
CONTINUOUS
10
128.458
20
-79.6902
11
128.463
21
-79.685
0
LINE
8
BLACK
6
CONTINUOUS
10
128.463
20
-79.685
11
128.482
21
-79.6817
0
LINE
8
BLACK
6
CONTINUOUS
10
128.482
20
-79.6817
11
128.5
21
-79.675
0
LINE
8
BLACK
6
CONTINUOUS
10
128.5
20
-79.675
11
140.4
21
-79.675
0
LINE
8
BLACK
6
CONTINUOUS
10
140.4
20
-79.675
11
140.41
21
-79.6767
0
LINE
8
BLACK
6
CONTINUOUS
10
128.575
20
-79.825
11
128.575
21
-91.175
0
LINE
8
BLACK
6
CONTINUOUS
10
128.575
20
-91.175
11
140.325
21
-91.175
0
LINE
8
BLACK
6
CONTINUOUS
10
140.325
20
-91.175
11
140.325
21
-79.825
0
LINE
8
BLACK
6
CONTINUOUS
10
140.325
20
-79.825
11
128.575
21
-79.825
0
LINE
8
BLACK
6
CONTINUOUS
10
133.447
20
-137.58
11
133.537
21
-137.386
0
LINE
8
BLACK
6
CONTINUOUS
10
133.537
20
-137.386
11
133.66
21
-137.211
0
LINE
8
BLACK
6
CONTINUOUS
10
133.66
20
-137.211
11
133.811
21
-137.06
0
LINE
8
BLACK
6
CONTINUOUS
10
133.811
20
-137.06
11
133.987
21
-136.937
0
LINE
8
BLACK
6
CONTINUOUS
10
133.987
20
-136.937
11
134.18
21
-136.847
0
LINE
8
BLACK
6
CONTINUOUS
10
134.18
20
-136.847
11
134.387
21
-136.792
0
LINE
8
BLACK
6
CONTINUOUS
10
134.387
20
-136.792
11
134.6
21
-136.773
0
LINE
8
BLACK
6
CONTINUOUS
10
134.6
20
-136.773
11
134.813
21
-136.792
0
LINE
8
BLACK
6
CONTINUOUS
10
134.813
20
-136.792
11
135.02
21
-136.847
0
LINE
8
BLACK
6
CONTINUOUS
10
135.02
20
-136.847
11
135.213
21
-136.937
0
LINE
8
BLACK
6
CONTINUOUS
10
135.213
20
-136.937
11
135.389
21
-137.06
0
LINE
8
BLACK
6
CONTINUOUS
10
135.389
20
-137.06
11
135.54
21
-137.211
0
LINE
8
BLACK
6
CONTINUOUS
10
135.54
20
-137.211
11
135.663
21
-137.386
0
LINE
8
BLACK
6
CONTINUOUS
10
135.663
20
-137.386
11
135.753
21
-137.58
0
LINE
8
BLACK
6
CONTINUOUS
10
135.753
20
-137.58
11
135.808
21
-137.787
0
LINE
8
BLACK
6
CONTINUOUS
10
135.808
20
-137.787
11
135.827
21
-138
0
LINE
8
BLACK
6
CONTINUOUS
10
135.827
20
-138
11
135.808
21
-138.213
0
LINE
8
BLACK
6
CONTINUOUS
10
135.808
20
-138.213
11
135.753
21
-138.42
0
LINE
8
BLACK
6
CONTINUOUS
10
135.753
20
-138.42
11
135.663
21
-138.613
0
LINE
8
BLACK
6
CONTINUOUS
10
135.663
20
-138.613
11
135.54
21
-138.789
0
LINE
8
BLACK
6
CONTINUOUS
10
135.54
20
-138.789
11
135.389
21
-138.94
0
LINE
8
BLACK
6
CONTINUOUS
10
135.389
20
-138.94
11
135.213
21
-139.063
0
LINE
8
BLACK
6
CONTINUOUS
10
135.213
20
-139.063
11
135.02
21
-139.153
0
LINE
8
BLACK
6
CONTINUOUS
10
135.02
20
-139.153
11
134.813
21
-139.208
0
LINE
8
BLACK
6
CONTINUOUS
10
134.813
20
-139.208
11
134.6
21
-139.227
0
LINE
8
BLACK
6
CONTINUOUS
10
134.6
20
-139.227
11
134.387
21
-139.208
0
LINE
8
BLACK
6
CONTINUOUS
10
134.387
20
-139.208
11
134.18
21
-139.153
0
LINE
8
BLACK
6
CONTINUOUS
10
134.18
20
-139.153
11
133.987
21
-139.063
0
LINE
8
BLACK
6
CONTINUOUS
10
133.987
20
-139.063
11
133.811
21
-138.94
0
LINE
8
BLACK
6
CONTINUOUS
10
133.811
20
-138.94
11
133.66
21
-138.789
0
LINE
8
BLACK
6
CONTINUOUS
10
133.66
20
-138.789
11
133.537
21
-138.613
0
LINE
8
BLACK
6
CONTINUOUS
10
133.537
20
-138.613
11
133.447
21
-138.42
0
LINE
8
BLACK
6
CONTINUOUS
10
133.447
20
-138.42
11
133.392
21
-138.213
0
LINE
8
BLACK
6
CONTINUOUS
10
133.392
20
-138.213
11
133.373
21
-138
0
LINE
8
BLACK
6
CONTINUOUS
10
133.373
20
-138
11
133.375
21
-137.972
0
LINE
8
BLACK
6
CONTINUOUS
10
133.375
20
-137.972
11
133.392
21
-137.787
0
LINE
8
BLACK
6
CONTINUOUS
10
133.392
20
-137.787
11
133.447
21
-137.58
0
LINE
8
BLACK
6
CONTINUOUS
10
133.58
20
-138.361
11
133.663
21
-138.541
0
LINE
8
BLACK
6
CONTINUOUS
10
133.663
20
-138.541
11
133.778
21
-138.702
0
LINE
8
BLACK
6
CONTINUOUS
10
133.778
20
-138.702
11
133.919
21
-138.841
0
LINE
8
BLACK
6
CONTINUOUS
10
133.919
20
-138.841
11
134.084
21
-138.951
0
LINE
8
BLACK
6
CONTINUOUS
10
134.084
20
-138.951
11
134.266
21
-139.029
0
LINE
8
BLACK
6
CONTINUOUS
10
134.266
20
-139.029
11
134.459
21
-139.072
0
LINE
8
BLACK
6
CONTINUOUS
10
134.459
20
-139.072
11
134.657
21
-139.08
0
LINE
8
BLACK
6
CONTINUOUS
10
134.657
20
-139.08
11
134.852
21
-139.052
0
LINE
8
BLACK
6
CONTINUOUS
10
134.852
20
-139.052
11
135.04
21
-138.988
0
LINE
8
BLACK
6
CONTINUOUS
10
135.04
20
-138.988
11
135.213
21
-138.891
0
LINE
8
BLACK
6
CONTINUOUS
10
135.213
20
-138.891
11
135.365
21
-138.765
0
LINE
8
BLACK
6
CONTINUOUS
10
135.365
20
-138.765
11
135.491
21
-138.613
0
LINE
8
BLACK
6
CONTINUOUS
10
135.491
20
-138.613
11
135.588
21
-138.44
0
LINE
8
BLACK
6
CONTINUOUS
10
135.588
20
-138.44
11
135.652
21
-138.252
0
LINE
8
BLACK
6
CONTINUOUS
10
135.652
20
-138.252
11
135.68
21
-138.057
0
LINE
8
BLACK
6
CONTINUOUS
10
135.68
20
-138.057
11
135.682
21
-138
0
LINE
8
BLACK
6
CONTINUOUS
10
135.682
20
-138
11
135.664
21
-137.803
0
LINE
8
BLACK
6
CONTINUOUS
10
135.664
20
-137.803
11
135.61
21
-137.612
0
LINE
8
BLACK
6
CONTINUOUS
10
135.61
20
-137.612
11
135.522
21
-137.435
0
LINE
8
BLACK
6
CONTINUOUS
10
135.522
20
-137.435
11
135.404
21
-137.276
0
LINE
8
BLACK
6
CONTINUOUS
10
135.404
20
-137.276
11
135.258
21
-137.142
0
LINE
8
BLACK
6
CONTINUOUS
10
135.258
20
-137.142
11
135.091
21
-137.036
0
LINE
8
BLACK
6
CONTINUOUS
10
135.091
20
-137.036
11
134.907
21
-136.963
0
LINE
8
BLACK
6
CONTINUOUS
10
134.907
20
-136.963
11
134.713
21
-136.924
0
LINE
8
BLACK
6
CONTINUOUS
10
134.713
20
-136.924
11
134.515
21
-136.922
0
LINE
8
BLACK
6
CONTINUOUS
10
134.515
20
-136.922
11
134.32
21
-136.955
0
LINE
8
BLACK
6
CONTINUOUS
10
134.32
20
-136.955
11
134.134
21
-137.024
0
LINE
8
BLACK
6
CONTINUOUS
10
134.134
20
-137.024
11
133.964
21
-137.125
0
LINE
8
BLACK
6
CONTINUOUS
10
133.964
20
-137.125
11
133.815
21
-137.255
0
LINE
8
BLACK
6
CONTINUOUS
10
133.815
20
-137.255
11
133.693
21
-137.411
0
LINE
8
BLACK
6
CONTINUOUS
10
133.693
20
-137.411
11
133.601
21
-137.586
0
LINE
8
BLACK
6
CONTINUOUS
10
133.601
20
-137.586
11
133.542
21
-137.775
0
LINE
8
BLACK
6
CONTINUOUS
10
133.542
20
-137.775
11
133.519
21
-137.972
0
LINE
8
BLACK
6
CONTINUOUS
10
133.519
20
-137.972
11
133.532
21
-138.169
0
LINE
8
BLACK
6
CONTINUOUS
10
133.532
20
-138.169
11
133.58
21
-138.361
0
LINE
8
BLACK
6
CONTINUOUS
10
150.247
20
-81.5803
11
150.337
21
-81.3865
0
LINE
8
BLACK
6
CONTINUOUS
10
150.337
20
-81.3865
11
150.46
21
-81.2113
0
LINE
8
BLACK
6
CONTINUOUS
10
150.46
20
-81.2113
11
150.611
21
-81.0601
0
LINE
8
BLACK
6
CONTINUOUS
10
150.611
20
-81.0601
11
150.786
21
-80.9374
0
LINE
8
BLACK
6
CONTINUOUS
10
150.786
20
-80.9374
11
150.98
21
-80.847
0
LINE
8
BLACK
6
CONTINUOUS
10
150.98
20
-80.847
11
151.187
21
-80.7916
0
LINE
8
BLACK
6
CONTINUOUS
10
151.187
20
-80.7916
11
151.4
21
-80.773
0
LINE
8
BLACK
6
CONTINUOUS
10
151.4
20
-80.773
11
151.613
21
-80.7916
0
LINE
8
BLACK
6
CONTINUOUS
10
151.613
20
-80.7916
11
151.82
21
-80.847
0
LINE
8
BLACK
6
CONTINUOUS
10
151.82
20
-80.847
11
152.013
21
-80.9374
0
LINE
8
BLACK
6
CONTINUOUS
10
152.013
20
-80.9374
11
152.189
21
-81.0601
0
LINE
8
BLACK
6
CONTINUOUS
10
152.189
20
-81.0601
11
152.34
21
-81.2113
0
LINE
8
BLACK
6
CONTINUOUS
10
152.34
20
-81.2113
11
152.463
21
-81.3865
0
LINE
8
BLACK
6
CONTINUOUS
10
152.463
20
-81.3865
11
152.553
21
-81.5803
0
LINE
8
BLACK
6
CONTINUOUS
10
152.553
20
-81.5803
11
152.608
21
-81.7869
0
LINE
8
BLACK
6
CONTINUOUS
10
152.608
20
-81.7869
11
152.627
21
-82
0
LINE
8
BLACK
6
CONTINUOUS
10
152.627
20
-82
11
152.608
21
-82.2131
0
LINE
8
BLACK
6
CONTINUOUS
10
152.608
20
-82.2131
11
152.553
21
-82.4197
0
LINE
8
BLACK
6
CONTINUOUS
10
152.553
20
-82.4197
11
152.463
21
-82.6135
0
LINE
8
BLACK
6
CONTINUOUS
10
152.463
20
-82.6135
11
152.34
21
-82.7887
0
LINE
8
BLACK
6
CONTINUOUS
10
152.34
20
-82.7887
11
152.189
21
-82.9399
0
LINE
8
BLACK
6
CONTINUOUS
10
152.189
20
-82.9399
11
152.013
21
-83.0626
0
LINE
8
BLACK
6
CONTINUOUS
10
152.013
20
-83.0626
11
151.82
21
-83.153
0
LINE
8
BLACK
6
CONTINUOUS
10
151.82
20
-83.153
11
151.613
21
-83.2084
0
LINE
8
BLACK
6
CONTINUOUS
10
151.613
20
-83.2084
11
151.4
21
-83.227
0
LINE
8
BLACK
6
CONTINUOUS
10
151.4
20
-83.227
11
151.187
21
-83.2084
0
LINE
8
BLACK
6
CONTINUOUS
10
151.187
20
-83.2084
11
150.98
21
-83.153
0
LINE
8
BLACK
6
CONTINUOUS
10
150.98
20
-83.153
11
150.786
21
-83.0626
0
LINE
8
BLACK
6
CONTINUOUS
10
150.786
20
-83.0626
11
150.611
21
-82.9399
0
LINE
8
BLACK
6
CONTINUOUS
10
150.611
20
-82.9399
11
150.46
21
-82.7887
0
LINE
8
BLACK
6
CONTINUOUS
10
150.46
20
-82.7887
11
150.337
21
-82.6135
0
LINE
8
BLACK
6
CONTINUOUS
10
150.337
20
-82.6135
11
150.247
21
-82.4197
0
LINE
8
BLACK
6
CONTINUOUS
10
150.247
20
-82.4197
11
150.192
21
-82.2131
0
LINE
8
BLACK
6
CONTINUOUS
10
150.192
20
-82.2131
11
150.173
21
-82
0
LINE
8
BLACK
6
CONTINUOUS
10
150.173
20
-82
11
150.175
21
-81.9717
0
LINE
8
BLACK
6
CONTINUOUS
10
150.175
20
-81.9717
11
150.192
21
-81.7869
0
LINE
8
BLACK
6
CONTINUOUS
10
150.192
20
-81.7869
11
150.247
21
-81.5803
0
LINE
8
BLACK
6
CONTINUOUS
10
150.38
20
-82.361
11
150.463
21
-82.5408
0
LINE
8
BLACK
6
CONTINUOUS
10
150.463
20
-82.5408
11
150.578
21
-82.7025
0
LINE
8
BLACK
6
CONTINUOUS
10
150.578
20
-82.7025
11
150.719
21
-82.8406
0
LINE
8
BLACK
6
CONTINUOUS
10
150.719
20
-82.8406
11
150.884
21
-82.9505
0
LINE
8
BLACK
6
CONTINUOUS
10
150.884
20
-82.9505
11
151.066
21
-83.0287
0
LINE
8
BLACK
6
CONTINUOUS
10
151.066
20
-83.0287
11
151.259
21
-83.0724
0
LINE
8
BLACK
6
CONTINUOUS
10
151.259
20
-83.0724
11
151.457
21
-83.0801
0
LINE
8
BLACK
6
CONTINUOUS
10
151.457
20
-83.0801
11
151.652
21
-83.0517
0
LINE
8
BLACK
6
CONTINUOUS
10
151.652
20
-83.0517
11
151.84
21
-82.9881
0
LINE
8
BLACK
6
CONTINUOUS
10
151.84
20
-82.9881
11
152.013
21
-82.8914
0
LINE
8
BLACK
6
CONTINUOUS
10
152.013
20
-82.8914
11
152.165
21
-82.7648
0
LINE
8
BLACK
6
CONTINUOUS
10
152.165
20
-82.7648
11
152.291
21
-82.6126
0
LINE
8
BLACK
6
CONTINUOUS
10
152.291
20
-82.6126
11
152.388
21
-82.4399
0
LINE
8
BLACK
6
CONTINUOUS
10
152.388
20
-82.4399
11
152.452
21
-82.2525
0
LINE
8
BLACK
6
CONTINUOUS
10
152.452
20
-82.2525
11
152.48
21
-82.0566
0
LINE
8
BLACK
6
CONTINUOUS
10
152.48
20
-82.0566
11
152.482
21
-82
0
LINE
8
BLACK
6
CONTINUOUS
10
152.482
20
-82
11
152.464
21
-81.8029
0
LINE
8
BLACK
6
CONTINUOUS
10
152.464
20
-81.8029
11
152.41
21
-81.6124
0
LINE
8
BLACK
6
CONTINUOUS
10
152.41
20
-81.6124
11
152.322
21
-81.4349
0
LINE
8
BLACK
6
CONTINUOUS
10
152.322
20
-81.4349
11
152.204
21
-81.2763
0
LINE
8
BLACK
6
CONTINUOUS
10
152.204
20
-81.2763
11
152.058
21
-81.1419
0
LINE
8
BLACK
6
CONTINUOUS
10
152.058
20
-81.1419
11
151.891
21
-81.0363
0
LINE
8
BLACK
6
CONTINUOUS
10
151.891
20
-81.0363
11
151.707
21
-80.9629
0
LINE
8
BLACK
6
CONTINUOUS
10
151.707
20
-80.9629
11
151.513
21
-80.9243
0
LINE
8
BLACK
6
CONTINUOUS
10
151.513
20
-80.9243
11
151.315
21
-80.9217
0
LINE
8
BLACK
6
CONTINUOUS
10
151.315
20
-80.9217
11
151.12
21
-80.9552
0
LINE
8
BLACK
6
CONTINUOUS
10
151.12
20
-80.9552
11
150.934
21
-81.0238
0
LINE
8
BLACK
6
CONTINUOUS
10
150.934
20
-81.0238
11
150.764
21
-81.125
0
LINE
8
BLACK
6
CONTINUOUS
10
150.764
20
-81.125
11
150.615
21
-81.2555
0
LINE
8
BLACK
6
CONTINUOUS
10
150.615
20
-81.2555
11
150.493
21
-81.4109
0
LINE
8
BLACK
6
CONTINUOUS
10
150.493
20
-81.4109
11
150.401
21
-81.5861
0
LINE
8
BLACK
6
CONTINUOUS
10
150.401
20
-81.5861
11
150.342
21
-81.7751
0
LINE
8
BLACK
6
CONTINUOUS
10
150.342
20
-81.7751
11
150.319
21
-81.9717
0
LINE
8
BLACK
6
CONTINUOUS
10
150.319
20
-81.9717
11
150.332
21
-82.1692
0
LINE
8
BLACK
6
CONTINUOUS
10
150.332
20
-82.1692
11
150.38
21
-82.361
0
LINE
8
BLACK
6
CONTINUOUS
10
116.447
20
-81.5803
11
116.537
21
-81.3865
0
LINE
8
BLACK
6
CONTINUOUS
10
116.537
20
-81.3865
11
116.66
21
-81.2113
0
LINE
8
BLACK
6
CONTINUOUS
10
116.66
20
-81.2113
11
116.811
21
-81.0601
0
LINE
8
BLACK
6
CONTINUOUS
10
116.811
20
-81.0601
11
116.986
21
-80.9374
0
LINE
8
BLACK
6
CONTINUOUS
10
116.986
20
-80.9374
11
117.18
21
-80.847
0
LINE
8
BLACK
6
CONTINUOUS
10
117.18
20
-80.847
11
117.387
21
-80.7916
0
LINE
8
BLACK
6
CONTINUOUS
10
117.387
20
-80.7916
11
117.6
21
-80.773
0
LINE
8
BLACK
6
CONTINUOUS
10
117.6
20
-80.773
11
117.813
21
-80.7916
0
LINE
8
BLACK
6
CONTINUOUS
10
117.813
20
-80.7916
11
118.02
21
-80.847
0
LINE
8
BLACK
6
CONTINUOUS
10
118.02
20
-80.847
11
118.213
21
-80.9374
0
LINE
8
BLACK
6
CONTINUOUS
10
118.213
20
-80.9374
11
118.389
21
-81.0601
0
LINE
8
BLACK
6
CONTINUOUS
10
118.389
20
-81.0601
11
118.54
21
-81.2113
0
LINE
8
BLACK
6
CONTINUOUS
10
118.54
20
-81.2113
11
118.663
21
-81.3865
0
LINE
8
BLACK
6
CONTINUOUS
10
118.663
20
-81.3865
11
118.753
21
-81.5803
0
LINE
8
BLACK
6
CONTINUOUS
10
118.753
20
-81.5803
11
118.808
21
-81.7869
0
LINE
8
BLACK
6
CONTINUOUS
10
118.808
20
-81.7869
11
118.827
21
-82
0
LINE
8
BLACK
6
CONTINUOUS
10
118.827
20
-82
11
118.808
21
-82.2131
0
LINE
8
BLACK
6
CONTINUOUS
10
118.808
20
-82.2131
11
118.753
21
-82.4197
0
LINE
8
BLACK
6
CONTINUOUS
10
118.753
20
-82.4197
11
118.663
21
-82.6135
0
LINE
8
BLACK
6
CONTINUOUS
10
118.663
20
-82.6135
11
118.54
21
-82.7887
0
LINE
8
BLACK
6
CONTINUOUS
10
118.54
20
-82.7887
11
118.389
21
-82.9399
0
LINE
8
BLACK
6
CONTINUOUS
10
118.389
20
-82.9399
11
118.213
21
-83.0626
0
LINE
8
BLACK
6
CONTINUOUS
10
118.213
20
-83.0626
11
118.02
21
-83.153
0
LINE
8
BLACK
6
CONTINUOUS
10
118.02
20
-83.153
11
117.813
21
-83.2084
0
LINE
8
BLACK
6
CONTINUOUS
10
117.813
20
-83.2084
11
117.6
21
-83.227
0
LINE
8
BLACK
6
CONTINUOUS
10
117.6
20
-83.227
11
117.387
21
-83.2084
0
LINE
8
BLACK
6
CONTINUOUS
10
117.387
20
-83.2084
11
117.18
21
-83.153
0
LINE
8
BLACK
6
CONTINUOUS
10
117.18
20
-83.153
11
116.986
21
-83.0626
0
LINE
8
BLACK
6
CONTINUOUS
10
116.986
20
-83.0626
11
116.811
21
-82.9399
0
LINE
8
BLACK
6
CONTINUOUS
10
116.811
20
-82.9399
11
116.66
21
-82.7887
0
LINE
8
BLACK
6
CONTINUOUS
10
116.66
20
-82.7887
11
116.537
21
-82.6135
0
LINE
8
BLACK
6
CONTINUOUS
10
116.537
20
-82.6135
11
116.447
21
-82.4197
0
LINE
8
BLACK
6
CONTINUOUS
10
116.447
20
-82.4197
11
116.392
21
-82.2131
0
LINE
8
BLACK
6
CONTINUOUS
10
116.392
20
-82.2131
11
116.373
21
-82
0
LINE
8
BLACK
6
CONTINUOUS
10
116.373
20
-82
11
116.375
21
-81.9717
0
LINE
8
BLACK
6
CONTINUOUS
10
116.375
20
-81.9717
11
116.392
21
-81.7869
0
LINE
8
BLACK
6
CONTINUOUS
10
116.392
20
-81.7869
11
116.447
21
-81.5803
0
LINE
8
BLACK
6
CONTINUOUS
10
116.58
20
-82.361
11
116.663
21
-82.5408
0
LINE
8
BLACK
6
CONTINUOUS
10
116.663
20
-82.5408
11
116.778
21
-82.7025
0
LINE
8
BLACK
6
CONTINUOUS
10
116.778
20
-82.7025
11
116.919
21
-82.8406
0
LINE
8
BLACK
6
CONTINUOUS
10
116.919
20
-82.8406
11
117.084
21
-82.9505
0
LINE
8
BLACK
6
CONTINUOUS
10
117.084
20
-82.9505
11
117.266
21
-83.0287
0
LINE
8
BLACK
6
CONTINUOUS
10
117.266
20
-83.0287
11
117.459
21
-83.0724
0
LINE
8
BLACK
6
CONTINUOUS
10
117.459
20
-83.0724
11
117.657
21
-83.0801
0
LINE
8
BLACK
6
CONTINUOUS
10
117.657
20
-83.0801
11
117.852
21
-83.0517
0
LINE
8
BLACK
6
CONTINUOUS
10
117.852
20
-83.0517
11
118.04
21
-82.9881
0
LINE
8
BLACK
6
CONTINUOUS
10
118.04
20
-82.9881
11
118.213
21
-82.8914
0
LINE
8
BLACK
6
CONTINUOUS
10
118.213
20
-82.8914
11
118.365
21
-82.7648
0
LINE
8
BLACK
6
CONTINUOUS
10
118.365
20
-82.7648
11
118.491
21
-82.6126
0
LINE
8
BLACK
6
CONTINUOUS
10
118.491
20
-82.6126
11
118.588
21
-82.4399
0
LINE
8
BLACK
6
CONTINUOUS
10
118.588
20
-82.4399
11
118.652
21
-82.2525
0
LINE
8
BLACK
6
CONTINUOUS
10
118.652
20
-82.2525
11
118.68
21
-82.0566
0
LINE
8
BLACK
6
CONTINUOUS
10
118.68
20
-82.0566
11
118.682
21
-82
0
LINE
8
BLACK
6
CONTINUOUS
10
118.682
20
-82
11
118.664
21
-81.8029
0
LINE
8
BLACK
6
CONTINUOUS
10
118.664
20
-81.8029
11
118.61
21
-81.6124
0
LINE
8
BLACK
6
CONTINUOUS
10
118.61
20
-81.6124
11
118.522
21
-81.4349
0
LINE
8
BLACK
6
CONTINUOUS
10
118.522
20
-81.4349
11
118.404
21
-81.2763
0
LINE
8
BLACK
6
CONTINUOUS
10
118.404
20
-81.2763
11
118.258
21
-81.1419
0
LINE
8
BLACK
6
CONTINUOUS
10
118.258
20
-81.1419
11
118.091
21
-81.0363
0
LINE
8
BLACK
6
CONTINUOUS
10
118.091
20
-81.0363
11
117.907
21
-80.9629
0
LINE
8
BLACK
6
CONTINUOUS
10
117.907
20
-80.9629
11
117.713
21
-80.9243
0
LINE
8
BLACK
6
CONTINUOUS
10
117.713
20
-80.9243
11
117.515
21
-80.9217
0
LINE
8
BLACK
6
CONTINUOUS
10
117.515
20
-80.9217
11
117.32
21
-80.9552
0
LINE
8
BLACK
6
CONTINUOUS
10
117.32
20
-80.9552
11
117.134
21
-81.0238
0
LINE
8
BLACK
6
CONTINUOUS
10
117.134
20
-81.0238
11
116.964
21
-81.125
0
LINE
8
BLACK
6
CONTINUOUS
10
116.964
20
-81.125
11
116.815
21
-81.2555
0
LINE
8
BLACK
6
CONTINUOUS
10
116.815
20
-81.2555
11
116.693
21
-81.4109
0
LINE
8
BLACK
6
CONTINUOUS
10
116.693
20
-81.4109
11
116.601
21
-81.5861
0
LINE
8
BLACK
6
CONTINUOUS
10
116.601
20
-81.5861
11
116.542
21
-81.7751
0
LINE
8
BLACK
6
CONTINUOUS
10
116.542
20
-81.7751
11
116.519
21
-81.9717
0
LINE
8
BLACK
6
CONTINUOUS
10
116.519
20
-81.9717
11
116.532
21
-82.1692
0
LINE
8
BLACK
6
CONTINUOUS
10
116.532
20
-82.1692
11
116.58
21
-82.361
  0
ENDSEC
  0
EOF
