%TF.GenerationSoftware,KiCad,Pcbnew,(6.0.4)*%
%TF.CreationDate,2022-05-12T22:03:53-04:00*%
%TF.ProjectId,Mouse V1,4d6f7573-6520-4563-912e-6b696361645f,V2.0*%
%TF.SameCoordinates,Original*%
%TF.FileFunction,Legend,Top*%
%TF.FilePolarity,Positive*%
%FSLAX46Y46*%
G04 Gerber Fmt 4.6, Leading zero omitted, Abs format (unit mm)*
G04 Created by KiCad (PCBNEW (6.0.4)) date 2022-05-12 22:03:53*
%MOMM*%
%LPD*%
G01*
G04 APERTURE LIST*
G04 Aperture macros list*
%AMRoundRect*
0 Rectangle with rounded corners*
0 $1 Rounding radius*
0 $2 $3 $4 $5 $6 $7 $8 $9 X,Y pos of 4 corners*
0 Add a 4 corners polygon primitive as box body*
4,1,4,$2,$3,$4,$5,$6,$7,$8,$9,$2,$3,0*
0 Add four circle primitives for the rounded corners*
1,1,$1+$1,$2,$3*
1,1,$1+$1,$4,$5*
1,1,$1+$1,$6,$7*
1,1,$1+$1,$8,$9*
0 Add four rect primitives between the rounded corners*
20,1,$1+$1,$2,$3,$4,$5,0*
20,1,$1+$1,$4,$5,$6,$7,0*
20,1,$1+$1,$6,$7,$8,$9,0*
20,1,$1+$1,$8,$9,$2,$3,0*%
G04 Aperture macros list end*
%ADD10C,0.150000*%
%ADD11C,0.120000*%
%ADD12C,0.127000*%
%ADD13C,0.200000*%
%ADD14C,0.100000*%
%ADD15C,0.239605*%
%ADD16RoundRect,0.225000X-0.250000X0.225000X-0.250000X-0.225000X0.250000X-0.225000X0.250000X0.225000X0*%
%ADD17R,0.740000X2.400000*%
%ADD18RoundRect,0.218750X0.218750X0.256250X-0.218750X0.256250X-0.218750X-0.256250X0.218750X-0.256250X0*%
%ADD19RoundRect,0.225000X0.225000X0.250000X-0.225000X0.250000X-0.225000X-0.250000X0.225000X-0.250000X0*%
%ADD20C,1.000000*%
%ADD21RoundRect,0.200000X0.200000X0.275000X-0.200000X0.275000X-0.200000X-0.275000X0.200000X-0.275000X0*%
%ADD22C,1.701800*%
%ADD23RoundRect,0.200000X-0.275000X0.200000X-0.275000X-0.200000X0.275000X-0.200000X0.275000X0.200000X0*%
%ADD24RoundRect,0.200000X-0.200000X-0.275000X0.200000X-0.275000X0.200000X0.275000X-0.200000X0.275000X0*%
%ADD25RoundRect,0.150000X0.512500X0.150000X-0.512500X0.150000X-0.512500X-0.150000X0.512500X-0.150000X0*%
%ADD26R,1.000000X1.800000*%
%ADD27RoundRect,0.218750X0.218750X0.381250X-0.218750X0.381250X-0.218750X-0.381250X0.218750X-0.381250X0*%
%ADD28RoundRect,0.225000X-0.225000X-0.250000X0.225000X-0.250000X0.225000X0.250000X-0.225000X0.250000X0*%
%ADD29RoundRect,0.050000X-0.050000X0.387500X-0.050000X-0.387500X0.050000X-0.387500X0.050000X0.387500X0*%
%ADD30RoundRect,0.050000X-0.387500X0.050000X-0.387500X-0.050000X0.387500X-0.050000X0.387500X0.050000X0*%
%ADD31R,2.600000X2.600000*%
%ADD32O,2.500000X1.500000*%
%ADD33C,1.500000*%
%ADD34RoundRect,0.050000X0.050000X-0.387500X0.050000X0.387500X-0.050000X0.387500X-0.050000X-0.387500X0*%
%ADD35RoundRect,0.050000X0.387500X-0.050000X0.387500X0.050000X-0.387500X0.050000X-0.387500X-0.050000X0*%
%ADD36RoundRect,0.225000X0.250000X-0.225000X0.250000X0.225000X-0.250000X0.225000X-0.250000X-0.225000X0*%
%ADD37RoundRect,0.055000X-0.055000X0.375000X-0.055000X-0.375000X0.055000X-0.375000X0.055000X0.375000X0*%
%ADD38RoundRect,0.055000X0.375000X0.055000X-0.375000X0.055000X-0.375000X-0.055000X0.375000X-0.055000X0*%
%ADD39RoundRect,0.250000X-0.350000X-0.625000X0.350000X-0.625000X0.350000X0.625000X-0.350000X0.625000X0*%
%ADD40O,1.200000X1.750000*%
%ADD41RoundRect,0.200000X0.275000X-0.200000X0.275000X0.200000X-0.275000X0.200000X-0.275000X-0.200000X0*%
%ADD42RoundRect,0.150000X0.150000X-0.825000X0.150000X0.825000X-0.150000X0.825000X-0.150000X-0.825000X0*%
%ADD43RoundRect,0.218750X-0.218750X-0.381250X0.218750X-0.381250X0.218750X0.381250X-0.218750X0.381250X0*%
%ADD44R,1.800000X1.000000*%
%ADD45R,2.000000X0.650000*%
%ADD46C,1.498600*%
%ADD47C,2.000000*%
%ADD48RoundRect,0.150000X-0.150000X0.512500X-0.150000X-0.512500X0.150000X-0.512500X0.150000X0.512500X0*%
%ADD49RoundRect,0.218750X-0.381250X0.218750X-0.381250X-0.218750X0.381250X-0.218750X0.381250X0.218750X0*%
%ADD50R,1.309599X0.558000*%
%ADD51RoundRect,0.218750X-0.218750X-0.256250X0.218750X-0.256250X0.218750X0.256250X-0.218750X0.256250X0*%
%ADD52R,1.000000X2.000000*%
%ADD53O,0.850000X0.600000*%
%ADD54C,0.600000*%
%ADD55R,0.520000X1.000000*%
%ADD56R,0.270000X1.000000*%
%ADD57O,1.300000X2.600000*%
%ADD58O,1.300000X2.300000*%
%ADD59R,0.650000X2.000000*%
%ADD60RoundRect,0.051000X0.352999X-0.051000X0.352999X0.051000X-0.352999X0.051000X-0.352999X-0.051000X0*%
%ADD61RoundRect,0.051000X-0.352999X0.051000X-0.352999X-0.051000X0.352999X-0.051000X0.352999X0.051000X0*%
%ADD62RoundRect,0.051000X-0.051000X-0.352999X0.051000X-0.352999X0.051000X0.352999X-0.051000X0.352999X0*%
%ADD63R,6.248400X6.248400*%
%ADD64C,0.800000*%
%ADD65R,0.900000X1.700000*%
%ADD66R,1.400000X1.400000*%
%ADD67C,1.400000*%
%ADD68C,0.900000*%
%ADD69C,1.100000*%
%ADD70O,3.500000X1.900000*%
G04 APERTURE END LIST*
D10*
X139000000Y-151800000D02*
X139000000Y-137000000D01*
X141000000Y-151800000D02*
X141000000Y-137000000D01*
X142200000Y-83852380D02*
X142200000Y-84090476D01*
X141961904Y-83995238D02*
X142200000Y-84090476D01*
X142438095Y-83995238D01*
X142057142Y-84280952D02*
X142200000Y-84090476D01*
X142342857Y-84280952D01*
X153900000Y-140652380D02*
X153900000Y-140890476D01*
X153661904Y-140795238D02*
X153900000Y-140890476D01*
X154138095Y-140795238D01*
X153757142Y-141080952D02*
X153900000Y-140890476D01*
X154042857Y-141080952D01*
X153900000Y-140652380D02*
X153900000Y-140890476D01*
X153661904Y-140795238D02*
X153900000Y-140890476D01*
X154138095Y-140795238D01*
X153757142Y-141080952D02*
X153900000Y-140890476D01*
X154042857Y-141080952D01*
X138301400Y-72801380D02*
X138301400Y-73039476D01*
X138063304Y-72944238D02*
X138301400Y-73039476D01*
X138539495Y-72944238D01*
X138158542Y-73229952D02*
X138301400Y-73039476D01*
X138444257Y-73229952D01*
X138301400Y-72801380D02*
X138301400Y-73039476D01*
X138063304Y-72944238D02*
X138301400Y-73039476D01*
X138539495Y-72944238D01*
X138158542Y-73229952D02*
X138301400Y-73039476D01*
X138444257Y-73229952D01*
X121413700Y-102152380D02*
X121413700Y-102390476D01*
X121175604Y-102295238D02*
X121413700Y-102390476D01*
X121651795Y-102295238D01*
X121270842Y-102580952D02*
X121413700Y-102390476D01*
X121556557Y-102580952D01*
X121413700Y-102152380D02*
X121413700Y-102390476D01*
X121175604Y-102295238D02*
X121413700Y-102390476D01*
X121651795Y-102295238D01*
X121270842Y-102580952D02*
X121413700Y-102390476D01*
X121556557Y-102580952D01*
D11*
X135490000Y-111859420D02*
X135490000Y-112140580D01*
X136510000Y-111859420D02*
X136510000Y-112140580D01*
X122365000Y-135865000D02*
X122365000Y-132335000D01*
X128770000Y-135865000D02*
X128835000Y-135865000D01*
X122365000Y-135865000D02*
X122430000Y-135865000D01*
X122365000Y-132335000D02*
X122430000Y-132335000D01*
X122430000Y-137190000D02*
X122430000Y-135865000D01*
X128835000Y-135865000D02*
X128835000Y-132335000D01*
X128770000Y-132335000D02*
X128835000Y-132335000D01*
X162362779Y-147790000D02*
X162037221Y-147790000D01*
X162362779Y-148810000D02*
X162037221Y-148810000D01*
X131140580Y-143710000D02*
X130859420Y-143710000D01*
X131140580Y-142690000D02*
X130859420Y-142690000D01*
X122150000Y-128400000D02*
G75*
G03*
X122150000Y-128400000I-700000J0D01*
G01*
X147700000Y-137600000D02*
G75*
G03*
X147700000Y-137600000I-700000J0D01*
G01*
X152737258Y-149622500D02*
X152262742Y-149622500D01*
X152737258Y-148577500D02*
X152262742Y-148577500D01*
X153871300Y-87125600D02*
X154861900Y-87125600D01*
X153871300Y-83874400D02*
X153871300Y-82401200D01*
X154861900Y-87125600D02*
X154861900Y-83874400D01*
X140688700Y-88598800D02*
X153871300Y-88598800D01*
X153871300Y-82401200D02*
X140688700Y-82401200D01*
X140688700Y-82401200D02*
X140688700Y-88598800D01*
X153871300Y-88598800D02*
X153871300Y-87125600D01*
X154861900Y-83874400D02*
X153871300Y-83874400D01*
X159390000Y-140009420D02*
X159390000Y-140290580D01*
X160410000Y-140009420D02*
X160410000Y-140290580D01*
X135977500Y-93462742D02*
X135977500Y-93937258D01*
X137022500Y-93462742D02*
X137022500Y-93937258D01*
X120162742Y-117777500D02*
X120637258Y-117777500D01*
X120162742Y-118822500D02*
X120637258Y-118822500D01*
X118790000Y-124859420D02*
X118790000Y-125140580D01*
X119810000Y-124859420D02*
X119810000Y-125140580D01*
X126100000Y-96060000D02*
X127900000Y-96060000D01*
X126100000Y-92940000D02*
X125300000Y-92940000D01*
X126100000Y-92940000D02*
X126900000Y-92940000D01*
X126100000Y-96060000D02*
X125300000Y-96060000D01*
X125610000Y-140759420D02*
X125610000Y-141040580D01*
X124590000Y-140759420D02*
X124590000Y-141040580D01*
X120875000Y-94025000D02*
X119525000Y-94025000D01*
X120875000Y-95775000D02*
X119525000Y-95775000D01*
X156299622Y-151660000D02*
X155500378Y-151660000D01*
X156299622Y-150540000D02*
X155500378Y-150540000D01*
X133659420Y-102990000D02*
X133940580Y-102990000D01*
X133659420Y-104010000D02*
X133940580Y-104010000D01*
X162358736Y-143080000D02*
X162358736Y-142530000D01*
X162358736Y-146750000D02*
X161808736Y-146750000D01*
X162358736Y-146200000D02*
X162358736Y-146750000D01*
X158138736Y-143080000D02*
X158138736Y-142530000D01*
X158138736Y-146200000D02*
X158138736Y-146750000D01*
X158138736Y-146750000D02*
X158688736Y-146750000D01*
X158138736Y-142530000D02*
X158688736Y-142530000D01*
X114562742Y-90877500D02*
X115037258Y-90877500D01*
X114562742Y-91922500D02*
X115037258Y-91922500D01*
X124562742Y-143822500D02*
X125037258Y-143822500D01*
X124562742Y-142777500D02*
X125037258Y-142777500D01*
X119220000Y-86310000D02*
X119220000Y-85760000D01*
X115000000Y-86310000D02*
X115000000Y-85760000D01*
X119220000Y-85760000D02*
X118670000Y-85760000D01*
X115000000Y-85760000D02*
X115550000Y-85760000D01*
X119220000Y-89430000D02*
X119220000Y-89980000D01*
X115000000Y-89430000D02*
X115000000Y-89980000D01*
X119220000Y-89980000D02*
X118670000Y-89980000D01*
X141522500Y-69262742D02*
X141522500Y-69737258D01*
X140477500Y-69262742D02*
X140477500Y-69737258D01*
X143000000Y-146900000D02*
G75*
G03*
X143000000Y-146900000I-700000J0D01*
G01*
X118590000Y-92340580D02*
X118590000Y-92059420D01*
X119610000Y-92340580D02*
X119610000Y-92059420D01*
X159437258Y-150777500D02*
X158962742Y-150777500D01*
X159437258Y-151822500D02*
X158962742Y-151822500D01*
D12*
X127450000Y-149050000D02*
X127450000Y-148630000D01*
X131550000Y-144950000D02*
X131130000Y-144950000D01*
X127450000Y-149050000D02*
X127870000Y-149050000D01*
X131550000Y-149050000D02*
X131130000Y-149050000D01*
X127450000Y-144950000D02*
X127870000Y-144950000D01*
X127450000Y-144950000D02*
X127450000Y-145370000D01*
X131550000Y-149050000D02*
X131550000Y-148630000D01*
X131550000Y-144950000D02*
X131550000Y-145370000D01*
D13*
X128400000Y-149995000D02*
G75*
G03*
X128400000Y-149995000I-100000J0D01*
G01*
D11*
X134950000Y-134450000D02*
X134950000Y-133950000D01*
X134450000Y-130340000D02*
X134450000Y-130950000D01*
X138010000Y-131650000D02*
X137400000Y-131650000D01*
X138010000Y-132950000D02*
X137400000Y-132950000D01*
X134450000Y-130950000D02*
X132500000Y-130950000D01*
X132500000Y-130950000D02*
X132500000Y-134450000D01*
X132840000Y-130040000D02*
X131590000Y-130040000D01*
X131890000Y-131650000D02*
X132500000Y-131650000D01*
X131890000Y-132950000D02*
X132500000Y-132950000D01*
X132500000Y-134450000D02*
X137400000Y-134450000D01*
X138010000Y-130340000D02*
X131890000Y-130340000D01*
X131590000Y-130040000D02*
X131590000Y-131290000D01*
X137400000Y-134450000D02*
X137400000Y-130950000D01*
X133350000Y-130140000D02*
X133350000Y-130340000D01*
X135450000Y-130950000D02*
X135450000Y-130340000D01*
X131890000Y-135060000D02*
X138010000Y-135060000D01*
X135050000Y-133950000D02*
X135050000Y-134450000D01*
X134850000Y-133950000D02*
X135050000Y-133950000D01*
X131890000Y-130340000D02*
X131890000Y-135060000D01*
X133650000Y-130140000D02*
X133350000Y-130140000D01*
X137400000Y-130950000D02*
X135450000Y-130950000D01*
X133650000Y-130340000D02*
X133650000Y-130140000D01*
X134850000Y-134450000D02*
X134850000Y-133950000D01*
X138010000Y-135060000D02*
X138010000Y-130340000D01*
X133650000Y-130240000D02*
X133350000Y-130240000D01*
X128062742Y-151222500D02*
X128537258Y-151222500D01*
X128062742Y-150177500D02*
X128537258Y-150177500D01*
X159059420Y-148810000D02*
X159340580Y-148810000D01*
X159059420Y-147790000D02*
X159340580Y-147790000D01*
X125037258Y-145877500D02*
X124562742Y-145877500D01*
X125037258Y-146922500D02*
X124562742Y-146922500D01*
X135522500Y-144637258D02*
X135522500Y-144162742D01*
X134477500Y-144637258D02*
X134477500Y-144162742D01*
X137290000Y-118240580D02*
X137290000Y-117959420D01*
X138310000Y-118240580D02*
X138310000Y-117959420D01*
X148159420Y-138990000D02*
X148440580Y-138990000D01*
X148159420Y-140010000D02*
X148440580Y-140010000D01*
X144665000Y-144200000D02*
X144665000Y-142250000D01*
X153535000Y-144200000D02*
X153535000Y-146150000D01*
X144665000Y-144200000D02*
X144665000Y-147650000D01*
X153535000Y-144200000D02*
X153535000Y-142250000D01*
X131100000Y-136600000D02*
G75*
G03*
X131100000Y-136600000I-700000J0D01*
G01*
X155100378Y-144060000D02*
X155899622Y-144060000D01*
X155100378Y-142940000D02*
X155899622Y-142940000D01*
X134840580Y-146490000D02*
X134559420Y-146490000D01*
X134840580Y-147510000D02*
X134559420Y-147510000D01*
X125037258Y-144377500D02*
X124562742Y-144377500D01*
X125037258Y-145422500D02*
X124562742Y-145422500D01*
X156875000Y-139575000D02*
X156875000Y-138225000D01*
X155125000Y-139575000D02*
X155125000Y-138225000D01*
X125900000Y-149200000D02*
X125900000Y-151200000D01*
X123700000Y-149200000D02*
X123700000Y-151200000D01*
X155340580Y-141290000D02*
X155059420Y-141290000D01*
X155340580Y-142310000D02*
X155059420Y-142310000D01*
X152225800Y-79325800D02*
X152225800Y-76902512D01*
X145774200Y-72874200D02*
X145774200Y-75297488D01*
X152225800Y-75297488D02*
X152225800Y-72874200D01*
X145774200Y-76902512D02*
X145774200Y-79325800D01*
X152225800Y-72874200D02*
X145774200Y-72874200D01*
X145774200Y-79325800D02*
X152225800Y-79325800D01*
X137725800Y-98597488D02*
X137725800Y-96174200D01*
X131274200Y-100202512D02*
X131274200Y-102625800D01*
X137725800Y-96174200D02*
X131274200Y-96174200D01*
X137725800Y-102625800D02*
X137725800Y-100202512D01*
X131274200Y-96174200D02*
X131274200Y-98597488D01*
X131274200Y-102625800D02*
X137725800Y-102625800D01*
X137090000Y-137240580D02*
X137090000Y-136959420D01*
X138110000Y-137240580D02*
X138110000Y-136959420D01*
X127177500Y-69262742D02*
X127177500Y-69737258D01*
X128222500Y-69262742D02*
X128222500Y-69737258D01*
X138650000Y-150600000D02*
G75*
G03*
X138650000Y-150600000I-1200000J0D01*
G01*
X136210000Y-107640580D02*
X136210000Y-107359420D01*
X135190000Y-107640580D02*
X135190000Y-107359420D01*
X152359420Y-150190000D02*
X152640580Y-150190000D01*
X152359420Y-151210000D02*
X152640580Y-151210000D01*
X120490000Y-124859420D02*
X120490000Y-125140580D01*
X121510000Y-124859420D02*
X121510000Y-125140580D01*
X157360000Y-148100000D02*
X157360000Y-148900000D01*
X154240000Y-148100000D02*
X154240000Y-148900000D01*
X157360000Y-148100000D02*
X157360000Y-146300000D01*
X154240000Y-148100000D02*
X154240000Y-147300000D01*
X136810000Y-124559420D02*
X136810000Y-124840580D01*
X135790000Y-124559420D02*
X135790000Y-124840580D01*
X117810000Y-93659420D02*
X117810000Y-93940580D01*
X116790000Y-93659420D02*
X116790000Y-93940580D01*
X121725800Y-110674200D02*
X119302512Y-110674200D01*
X115274200Y-110674200D02*
X115274200Y-117125800D01*
X119302512Y-117125800D02*
X121725800Y-117125800D01*
X117697488Y-110674200D02*
X115274200Y-110674200D01*
X115274200Y-117125800D02*
X117697488Y-117125800D01*
X121725800Y-117125800D02*
X121725800Y-110674200D01*
X135790000Y-121540580D02*
X135790000Y-121259420D01*
X136810000Y-121540580D02*
X136810000Y-121259420D01*
X138460000Y-114400378D02*
X138460000Y-115199622D01*
X137340000Y-114400378D02*
X137340000Y-115199622D01*
X150823600Y-140225600D02*
X154176400Y-140225600D01*
X154176400Y-136974400D02*
X150823600Y-136974400D01*
X141476400Y-74374400D02*
X138123600Y-74374400D01*
X138123600Y-77625600D02*
X141476400Y-77625600D01*
X114637221Y-81990000D02*
X114962779Y-81990000D01*
X114637221Y-83010000D02*
X114962779Y-83010000D01*
X162059420Y-151810000D02*
X162340580Y-151810000D01*
X162059420Y-150790000D02*
X162340580Y-150790000D01*
X118240580Y-106210000D02*
X117959420Y-106210000D01*
X118240580Y-105190000D02*
X117959420Y-105190000D01*
X138930000Y-69315000D02*
X138930000Y-68460000D01*
X129770000Y-69315000D02*
X129770000Y-68460000D01*
X129770000Y-65340000D02*
X129770000Y-64390000D01*
X138930000Y-64390000D02*
X129770000Y-64390000D01*
X138930000Y-65340000D02*
X138930000Y-64390000D01*
X143000000Y-141500000D02*
G75*
G03*
X143000000Y-141500000I-700000J0D01*
G01*
X117959420Y-83690000D02*
X118240580Y-83690000D01*
X117959420Y-84710000D02*
X118240580Y-84710000D01*
X131990000Y-77740580D02*
X131990000Y-77459420D01*
X133010000Y-77740580D02*
X133010000Y-77459420D01*
X129659420Y-93990000D02*
X129940580Y-93990000D01*
X129659420Y-95010000D02*
X129940580Y-95010000D01*
X131100378Y-74540000D02*
X131899622Y-74540000D01*
X131100378Y-75660000D02*
X131899622Y-75660000D01*
X162340580Y-150310000D02*
X162059420Y-150310000D01*
X162340580Y-149290000D02*
X162059420Y-149290000D01*
X138310000Y-121540580D02*
X138310000Y-121259420D01*
X137290000Y-121540580D02*
X137290000Y-121259420D01*
X162377500Y-140437258D02*
X162377500Y-139962742D01*
X163422500Y-140437258D02*
X163422500Y-139962742D01*
X117774200Y-76902512D02*
X117774200Y-79325800D01*
X124225800Y-75297488D02*
X124225800Y-72874200D01*
X124225800Y-79325800D02*
X124225800Y-76902512D01*
X124225800Y-72874200D02*
X117774200Y-72874200D01*
X117774200Y-72874200D02*
X117774200Y-75297488D01*
X117774200Y-79325800D02*
X124225800Y-79325800D01*
X159340580Y-149290000D02*
X159059420Y-149290000D01*
X159340580Y-150310000D02*
X159059420Y-150310000D01*
X133977500Y-93462742D02*
X133977500Y-93937258D01*
X135022500Y-93462742D02*
X135022500Y-93937258D01*
X116600000Y-130200000D02*
G75*
G03*
X116600000Y-130200000I-700000J0D01*
G01*
X118240580Y-107490000D02*
X117959420Y-107490000D01*
X118240580Y-108510000D02*
X117959420Y-108510000D01*
X135522500Y-140962742D02*
X135522500Y-141437258D01*
X134477500Y-140962742D02*
X134477500Y-141437258D01*
X137022500Y-144637258D02*
X137022500Y-144162742D01*
X135977500Y-144637258D02*
X135977500Y-144162742D01*
X118240580Y-104710000D02*
X117959420Y-104710000D01*
X118240580Y-103690000D02*
X117959420Y-103690000D01*
X133875000Y-109325000D02*
X132525000Y-109325000D01*
X133875000Y-111075000D02*
X132525000Y-111075000D01*
X128700000Y-139900000D02*
X126700000Y-139900000D01*
X128700000Y-142100000D02*
X126700000Y-142100000D01*
X158610000Y-140340580D02*
X158610000Y-140059420D01*
X157590000Y-140340580D02*
X157590000Y-140059420D01*
X136810000Y-117959420D02*
X136810000Y-118240580D01*
X135790000Y-117959420D02*
X135790000Y-118240580D01*
X122037258Y-144377500D02*
X121562742Y-144377500D01*
X122037258Y-145422500D02*
X121562742Y-145422500D01*
X138600000Y-112000000D02*
G75*
G03*
X138600000Y-112000000I-700000J0D01*
G01*
X137710000Y-107640580D02*
X137710000Y-107359420D01*
X136690000Y-107640580D02*
X136690000Y-107359420D01*
X138310000Y-124559420D02*
X138310000Y-124840580D01*
X137290000Y-124559420D02*
X137290000Y-124840580D01*
X161922500Y-140437258D02*
X161922500Y-139962742D01*
X160877500Y-140437258D02*
X160877500Y-139962742D01*
X130527500Y-102465261D02*
X130527500Y-101972500D01*
X122272500Y-101972500D02*
X122272500Y-102465261D01*
X130527500Y-101972500D02*
X130034739Y-101972500D01*
X122765261Y-101972500D02*
X122272500Y-101972500D01*
X130527500Y-110227500D02*
X130527500Y-109734739D01*
X130034739Y-110227500D02*
X130527500Y-110227500D01*
X122272500Y-109734739D02*
X122272500Y-110227500D01*
X122272500Y-110227500D02*
X122765261Y-110227500D01*
G36*
X124190500Y-110959299D02*
G01*
X123809500Y-110959299D01*
X123809500Y-110705299D01*
X124190500Y-110705299D01*
X124190500Y-110959299D01*
G37*
D14*
X124190500Y-110959299D02*
X123809500Y-110959299D01*
X123809500Y-110705299D01*
X124190500Y-110705299D01*
X124190500Y-110959299D01*
G36*
X131259299Y-103490501D02*
G01*
X131005299Y-103490501D01*
X131005299Y-103109501D01*
X131259299Y-103109501D01*
X131259299Y-103490501D01*
G37*
X131259299Y-103490501D02*
X131005299Y-103490501D01*
X131005299Y-103109501D01*
X131259299Y-103109501D01*
X131259299Y-103490501D01*
G36*
X126590500Y-101494701D02*
G01*
X126209500Y-101494701D01*
X126209500Y-101240701D01*
X126590500Y-101240701D01*
X126590500Y-101494701D01*
G37*
X126590500Y-101494701D02*
X126209500Y-101494701D01*
X126209500Y-101240701D01*
X126590500Y-101240701D01*
X126590500Y-101494701D01*
G36*
X128190499Y-110959299D02*
G01*
X127809499Y-110959299D01*
X127809499Y-110705299D01*
X128190499Y-110705299D01*
X128190499Y-110959299D01*
G37*
X128190499Y-110959299D02*
X127809499Y-110959299D01*
X127809499Y-110705299D01*
X128190499Y-110705299D01*
X128190499Y-110959299D01*
G36*
X121794701Y-106690499D02*
G01*
X121540701Y-106690499D01*
X121540701Y-106309499D01*
X121794701Y-106309499D01*
X121794701Y-106690499D01*
G37*
X121794701Y-106690499D02*
X121540701Y-106690499D01*
X121540701Y-106309499D01*
X121794701Y-106309499D01*
X121794701Y-106690499D01*
G36*
X131259299Y-107490500D02*
G01*
X131005299Y-107490500D01*
X131005299Y-107109500D01*
X131259299Y-107109500D01*
X131259299Y-107490500D01*
G37*
X131259299Y-107490500D02*
X131005299Y-107490500D01*
X131005299Y-107109500D01*
X131259299Y-107109500D01*
X131259299Y-107490500D01*
D11*
X131100000Y-134200000D02*
G75*
G03*
X131100000Y-134200000I-700000J0D01*
G01*
X121759420Y-89390000D02*
X122040580Y-89390000D01*
X121759420Y-90410000D02*
X122040580Y-90410000D01*
X121522500Y-121562742D02*
X121522500Y-122037258D01*
X120477500Y-121562742D02*
X120477500Y-122037258D01*
X115237258Y-92477500D02*
X114762742Y-92477500D01*
X115237258Y-93522500D02*
X114762742Y-93522500D01*
X149800000Y-137600000D02*
G75*
G03*
X149800000Y-137600000I-700000J0D01*
G01*
X115274200Y-103025800D02*
X117697488Y-103025800D01*
X115274200Y-96574200D02*
X115274200Y-103025800D01*
X117697488Y-96574200D02*
X115274200Y-96574200D01*
X121725800Y-96574200D02*
X119302512Y-96574200D01*
X121725800Y-103025800D02*
X121725800Y-96574200D01*
X119302512Y-103025800D02*
X121725800Y-103025800D01*
X114659420Y-84710000D02*
X114940580Y-84710000D01*
X114659420Y-83690000D02*
X114940580Y-83690000D01*
X134559420Y-148090000D02*
X134840580Y-148090000D01*
X134559420Y-149110000D02*
X134840580Y-149110000D01*
X131400000Y-142000000D02*
X131400000Y-140000000D01*
X133600000Y-142000000D02*
X133600000Y-140000000D01*
X150150000Y-149000000D02*
X150150000Y-148700000D01*
X150150000Y-148700000D02*
X146850000Y-148700000D01*
X146850000Y-148700000D02*
X146850000Y-149000000D01*
X150150000Y-151200000D02*
X150150000Y-151500000D01*
X146850000Y-151500000D02*
X146850000Y-151200000D01*
X150150000Y-151500000D02*
X146850000Y-151500000D01*
D14*
X133550000Y-111780000D02*
X133550000Y-127980000D01*
X124450000Y-111780000D02*
X133550000Y-111780000D01*
X124682000Y-127980000D02*
X124450000Y-127980000D01*
X124450000Y-127980000D02*
X124450000Y-111780000D01*
X133550000Y-127980000D02*
X133318000Y-127980000D01*
D15*
X134453802Y-128039000D02*
G75*
G03*
X134453802Y-128039000I-119802J0D01*
G01*
D11*
X124940580Y-148510000D02*
X124659420Y-148510000D01*
X124940580Y-147490000D02*
X124659420Y-147490000D01*
X133490000Y-107640580D02*
X133490000Y-107359420D01*
X134510000Y-107640580D02*
X134510000Y-107359420D01*
X121940580Y-150190000D02*
X121659420Y-150190000D01*
X121940580Y-151210000D02*
X121659420Y-151210000D01*
X120290000Y-92340580D02*
X120290000Y-92059420D01*
X121310000Y-92340580D02*
X121310000Y-92059420D01*
X114859420Y-95010000D02*
X115140580Y-95010000D01*
X114859420Y-93990000D02*
X115140580Y-93990000D01*
X133962742Y-150177500D02*
X134437258Y-150177500D01*
X133962742Y-151222500D02*
X134437258Y-151222500D01*
X131977500Y-93462742D02*
X131977500Y-93937258D01*
X133022500Y-93462742D02*
X133022500Y-93937258D01*
X159040580Y-137290000D02*
X158759420Y-137290000D01*
X159040580Y-138310000D02*
X158759420Y-138310000D01*
X122037258Y-145877500D02*
X121562742Y-145877500D01*
X122037258Y-146922500D02*
X121562742Y-146922500D01*
X118240580Y-108990000D02*
X117959420Y-108990000D01*
X118240580Y-110010000D02*
X117959420Y-110010000D01*
X132977500Y-144162742D02*
X132977500Y-144637258D01*
X134022500Y-144162742D02*
X134022500Y-144637258D01*
X162059420Y-138410000D02*
X162340580Y-138410000D01*
X162059420Y-137390000D02*
X162340580Y-137390000D01*
X129790000Y-140940580D02*
X129790000Y-140659420D01*
X130810000Y-140940580D02*
X130810000Y-140659420D01*
X155340580Y-145710000D02*
X155059420Y-145710000D01*
X155340580Y-144690000D02*
X155059420Y-144690000D01*
X134610000Y-77459420D02*
X134610000Y-77740580D01*
X133590000Y-77459420D02*
X133590000Y-77740580D01*
X121310000Y-85140580D02*
X121310000Y-84859420D01*
X120290000Y-85140580D02*
X120290000Y-84859420D01*
%LPC*%
G36*
X110432040Y-83564864D02*
G01*
X112502900Y-85635984D01*
X112502900Y-90519644D01*
X110432040Y-92590504D01*
X110432040Y-95967684D01*
X106707890Y-95967684D01*
X102399030Y-91658834D01*
X102399030Y-84483584D01*
X106715000Y-80167874D01*
X110432040Y-80167874D01*
X110432040Y-83564864D01*
G37*
G36*
X174851056Y-140851166D02*
G01*
X174851056Y-148026416D01*
X170535086Y-152342126D01*
X166818046Y-152342126D01*
X166818046Y-148945136D01*
X164747186Y-146874016D01*
X164747186Y-141990356D01*
X166818046Y-139919496D01*
X166818046Y-136542316D01*
X170542196Y-136542316D01*
X174851056Y-140851166D01*
G37*
D16*
X136000000Y-111225000D03*
X136000000Y-112775000D03*
D17*
X123060000Y-136050000D03*
X123060000Y-132150000D03*
X124330000Y-136050000D03*
X124330000Y-132150000D03*
X125600000Y-136050000D03*
X125600000Y-132150000D03*
X126870000Y-136050000D03*
X126870000Y-132150000D03*
X128140000Y-136050000D03*
X128140000Y-132150000D03*
D18*
X162987500Y-148300000D03*
X161412500Y-148300000D03*
D19*
X131775000Y-143200000D03*
X130225000Y-143200000D03*
D20*
X121450000Y-128400000D03*
X147000000Y-137600000D03*
D21*
X153325000Y-149100000D03*
X151675000Y-149100000D03*
D22*
X142200000Y-85500000D03*
X147280000Y-85500000D03*
X152360000Y-85500000D03*
D16*
X159900000Y-139375000D03*
X159900000Y-140925000D03*
D23*
X136500000Y-92875000D03*
X136500000Y-94525000D03*
D24*
X119575000Y-118300000D03*
X121225000Y-118300000D03*
D16*
X119300000Y-124225000D03*
X119300000Y-125775000D03*
D25*
X127237500Y-95450000D03*
X127237500Y-94500000D03*
X127237500Y-93550000D03*
X124962500Y-93550000D03*
X124962500Y-95450000D03*
D16*
X125100000Y-140125000D03*
X125100000Y-141675000D03*
D26*
X118950000Y-94900000D03*
X121450000Y-94900000D03*
D27*
X156962500Y-151100000D03*
X154837500Y-151100000D03*
D28*
X133025000Y-103500000D03*
X134575000Y-103500000D03*
D29*
X161448736Y-142702500D03*
X161048736Y-142702500D03*
X160648736Y-142702500D03*
X160248736Y-142702500D03*
X159848736Y-142702500D03*
X159448736Y-142702500D03*
X159048736Y-142702500D03*
D30*
X158311236Y-143440000D03*
X158311236Y-143840000D03*
X158311236Y-144240000D03*
X158311236Y-144640000D03*
X158311236Y-145040000D03*
X158311236Y-145440000D03*
X158311236Y-145840000D03*
D29*
X159048736Y-146577500D03*
X159448736Y-146577500D03*
X159848736Y-146577500D03*
X160248736Y-146577500D03*
X160648736Y-146577500D03*
X161048736Y-146577500D03*
X161448736Y-146577500D03*
D30*
X162186236Y-145840000D03*
X162186236Y-145440000D03*
X162186236Y-145040000D03*
X162186236Y-144640000D03*
X162186236Y-144240000D03*
X162186236Y-143840000D03*
X162186236Y-143440000D03*
D31*
X160248736Y-144640000D03*
D24*
X113975000Y-91400000D03*
X115625000Y-91400000D03*
D32*
X125100000Y-80500000D03*
X125100000Y-90500000D03*
D33*
X126900000Y-88000000D03*
X126900000Y-85500000D03*
X126900000Y-83000000D03*
D24*
X123975000Y-143300000D03*
X125625000Y-143300000D03*
D34*
X115910000Y-89807500D03*
X116310000Y-89807500D03*
X116710000Y-89807500D03*
X117110000Y-89807500D03*
X117510000Y-89807500D03*
X117910000Y-89807500D03*
X118310000Y-89807500D03*
D35*
X119047500Y-89070000D03*
X119047500Y-88670000D03*
X119047500Y-88270000D03*
X119047500Y-87870000D03*
X119047500Y-87470000D03*
X119047500Y-87070000D03*
X119047500Y-86670000D03*
D34*
X118310000Y-85932500D03*
X117910000Y-85932500D03*
X117510000Y-85932500D03*
X117110000Y-85932500D03*
X116710000Y-85932500D03*
X116310000Y-85932500D03*
X115910000Y-85932500D03*
D35*
X115172500Y-86670000D03*
X115172500Y-87070000D03*
X115172500Y-87470000D03*
X115172500Y-87870000D03*
X115172500Y-88270000D03*
X115172500Y-88670000D03*
X115172500Y-89070000D03*
D31*
X117110000Y-87870000D03*
D23*
X141000000Y-68675000D03*
X141000000Y-70325000D03*
D20*
X142300000Y-146900000D03*
D36*
X119100000Y-92975000D03*
X119100000Y-91425000D03*
D21*
X160025000Y-151300000D03*
X158375000Y-151300000D03*
D37*
X128300000Y-148935000D03*
X128700000Y-148935000D03*
X129100000Y-148935000D03*
X129500000Y-148935000D03*
X129900000Y-148935000D03*
X130300000Y-148935000D03*
X130700000Y-148935000D03*
D38*
X131435000Y-148200000D03*
X131435000Y-147800000D03*
X131435000Y-147400000D03*
X131435000Y-147000000D03*
X131435000Y-146600000D03*
X131435000Y-146200000D03*
X131435000Y-145800000D03*
D37*
X130700000Y-145065000D03*
X130300000Y-145065000D03*
X129900000Y-145065000D03*
X129500000Y-145065000D03*
X129100000Y-145065000D03*
X128700000Y-145065000D03*
X128300000Y-145065000D03*
D38*
X127565000Y-145800000D03*
X127565000Y-146200000D03*
X127565000Y-146600000D03*
X127565000Y-147000000D03*
X127565000Y-147400000D03*
X127565000Y-147800000D03*
X127565000Y-148200000D03*
D31*
X129500000Y-147000000D03*
D39*
X133950000Y-132150000D03*
D40*
X135950000Y-132150000D03*
D24*
X127475000Y-150700000D03*
X129125000Y-150700000D03*
D28*
X158425000Y-148300000D03*
X159975000Y-148300000D03*
D21*
X125625000Y-146400000D03*
X123975000Y-146400000D03*
D41*
X135000000Y-145225000D03*
X135000000Y-143575000D03*
D36*
X137800000Y-118875000D03*
X137800000Y-117325000D03*
D28*
X147525000Y-139500000D03*
X149075000Y-139500000D03*
D42*
X145290000Y-146675000D03*
X146560000Y-146675000D03*
X147830000Y-146675000D03*
X149100000Y-146675000D03*
X150370000Y-146675000D03*
X151640000Y-146675000D03*
X152910000Y-146675000D03*
X152910000Y-141725000D03*
X151640000Y-141725000D03*
X150370000Y-141725000D03*
X149100000Y-141725000D03*
X147830000Y-141725000D03*
X146560000Y-141725000D03*
X145290000Y-141725000D03*
D20*
X130400000Y-136600000D03*
D43*
X154437500Y-143500000D03*
X156562500Y-143500000D03*
D19*
X135475000Y-147000000D03*
X133925000Y-147000000D03*
D21*
X125625000Y-144900000D03*
X123975000Y-144900000D03*
D44*
X156000000Y-137650000D03*
X156000000Y-140150000D03*
D45*
X124800000Y-149525000D03*
X124800000Y-150875000D03*
D19*
X155975000Y-141800000D03*
X154425000Y-141800000D03*
D46*
X146500000Y-76100000D03*
X151500000Y-76100000D03*
X132000000Y-99400000D03*
X137000000Y-99400000D03*
D36*
X137600000Y-137875000D03*
X137600000Y-136325000D03*
D23*
X127700000Y-68675000D03*
X127700000Y-70325000D03*
D47*
X137450000Y-150600000D03*
D36*
X135700000Y-108275000D03*
X135700000Y-106725000D03*
D28*
X151725000Y-150700000D03*
X153275000Y-150700000D03*
D16*
X121000000Y-124225000D03*
X121000000Y-125775000D03*
D48*
X156750000Y-146962500D03*
X155800000Y-146962500D03*
X154850000Y-146962500D03*
X154850000Y-149237500D03*
X156750000Y-149237500D03*
D16*
X136300000Y-123925000D03*
X136300000Y-125475000D03*
X117300000Y-93025000D03*
X117300000Y-94575000D03*
D46*
X118500000Y-111400000D03*
X118500000Y-116400000D03*
D36*
X136300000Y-122175000D03*
X136300000Y-120625000D03*
D49*
X137900000Y-113737500D03*
X137900000Y-115862500D03*
D50*
X153744600Y-139550001D03*
X153744600Y-138600000D03*
X153744600Y-137649999D03*
X151255400Y-137649999D03*
X151255400Y-138600000D03*
X151255400Y-139550001D03*
X138555400Y-75049999D03*
X138555400Y-76000000D03*
X138555400Y-76950001D03*
X141044600Y-76950001D03*
X141044600Y-76000000D03*
X141044600Y-75049999D03*
D51*
X114012500Y-82500000D03*
X115587500Y-82500000D03*
D28*
X161425000Y-151300000D03*
X162975000Y-151300000D03*
D19*
X118875000Y-105700000D03*
X117325000Y-105700000D03*
D52*
X135750000Y-66950000D03*
X132950000Y-66950000D03*
D53*
X131350000Y-70050000D03*
D54*
X137350000Y-70050000D03*
D55*
X137450000Y-71150000D03*
X136700000Y-71150000D03*
D56*
X136100000Y-71150000D03*
X134600000Y-71150000D03*
X133600000Y-71150000D03*
X132600000Y-71150000D03*
D55*
X132000000Y-71150000D03*
X131250000Y-71150000D03*
X131250000Y-71150000D03*
X132000000Y-71150000D03*
D56*
X133100000Y-71150000D03*
X134100000Y-71150000D03*
X135100000Y-71150000D03*
X135600000Y-71150000D03*
D55*
X136700000Y-71150000D03*
X137450000Y-71150000D03*
D57*
X130030000Y-66950000D03*
D58*
X130030000Y-70775000D03*
D57*
X138670000Y-66950000D03*
D58*
X138670000Y-70775000D03*
D20*
X142300000Y-141500000D03*
D28*
X117325000Y-84200000D03*
X118875000Y-84200000D03*
D36*
X132500000Y-78375000D03*
X132500000Y-76825000D03*
D28*
X129025000Y-94500000D03*
X130575000Y-94500000D03*
D43*
X130437500Y-75100000D03*
X132562500Y-75100000D03*
D19*
X162975000Y-149800000D03*
X161425000Y-149800000D03*
D36*
X137800000Y-122175000D03*
X137800000Y-120625000D03*
D41*
X162900000Y-141025000D03*
X162900000Y-139375000D03*
D46*
X118500000Y-76100000D03*
X123500000Y-76100000D03*
D19*
X159975000Y-149800000D03*
X158425000Y-149800000D03*
D23*
X134500000Y-92875000D03*
X134500000Y-94525000D03*
D20*
X115900000Y-130200000D03*
D19*
X118875000Y-108000000D03*
X117325000Y-108000000D03*
D23*
X135000000Y-140375000D03*
X135000000Y-142025000D03*
D41*
X136500000Y-145225000D03*
X136500000Y-143575000D03*
D19*
X118875000Y-104200000D03*
X117325000Y-104200000D03*
D26*
X131950000Y-110200000D03*
X134450000Y-110200000D03*
D59*
X128375000Y-141000000D03*
X127025000Y-141000000D03*
D36*
X158100000Y-140975000D03*
X158100000Y-139425000D03*
D16*
X136300000Y-117325000D03*
X136300000Y-118875000D03*
D21*
X122625000Y-144900000D03*
X120975000Y-144900000D03*
D20*
X137900000Y-112000000D03*
D36*
X137200000Y-108275000D03*
X137200000Y-106725000D03*
D16*
X137800000Y-123925000D03*
X137800000Y-125475000D03*
D41*
X161400000Y-141025000D03*
X161400000Y-139375000D03*
D60*
X122452700Y-102900001D03*
X122452700Y-103300001D03*
X122452700Y-103700000D03*
X122452700Y-104099999D03*
X122452700Y-104500001D03*
D61*
X122452700Y-104900000D03*
D60*
X122452700Y-105299999D03*
X122452700Y-105700001D03*
X122452700Y-106100000D03*
D61*
X122452700Y-106499999D03*
D60*
X122452700Y-106900001D03*
X122452700Y-107300000D03*
D61*
X122452700Y-107699999D03*
D60*
X122452700Y-108099999D03*
X122452700Y-108500000D03*
X122452700Y-108899999D03*
X122452700Y-109299999D03*
D62*
X123200001Y-110047300D03*
X123600001Y-110047300D03*
X124000000Y-110047300D03*
X124400001Y-110047300D03*
X124800001Y-110047300D03*
X125200000Y-110047300D03*
X125599999Y-110047300D03*
X126000001Y-110047300D03*
X126400000Y-110047300D03*
X126799999Y-110047300D03*
X127200001Y-110047300D03*
X127600000Y-110047300D03*
X127999999Y-110047300D03*
X128399999Y-110047300D03*
X128800000Y-110047300D03*
X129199999Y-110047300D03*
X129599999Y-110047300D03*
D60*
X130347300Y-109299999D03*
X130347300Y-108899999D03*
X130347300Y-108500000D03*
X130347300Y-108099999D03*
X130347300Y-107699999D03*
X130347300Y-107300000D03*
X130347300Y-106900001D03*
X130347300Y-106499999D03*
X130347300Y-106100000D03*
X130347300Y-105700001D03*
X130347300Y-105299999D03*
X130347300Y-104900000D03*
X130347300Y-104500001D03*
X130347300Y-104100001D03*
X130347300Y-103700000D03*
X130347300Y-103300001D03*
X130347300Y-102900001D03*
D62*
X129599999Y-102152700D03*
X129199999Y-102152700D03*
X128800000Y-102152700D03*
X128399999Y-102152700D03*
X127999999Y-102152700D03*
X127600000Y-102152700D03*
X127200001Y-102152700D03*
X126799999Y-102152700D03*
X126400000Y-102152700D03*
X126000001Y-102152700D03*
X125599999Y-102152700D03*
X125200000Y-102152700D03*
X124800001Y-102152700D03*
X124400001Y-102152700D03*
X124000000Y-102152700D03*
X123600001Y-102152700D03*
X123200001Y-102152700D03*
D63*
X126400000Y-106100000D03*
D20*
X130400000Y-134200000D03*
D28*
X121125000Y-89900000D03*
X122675000Y-89900000D03*
D23*
X121000000Y-120975000D03*
X121000000Y-122625000D03*
D21*
X115825000Y-93000000D03*
X114175000Y-93000000D03*
D20*
X149100000Y-137600000D03*
D46*
X118500000Y-97300000D03*
X118500000Y-102300000D03*
D28*
X114025000Y-84200000D03*
X115575000Y-84200000D03*
X133925000Y-148600000D03*
X135475000Y-148600000D03*
D45*
X132500000Y-141675000D03*
X132500000Y-140325000D03*
D64*
X148500000Y-150100000D03*
D65*
X150200000Y-150100000D03*
X146800000Y-150100000D03*
D66*
X134350000Y-126460000D03*
D67*
X134350000Y-124680000D03*
X134350000Y-122900000D03*
X134350000Y-121120000D03*
X134350000Y-119340000D03*
X134350000Y-117560000D03*
X134350000Y-115780000D03*
X134350000Y-114000000D03*
X123650000Y-113110000D03*
X123650000Y-114890000D03*
X123650000Y-116670000D03*
X123650000Y-118450000D03*
X123650000Y-120230000D03*
X123650000Y-122010000D03*
X123650000Y-123790000D03*
X123650000Y-125570000D03*
D19*
X125575000Y-148000000D03*
X124025000Y-148000000D03*
D36*
X134000000Y-108275000D03*
X134000000Y-106725000D03*
D19*
X122575000Y-150700000D03*
X121025000Y-150700000D03*
D36*
X120800000Y-92975000D03*
X120800000Y-91425000D03*
D28*
X114225000Y-94500000D03*
X115775000Y-94500000D03*
D24*
X133375000Y-150700000D03*
X135025000Y-150700000D03*
D23*
X132500000Y-92875000D03*
X132500000Y-94525000D03*
D19*
X159675000Y-137800000D03*
X158125000Y-137800000D03*
D21*
X122625000Y-146400000D03*
X120975000Y-146400000D03*
D19*
X118875000Y-109500000D03*
X117325000Y-109500000D03*
D23*
X133500000Y-143575000D03*
X133500000Y-145225000D03*
D28*
X161425000Y-137900000D03*
X162975000Y-137900000D03*
D36*
X130300000Y-141575000D03*
X130300000Y-140025000D03*
D19*
X155975000Y-145200000D03*
X154425000Y-145200000D03*
D16*
X134100000Y-76825000D03*
X134100000Y-78375000D03*
D36*
X120800000Y-85775000D03*
X120800000Y-84225000D03*
D68*
X117025000Y-125900000D03*
X117025000Y-122900000D03*
D47*
X129500000Y-97000000D03*
X123000000Y-97000000D03*
X123000000Y-92500000D03*
X129500000Y-92500000D03*
D69*
X144133257Y-146685479D03*
X144133257Y-142085479D03*
D70*
X144133257Y-150085479D03*
X144133257Y-138685479D03*
M02*
