%TF.GenerationSoftware,KiCad,Pcbnew,(6.0.4)*%
%TF.CreationDate,2022-05-12T22:03:53-04:00*%
%TF.ProjectId,Mouse V1,4d6f7573-6520-4563-912e-6b696361645f,V2.0*%
%TF.SameCoordinates,Original*%
%TF.FileFunction,Legend,Bot*%
%TF.FilePolarity,Positive*%
%FSLAX46Y46*%
G04 Gerber Fmt 4.6, Leading zero omitted, Abs format (unit mm)*
G04 Created by KiCad (PCBNEW (6.0.4)) date 2022-05-12 22:03:53*
%MOMM*%
%LPD*%
G01*
G04 APERTURE LIST*
G04 Aperture macros list*
%AMRoundRect*
0 Rectangle with rounded corners*
0 $1 Rounding radius*
0 $2 $3 $4 $5 $6 $7 $8 $9 X,Y pos of 4 corners*
0 Add a 4 corners polygon primitive as box body*
4,1,4,$2,$3,$4,$5,$6,$7,$8,$9,$2,$3,0*
0 Add four circle primitives for the rounded corners*
1,1,$1+$1,$2,$3*
1,1,$1+$1,$4,$5*
1,1,$1+$1,$6,$7*
1,1,$1+$1,$8,$9*
0 Add four rect primitives between the rounded corners*
20,1,$1+$1,$2,$3,$4,$5,0*
20,1,$1+$1,$4,$5,$6,$7,0*
20,1,$1+$1,$6,$7,$8,$9,0*
20,1,$1+$1,$8,$9,$2,$3,0*%
G04 Aperture macros list end*
%ADD10C,0.150000*%
%ADD11C,0.120000*%
%ADD12C,1.701800*%
%ADD13O,2.500000X1.500000*%
%ADD14C,1.500000*%
%ADD15RoundRect,0.250000X-0.350000X-0.625000X0.350000X-0.625000X0.350000X0.625000X-0.350000X0.625000X0*%
%ADD16O,1.200000X1.750000*%
%ADD17C,1.498600*%
%ADD18O,0.850000X0.600000*%
%ADD19C,0.600000*%
%ADD20O,1.300000X2.600000*%
%ADD21O,1.300000X2.300000*%
%ADD22C,0.800000*%
%ADD23R,1.400000X1.400000*%
%ADD24C,1.400000*%
%ADD25C,1.000000*%
%ADD26RoundRect,0.218750X-0.256250X0.218750X-0.256250X-0.218750X0.256250X-0.218750X0.256250X0.218750X0*%
%ADD27R,0.800000X1.000000*%
%ADD28C,0.900000*%
%ADD29R,1.500000X0.700000*%
%ADD30C,2.000000*%
%ADD31C,1.100000*%
%ADD32R,2.500000X1.100000*%
%ADD33O,3.500000X1.900000*%
G04 APERTURE END LIST*
D10*
X157766743Y-150550000D02*
X160766743Y-150550000D01*
X160766743Y-150550000D02*
X160766743Y-149050000D01*
X160766743Y-149050000D02*
X157766743Y-149050000D01*
X157766743Y-149050000D02*
X157766743Y-150550000D01*
X150356743Y-140090000D02*
X150356743Y-137110000D01*
X118300000Y-90700000D02*
X119900000Y-90700000D01*
X119900000Y-90700000D02*
X119900000Y-93700000D01*
X119900000Y-93700000D02*
X118300000Y-93700000D01*
X118300000Y-93700000D02*
X118300000Y-90700000D01*
X163666743Y-141650000D02*
X162166743Y-141650000D01*
X162166743Y-141650000D02*
X162166743Y-138650000D01*
X162166743Y-138650000D02*
X163666743Y-138650000D01*
X163666743Y-138650000D02*
X163666743Y-141650000D01*
X154326743Y-140350000D02*
X150706743Y-140350000D01*
X120320000Y-147120000D02*
X123280000Y-147120000D01*
X123280000Y-147120000D02*
X123280000Y-145660000D01*
X123280000Y-145660000D02*
X120320000Y-145660000D01*
X120320000Y-145660000D02*
X120320000Y-147120000D01*
X150356743Y-137110000D02*
X150706743Y-137110000D01*
X123320000Y-144060000D02*
X126280000Y-144060000D01*
X126280000Y-144060000D02*
X126280000Y-142600000D01*
X126280000Y-142600000D02*
X123320000Y-142600000D01*
X123320000Y-142600000D02*
X123320000Y-144060000D01*
X153766743Y-145950000D02*
X156766743Y-145950000D01*
X156766743Y-145950000D02*
X156766743Y-144450000D01*
X156766743Y-144450000D02*
X153766743Y-144450000D01*
X153766743Y-144450000D02*
X153766743Y-145950000D01*
X154066743Y-146050000D02*
X157466743Y-146050000D01*
X157466743Y-146050000D02*
X157466743Y-150150000D01*
X157466743Y-150150000D02*
X154066743Y-150150000D01*
X154066743Y-150150000D02*
X154066743Y-146050000D01*
X132760000Y-142900000D02*
X134240000Y-142900000D01*
X134240000Y-142900000D02*
X134240000Y-145880000D01*
X134240000Y-145880000D02*
X132760000Y-145880000D01*
X132760000Y-145880000D02*
X132760000Y-142900000D01*
X157766743Y-149050000D02*
X160766743Y-149050000D01*
X160766743Y-149050000D02*
X160766743Y-147550000D01*
X160766743Y-147550000D02*
X157766743Y-147550000D01*
X157766743Y-147550000D02*
X157766743Y-149050000D01*
X157266743Y-144350000D02*
X153766743Y-144350000D01*
X153766743Y-144350000D02*
X153766743Y-142650000D01*
X153766743Y-142650000D02*
X157266743Y-142650000D01*
X157266743Y-142650000D02*
X157266743Y-144350000D01*
X123320000Y-148760000D02*
X126280000Y-148760000D01*
X126280000Y-148760000D02*
X126280000Y-147300000D01*
X126280000Y-147300000D02*
X123320000Y-147300000D01*
X123320000Y-147300000D02*
X123320000Y-148760000D01*
X158866743Y-141650000D02*
X157366743Y-141650000D01*
X157366743Y-141650000D02*
X157366743Y-138750000D01*
X157366743Y-138750000D02*
X158866743Y-138750000D01*
X158866743Y-138750000D02*
X158866743Y-141650000D01*
X160766743Y-137150000D02*
X163666743Y-137150000D01*
X163666743Y-137150000D02*
X163666743Y-138650000D01*
X163666743Y-138650000D02*
X160766743Y-138650000D01*
X160766743Y-138650000D02*
X160766743Y-137150000D01*
X151066743Y-148350000D02*
X153966743Y-148350000D01*
X153966743Y-148350000D02*
X153966743Y-149850000D01*
X153966743Y-149850000D02*
X151066743Y-149850000D01*
X151066743Y-149850000D02*
X151066743Y-148350000D01*
X157666743Y-151950000D02*
X154166743Y-151950000D01*
X154166743Y-151950000D02*
X154166743Y-150250000D01*
X154166743Y-150250000D02*
X157666743Y-150250000D01*
X157666743Y-150250000D02*
X157666743Y-151950000D01*
X154326743Y-140080000D02*
X154326743Y-140350000D01*
X154866743Y-140950000D02*
X157166743Y-140950000D01*
X157166743Y-140950000D02*
X157166743Y-136950000D01*
X157166743Y-136950000D02*
X154866743Y-136950000D01*
X154866743Y-136950000D02*
X154866743Y-140950000D01*
X160766743Y-147550000D02*
X163666743Y-147550000D01*
X163666743Y-147550000D02*
X163666743Y-149050000D01*
X163666743Y-149050000D02*
X160766743Y-149050000D01*
X160766743Y-149050000D02*
X160766743Y-147550000D01*
X151066743Y-151450000D02*
X153966743Y-151450000D01*
X153966743Y-151450000D02*
X153966743Y-149950000D01*
X153966743Y-149950000D02*
X151066743Y-149950000D01*
X151066743Y-149950000D02*
X151066743Y-151450000D01*
X120100000Y-90700000D02*
X121600000Y-90700000D01*
X121600000Y-90700000D02*
X121600000Y-93700000D01*
X121600000Y-93700000D02*
X120100000Y-93700000D01*
X120100000Y-93700000D02*
X120100000Y-90700000D01*
X150706743Y-136840000D02*
X154326743Y-136850000D01*
X159166743Y-141650000D02*
X160666743Y-141650000D01*
X160666743Y-141650000D02*
X160666743Y-138650000D01*
X160666743Y-138650000D02*
X159166743Y-138650000D01*
X159166743Y-138650000D02*
X159166743Y-141650000D01*
X154326743Y-137120000D02*
X154676743Y-137120000D01*
X139100000Y-152100000D02*
X139100000Y-136700000D01*
X146066743Y-151750000D02*
X150966743Y-151750000D01*
X150966743Y-151750000D02*
X150966743Y-148650000D01*
X150966743Y-148650000D02*
X146066743Y-148650000D01*
X146066743Y-148650000D02*
X146066743Y-151750000D01*
X120320000Y-151460000D02*
X123280000Y-151460000D01*
X123280000Y-151460000D02*
X123280000Y-150000000D01*
X123280000Y-150000000D02*
X120320000Y-150000000D01*
X120320000Y-150000000D02*
X120320000Y-151460000D01*
X162166743Y-141650000D02*
X160666743Y-141650000D01*
X160666743Y-141650000D02*
X160666743Y-138650000D01*
X160666743Y-138650000D02*
X162166743Y-138650000D01*
X162166743Y-138650000D02*
X162166743Y-141650000D01*
X150706743Y-140350000D02*
X150706743Y-140090000D01*
X163666743Y-150550000D02*
X160766743Y-150550000D01*
X160766743Y-150550000D02*
X160766743Y-152050000D01*
X160766743Y-152050000D02*
X163666743Y-152050000D01*
X163666743Y-152050000D02*
X163666743Y-150550000D01*
X150706743Y-137110000D02*
X150706743Y-136840000D01*
X129540000Y-143930000D02*
X132500000Y-143930000D01*
X132500000Y-143930000D02*
X132500000Y-142470000D01*
X132500000Y-142470000D02*
X129540000Y-142470000D01*
X129540000Y-142470000D02*
X129540000Y-143930000D01*
X120320000Y-145660000D02*
X123280000Y-145660000D01*
X123280000Y-145660000D02*
X123280000Y-144200000D01*
X123280000Y-144200000D02*
X120320000Y-144200000D01*
X120320000Y-144200000D02*
X120320000Y-145660000D01*
X160766743Y-149050000D02*
X163666743Y-149050000D01*
X163666743Y-149050000D02*
X163666743Y-150550000D01*
X163666743Y-150550000D02*
X160766743Y-150550000D01*
X160766743Y-150550000D02*
X160766743Y-149050000D01*
X157666743Y-147250000D02*
X162866743Y-147250000D01*
X162866743Y-147250000D02*
X162866743Y-142050000D01*
X162866743Y-142050000D02*
X157666743Y-142050000D01*
X157666743Y-142050000D02*
X157666743Y-147250000D01*
X123320000Y-147120000D02*
X126280000Y-147120000D01*
X126280000Y-147120000D02*
X126280000Y-145660000D01*
X126280000Y-145660000D02*
X123320000Y-145660000D01*
X123320000Y-145660000D02*
X123320000Y-147120000D01*
X157766743Y-152050000D02*
X160766743Y-152050000D01*
X160766743Y-152050000D02*
X160766743Y-150550000D01*
X160766743Y-150550000D02*
X157766743Y-150550000D01*
X157766743Y-150550000D02*
X157766743Y-152050000D01*
X154676743Y-140080000D02*
X154326743Y-140080000D01*
X154326743Y-136850000D02*
X154326743Y-137120000D01*
X134240000Y-145880000D02*
X135770000Y-145880000D01*
X135770000Y-145880000D02*
X135770000Y-142900000D01*
X135770000Y-142900000D02*
X134240000Y-142900000D01*
X134240000Y-142900000D02*
X134240000Y-145880000D01*
X149766743Y-140150000D02*
X146866743Y-140150000D01*
X146866743Y-140150000D02*
X146866743Y-138750000D01*
X146866743Y-138750000D02*
X149766743Y-138750000D01*
X149766743Y-138750000D02*
X149766743Y-140150000D01*
X135790000Y-142900000D02*
X137230000Y-142900000D01*
X137230000Y-142900000D02*
X137230000Y-145880000D01*
X137230000Y-145880000D02*
X135790000Y-145880000D01*
X135790000Y-145880000D02*
X135790000Y-142900000D01*
X123320000Y-145660000D02*
X126280000Y-145660000D01*
X126280000Y-145660000D02*
X126280000Y-144200000D01*
X126280000Y-144200000D02*
X123320000Y-144200000D01*
X123320000Y-144200000D02*
X123320000Y-145660000D01*
X140900000Y-152100000D02*
X140900000Y-136700000D01*
X154676743Y-137120000D02*
X154676743Y-140080000D01*
X156766743Y-142550000D02*
X153766743Y-142550000D01*
X153766743Y-142550000D02*
X153766743Y-141050000D01*
X153766743Y-141050000D02*
X156766743Y-141050000D01*
X156766743Y-141050000D02*
X156766743Y-142550000D01*
X157466743Y-138550000D02*
X160366743Y-138550000D01*
X160366743Y-138550000D02*
X160366743Y-137050000D01*
X160366743Y-137050000D02*
X157466743Y-137050000D01*
X157466743Y-137050000D02*
X157466743Y-138550000D01*
X150706743Y-140090000D02*
X150356743Y-140090000D01*
D11*
X128400000Y-102200000D02*
G75*
G03*
X128400000Y-102200000I-700000J0D01*
G01*
X124900000Y-102200000D02*
G75*
G03*
X124900000Y-102200000I-700000J0D01*
G01*
X133765000Y-97800000D02*
X133765000Y-95515000D01*
X133765000Y-95515000D02*
X135235000Y-95515000D01*
X135235000Y-95515000D02*
X135235000Y-97800000D01*
X152683257Y-145600000D02*
G75*
G03*
X152683257Y-145600000I-700000J0D01*
G01*
X126900000Y-102200000D02*
G75*
G03*
X126900000Y-102200000I-700000J0D01*
G01*
X137235000Y-95515000D02*
X137235000Y-97800000D01*
X135765000Y-95515000D02*
X137235000Y-95515000D01*
X135765000Y-97800000D02*
X135765000Y-95515000D01*
X129900000Y-102200000D02*
G75*
G03*
X129900000Y-102200000I-700000J0D01*
G01*
X115625000Y-125800000D02*
X114335000Y-125800000D01*
X115625000Y-127250000D02*
X115625000Y-121550000D01*
X118475000Y-123000000D02*
X118475000Y-122800000D01*
X116635000Y-120950000D02*
X117425000Y-120950000D01*
X114335000Y-124500000D02*
X115625000Y-124500000D01*
X114335000Y-125800000D02*
X114125000Y-125600000D01*
X114125000Y-125600000D02*
X114125000Y-124700000D01*
X117425000Y-127850000D02*
X116635000Y-127850000D01*
X114335000Y-124500000D02*
X114125000Y-124700000D01*
X118475000Y-126000000D02*
X118475000Y-124300000D01*
X152683257Y-147700000D02*
G75*
G03*
X152683257Y-147700000I-700000J0D01*
G01*
X127800000Y-103700000D02*
G75*
G03*
X127800000Y-103700000I-700000J0D01*
G01*
X126300000Y-103600000D02*
G75*
G03*
X126300000Y-103600000I-700000J0D01*
G01*
X130500000Y-103600000D02*
G75*
G03*
X130500000Y-103600000I-700000J0D01*
G01*
X124000000Y-91500000D02*
X128500000Y-91500000D01*
X129750000Y-94000000D02*
X129750000Y-95500000D01*
X122750000Y-95500000D02*
X122750000Y-94000000D01*
X128500000Y-98000000D02*
X124000000Y-98000000D01*
X129200000Y-104500000D02*
G75*
G03*
X129200000Y-104500000I-700000J0D01*
G01*
X142083257Y-150530479D02*
X141033257Y-150530479D01*
X145253257Y-139985479D02*
X146008257Y-139985479D01*
X145253257Y-139985479D02*
X145253257Y-148785479D01*
X142083257Y-138240479D02*
X141033257Y-138240479D01*
X131765000Y-97800000D02*
X131765000Y-95515000D01*
X133235000Y-95515000D02*
X133235000Y-97800000D01*
X131765000Y-95515000D02*
X133235000Y-95515000D01*
X121300000Y-101600000D02*
G75*
G03*
X121300000Y-101600000I-700000J0D01*
G01*
X132000000Y-103300000D02*
G75*
G03*
X132000000Y-103300000I-700000J0D01*
G01*
X126200000Y-105100000D02*
G75*
G03*
X126200000Y-105100000I-700000J0D01*
G01*
X121300000Y-103100000D02*
G75*
G03*
X121300000Y-103100000I-700000J0D01*
G01*
X121000000Y-113300000D02*
G75*
G03*
X121000000Y-113300000I-700000J0D01*
G01*
%LPC*%
G36*
X109802880Y-95967684D02*
G01*
X106707890Y-95967684D01*
X102399030Y-91658834D01*
X102399030Y-84483584D01*
X106715000Y-80167874D01*
X109802880Y-80167874D01*
X109802880Y-95967684D01*
G37*
G36*
X174851056Y-140851166D02*
G01*
X174851056Y-148026416D01*
X170535086Y-152342126D01*
X167447206Y-152342126D01*
X167447206Y-136542316D01*
X170542196Y-136542316D01*
X174851056Y-140851166D01*
G37*
D12*
X142200000Y-85500000D03*
X147280000Y-85500000D03*
X152360000Y-85500000D03*
D13*
X125100000Y-80500000D03*
X125100000Y-90500000D03*
D14*
X126900000Y-88000000D03*
X126900000Y-85500000D03*
X126900000Y-83000000D03*
D15*
X133950000Y-132150000D03*
D16*
X135950000Y-132150000D03*
D17*
X146500000Y-76100000D03*
X151500000Y-76100000D03*
X132000000Y-99400000D03*
X137000000Y-99400000D03*
X118500000Y-111400000D03*
X118500000Y-116400000D03*
D18*
X131350000Y-70050000D03*
D19*
X137350000Y-70050000D03*
D20*
X130030000Y-66950000D03*
D21*
X130030000Y-70775000D03*
D20*
X138670000Y-66950000D03*
D21*
X138670000Y-70775000D03*
D17*
X118500000Y-76100000D03*
X123500000Y-76100000D03*
X118500000Y-97300000D03*
X118500000Y-102300000D03*
D22*
X148500000Y-150100000D03*
D23*
X134350000Y-126460000D03*
D24*
X134350000Y-124680000D03*
X134350000Y-122900000D03*
X134350000Y-121120000D03*
X134350000Y-119340000D03*
X134350000Y-117560000D03*
X134350000Y-115780000D03*
X134350000Y-114000000D03*
X123650000Y-113110000D03*
X123650000Y-114890000D03*
X123650000Y-116670000D03*
X123650000Y-118450000D03*
X123650000Y-120230000D03*
X123650000Y-122010000D03*
X123650000Y-123790000D03*
X123650000Y-125570000D03*
D25*
X127700000Y-102200000D03*
X124200000Y-102200000D03*
D26*
X134500000Y-96212500D03*
X134500000Y-97787500D03*
D25*
X151983257Y-145600000D03*
X126200000Y-102200000D03*
D26*
X136500000Y-96212500D03*
X136500000Y-97787500D03*
D25*
X129200000Y-102200000D03*
D27*
X118135000Y-128050000D03*
X115925000Y-128050000D03*
D28*
X117025000Y-125900000D03*
X117025000Y-122900000D03*
D27*
X115925000Y-120750000D03*
X118135000Y-120750000D03*
D29*
X118785000Y-126650000D03*
X118785000Y-123650000D03*
X118785000Y-122150000D03*
D25*
X151983257Y-147700000D03*
X127100000Y-103700000D03*
X125600000Y-103600000D03*
X129800000Y-103600000D03*
D30*
X129500000Y-97000000D03*
X123000000Y-97000000D03*
X123000000Y-92500000D03*
X129500000Y-92500000D03*
D25*
X128500000Y-104500000D03*
D31*
X144133257Y-146685479D03*
X144133257Y-142085479D03*
D32*
X146883257Y-140885479D03*
X146883257Y-143385479D03*
X146883257Y-145385479D03*
X146883257Y-147885479D03*
D33*
X144133257Y-150085479D03*
X144133257Y-138685479D03*
D26*
X132500000Y-96212500D03*
X132500000Y-97787500D03*
D25*
X120600000Y-101600000D03*
X131300000Y-103300000D03*
X125500000Y-105100000D03*
X120600000Y-103100000D03*
X120300000Y-113300000D03*
M02*
