%TF.GenerationSoftware,KiCad,Pcbnew,(6.0.4)*%
%TF.CreationDate,2022-05-12T22:03:53-04:00*%
%TF.ProjectId,Mouse V1,4d6f7573-6520-4563-912e-6b696361645f,V2.0*%
%TF.SameCoordinates,Original*%
%TF.FileFunction,Soldermask,Top*%
%TF.FilePolarity,Negative*%
%FSLAX46Y46*%
G04 Gerber Fmt 4.6, Leading zero omitted, Abs format (unit mm)*
G04 Created by KiCad (PCBNEW (6.0.4)) date 2022-05-12 22:03:53*
%MOMM*%
%LPD*%
G01*
G04 APERTURE LIST*
G04 Aperture macros list*
%AMRoundRect*
0 Rectangle with rounded corners*
0 $1 Rounding radius*
0 $2 $3 $4 $5 $6 $7 $8 $9 X,Y pos of 4 corners*
0 Add a 4 corners polygon primitive as box body*
4,1,4,$2,$3,$4,$5,$6,$7,$8,$9,$2,$3,0*
0 Add four circle primitives for the rounded corners*
1,1,$1+$1,$2,$3*
1,1,$1+$1,$4,$5*
1,1,$1+$1,$6,$7*
1,1,$1+$1,$8,$9*
0 Add four rect primitives between the rounded corners*
20,1,$1+$1,$2,$3,$4,$5,0*
20,1,$1+$1,$4,$5,$6,$7,0*
20,1,$1+$1,$6,$7,$8,$9,0*
20,1,$1+$1,$8,$9,$2,$3,0*%
G04 Aperture macros list end*
%ADD10RoundRect,0.225000X-0.250000X0.225000X-0.250000X-0.225000X0.250000X-0.225000X0.250000X0.225000X0*%
%ADD11R,0.740000X2.400000*%
%ADD12RoundRect,0.218750X0.218750X0.256250X-0.218750X0.256250X-0.218750X-0.256250X0.218750X-0.256250X0*%
%ADD13RoundRect,0.225000X0.225000X0.250000X-0.225000X0.250000X-0.225000X-0.250000X0.225000X-0.250000X0*%
%ADD14C,1.000000*%
%ADD15RoundRect,0.200000X0.200000X0.275000X-0.200000X0.275000X-0.200000X-0.275000X0.200000X-0.275000X0*%
%ADD16C,1.701800*%
%ADD17RoundRect,0.200000X-0.275000X0.200000X-0.275000X-0.200000X0.275000X-0.200000X0.275000X0.200000X0*%
%ADD18RoundRect,0.200000X-0.200000X-0.275000X0.200000X-0.275000X0.200000X0.275000X-0.200000X0.275000X0*%
%ADD19RoundRect,0.150000X0.512500X0.150000X-0.512500X0.150000X-0.512500X-0.150000X0.512500X-0.150000X0*%
%ADD20R,1.000000X1.800000*%
%ADD21RoundRect,0.218750X0.218750X0.381250X-0.218750X0.381250X-0.218750X-0.381250X0.218750X-0.381250X0*%
%ADD22RoundRect,0.225000X-0.225000X-0.250000X0.225000X-0.250000X0.225000X0.250000X-0.225000X0.250000X0*%
%ADD23RoundRect,0.050000X-0.050000X0.387500X-0.050000X-0.387500X0.050000X-0.387500X0.050000X0.387500X0*%
%ADD24RoundRect,0.050000X-0.387500X0.050000X-0.387500X-0.050000X0.387500X-0.050000X0.387500X0.050000X0*%
%ADD25R,2.600000X2.600000*%
%ADD26O,2.500000X1.500000*%
%ADD27C,1.500000*%
%ADD28RoundRect,0.050000X0.050000X-0.387500X0.050000X0.387500X-0.050000X0.387500X-0.050000X-0.387500X0*%
%ADD29RoundRect,0.050000X0.387500X-0.050000X0.387500X0.050000X-0.387500X0.050000X-0.387500X-0.050000X0*%
%ADD30RoundRect,0.225000X0.250000X-0.225000X0.250000X0.225000X-0.250000X0.225000X-0.250000X-0.225000X0*%
%ADD31RoundRect,0.055000X-0.055000X0.375000X-0.055000X-0.375000X0.055000X-0.375000X0.055000X0.375000X0*%
%ADD32RoundRect,0.055000X0.375000X0.055000X-0.375000X0.055000X-0.375000X-0.055000X0.375000X-0.055000X0*%
%ADD33RoundRect,0.250000X-0.350000X-0.625000X0.350000X-0.625000X0.350000X0.625000X-0.350000X0.625000X0*%
%ADD34O,1.200000X1.750000*%
%ADD35RoundRect,0.200000X0.275000X-0.200000X0.275000X0.200000X-0.275000X0.200000X-0.275000X-0.200000X0*%
%ADD36RoundRect,0.150000X0.150000X-0.825000X0.150000X0.825000X-0.150000X0.825000X-0.150000X-0.825000X0*%
%ADD37RoundRect,0.218750X-0.218750X-0.381250X0.218750X-0.381250X0.218750X0.381250X-0.218750X0.381250X0*%
%ADD38R,1.800000X1.000000*%
%ADD39R,2.000000X0.650000*%
%ADD40C,1.498600*%
%ADD41C,2.000000*%
%ADD42RoundRect,0.150000X-0.150000X0.512500X-0.150000X-0.512500X0.150000X-0.512500X0.150000X0.512500X0*%
%ADD43RoundRect,0.218750X-0.381250X0.218750X-0.381250X-0.218750X0.381250X-0.218750X0.381250X0.218750X0*%
%ADD44R,1.309599X0.558000*%
%ADD45RoundRect,0.218750X-0.218750X-0.256250X0.218750X-0.256250X0.218750X0.256250X-0.218750X0.256250X0*%
%ADD46R,1.000000X2.000000*%
%ADD47O,0.850000X0.600000*%
%ADD48C,0.600000*%
%ADD49R,0.520000X1.000000*%
%ADD50R,0.270000X1.000000*%
%ADD51O,1.300000X2.600000*%
%ADD52O,1.300000X2.300000*%
%ADD53R,0.650000X2.000000*%
%ADD54RoundRect,0.051000X0.352999X-0.051000X0.352999X0.051000X-0.352999X0.051000X-0.352999X-0.051000X0*%
%ADD55RoundRect,0.051000X-0.352999X0.051000X-0.352999X-0.051000X0.352999X-0.051000X0.352999X0.051000X0*%
%ADD56RoundRect,0.051000X-0.051000X-0.352999X0.051000X-0.352999X0.051000X0.352999X-0.051000X0.352999X0*%
%ADD57R,6.248400X6.248400*%
%ADD58C,0.800000*%
%ADD59R,0.900000X1.700000*%
%ADD60R,1.400000X1.400000*%
%ADD61C,1.400000*%
%ADD62C,0.900000*%
%ADD63C,1.100000*%
%ADD64O,3.500000X1.900000*%
G04 APERTURE END LIST*
G36*
X110432040Y-83564864D02*
G01*
X112502900Y-85635984D01*
X112502900Y-90519644D01*
X110432040Y-92590504D01*
X110432040Y-95967684D01*
X106707890Y-95967684D01*
X102399030Y-91658834D01*
X102399030Y-84483584D01*
X106715000Y-80167874D01*
X110432040Y-80167874D01*
X110432040Y-83564864D01*
G37*
G36*
X174851056Y-140851166D02*
G01*
X174851056Y-148026416D01*
X170535086Y-152342126D01*
X166818046Y-152342126D01*
X166818046Y-148945136D01*
X164747186Y-146874016D01*
X164747186Y-141990356D01*
X166818046Y-139919496D01*
X166818046Y-136542316D01*
X170542196Y-136542316D01*
X174851056Y-140851166D01*
G37*
D10*
X136000000Y-111225000D03*
X136000000Y-112775000D03*
D11*
X123060000Y-136050000D03*
X123060000Y-132150000D03*
X124330000Y-136050000D03*
X124330000Y-132150000D03*
X125600000Y-136050000D03*
X125600000Y-132150000D03*
X126870000Y-136050000D03*
X126870000Y-132150000D03*
X128140000Y-136050000D03*
X128140000Y-132150000D03*
D12*
X162987500Y-148300000D03*
X161412500Y-148300000D03*
D13*
X131775000Y-143200000D03*
X130225000Y-143200000D03*
D14*
X121450000Y-128400000D03*
X147000000Y-137600000D03*
D15*
X153325000Y-149100000D03*
X151675000Y-149100000D03*
D16*
X142200000Y-85500000D03*
X147280000Y-85500000D03*
X152360000Y-85500000D03*
D10*
X159900000Y-139375000D03*
X159900000Y-140925000D03*
D17*
X136500000Y-92875000D03*
X136500000Y-94525000D03*
D18*
X119575000Y-118300000D03*
X121225000Y-118300000D03*
D10*
X119300000Y-124225000D03*
X119300000Y-125775000D03*
D19*
X127237500Y-95450000D03*
X127237500Y-94500000D03*
X127237500Y-93550000D03*
X124962500Y-93550000D03*
X124962500Y-95450000D03*
D10*
X125100000Y-140125000D03*
X125100000Y-141675000D03*
D20*
X118950000Y-94900000D03*
X121450000Y-94900000D03*
D21*
X156962500Y-151100000D03*
X154837500Y-151100000D03*
D22*
X133025000Y-103500000D03*
X134575000Y-103500000D03*
D23*
X161448736Y-142702500D03*
X161048736Y-142702500D03*
X160648736Y-142702500D03*
X160248736Y-142702500D03*
X159848736Y-142702500D03*
X159448736Y-142702500D03*
X159048736Y-142702500D03*
D24*
X158311236Y-143440000D03*
X158311236Y-143840000D03*
X158311236Y-144240000D03*
X158311236Y-144640000D03*
X158311236Y-145040000D03*
X158311236Y-145440000D03*
X158311236Y-145840000D03*
D23*
X159048736Y-146577500D03*
X159448736Y-146577500D03*
X159848736Y-146577500D03*
X160248736Y-146577500D03*
X160648736Y-146577500D03*
X161048736Y-146577500D03*
X161448736Y-146577500D03*
D24*
X162186236Y-145840000D03*
X162186236Y-145440000D03*
X162186236Y-145040000D03*
X162186236Y-144640000D03*
X162186236Y-144240000D03*
X162186236Y-143840000D03*
X162186236Y-143440000D03*
D25*
X160248736Y-144640000D03*
D18*
X113975000Y-91400000D03*
X115625000Y-91400000D03*
D26*
X125100000Y-80500000D03*
X125100000Y-90500000D03*
D27*
X126900000Y-88000000D03*
X126900000Y-85500000D03*
X126900000Y-83000000D03*
D18*
X123975000Y-143300000D03*
X125625000Y-143300000D03*
D28*
X115910000Y-89807500D03*
X116310000Y-89807500D03*
X116710000Y-89807500D03*
X117110000Y-89807500D03*
X117510000Y-89807500D03*
X117910000Y-89807500D03*
X118310000Y-89807500D03*
D29*
X119047500Y-89070000D03*
X119047500Y-88670000D03*
X119047500Y-88270000D03*
X119047500Y-87870000D03*
X119047500Y-87470000D03*
X119047500Y-87070000D03*
X119047500Y-86670000D03*
D28*
X118310000Y-85932500D03*
X117910000Y-85932500D03*
X117510000Y-85932500D03*
X117110000Y-85932500D03*
X116710000Y-85932500D03*
X116310000Y-85932500D03*
X115910000Y-85932500D03*
D29*
X115172500Y-86670000D03*
X115172500Y-87070000D03*
X115172500Y-87470000D03*
X115172500Y-87870000D03*
X115172500Y-88270000D03*
X115172500Y-88670000D03*
X115172500Y-89070000D03*
D25*
X117110000Y-87870000D03*
D17*
X141000000Y-68675000D03*
X141000000Y-70325000D03*
D14*
X142300000Y-146900000D03*
D30*
X119100000Y-92975000D03*
X119100000Y-91425000D03*
D15*
X160025000Y-151300000D03*
X158375000Y-151300000D03*
D31*
X128300000Y-148935000D03*
X128700000Y-148935000D03*
X129100000Y-148935000D03*
X129500000Y-148935000D03*
X129900000Y-148935000D03*
X130300000Y-148935000D03*
X130700000Y-148935000D03*
D32*
X131435000Y-148200000D03*
X131435000Y-147800000D03*
X131435000Y-147400000D03*
X131435000Y-147000000D03*
X131435000Y-146600000D03*
X131435000Y-146200000D03*
X131435000Y-145800000D03*
D31*
X130700000Y-145065000D03*
X130300000Y-145065000D03*
X129900000Y-145065000D03*
X129500000Y-145065000D03*
X129100000Y-145065000D03*
X128700000Y-145065000D03*
X128300000Y-145065000D03*
D32*
X127565000Y-145800000D03*
X127565000Y-146200000D03*
X127565000Y-146600000D03*
X127565000Y-147000000D03*
X127565000Y-147400000D03*
X127565000Y-147800000D03*
X127565000Y-148200000D03*
D25*
X129500000Y-147000000D03*
D33*
X133950000Y-132150000D03*
D34*
X135950000Y-132150000D03*
D18*
X127475000Y-150700000D03*
X129125000Y-150700000D03*
D22*
X158425000Y-148300000D03*
X159975000Y-148300000D03*
D15*
X125625000Y-146400000D03*
X123975000Y-146400000D03*
D35*
X135000000Y-145225000D03*
X135000000Y-143575000D03*
D30*
X137800000Y-118875000D03*
X137800000Y-117325000D03*
D22*
X147525000Y-139500000D03*
X149075000Y-139500000D03*
D36*
X145290000Y-146675000D03*
X146560000Y-146675000D03*
X147830000Y-146675000D03*
X149100000Y-146675000D03*
X150370000Y-146675000D03*
X151640000Y-146675000D03*
X152910000Y-146675000D03*
X152910000Y-141725000D03*
X151640000Y-141725000D03*
X150370000Y-141725000D03*
X149100000Y-141725000D03*
X147830000Y-141725000D03*
X146560000Y-141725000D03*
X145290000Y-141725000D03*
D14*
X130400000Y-136600000D03*
D37*
X154437500Y-143500000D03*
X156562500Y-143500000D03*
D13*
X135475000Y-147000000D03*
X133925000Y-147000000D03*
D15*
X125625000Y-144900000D03*
X123975000Y-144900000D03*
D38*
X156000000Y-137650000D03*
X156000000Y-140150000D03*
D39*
X124800000Y-149525000D03*
X124800000Y-150875000D03*
D13*
X155975000Y-141800000D03*
X154425000Y-141800000D03*
D40*
X146500000Y-76100000D03*
X151500000Y-76100000D03*
X132000000Y-99400000D03*
X137000000Y-99400000D03*
D30*
X137600000Y-137875000D03*
X137600000Y-136325000D03*
D17*
X127700000Y-68675000D03*
X127700000Y-70325000D03*
D41*
X137450000Y-150600000D03*
D30*
X135700000Y-108275000D03*
X135700000Y-106725000D03*
D22*
X151725000Y-150700000D03*
X153275000Y-150700000D03*
D10*
X121000000Y-124225000D03*
X121000000Y-125775000D03*
D42*
X156750000Y-146962500D03*
X155800000Y-146962500D03*
X154850000Y-146962500D03*
X154850000Y-149237500D03*
X156750000Y-149237500D03*
D10*
X136300000Y-123925000D03*
X136300000Y-125475000D03*
X117300000Y-93025000D03*
X117300000Y-94575000D03*
D40*
X118500000Y-111400000D03*
X118500000Y-116400000D03*
D30*
X136300000Y-122175000D03*
X136300000Y-120625000D03*
D43*
X137900000Y-113737500D03*
X137900000Y-115862500D03*
D44*
X153744600Y-139550001D03*
X153744600Y-138600000D03*
X153744600Y-137649999D03*
X151255400Y-137649999D03*
X151255400Y-138600000D03*
X151255400Y-139550001D03*
X138555400Y-75049999D03*
X138555400Y-76000000D03*
X138555400Y-76950001D03*
X141044600Y-76950001D03*
X141044600Y-76000000D03*
X141044600Y-75049999D03*
D45*
X114012500Y-82500000D03*
X115587500Y-82500000D03*
D22*
X161425000Y-151300000D03*
X162975000Y-151300000D03*
D13*
X118875000Y-105700000D03*
X117325000Y-105700000D03*
D46*
X135750000Y-66950000D03*
X132950000Y-66950000D03*
D47*
X131350000Y-70050000D03*
D48*
X137350000Y-70050000D03*
D49*
X137450000Y-71150000D03*
X136700000Y-71150000D03*
D50*
X136100000Y-71150000D03*
X134600000Y-71150000D03*
X133600000Y-71150000D03*
X132600000Y-71150000D03*
D49*
X132000000Y-71150000D03*
X131250000Y-71150000D03*
X131250000Y-71150000D03*
X132000000Y-71150000D03*
D50*
X133100000Y-71150000D03*
X134100000Y-71150000D03*
X135100000Y-71150000D03*
X135600000Y-71150000D03*
D49*
X136700000Y-71150000D03*
X137450000Y-71150000D03*
D51*
X130030000Y-66950000D03*
D52*
X130030000Y-70775000D03*
D51*
X138670000Y-66950000D03*
D52*
X138670000Y-70775000D03*
D14*
X142300000Y-141500000D03*
D22*
X117325000Y-84200000D03*
X118875000Y-84200000D03*
D30*
X132500000Y-78375000D03*
X132500000Y-76825000D03*
D22*
X129025000Y-94500000D03*
X130575000Y-94500000D03*
D37*
X130437500Y-75100000D03*
X132562500Y-75100000D03*
D13*
X162975000Y-149800000D03*
X161425000Y-149800000D03*
D30*
X137800000Y-122175000D03*
X137800000Y-120625000D03*
D35*
X162900000Y-141025000D03*
X162900000Y-139375000D03*
D40*
X118500000Y-76100000D03*
X123500000Y-76100000D03*
D13*
X159975000Y-149800000D03*
X158425000Y-149800000D03*
D17*
X134500000Y-92875000D03*
X134500000Y-94525000D03*
D14*
X115900000Y-130200000D03*
D13*
X118875000Y-108000000D03*
X117325000Y-108000000D03*
D17*
X135000000Y-140375000D03*
X135000000Y-142025000D03*
D35*
X136500000Y-145225000D03*
X136500000Y-143575000D03*
D13*
X118875000Y-104200000D03*
X117325000Y-104200000D03*
D20*
X131950000Y-110200000D03*
X134450000Y-110200000D03*
D53*
X128375000Y-141000000D03*
X127025000Y-141000000D03*
D30*
X158100000Y-140975000D03*
X158100000Y-139425000D03*
D10*
X136300000Y-117325000D03*
X136300000Y-118875000D03*
D15*
X122625000Y-144900000D03*
X120975000Y-144900000D03*
D14*
X137900000Y-112000000D03*
D30*
X137200000Y-108275000D03*
X137200000Y-106725000D03*
D10*
X137800000Y-123925000D03*
X137800000Y-125475000D03*
D35*
X161400000Y-141025000D03*
X161400000Y-139375000D03*
D54*
X122452700Y-102900001D03*
X122452700Y-103300001D03*
X122452700Y-103700000D03*
X122452700Y-104099999D03*
X122452700Y-104500001D03*
D55*
X122452700Y-104900000D03*
D54*
X122452700Y-105299999D03*
X122452700Y-105700001D03*
X122452700Y-106100000D03*
D55*
X122452700Y-106499999D03*
D54*
X122452700Y-106900001D03*
X122452700Y-107300000D03*
D55*
X122452700Y-107699999D03*
D54*
X122452700Y-108099999D03*
X122452700Y-108500000D03*
X122452700Y-108899999D03*
X122452700Y-109299999D03*
D56*
X123200001Y-110047300D03*
X123600001Y-110047300D03*
X124000000Y-110047300D03*
X124400001Y-110047300D03*
X124800001Y-110047300D03*
X125200000Y-110047300D03*
X125599999Y-110047300D03*
X126000001Y-110047300D03*
X126400000Y-110047300D03*
X126799999Y-110047300D03*
X127200001Y-110047300D03*
X127600000Y-110047300D03*
X127999999Y-110047300D03*
X128399999Y-110047300D03*
X128800000Y-110047300D03*
X129199999Y-110047300D03*
X129599999Y-110047300D03*
D54*
X130347300Y-109299999D03*
X130347300Y-108899999D03*
X130347300Y-108500000D03*
X130347300Y-108099999D03*
X130347300Y-107699999D03*
X130347300Y-107300000D03*
X130347300Y-106900001D03*
X130347300Y-106499999D03*
X130347300Y-106100000D03*
X130347300Y-105700001D03*
X130347300Y-105299999D03*
X130347300Y-104900000D03*
X130347300Y-104500001D03*
X130347300Y-104100001D03*
X130347300Y-103700000D03*
X130347300Y-103300001D03*
X130347300Y-102900001D03*
D56*
X129599999Y-102152700D03*
X129199999Y-102152700D03*
X128800000Y-102152700D03*
X128399999Y-102152700D03*
X127999999Y-102152700D03*
X127600000Y-102152700D03*
X127200001Y-102152700D03*
X126799999Y-102152700D03*
X126400000Y-102152700D03*
X126000001Y-102152700D03*
X125599999Y-102152700D03*
X125200000Y-102152700D03*
X124800001Y-102152700D03*
X124400001Y-102152700D03*
X124000000Y-102152700D03*
X123600001Y-102152700D03*
X123200001Y-102152700D03*
D57*
X126400000Y-106100000D03*
D14*
X130400000Y-134200000D03*
D22*
X121125000Y-89900000D03*
X122675000Y-89900000D03*
D17*
X121000000Y-120975000D03*
X121000000Y-122625000D03*
D15*
X115825000Y-93000000D03*
X114175000Y-93000000D03*
D14*
X149100000Y-137600000D03*
D40*
X118500000Y-97300000D03*
X118500000Y-102300000D03*
D22*
X114025000Y-84200000D03*
X115575000Y-84200000D03*
X133925000Y-148600000D03*
X135475000Y-148600000D03*
D39*
X132500000Y-141675000D03*
X132500000Y-140325000D03*
D58*
X148500000Y-150100000D03*
D59*
X150200000Y-150100000D03*
X146800000Y-150100000D03*
D60*
X134350000Y-126460000D03*
D61*
X134350000Y-124680000D03*
X134350000Y-122900000D03*
X134350000Y-121120000D03*
X134350000Y-119340000D03*
X134350000Y-117560000D03*
X134350000Y-115780000D03*
X134350000Y-114000000D03*
X123650000Y-113110000D03*
X123650000Y-114890000D03*
X123650000Y-116670000D03*
X123650000Y-118450000D03*
X123650000Y-120230000D03*
X123650000Y-122010000D03*
X123650000Y-123790000D03*
X123650000Y-125570000D03*
D13*
X125575000Y-148000000D03*
X124025000Y-148000000D03*
D30*
X134000000Y-108275000D03*
X134000000Y-106725000D03*
D13*
X122575000Y-150700000D03*
X121025000Y-150700000D03*
D30*
X120800000Y-92975000D03*
X120800000Y-91425000D03*
D22*
X114225000Y-94500000D03*
X115775000Y-94500000D03*
D18*
X133375000Y-150700000D03*
X135025000Y-150700000D03*
D17*
X132500000Y-92875000D03*
X132500000Y-94525000D03*
D13*
X159675000Y-137800000D03*
X158125000Y-137800000D03*
D15*
X122625000Y-146400000D03*
X120975000Y-146400000D03*
D13*
X118875000Y-109500000D03*
X117325000Y-109500000D03*
D17*
X133500000Y-143575000D03*
X133500000Y-145225000D03*
D22*
X161425000Y-137900000D03*
X162975000Y-137900000D03*
D30*
X130300000Y-141575000D03*
X130300000Y-140025000D03*
D13*
X155975000Y-145200000D03*
X154425000Y-145200000D03*
D10*
X134100000Y-76825000D03*
X134100000Y-78375000D03*
D30*
X120800000Y-85775000D03*
X120800000Y-84225000D03*
D62*
X117025000Y-125900000D03*
X117025000Y-122900000D03*
D41*
X129500000Y-97000000D03*
X123000000Y-97000000D03*
X123000000Y-92500000D03*
X129500000Y-92500000D03*
D63*
X144133257Y-146685479D03*
X144133257Y-142085479D03*
D64*
X144133257Y-150085479D03*
X144133257Y-138685479D03*
M02*
